<svg xmlns="http://www.w3.org/2000/svg" xmlns:xlink="http://www.w3.org/1999/xlink" width="200" height="200" viewBox="0 0 200 200">
    <defs>
        <path id="a" d="M6 0h158.722v171.17H6z"/>
    </defs>
    <g fill="none" fill-rule="evenodd" transform="translate(14 14)">
        <path fill="#FFF" d="M150.16 62.19H.571V39.947A12.865 12.865 0 0 1 10.642 27.35v6.1a6.029 6.029 0 0 0 6.02 6.02h4.981a6.029 6.029 0 0 0 6.021-6.02v-6.43h38.79v6.43a6.029 6.029 0 0 0 6.021 6.02h4.979a6.029 6.029 0 0 0 6.02-6.02v-6.43h38.791v6.43a6.029 6.029 0 0 0 6.02 6.02h4.981a6.029 6.029 0 0 0 6.02-6.02v-6.251c6.154.99 10.874 6.32 10.874 12.75V62.19zM150.153 163.673c0 7.127-5.799 12.926-12.928 12.926H13.5c-7.126 0-12.925-5.799-12.925-12.926v-96.91h149.58v96.91z"/>
        <mask id="b" fill="#fff">
            <use xlink:href="#a"/>
        </mask>
        <path fill="#FECC66" d="M83.256 114.7h3.408a3.494 3.494 0 1 0 0-6.987l-3.408-.001a3.494 3.494 0 0 0 0 6.987zm0 29.412h3.408a3.494 3.494 0 0 0 0-6.987h-3.408a3.494 3.494 0 1 0 0 6.987zM41.743 85.307h3.408a3.494 3.494 0 1 0 0-6.987h-3.408a3.494 3.494 0 1 0 0 6.987zM160.16 52.19H10.571V29.947A12.865 12.865 0 0 1 20.642 17.35v6.1a6.029 6.029 0 0 0 6.02 6.02h4.981a6.029 6.029 0 0 0 6.021-6.02v-6.43h38.79v6.43a6.029 6.029 0 0 0 6.021 6.02h4.979a6.029 6.029 0 0 0 6.02-6.02v-6.43h38.791v6.43a6.029 6.029 0 0 0 6.02 6.02h4.981a6.029 6.029 0 0 0 6.02-6.02v-6.251c6.154.99 10.874 6.32 10.874 12.75V52.19zm-.007 101.483c0 7.127-5.799 12.926-12.928 12.926H23.5c-7.126 0-12.925-5.799-12.925-12.926v-96.91h149.58v96.91zM25.213 6.021c0-.8.65-1.45 1.45-1.45h4.98c.8 0 1.45.65 1.45 1.45v17.426c0 .8-.65 1.449-1.45 1.449h-4.98c-.8 0-1.45-.65-1.45-1.45V6.022zm55.811 0c0-.8.65-1.45 1.45-1.45h4.977c.8 0 1.45.65 1.45 1.45v17.426c0 .8-.65 1.449-1.45 1.449h-4.978c-.8 0-1.449-.65-1.449-1.45V6.022zm55.808 0c0-.8.65-1.45 1.45-1.45h4.98c.8 0 1.449.65 1.449 1.45v17.426c0 .8-.65 1.449-1.45 1.449h-4.98c-.8 0-1.449-.65-1.449-1.45V6.022zm12.448 0A6.029 6.029 0 0 0 143.26 0h-4.981a6.029 6.029 0 0 0-6.02 6.02v6.428h-38.79V6.021A6.029 6.029 0 0 0 87.45 0h-4.978a6.029 6.029 0 0 0-6.02 6.02v6.428H37.66V6.021A6.029 6.029 0 0 0 31.642 0h-4.98a6.029 6.029 0 0 0-6.021 6.02v6.675A17.416 17.416 0 0 0 6 29.947v123.726c0 9.648 7.851 17.497 17.497 17.497h123.728c9.648 0 17.497-7.851 17.497-17.497V29.947c.003-8.953-6.76-16.347-15.442-17.369V6.021zM41.743 114.699h3.408a3.494 3.494 0 1 0 0-6.987h-3.408a3.494 3.494 0 0 0 0 6.987zm0 29.413h3.408a3.494 3.494 0 0 0 0-6.987h-3.408a3.494 3.494 0 1 0 0 6.987zm83.026 0h3.408a3.494 3.494 0 0 0 0-6.987h-3.408a3.494 3.494 0 1 0 0 6.987zm0-58.805h3.408a3.494 3.494 0 1 0 0-6.987h-3.408a3.494 3.494 0 1 0 0 6.987zm0 29.392h3.408a3.494 3.494 0 1 0 0-6.987h-3.408a3.494 3.494 0 0 0 0 6.987zM83.256 85.307h3.408a3.494 3.494 0 0 0 0-6.987h-3.408a3.494 3.494 0 0 0 0 6.987z" mask="url(#b)"/>
    </g>
</svg>
