<svg xmlns="http://www.w3.org/2000/svg" xmlns:xlink="http://www.w3.org/1999/xlink" width="265" height="816" viewBox="0 0 265 816">
    <defs>
        <path id="a" d="M.339.995H94.83v79.493H.34z"/>
        <path id="c" d="M0 .018h231.747v335.4H0z"/>
    </defs>
    <g fill="none" fill-rule="evenodd">
        <g transform="translate(58 .005)">
            <mask id="b" fill="#fff">
                <use xlink:href="#a"/>
            </mask>
            <path fill="#FECC66" d="M93.283 71.388c-3.25 4.13-8.13 8-10.13 9s-61.87-5.74-73.62-7c0 0-8.63-.5-9.13-6.5s2-8.87 4.57-12c2.56-3.12 3.18-10.87 7.06-12.74.07-.87.15-2.99.44-5.78.25-2.36.64-5.2 1.29-8.19 1.44-6.62 4.16-13.94 9.39-18.16 6.44-5.2 14.231-7.27 20.68-8.18 1.7-.24 3.31-.4 4.77-.52 1.93-.14 3.61-.22 4.93-.3.91-.06 2.12 0 3.53.17 1.52.19 3.27.52 5.14 1.02 7.92 2.11 17.83 7.21 20.33 16.94 3.62 14.12 4 24.24 4.87 28.5.88 4.24 1.63 9 4.13 12.12 2.5 3.12 5 7.5 1.75 11.62" mask="url(#b)"/>
        </g>
        <path fill="#000" d="M7.906 368.022c.35 5.262.75 27.5 4 29s4 2 4.5 7.25 1.75 27 1.75 27 7.5 1.5 8 0 3.5-52.75 3.25-58 2-9.5-3-9-7.457-1.75-7.604 3.5c-.146 5.25.354 18.5-1.646 15s-2.25-11-2.25-14.25-.25-4.382-3-4.315c-2.75.065-4.199.8-4 3.815M182.906 415.772c7.037.7 2.5-19.25 2.25-33s0-21.25-4.75-21.5-5.25 3.75-5 9.25.146 24.25-.052 33c-.198 8.75-.867 11.413 7.552 12.25"/>
        <path fill="#6D6D6D" d="M14.656 749.273c-.339 6.323 1 12.666-1 18.666s-6.666 21-3.666 28c3 7 33.666 12.835 37.666 5.25 4-7.583 7.334-18.457 7.667-26.353.333-7.897 3.333-19.563 6-25.563s-45.667-18.668-46.667 0M167.99 734.939c-3.063 6.304-9 26.667 0 28.667s32 3 36 11 14.333 18.666 25 12.333c10.666-6.333 27.625 2.25 29.333-6.333 1.708-8.584-3-14.034-14-19.184s-13.333-7.159-18.333-20.321c-5-13.162-53.042-16.37-58-6.162"/>
        <path fill="#000" d="M11.031 782.773c-2.534 1.267-4 5.375-4.125 13s-1 13.5 3.25 16 11.125 2.875 21.5 3.125 15.875.25 19.5-2.125 3.625-5.25 3.5-9.25 0-18.125-3.75-17.125-4.375 3.25-15.125 3.25-15.25-3.75-17.125-4.875-4.875-3.375-7.625-2M163.031 745.148s-1 9.625-1.75 12.25-3.75 11.25.875 14 14.25 7.125 18.375 7.875 6.75.25 9.625-1.5 7.75-1.5 9-.125 1.125 11.25 11.25 15.625 20.5 8.375 31.125 7.875 19.125-6.5 21.5-9.125 2.125-15.125-3-20-9.5 2-13.125 2.375-7.625.875-11.625.875-10.5-.875-12.875 2-4 8.625-8.75 3.375-13.875-17.25-19-17.75-14.875.173-18.875-1.476c-4-1.65-6.625-3.024-6.125-9.274.5-6.25-6.625-7-6.625-7"/>
        <path fill="#6D6D6D" d="M171.793 296.272s-.14 35.5 0 43.5c.13 8-7.39 10.5-7.39 10.5s4.25 22.75 6.13 30.88c9.94 11.74 13.34 21.81 14.8 28.33.19.91.36 1.74.5 2.51.38 2.1.57 3.65.82 4.53 6.73-.72 7.22 1.33 8.13 4.6.04.13.08.26.12.4.04.12.08.27.12.45l.16.6c1.5 6.06 6.59 29.62 8.22 35.2.95 3.25-1.34 4.45-4.34 4.9-.05 0-.09.01-.13.01-1.8.27-3.84.27-5.59.29-.23 0-.47.01-.7.02-.44 0-.86.01-1.24.03v.03c.05.61.09 1.21.12 1.79.3 5.09-.19 8.87-2.99 10.55-27.88 11.88-52.13 11.13-83.56 7.63-31.43-3.5-73.82-14-86.07-20.75s-18-15-15.5-18 10-18.25 14.25-27.25 9.25-25 9.75-31 5.5-5 5.5-5l5.25-18 3.045-6.436-.415-7.934s-10.63-8.63-14.13-17.38c-.6-1.5-1.04-3.21-1.37-5.06-.66-3.74-.83-8.05-.78-12.29.06-5.9.53-11.67.65-15.65.25-8.25-.5-44.75-.5-44.75s-11.75-22-18.5-34.75-6.25-29-4-44.75c1.66-11.59 7.24-19.8 13.36-24.71a28.574 28.574 0 0 1 4.93-3.23c.57-.3 1.14-.57 1.71-.81 2.51-1.07 6.32-1.97 10.61-2.74 1.14-.2 2.31-.39 3.5-.58h.01c2.08-.33 4.22-.63 6.33-.9h.01c1.12-.14 2.23-.28 3.32-.41 1.58-.19 3.1-.37 4.56-.53h.01c2.74-.31 5.21-.58 7.16-.81.85-.1 1.6-.19 2.24-.28 7.25-1 3.5-9 4.86-14.25 1.36-5.25 11.14-10.44 11.14-10.44 14-5.2 30.25 3.69 41.5 9.19s12.5 11.75 13 18c.48 6 11.09 9.93 17.69 13.1h.01c.27.14.54.27.8.4 2.92 1.47 5.38 1.86 7.8 1.97h.01c2.97.14 5.86-.16 9.44.53 6.5 1.25 16.5 10 23.5 16.75 1.55 1.49 2.93 3.42 4.27 5.76.68 1.2 1.35 2.47 2.01 3.88v.03c3.92 8.27 7.81 20.1 14.47 34.58 10 21.75 7.05 53.5 7.05 53.5l-45.66 24.25z"/>
        <g transform="translate(0 426.005)">
            <mask id="d" fill="#fff">
                <use xlink:href="#c"/>
            </mask>
            <path fill="#000" d="M100.531.018s-2.625 36.374-8.5 51.124c-4.375-.5-52.75-8.25-73.125-14.875.375 10.75.25 49.25-1.5 61.125-1.75 11.876-6.625 29.626-6.75 46.626-.125 17 .625 27.75-2.875 39s-7 34.375-7.5 46.5-.875 26.874 3.875 31.5c4.75 4.625 10.5 10.375 6.375 16s-6.875 10.375-6.5 17.125 3.375 24.75 4.75 30.625 3.375 9.625 6.75 9.5 6-3.25 8.875-5.5 8.875-2.875 14.375-.875 13.5 5.13 16 6.378c2.5 1.246 6.75 3.246 9.25-5.129s8.5-29.375 8.5-38-7.875-21.5-8-27.875 6.75-31.374 8.25-36.124c1.5-4.75 3.125-21.375.5-33.375s-3.75-23 .75-31.75 9.625-20.25 9.625-33.375c0-13.126-3.125-42 23.5-64.626 8.375 15.25 14.5 17.876 20.25 54 5.75 36.126 7.625 43.25 10 49s3.375 10.626 3.75 17.5c.375 6.876 5.25 22.25 6.625 26s2 13.5 1.625 24.25.25 22 6 28.625 10.375 8 7 13.75-7.125 12.125-6.5 19.125 1.5 11 3.625 14.875 3.125 6.375 3 10.5 9 8.75 15.75 8.75 11.625-6 17.25-7.375 19.75-5.5 23.75-5.375 11 .625 9.75-3-5-10.375-5-18.75 2.375-16.625 4.5-20 7-13.75-2.125-19.5-20.75-11.874-20.5-31.874 2.25-56.125-2.5-59.625-9.875-4.375-9.75-25.375-2.5-50.75-3.25-57.75-1.875-32.376-1.875-32.376-11.625-.75-15.875 1.75-11 4.75-11.375 4.625-4.625-8.125-5.625-21.125-6-30-6.5-31.125c-1.875 0-5.875 1.626-11.5 4.876-5.625 3.25-17.875 8.5-37.125-8.376" mask="url(#d)"/>
        </g>
        <path fill="#000" d="M40.781 348.647s-1.5 11.375-2.625 14.375c19.125 4.875 34.375 7.25 49.75 11.5s38.125 8.25 56.25 8.25 26.375-1.625 26.375-1.625 1.375-15.875 1.25-19.625-7.375-11.25-7.375-11.25-10 11.25-19.625 12.625-26.5.25-43.125-4.625-28.75-8.125-38.75-8.75-22.125-.875-22.125-.875"/>
        <path fill="#4F4F4F" d="M121.009 191.648a3.188 3.188 0 1 0-6.377 0 3.188 3.188 0 0 0 6.377 0zm6.562 125.124c0 7.75.75 13.25 0 19s-2 12-3.5 15.5 3.75-4.75 5.126-9.25c1.375-4.5 2.325-17.625 2.099-24-.224-6.375.026-12.875 3.026-21.125 1.93-5.311-6.751 12.125-6.751 19.875zm-29.75-33.5c-1.75-6.25-4.5-6.25-4.5-6.25-1.75 5.25-5.776 13.5-2.512 19.5 3.263 6 11.522 20.25 11.522 20.25s-6.51-15.75-7.51-19.875 1-5.125 4.5-4.125 13.25 5.49 16.25 6.245c-7.25-4.245-16-9.495-17.75-15.745zm27.25-68.25a3.5 3.5 0 1 0-6.999 0 3.5 3.5 0 0 0 6.999 0zM37.216 381.94c5.667 3.832 24.667 6.166 31 6.832 6.334.668 28.834 4 28.834 4s-18.834-4.832-30.167-6c-11.333-1.166-24.333-3.166-29.667-4.832zm-.547 9.935c-.21-.034-.41-.067-.62-.103-1.091-.101-.735-.053.62.103zm39.38 4.897c-3.583-.964-32.905-4.154-39.38-4.897 30.023 4.945 40.923 8.404 47.047 9.397 6.167 1 2.667 10.5 1.667 15.5-1 5-2.833 22-.667 31.834-.166-7.834 4.834-44.334 5.002-47.166.169-2.834-9.335-3.5-13.668-4.668zm122.885 65.91c-1.841.1-3.761.2-5.591.29 1.75-.02 3.79-.02 5.59-.29zm-40.112-120.785c2.5-5.5 3.25-15.25 3.5-21.25s-1-9.375-1-9.375c-.125 5.375-1.125 25.125-2.5 30.625zm36.202 80.076l-.241-.85c-11.49-.39-28.02-.96-28.02-.96-1.88-.01-1.15.96-.95 1.97 1.63 8.08 6.29 34.22 6.74 37.97.47 3.94 1.98 5.05 18.97 4.74-.03-.58-.07-1.18-.12-1.79-2.96.1-5.44.15-6.52.05-3.67-.33-11.12 1.81-12.06-7.09-.94-8.91-3.21-30.27-5.11-32.07-1.9-1.81 18.34-1.5 23.84-1.34 1 .03 2.26.02 3.63-.03l-.16-.6zm-50.578-122.576c-.875 3.125-2.75 16.125-2.75 27s-.125 21.625-1.875 28c1.75-2.625 4.875-12.5 4.625-18.75s-1.5-16-.5-21.625.5-14.625.5-14.625zM80.55 456.272c-2 2.5-2.834 6-11.167 4.168-8.333-1.834-42-11.334-53.833-14-5.807-1.76 49 15 54.166 16.666 5.167 1.666 9.5.334 12.5-5.334 2.334-4.666.334-4-1.666-1.5zm54.897-225.5c-1.875-11-6.21-25.332-10.376-39.832-1.98-6.89 5.45 22.666 6.225 30 .776 7.333 2.942 16.166 5.109 21.666 2.166 5.5 10.333 17 9.333 10.834-1-6.167-8.416-11.667-10.291-22.667zm17.374 97c.125 5.5-.375 17.125-2 21.75 3.126-8 4.376-16.875 4.25-22.625-.124-5.75-.25-10.375 0-17 .17-4.503-2.375 12.375-2.25 17.875zm-13.5-150.75c-1.292-3.786 3.75 17.5 3.75 25.626 0 8.125-.25 16.875-2.375 22.5 4.25-10.625 5.377-19.375 5.126-25.75-.251-6.375-3.376-15-6.501-22.375zm-48 132.091c-2.536-6.767 5 26.66 8 34.66 3 8 7 12.25 10.5 14.25s6.5-4.5 1-12.75-14.5-22.818-19.5-36.16zm59.704-119.659c-1.746-12.138-4.271-19.276-6.33-22.181-2.124-3-3.295 1.228-1.374 4.75 2.034 3.724 6.618 11.436 7.704 17.431zm-19.73-18.056c-2.35-4-3.724 2-3.724 2 1.483 2.052 6.59 9.922 7.099 15.654-.197-9.712-1.142-13.857-3.374-17.654zm3.375 17.654c.01.52.02 1.043.027 1.596a9.326 9.326 0 0 0-.027-1.596zm47.777 56.909c-.688.624-1.375 2.478-1.375 2.478 2.333-1.666 6.937-4.353 11.562-4.916 4.625-.563 13.688-.75 13.688-.75s-3.438-1.063-6.75-1.188c-3.313-.125-7.188-.125-10.438.625-3.25.75-6 3.125-6.687 3.75zm-15.803-51.788c-.5-11.87-3.7-25.22-9.931-37.18h-.01c-2.42-.11-4.88-.5-7.8-1.97-.26-.13-.53-.26-.8-.4 4.49 5.51 9.51 12.06 11.34 16.03 2.93 6.32 6.74 16.6 7.2 23.52zm-112.821-42.78c7.5 5.76 7.62 7.38 14 8.26 6.37.87 8.87 1 13.25 5.24 4.37 4.26 16 19.38 18.62 27.76 2.63 8.37 4.88 14.33 4.63 23.72-.25 9.4 2.37 24.02 3 15.65.62-8.37 1.12-18 0-24.13-1.13-6.12-5.38-20.62-11.5-29.12-6.13-8.5-12.88-16.75-16-19-3.13-2.25 1.62-3.25 3.5-1.5 1.87 1.75 15.12 17 19.25 26.38 4.12 9.37 7.25 16.5 8.75 27 .27 1.835.459 2.864.61 3.257.26 5.25.435 9.965.39 12.38-.125 6.733-.095 15.483-.095 15.483s2.1 5.125 1.72 1.125c-.38-4-.033-16.625-.204-23.875-.171-7.25-1.84-24.625-1.881-32.125-.04-7.5-.323-13.5 2.13-20.375 2.455-6.875-1.962 4-1.962 4-1.958 3.625-2.007 15.626-1.583 20.059.076.78.186 2.195.317 4.017l-.002-.006v-.01c-2.56-9.05-12.41-26.35-18.94-32.31-7.25-6.62-10-10.5-14-11.12-4-.63-4.13.37-9.63-3.63-2.35-1.71-6.42-5.28-10.53-9.22-1.95.23-4.42.5-7.16.81 8.23 6.65 17.32 14.16 17.32 14.16s-2 3.25-8.5-2.38c-3.01-2.6-8.61-7.37-13.39-11.25-1.09.13-2.2.27-3.32.41 2.93 3.28 6.51 6.74 11.21 10.34zm117.91 81.05c4.17-6.84 8.5-13.84 15-21.67 5.88-7.08 9.86-13.77 9.2-26.83v-.03c-.66-1.41-1.33-2.68-2.01-3.88.62 6.02.54 12.9-2.52 17.74-5.17 8.17-15.67 20.67-18.67 25.67-3 5-5.16 15.83-1 9zm-4.52 177.16c7.67 2.01 13.89 2.6 18.62 2.39-.14-.77-.31-1.6-.5-2.51-10.31.82-20.9-.61-18.12.12zM75.57 291.773c1.75 3 9 26.25 11.75 32s-5-17.01-6.5-24.756c-1.5-7.745-1.75-19.245-2.25-25.495s-6.5 6.5-6.5 6.5c-4.25 3.5-9.25 9.712-7.25 21.356 2 11.644 5.75 29.394 17.75 42.394-10.25-20.25-12.5-34.51-12.25-44.755.25-10.245 3.5-10.245 5.25-7.245zm-15.333-75.168c4.546-1.063-17.335 1.478-24.002 9.478-6.666 8-8.04 12.19-8.81 20.357 3.645-10.334 4.333-12.667 8.958-17.605 3.37-3.599 5.354-7.895 23.854-12.23zm1.333-7.332c-2.5-4.75-16.5-13.5-21.25-16.5s-8.25-10-3.25-6.5 20.25 12.25 23.25 15.25c-5.5-8.75-21.5-24-26.5-27s-9.75-8-12.5-11-3 .75.5 5 8.25 10.75 2.75 5.75-16-16-8.25-4.75 11 15.25 13.5 18 3 4.5-3 1.75-18-5.5-20.75-9.5 0 2.25 0 2.25c4 4.25 14.75 9.25 24.5 11.75s26 10.5 31 15.5zm-11.248-48.12c3.75 8.62 18.5 46.62 20.37 51.62 1.88 5 3.88 11.38 6 12.75 2.13 1.37 4 2.32.63-2.97-3.38-5.28-17.38-40.9-20-48.4-2.42-6.9-6.29-21.86-21.05-32.2h-.01c-1.19.19-2.36.38-3.5.58 6.94 5.04 14.75 12.15 17.56 18.62zm-29.88-15.07c-1.64.84-3.3 1.91-4.93 3.23 9.22 2.43 21.16 7.32 31.27 17.31-11.52-11.78-20.57-17.61-26.34-20.54zm16.37 123.73c-.07.32-.57 2.69-1.25 5.77.7-2.63 1.15-4.72 1.25-5.77zM27.906 163.94c-3.871-.845 16.833 10.5 22 16.833 5.166 6.333 9.166 10.333 5.166 1.833s-14.166-15.833-27.166-18.666zm-3.402 149.983c-.05 4.24.12 8.55.78 12.29.36-5.53.84-10.83 1.23-13.63.87-6.31 4.18-17.87 5.87-23.81.94-3.31 2.21-8.84 3.16-13.08-1 3.72-2.48 8.49-4.22 12.83-1.88 4.69-4.04 12.3-5.53 18.88-.53 2.37-.98 4.61-1.29 6.52z"/>
        <path fill="#000" d="M52.656 229.773c-6.548 4.19-16.333 15.833-16.666 23.167-.334 7.332 5.333 20 24.833 26s32 7 39.167 6.166c7.166-.834 11.166-1.334 20.666 2.666s33.667 12.334 50.167 13.168c16.5.832 33.833.5 39-1.168 5.167-1.666 6.667-6.166 7.167-16.832.5-10.668 2.666-28.167-9.667-29.167s-27.667 2.833-27.667 2.833-2.666-14.666-11.666-16.166-42.5.666-46.334 1.333c-3.833.667-16.333-5.5-21.833-7.167-5.5-1.666-34.667-12.833-47.167-4.833M105.585 58.273c-6.048-.36-30.43-2.376-35.054 0-4.625 2.374-3.5 9.374-3.25 12.25.25 2.874 2.023 5.624-.3 6.75-2.325 1.124-2.825 5.124-2.7 10.874.125 5.75 2.625 14.25 5.25 16.125s4.375 2.25 4.5 5.875-.625 14.375-1.125 17c-.5 2.626-1.75 7.876 2.625 12.626 4.375 4.75 28.5 24.25 36.5 31.75 2.75-2.75 10.25-10.5 11.5-16.875s-1.25-19.125 1.25-25.625 13.75-24.876 17.375-31.25c3.625-6.376 4.25-14.25 3.375-15.25s-5.875-.5-5.125-3.75 8.5-16.375.5-17.375-28.417-2.716-35.321-3.126"/>
        <path fill="#D3B04F" d="M106.603 1.322c-2.51 6.58-5.08 15.2-5.65 17.62.12-2.87.5-10.61.88-17.1 1.7-.24 3.31-.4 4.77-.52M120.203 2.212c-.99 4.76-2.66 9.8-3.42 13.39 0-3.07-.94-9.26-1.72-14.41 1.52.19 3.27.52 5.14 1.02M115.783 54.103c-4.83-.5-18.5-1-26.33-1.16-7.83-.17-14.83-.34-16.67-4.34-.899-1.98-1.729-6.87-2.31-12.23.25-2.36.64-5.2 1.29-8.19 1.11 3.67 2.47 8.21 3.63 12.09 2.43 8.17 6.06 8 10.73 9.33 4.66 1.34 23.33 2.5 29.66 4.5"/>
    </g>
</svg>
