<svg xmlns="http://www.w3.org/2000/svg" xmlns:xlink="http://www.w3.org/1999/xlink" width="108" height="108" viewBox="0 0 108 108">
    <defs>
        <path id="a" d="M53.844.312c-.266 0-.53.006-.795.01l54.63 54.63c.002-.224.008-.447.01-.67v-.343a54.1 54.1 0 0 0-.912-9.68L63.741 1.224a54.152 54.152 0 0 0-9.897-.91zm-10.362 1l63.206 63.206c.559-2.863.892-5.807.977-8.813L52.295.335c-3.006.086-5.95.419-8.813.977zm63.113 41.998C102.294 22.275 85.725 5.707 64.69 1.405l41.905 41.905zM35.227 3.62l38.017 38.013v-.5l1.58-.912 1.574.912v1.824l-1.162.672 29.149 29.143a54.179 54.179 0 0 0 2.177-7.613l-63.72-63.72a53.435 53.435 0 0 0-7.615 2.181zm-7.25 3.306l73.098 73.098a53.598 53.598 0 0 0 3.098-6.697L74.57 43.722l-1.325-.765v-.56l-38.57-38.57a53.637 53.637 0 0 0-6.698 3.099zm24.291 23.917v-1.818l1.575-.912 1.578.912v1.818l-1.578.912-1.575-.912zM21.556 11.062l53.55 53.548 1.292.744v.549l20.541 20.541a54.367 54.367 0 0 0 3.865-5.926L27.482 7.197a54.444 54.444 0 0 0-5.926 3.865zm-5.66 4.9l34.272 34.267a5.352 5.352 0 0 1 3.675-1.455 5.387 5.387 0 0 1 5.388 5.384 5.356 5.356 0 0 1-1.46 3.674l34.267 34.272a53.255 53.255 0 0 0 4.564-5.226L76.398 66.673v.505l-1.575.911-1.579-.911v-1.824l1.167-.667-53.289-53.29a53.587 53.587 0 0 0-5.226 4.565zm-4.928 5.628l20.324 20.324v-.781l1.574-.912 1.58.912v1.824l-1.341.77 53.306 53.305a52.832 52.832 0 0 0 5.242-4.548L57.38 58.211a5.358 5.358 0 0 1-3.538 1.33 5.383 5.383 0 0 1-5.385-5.383 5.36 5.36 0 0 1 1.33-3.539L15.517 16.347a53.558 53.558 0 0 0-4.548 5.243zM6.79 27.967l73.244 73.244a54.393 54.393 0 0 0 5.943-3.848L31.95 43.336l-.657-.38v-.276L10.637 22.024a54.416 54.416 0 0 0-3.848 5.943zm-3.343 7.212L32.77 64.502l.097-.054 1.58.906v.825l38.375 38.375a53.853 53.853 0 0 0 6.72-3.071L6.517 28.46a53.703 53.703 0 0 0-3.072 6.72zm48.822 44.113v-1.825l1.575-.91 1.578.91v1.825l-1.578.905-1.575-.905zM1.08 43.374l63.546 63.546a53.442 53.442 0 0 0 7.636-2.154L34.445 66.95v.228l-1.579.911-1.574-.911v-1.824l.988-.57L3.234 35.738a53.462 53.462 0 0 0-2.154 7.636zM.017 52.868l55.115 55.115a53.985 53.985 0 0 0 8.85-.94L.958 44.018a53.972 53.972 0 0 0-.94 8.85zM0 54.156c0 3.498.338 6.916.975 10.228l42.64 42.641c3.313.637 6.731.975 10.23.975.176 0 .353-.005.53-.007L.007 53.626c-.002.177-.007.353-.007.53zm42.656 52.677L1.168 65.344c4.388 20.758 20.73 37.101 41.488 41.489z"/>
    </defs>
    <g fill="none" fill-rule="evenodd">
        <path fill="#CFA855" d="M107.665 54.145c0 29.73-24.101 53.831-53.832 53.831S0 83.875 0 54.145C0 24.414 24.102.312 53.833.312c29.73 0 53.832 24.102 53.832 53.833"/>
        <path fill="#6C747F" d="M76.398 42.95l-1.576.91-1.576-.91v-1.82l1.576-.91 1.576.91zM55.421 30.844l-1.576.91-1.576-.91v-1.82l1.575-.91 1.577.91zM34.443 42.95l-1.576.91-1.577-.91v-1.82l1.576-.91 1.576.91zM34.443 67.18l-1.576.91-1.577-.91v-1.82l1.576-.91 1.576.91zM55.41 79.286l-1.577.91-1.576-.91v-1.82l1.576-.91 1.576.91zM76.398 67.18l-1.576.91-1.576-.91v-1.82l1.576-.91 1.576.91z"/>
        <g>
            <mask id="b" fill="#fff">
                <use xlink:href="#a"/>
            </mask>
            <path fill="#FCCA64" d="M0 108h107.689V.312H0z" mask="url(#b)"/>
        </g>
    </g>
</svg>
