<svg xmlns="http://www.w3.org/2000/svg" xmlns:xlink="http://www.w3.org/1999/xlink" width="250" height="249" viewBox="0 0 250 249">
    <defs>
        <path id="a" d="M124.64.72c-.616 0-1.227.013-1.841.022l126.456 125.937c.008-.516.02-1.029.024-1.544v-.79a124.218 124.218 0 0 0-2.11-22.313L147.549 2.819a125.854 125.854 0 0 0-22.909-2.1zm-23.988 2.304l146.31 145.708a123.565 123.565 0 0 0 2.262-20.315L121.055.773c-6.96.197-13.774.965-20.403 2.25zm146.095 96.818c-9.956-48.491-48.309-86.687-97-96.603l97 96.603zM81.544 8.346l88.002 87.63v-1.153l3.656-2.102 3.645 2.102v4.205l-2.69 1.55 67.475 67.184a124.502 124.502 0 0 0 5.039-17.552L99.17 3.318a124.087 124.087 0 0 0-17.627 5.028zm-16.784 7.62l169.21 168.512a123.32 123.32 0 0 0 7.172-15.44l-68.529-68.247-3.067-1.763v-1.29L80.263 8.822a124.4 124.4 0 0 0-15.503 7.143zm56.231 55.136V66.91l3.645-2.102 3.654 2.102v4.19l-3.654 2.103-3.645-2.102zM49.898 25.5l123.958 123.445 2.99 1.715v1.265l47.55 47.353a125.28 125.28 0 0 0 8.946-13.662L63.617 16.591a126.084 126.084 0 0 0-13.719 8.91zM36.795 36.796l79.336 78.996a12.417 12.417 0 0 1 8.505-3.355c6.885 0 12.473 5.557 12.473 12.413 0 3.278-1.292 6.255-3.38 8.47l79.323 79.006a122.92 122.92 0 0 0 10.565-12.048l-46.77-46.578v1.164l-3.645 2.102-3.656-2.102v-4.204l2.703-1.538L48.894 26.275a123.892 123.892 0 0 0-12.099 10.521zM25.39 49.77l47.047 46.855v-1.802l3.643-2.102 3.656 2.102v4.205l-3.103 1.775 123.393 122.883c4.27-3.226 8.33-6.73 12.135-10.483l-79.335-79.009a12.432 12.432 0 0 1-8.19 3.067c-6.884 0-12.463-5.555-12.463-12.411 0-3.128 1.168-5.98 3.08-8.158L35.915 37.685A123.615 123.615 0 0 0 25.389 49.77zm-9.673 14.701l169.547 168.85a125.969 125.969 0 0 0 13.756-8.87L73.956 99.903l-1.52-.875v-.64L24.623 50.772a125.388 125.388 0 0 0-8.907 13.7zM7.977 81.098l67.876 67.598.226-.125 3.656 2.09v1.9l88.833 88.467a124.906 124.906 0 0 0 15.553-7.081L15.088 65.61a123.557 123.557 0 0 0-7.11 15.488zM120.991 182.79v-4.205l3.645-2.1 3.654 2.1v4.205l-3.654 2.088-3.645-2.088zM2.5 99.99l147.097 146.491a124.105 124.105 0 0 0 17.677-4.965l-87.54-87.178v.526l-3.655 2.102-3.643-2.102v-4.204l2.286-1.314-67.236-66.96A122.851 122.851 0 0 0 2.5 99.99zM.039 121.877L127.62 248.932c6.987-.162 13.829-.904 20.487-2.168L2.216 101.475A123.927 123.927 0 0 0 .04 121.877zM0 124.845c0 8.064.783 15.944 2.256 23.58l98.706 98.3a125.736 125.736 0 0 0 23.677 2.246c.41 0 .818-.011 1.23-.016L.015 123.624c-.003.407-.016.813-.016 1.22zM98.74 246.28L2.704 150.638C12.86 198.49 50.69 236.166 98.74 246.28z"/>
    </defs>
    <g fill="none" fill-rule="evenodd" opacity=".305">
        <path fill="#CFA855" d="M249.224 124.819c0 68.537-55.79 124.098-124.611 124.098C55.79 248.917 0 193.356 0 124.819 0 56.28 55.79.719 124.613.719c68.821 0 124.611 55.562 124.611 124.1"/>
        <path fill="#6C747F" d="M176.848 99.012l-3.648 2.098-3.65-2.097v-4.195l3.649-2.098 3.648 2.096zM128.29 71.104l-3.648 2.098-3.65-2.097v-4.196l3.647-2.099 3.65 2.097zM79.728 99.013l-3.648 2.098-3.65-2.097v-4.196l3.649-2.098 3.648 2.097zM79.728 154.869l-3.648 2.1-3.65-2.099v-4.196l3.649-2.097 3.648 2.095zM128.262 182.778l-3.648 2.098-3.65-2.097v-4.196l3.648-2.098 3.649 2.097zM176.848 154.869l-3.648 2.1-3.65-2.099v-4.196l3.649-2.097 3.648 2.095z"/>
        <g>
            <mask id="b" fill="#fff">
                <use xlink:href="#a"/>
            </mask>
            <path fill="#FCCA64" d="M0 248.971h249.28V.72H0z" mask="url(#b)"/>
        </g>
    </g>
</svg>
