<svg xmlns="http://www.w3.org/2000/svg" xmlns:xlink="http://www.w3.org/1999/xlink" width="200" height="200" viewBox="0 0 200 200">
    <defs>
        <path id="a" d="M0 0h197.826v197.83H.001z"/>
        <path id="b" d="M5 0h172.748v179.974H5z"/>
    </defs>
    <g fill="none" fill-rule="evenodd">
        <g transform="translate(7 9)">
            <path fill="#FFF" d="M154.381 132.686l-7.942 2.112c-7.272 1.938-12.252 8.796-11.846 16.306l.442 8.206a10.133 10.133 0 0 1-4.178 8.778 10.127 10.127 0 0 1-9.64 1.262l-7.67-2.958c-7.01-2.702-15.078-.086-19.164 6.228l-4.47 6.9a10.135 10.135 0 0 1-8.536 4.648c-3.466 0-6.66-1.738-8.544-4.65l-4.464-6.896c-3.004-4.644-8.156-7.29-13.464-7.29-1.912 0-3.844.344-5.704 1.06l-7.668 2.958a10.134 10.134 0 0 1-9.64-1.262 10.133 10.133 0 0 1-4.178-8.778l.442-8.206c.406-7.51-4.576-14.368-11.846-16.306l-7.942-2.112a10.145 10.145 0 0 1-7.058-6.688 10.14 10.14 0 0 1 1.78-9.558l5.182-6.38c4.744-5.836 4.744-14.312 0-20.154L3.091 83.53a10.146 10.146 0 0 1-1.78-9.562 10.142 10.142 0 0 1 7.058-6.686l7.942-2.114c7.27-1.936 12.252-8.794 11.846-16.304l-.442-8.206a10.129 10.129 0 0 1 4.178-8.778 10.134 10.134 0 0 1 9.64-1.262l7.668 2.958c7.022 2.71 15.078.09 19.166-6.228l4.468-6.9a10.138 10.138 0 0 1 8.54-4.646c3.466 0 6.658 1.736 8.542 4.648l4.464 6.896c4.086 6.316 12.138 8.94 19.168 6.23l7.668-2.958a10.137 10.137 0 0 1 9.64 1.262 10.136 10.136 0 0 1 4.178 8.778l-.442 8.206c-.406 7.51 4.576 14.368 11.846 16.304l7.942 2.114a10.138 10.138 0 0 1 7.058 6.686 10.142 10.142 0 0 1-1.782 9.562l-5.178 6.376c-4.748 5.842-4.748 14.318 0 20.156l5.178 6.378a10.135 10.135 0 0 1 1.782 9.558 10.148 10.148 0 0 1-7.058 6.688z"/>
            <mask id="c" fill="#fff">
                <use xlink:href="#b"/>
            </mask>
            <path fill="#FECC66" d="M171.439 115.998a10.148 10.148 0 0 1-7.058 6.688l-7.942 2.112c-7.272 1.938-12.252 8.796-11.846 16.306l.442 8.206a10.133 10.133 0 0 1-4.178 8.778 10.127 10.127 0 0 1-9.64 1.262l-7.67-2.958c-7.01-2.702-15.078-.086-19.164 6.228l-4.47 6.9a10.135 10.135 0 0 1-8.536 4.648c-3.466 0-6.66-1.738-8.544-4.65l-4.464-6.896c-3.004-4.644-8.156-7.29-13.464-7.29-1.912 0-3.844.344-5.704 1.06l-7.668 2.958a10.134 10.134 0 0 1-9.64-1.262 10.133 10.133 0 0 1-4.178-8.778l.442-8.206c.406-7.51-4.576-14.368-11.846-16.306l-7.942-2.112a10.145 10.145 0 0 1-7.058-6.688 10.14 10.14 0 0 1 1.78-9.558l5.182-6.38c4.744-5.836 4.744-14.312 0-20.154l-5.182-6.376a10.146 10.146 0 0 1-1.78-9.562 10.142 10.142 0 0 1 7.058-6.686l7.942-2.114c7.27-1.936 12.252-8.794 11.846-16.304l-.442-8.206a10.129 10.129 0 0 1 4.178-8.778 10.134 10.134 0 0 1 9.64-1.262l7.668 2.958c7.022 2.71 15.078.09 19.166-6.228l4.468-6.9a10.138 10.138 0 0 1 8.54-4.646h.002c3.464 0 6.656 1.736 8.54 4.648l4.464 6.896c4.086 6.316 12.138 8.94 19.168 6.23l7.668-2.958a10.137 10.137 0 0 1 9.64 1.262 10.136 10.136 0 0 1 4.178 8.778l-.442 8.206c-.406 7.51 4.576 14.368 11.846 16.304l7.942 2.114a10.138 10.138 0 0 1 7.058 6.686 10.142 10.142 0 0 1-1.782 9.562l-5.178 6.376c-4.748 5.842-4.748 14.318 0 20.156l5.178 6.378a10.135 10.135 0 0 1 1.782 9.558zm-2.456-19.596c-3.018-3.718-3.018-9.116 0-12.832l5.18-6.378a15.914 15.914 0 0 0 2.798-15.016 15.918 15.918 0 0 0-11.086-10.502l-7.942-2.114c-4.628-1.234-7.8-5.6-7.54-10.382l.442-8.206a15.918 15.918 0 0 0-6.564-13.788 15.932 15.932 0 0 0-15.144-1.982l-7.668 2.958c-4.47 1.726-9.598.054-12.204-3.966l-4.464-6.896A15.925 15.925 0 0 0 91.377 0h-.002a15.92 15.92 0 0 0-13.414 7.296l-4.468 6.9c-2.6 4.02-7.732 5.69-12.202 3.966l-7.668-2.958a15.932 15.932 0 0 0-15.144 1.982 15.923 15.923 0 0 0-6.564 13.788l.442 8.206c.258 4.782-2.912 9.148-7.54 10.382l-7.942 2.114A15.918 15.918 0 0 0 5.789 62.178a15.925 15.925 0 0 0 2.796 15.018l5.182 6.374c3.018 3.72 3.02 9.116 0 12.832l-5.182 6.378a15.918 15.918 0 0 0-2.796 15.012 15.905 15.905 0 0 0 11.086 10.504l7.942 2.116c4.628 1.234 7.8 5.6 7.54 10.38L31.915 149a15.918 15.918 0 0 0 6.564 13.788 15.913 15.913 0 0 0 15.144 1.982l7.666-2.958c4.472-1.72 9.602-.054 12.206 3.966l4.464 6.896a15.926 15.926 0 0 0 13.418 7.3 15.928 15.928 0 0 0 13.412-7.298l4.468-6.9c2.6-4.02 7.732-5.684 12.202-3.966l7.668 2.958a15.914 15.914 0 0 0 15.144-1.982 15.923 15.923 0 0 0 6.564-13.788l-.442-8.208c-.258-4.78 2.912-9.146 7.54-10.38l7.942-2.116a15.905 15.905 0 0 0 11.086-10.504 15.91 15.91 0 0 0-2.798-15.01l-5.18-6.378zm-43.624-40.4a2.9 2.9 0 0 0-4.104 0l-63.864 63.864a2.9 2.9 0 0 0 2.052 4.954c.742 0 1.486-.284 2.052-.85l63.864-63.864a2.904 2.904 0 0 0 0-4.104zm-1.982 65.984c-3.772 3.772-9.912 3.772-13.684 0a9.613 9.613 0 0 1-2.834-6.842 9.622 9.622 0 0 1 2.834-6.844 9.644 9.644 0 0 1 6.842-2.83c2.478 0 4.956.944 6.844 2.83 3.768 3.774 3.768 9.912-.002 13.686zm-17.79-17.79a15.366 15.366 0 0 0-4.536 10.948c0 4.136 1.608 8.022 4.536 10.946a15.427 15.427 0 0 0 10.946 4.526c3.962 0 7.93-1.508 10.948-4.526 6.036-6.036 6.036-15.858 0-21.894-6.036-6.036-15.858-6.036-21.894 0zM56.541 64.828a9.622 9.622 0 0 1 2.834-6.844 9.647 9.647 0 0 1 6.842-2.83c2.478 0 4.958.944 6.844 2.83 3.772 3.772 3.772 9.912 0 13.684-3.772 3.772-9.912 3.772-13.684 0a9.598 9.598 0 0 1-2.836-6.84zm20.624 10.946c6.036-6.036 6.036-15.858 0-21.894-6.036-6.036-15.858-6.036-21.894 0a15.374 15.374 0 0 0-4.536 10.948 15.37 15.37 0 0 0 4.536 10.946A15.43 15.43 0 0 0 66.217 80.3c3.964 0 7.93-1.508 10.948-4.526z" mask="url(#c)"/>
        </g>
    </g>
</svg>
