<svg xmlns="http://www.w3.org/2000/svg" xmlns:xlink="http://www.w3.org/1999/xlink" width="341" height="250" viewBox="0 0 341 250">
    <defs>
        <path id="a" d="M0 1.205h300.395v226.23H0z"/>
        <path id="c" d="M.74.144h102.334v207.104H.739z"/>
    </defs>
    <g fill="none" fill-rule="evenodd">
        <g transform="translate(0 12.766)">
            <mask id="b" fill="#fff">
                <use xlink:href="#a"/>
            </mask>
            <path fill="#FFFAED" d="M187.218 1.205c62.506 0 113.177 50.642 113.177 113.116 0 62.47-50.67 113.114-113.177 113.114-27.552 0-52.802-9.842-72.43-26.199l-1.422.774-3.088 1.68-1.202.655-1.901-.256-63.792-8.566.083-7.385-13.35-1.794.133-11.755.03-2.552 1.32-.53 3.526-1.411L0 165.378l.133-11.756.028-2.549 1.325-.53 43.943-17.597-5.767-.774.133-11.753.028-2.554 1.325-.53 31.66-12.676.009-.005 1.698-.68C79.743 46.354 128.199 1.206 187.218 1.206" mask="url(#b)"/>
        </g>
        <g transform="translate(209.669 42.702)">
            <mask id="d" fill="#fff">
                <use xlink:href="#c"/>
            </mask>
            <path fill="#FC6" d="M85.94.144c5.87 0 11.597.877 17.134 2.547a58.886 58.886 0 0 0-7.929-.546c-47.053 0-85.201 56.383-85.201 125.938 0 29.993 7.099 57.534 18.941 79.166h-8.084C8.285 185.329.739 157.009.739 126.08.74 56.53 38.885.144 85.941.144" mask="url(#d)"/>
        </g>
        <path fill="#FC6" d="M246.28 32.426c12.71 0 24.743 4.302 35.468 11.97-42.897 6.892-76.285 60.597-76.285 125.832 0 16.183 2.058 31.656 5.804 45.882l-27.257 14.657c-12.023-20.996-19.276-48.15-19.276-77.812 0-66.564 36.51-120.529 81.545-120.529"/>
        <path fill="#FC6" d="M303.651 44.977c13.343 0 25.863 5.188 36.695 14.27v134.674l-84.575 45.482c-16.265-20.195-26.605-50.474-26.605-84.327 0-60.806 33.349-110.1 74.485-110.1M231.193 32.639c-43.164 6.25-76.896 60.047-76.896 125.49 0 26.598 5.574 51.274 15.087 71.614h-8.257c-10.097-20.71-16.048-46.136-16.048-73.619 0-61.214 29.515-112.238 68.658-123.69l.332.504 17.11-.301.014.002zM116.028 132.407l-59.069-7.451v6.982l59.07 7.822zM143.655 117.13l-24.301 13.057v7.362l22.218-11.41z"/>
        <path fill="#FC6" d="M143.819 113.049l-24.057 11.98-51.836-7.023 88.542-35.365-4.463 10.493-5.705 13.718zM141.521 130.46l-61.456 33.528.346 6.618 59.025-31.138zM76.396 165.605l-59.07-7.452v6.985l59.07 7.82zM113.61 140.93l-32.34 17.156-51.837-7.026 47.913-19.716 25.17 4.287 13.573-.898zM138.891 169.054l-28.946 15.793.341 6.618 28.38-14.973zM106.56 186.322l-59.069-7.452v6.984l59.07 7.82z"/>
        <path fill="#FC6" d="M138.56 163.917l-26.982 14.314-51.837-7.023 18.428.617 61.885-32.759-1.514 14.71.424 4.103zM119.12 195.442l-59.069-7.452v6.982l59.07 7.822zM140.961 184.114l-17.315 9.653.344 6.618 16.743-8.836zM138.182 175.768L117.4 187.107l.246 4.75 20.375-10.749z"/>
        <path fill="#8A000D" d="M59.183 85.467l93.57-37.465c2.35-.94 3.783 2.024.993 3.14L60.331 88.547c-2.549 1.02-3.84-2.003-1.148-3.079M139.904 32.042l50.016-20.027c2.417-.967 3.562 2.111 1.3 3.016l-50.028 20.032c-2.161.866-3.318-2.208-1.288-3.021"/>
        <path fill="#8A000D" d="M186.07 63.126l51.346-27.864a57.409 57.409 0 0 0-4.564-.783c-17.714 2.294-33.865 12.675-46.782 28.647zM148.29 213.52l1.34 4.658c-2.72-.656-5.802-2.273-8.021-3.472a115.332 115.332 0 0 1-17.416-12.097l-3.088 1.679-1.205.656-1.898-.255-63.793-8.567.086-7.387-13.352-1.791.13-11.756.03-2.551 1.321-.53 3.528-1.412-35.128-4.718.134-11.756.03-2.551 1.322-.53 43.943-17.595-5.767-.774.136-11.755.028-2.554 1.322-.527 31.67-12.682C88.477 46.324 137.845 0 198.057 0c35.748 0 67.673 16.331 88.732 41.931a60.777 60.777 0 0 1 5.235-.235c9.663 0 18.962 2.287 27.66 6.51 1.94.937.954 4.074-1.36 2.954a63.275 63.275 0 0 0-9.504-3.707l-60.75 32.966c-7.058 10.137-12.938 22.072-17.307 35.313l95.764-51.964c2.493-1.354 3.772 1.693 1.72 2.802l-98.894 53.666c-2.732 9.193-4.75 18.961-5.949 29.15l108.989-59.14c1.845-1.023 3.546 2.067 1.295 3.034l-110.705 60.074a187.159 187.159 0 0 0-.85 17.904c0 2.814.062 5.61.184 8.38L334.615 118.7c2.716-1.474 3.652 1.812 1.82 2.75l-113.924 61.82a181.9 181.9 0 0 0 3.11 23.927h.568l103.134-55.966c2.244-1.14 3.391 1.958 1.866 2.724l-104.802 56.871c1.732 7.807 3.96 15.275 6.63 22.326l88.516-48.034c2.184-1.31 3.605 1.94 1.617 2.86l-88.925 48.255a144.042 144.042 0 0 0 4.276 9.563c1.256 2.494-2.248 2.982-2.896 1.446a145.772 145.772 0 0 1-4.656-10.457h-11.504a143.044 143.044 0 0 0 4.276 9.465c.88 2.213-2.26 2.966-2.92 1.414-6.446-12.947-11.294-27.716-14.123-43.684l-7.786 4.224-7.333 3.981-24.055 13.052a144.042 144.042 0 0 0 4.277 9.563c1.255 2.497-2.25 2.982-2.897 1.446a145.772 145.772 0 0 1-4.656-10.456l-1.401-3.632c-2.622-7.07-4.81-14.535-6.509-22.325H144.66a166.04 166.04 0 0 0 3.375 12.806c.101.313.187.608.256.882zM87.059 103.887l71.76-28.732c1.869-3.15 3.84-6.167 5.905-9.038v-.311h.228c15.776-21.768 37.003-35.105 60.35-35.105 9.666 0 18.965 2.286 27.665 6.507 1.936.94.952 4.076-1.361 2.955a63.51 63.51 0 0 0-9.505-3.706l-60.767 32.976c-7.05 10.132-12.923 22.067-17.287 35.303l54.196-29.408c2.493-1.354 3.772 1.692 1.721 2.802l-57.332 31.113c-2.732 9.192-4.75 18.96-5.949 29.15l25.564-13.871 23.86-12.949c1.844-1.02 3.544 2.068 1.298 3.033l-25.419 13.793-25.722 13.957a188.668 188.668 0 0 0-.668 26.286l25.206-13.676 19.85-10.772c2.716-1.474 3.649 1.812 1.82 2.75l-21.451 11.64-25.23 13.69a181.124 181.124 0 0 0 3.113 23.928h.565l27.97-15.178 16.406-8.902c-.002-.288-.005-.576-.005-.864 0-37.083 10.608-70.522 27.605-94.139v-.32h.23c13.691-18.89 31.488-31.43 51.215-34.414-20.455-23.928-50.871-39.099-84.83-39.099-57.927 0-105.531 44.14-111 100.6zm69.168-24.156l-97.521 39.047 10.667 1.419 36.81 4.896h.002l8.892 1.183 28.733-15.599c3.162-11.193 7.36-21.595 12.417-30.946zm-13.587 35.32l-25.568 13.878.31 8.228 4.74-2.538 18.38-10a176.545 176.545 0 0 1 2.138-9.569zm-2.894 13.717l-22.363 12.17-1.203.656h-.002l-.74-.099-1.129.61-2.594 1.412-5.965 3.235h.002l-28.342 15.385.33 8.258 39.115-21.287 21.645-11.78c.35-2.888.767-5.744 1.246-8.56zm-1.689 12.54l-20.163 10.973-28.505 15.514h.002l-12.873 7.007-3.465-.467h.002l-20.485-2.75-3.412 1.366 7.094.944h-.003l41.487 5.517 7.795 1.034 31.614-17.158a188.849 188.849 0 0 1 .147-11.133l.185-3.613c.15-2.432.343-4.845.58-7.233zm-.82 25.667l-29.71 16.126.33 8.26 17.733-9.65 12.103-6.589c-.207-2.692-.362-5.409-.456-8.147zm.77 11.719l-19.92 10.839.713.094 19.253-10.452-.047-.481zm.433 4.009l-17.645 9.577.332 8.26 18.412-10.022c-.42-2.576-.786-5.18-1.1-7.815zm1.69 11.233l-12.828 6.982a111.937 111.937 0 0 0 17.315 11.693 172.25 172.25 0 0 1-4.486-18.675zm-22.261 7.421l-.343-8.586-4.33-.576-5.359 2.915-1.205.656-1.898-.255-47.16-6.333-.044 4.076 60.339 8.103zm-54.387-23.19l-19.124-2.543-.097 8.451 7.85 1.055 52.491 7.049-.345-8.59-34.142-4.538-6.633-.885zm14.859-53.464l-24.437-3.249-.097 8.451 3.984.535 36.31 4.875 20.045 2.694-.341-8.59-28.83-3.834-6.634-.882zm-15.47 9.732l-43.83 17.55 41.029 5.457h-.003l15.348 2.04 21.063-11.433h-.002l13.442-7.295-47.047-6.32zm11.613 36.777l-.33-8.269-.011-.318-6.03-.801h-.002l-53.87-7.164-.096 8.451 38.005 5.103 6.618.889 15.716 2.11zm144.547 8.428H207.31a190.52 190.52 0 0 1 .662-26.283h11.709a191.888 191.888 0 0 0-.652 26.283zm-11.525 3.63h11.716a183.967 183.967 0 0 0 3.067 23.927h-11.67a181.124 181.124 0 0 1-3.113-23.928zm12.555-33.547h-11.705c1.191-10.307 3.224-20.19 5.988-29.482h11.608c-2.72 9.314-4.718 19.193-5.891 29.482zm6.995-33.114H215.47c4.392-13.586 10.37-25.82 17.58-36.176h11.099c-7.012 10.473-12.818 22.696-17.094 36.176zm19.623-39.81h-10.994c13.686-18.065 31.323-29.657 50.742-31.536-15.145 5.324-28.769 16.389-39.748 31.536zM211.38 210.83h11.661c1.698 7.788 3.885 15.255 6.51 22.325h-11.537c-2.67-7.051-4.901-14.519-6.634-22.325zm41.413-136.71l51.344-27.861a59.47 59.47 0 0 0-4.56-.785c-17.713 2.293-33.867 12.676-46.784 28.646zm-46.689 126.435a187.767 187.767 0 0 1-2.21-24.725l-16.407 8.905-27.821 15.097c1.733 7.806 3.96 15.276 6.633 22.325l24.193-13.13 7.186-3.899 8.39-4.552.036-.021zm-62.21-4.352h11.673a183.57 183.57 0 0 1-3.067-23.928h-11.714a181.128 181.128 0 0 0 3.109 23.928zm-3.303-27.56h11.718a190.38 190.38 0 0 1-.182-8.382c0-6.072.283-12.05.834-17.899H141.26a188.607 188.607 0 0 0-.668 26.281zm1.05-29.912h11.7c1.175-10.29 3.168-20.17 5.887-29.485h-11.605c-2.76 9.294-4.793 19.175-5.982 29.485zm7.106-33.116h11.587c4.276-13.48 10.08-25.701 17.092-36.179h-11.097c-7.21 10.358-13.193 22.59-17.582 36.179zm20.218-39.808h10.993c10.974-15.145 24.589-26.208 39.722-31.539-19.41 1.891-37.036 13.476-50.715 31.539z"/>
    </g>
</svg>
