<svg xmlns="http://www.w3.org/2000/svg" xmlns:xlink="http://www.w3.org/1999/xlink" width="295" height="247" viewBox="0 0 295 247">
    <defs>
        <path id="a" d="M0 2.012h219.26v193.915H0z"/>
        <path id="c" d="M.779 1.007h228.604v230.717H.78z"/>
    </defs>
    <g fill="none" fill-rule="evenodd">
        <path fill="#FFFAED" d="M173.853 19.579c5.855 0 11.611.442 17.228 1.3l-62.784 33.913 2.141 101.988 99.415 13.59 55.534-31.412.051-27.023a114.527 114.527 0 0 1 2.007 21.35c0 62.798-50.856 113.708-113.592 113.708-62.738 0-113.595-50.91-113.595-113.708 0-62.799 50.857-113.706 113.595-113.706"/>
        <path fill="#8A000D" d="M287.85 35.159L192.804 22.17l-57.637 31.25 95.041 12.99L287.85 35.16zm3.57 1.819l-59.25 32.125v96.919l59.25-32.125V36.978zM131.597 56.263v97.345l97.275 13.294V69.559l-97.275-13.296zm161.16-23.764l1.96.268v103.098l-62.548 33.912-1.336.726-1.961-.268-100.575-13.748V53.39l1.339-.727 62.548-33.912L292.757 32.5z"/>
        <path fill="#FFD169" d="M240.556 75.668l43.658-23.472 1.015-.547v3.255l-1.015.549-43.658 23.47-1.01.546v-3.257l1.01-.544zm-1.01 73.407l.888-.479 43.658-23.472 1.137-.611v3.254l-1.137.611-43.658 23.47-.888.482v-3.255z"/>
        <path fill="#8A000D" d="M265.757 85.745c-2.329 1.79-4.454 3.47-6.692 4.956-.072.049-.114.123-.114.274v12.032l-2.29 1.231v-28.53c0-.685.17-1.375.51-2.046.344-.669.763-1.132 1.246-1.391l7.939-4.269c.483-.259.902-.245 1.244.054.342.303.511.812.511 1.497v28.53l-2.292 1.232V85.794c0-.056-.018-.081-.062-.049zm6-4.245c2.447-1.507 4.598-2.21 6.085-2.368.516-.058.798 0 1.371-.333.974-.568 1.651-1.771 1.665-3.57V62.688c0-.686-.168-1.195-.51-1.496-.34-.3-.764-.315-1.245-.055l-7.936 4.268c-.484.26-.907.725-1.247 1.394a4.465 4.465 0 0 0-.51 2.044v28.53l2.289-1.23V81.598c0-.03 0-.07.039-.097zm-3.646 30.847v-10.095c0-.687-.171-1.196-.511-1.497-.342-.301-.76-.315-1.244-.056l-7.939 4.269c-.483.259-.902.724-1.246 1.393a4.49 4.49 0 0 0-.51 2.044v28.53l2.29-1.229v-12.275c0-.088.06-.181.114-.223 2.3-1.567 4.317-3.113 6.754-5.004v13.808l2.292-1.232v-18.433zm-9.16 4.924v-9.227c0-.02.003-.079.01-.102a.215.215 0 0 1 .067-.048l6.715-3.612c.016-.007.056-.027.067-.023.01.014.01.07.01.09v10.188c0 .079-.072.13-.112.164-2.532 1.975-5.018 3.836-6.72 4.98-.041.034-.037-.037-.037-.093v-2.317zm-6.153 5.86l-.824.334 3.367-16.845-2.59 1.394-3.276 16.22c-1.013.273-2.361.426-3.178.467-.044.014-.115-.057-.115-.136V111.509l-2.29 1.23V143.8l2.29-1.23V128.385c2.303-.1 4.592-.768 6.757-1.703.053-.017.113.007.113.097v12.1l2.29-1.232v-12.14c0-1.272-.26-2.73-1.825-2.564a2.513 2.513 0 0 0-.72.19zm-.128-32.444c-2.307.966-4.64 1.475-6.373 1.496-.127.007-.115-.118-.115-.347v-9.734l6.794-3.65 2.365-1.274v-3.254l-9.691 5.21c-.484.26-.904.725-1.247 1.394a4.478 4.478 0 0 0-.508 2.046v2.519h-.003v23.516c0 .687.169 1.194.511 1.495.34.303.763.315 1.247.056l7.936-4.269c.363-.194.69-.504.974-.928l.002-.002a4.26 4.26 0 0 0 .07-.107l.016-.03c.053-.083.104-.171.152-.264l.03-.06c.049-.095.095-.19.134-.285l.03-.065.024-.062.014-.032.011-.033.014-.03.01-.032.013-.033.012-.03v-.002l.011-.03.007-.033.002-.002.01-.028.011-.032v-.002l.01-.033.009-.03.011-.032.01-.033.009-.03.01-.032v-.003l.008-.032.007-.028v-.002l.007-.033.007-.032h.002l.005-.03h.002l.007-.032v-.003l.014-.062.007-.033.007-.032.005-.03.007-.035c.009-.04.014-.086.02-.13l.005-.027v-.003l.007-.064.005-.03v-.003l.002-.032.007-.063.002-.032.003-.035h.002l.002-.03v-.032h.002l.003-.063v-.002l.002-.033v-.062h.002v-9.44c-.007-1.463-.314-2.683-1.574-2.687-.391 0-.687.092-1.097.263zm-6.488 5.19c2.085-.078 4.65-.782 6.757-1.703.053-.017.113.034.113.122V102.868l-.002.002v.014l-.003.007V102.9l-.002.007v.003l-.002.002v.005l-.005.007h-.002v.002l-.005.005-.007.004-.004.005h-.003v.002l-.002.002-.012.005-.027.016-6.718 3.611c-.014.007-.053.03-.067.024a.361.361 0 0 1-.01-.09V95.876zm32.407-20.523c-2.155.248-4.216.996-6.755 2.53-.055.016-.115.04-.115-.05v-9.355c0-.02.002-.076.011-.1a.207.207 0 0 1 .065-.048l6.718-3.611c.014-.01.053-.03.067-.023.009.014.009.07.009.09v10.567zm-.04 32.507c-2.513.257-4.775 1.41-6.715 2.528-.041.014-.118.011-.115-.109v-9.21l6.794-3.653 2.365-1.273V92.89l-9.691 5.21c-.484.26-.905.725-1.247 1.394a4.467 4.467 0 0 0-.51 2.047v26.034c0 .686.168 1.195.51 1.498.34.301.763.315 1.247.051l7.936-4.266c.363-.195.69-.505.974-.93a2.93 2.93 0 0 0 .071-.11l.017-.027c.053-.084.104-.174.152-.264v-.003l.03-.06c.051-.092.093-.187.137-.282v-.002l.025-.06.002-.003.024-.062v-.003l.011-.03.014-.03v-.002l.012-.03v-.003l.013-.03v-.002l.012-.028v-.002l.012-.033.011-.032.007-.028v-.002l.012-.032.009-.033h.002l.01-.03v-.002l.009-.03v-.003l.011-.03v-.002l.01-.03.009-.033.009-.032.007-.03h.002l.005-.033h.002l.007-.032v-.002l.007-.028.002-.002.007-.033.007-.032v-.002l.014-.06.007-.035.007-.03.005-.033.007-.032.02-.128.003-.032.009-.065.005-.032.002-.033.007-.062v-.002l.002-.033.002-.03h.003l.002-.032v-.035l.005-.063v-.032l.002-.002v-.063l.002-.032V115.42v.003-4.78c.005-1.767-.423-3.017-2.328-2.783zm-6.83 6.171c2.28-1.395 4.6-2.356 6.757-2.414.074.005.113.079.113.169v10.046h-.002v.026h-.003v.007l-.002.007v.007h-.002v.002l-.007.01v.002l-.005.002-.007.004-.004.005-.003.002-.002.003-.01.007-.03.016-6.717 3.611c-.014.007-.053.028-.065.023a.276.276 0 0 1-.011-.09v-11.445zm-12.95-26.708c2.298-1.56 4.567-3.273 6.94-5.132.053-.044.11-.086.11-.176V71.653c0-.023 0-.077-.009-.093-.011-.004-.05.016-.067.026l-6.715 3.608a.224.224 0 0 0-.068.051.506.506 0 0 0-.009.102l-.182 11.977z"/>
        <g transform="translate(0 29.4)">
            <mask id="b" fill="#fff">
                <use xlink:href="#a"/>
            </mask>
            <path fill="#8A000D" d="M20.203 69.537L144.19 2.313c2.285-1.236 3.883 1.65 1.538 2.921L21.75 72.452c-1.993 1.083-3.587-1.808-1.547-2.915m-19.108 57.05L151.78 44.888c2.518-1.365 4.058 1.551 1.57 2.9L2.642 129.5c-2.213 1.202-3.807-1.69-1.547-2.914M15.67 185.85l115.091-62.398 1.57 2.903-115.13 62.419c-2.261 1.229-3.87-1.655-1.53-2.924m74.12-70.317l113.703-61.648c2.183-1.18 3.792 1.699 1.526 2.928L91.333 118.452c-2.29 1.24-3.887-1.648-1.542-2.92m-37.248 77.25l95.784-51.918c2.042-1.125 3.823 1.685 1.644 2.863L54.076 195.72c-1.836.996-3.491-1.875-1.533-2.937m91.954-8.725l71.975-39.023c2.437-1.32 3.984 1.597 1.595 2.891l-72.055 39.065c-1.924 1.042-3.547-1.83-1.515-2.933" mask="url(#b)"/>
        </g>
        <g transform="translate(60.125 -.692)">
            <mask id="d" fill="#fff">
                <use xlink:href="#c"/>
            </mask>
            <path fill="#8A000D" d="M115.75 1.006c29.932 0 57.199 11.428 77.69 30.158l-5.948-.81C168.065 14.096 143.051 4.308 115.75 4.308c-47.425 0-87.958 29.521-104.27 71.207l-4.401 2.386c15.824-44.799 58.5-76.896 108.671-76.896zM3.973 122.518c1.198 22.16 8.83 42.609 21.058 59.507l-2.918 1.58C9.959 166.674 2.268 146.316.779 124.253l3.195-1.734zm34.815 75.217c20.061 19.019 47.147 30.686 76.96 30.686 54.557 0 99.988-39.07 109.918-90.78l3.716-2.014c-9.16 54.541-56.545 96.097-113.634 96.097-31.078 0-59.276-12.32-80-32.34l3.04-1.649z" mask="url(#d)"/>
        </g>
        <path fill="#8A000D" d="M208.267 43.014l-17.785-21.037 2.516-2.134 19.196 22.703 77.097-9.222.39 3.278-74.934 8.963 17.786 21.037-2.516 2.134-19.197-22.701-77.094 9.22-.393-3.278z"/>
    </g>
</svg>
