<svg xmlns="http://www.w3.org/2000/svg" xmlns:xlink="http://www.w3.org/1999/xlink" width="326" height="262" viewBox="0 0 326 262">
    <defs>
        <path id="a" d="M2.117 1.777h60.526v127.392H2.117z"/>
        <path id="c" d="M0 263.223h325.722V2.304H0z"/>
    </defs>
    <g fill="none" fill-rule="evenodd" transform="translate(0 -2)">
        <path fill="#FFFAED" d="M144.289 28.022c27.111 0 51.995 9.552 71.48 25.466V98.09l30.733 11.828 5.916-2.04a113.265 113.265 0 0 1 4.988 33.335c0 62.515-50.644 113.194-113.117 113.194-62.475 0-113.119-50.68-113.119-113.194 0-62.515 50.644-113.192 113.119-113.192"/>
        <g transform="translate(211.86 .528)">
            <mask id="b" fill="#fff">
                <use xlink:href="#a"/>
            </mask>
            <path fill="#8A000D" d="M33.095 37.214V3.457c0-2.175 3.286-2.21 3.286.035v103.924l23.839-9.162c2.335-.894 3.382 2.221 1.314 3.016l-25.153 9.665v16.662c0 2.104-3.286 2.081-3.286.021v-16.707L2.117 98.3V3.469c0-2.254 3.284-2.27 3.284.016V25.94l27.694 11.275zm0 3.549L5.4 29.487v13.946l27.694 11.275V40.763zm0 17.494L5.4 46.98v14.897l27.694 11.275V58.257zm0 18.444L5.4 65.424V78.31l27.694 11.275V76.7zm0 16.432L5.4 81.858V96.09l27.694 11.273v-14.23z" mask="url(#b)"/>
        </g>
        <mask id="d" fill="#fff">
            <use xlink:href="#c"/>
        </mask>
        <path fill="#8A000D" d="M256.327 18.467h2.125V7.932h-2.125v10.535zm.066 16.444V24.375h3.41c1.29 0 2.133.053 2.527.16.603.154 1.112.5 1.52 1.03.403.53.608 1.214.608 2.05 0 .648-.118 1.192-.353 1.632-.237.44-.531.788-.895 1.039-.36.249-.728.417-1.099.498-.509.101-1.243.152-2.206.152h-1.386v3.975h-2.126zm2.126-8.754v2.988h1.16c.839 0 1.4-.055 1.682-.163.283-.11.504-.281.667-.519.16-.235.238-.507.238-.818 0-.382-.111-.7-.337-.951a1.48 1.48 0 0 0-.854-.466c-.256-.048-.765-.071-1.531-.071h-1.025zm-2.126 25.198V40.817h3.41c1.29 0 2.133.055 2.527.161.603.155 1.112.498 1.52 1.03.403.528.608 1.212.608 2.051 0 .648-.118 1.191-.353 1.632-.237.44-.531.785-.895 1.039-.36.249-.728.415-1.099.498-.509.101-1.243.152-2.206.152h-1.386v3.975h-2.126zm2.126-8.755v2.99h1.16c.839 0 1.4-.056 1.682-.167a1.4 1.4 0 0 0 .667-.516 1.43 1.43 0 0 0 .238-.82c0-.383-.111-.698-.337-.95a1.468 1.468 0 0 0-.854-.465c-.256-.048-.765-.072-1.531-.072h-1.025zm4.61 21.323l2.061.654c-.315 1.15-.843 2.003-1.577 2.562-.733.556-1.668.837-2.798.837-1.396 0-2.545-.48-3.448-1.433-.9-.957-1.349-2.263-1.349-3.92 0-1.754.451-3.116 1.359-4.086.905-.97 2.093-1.456 3.569-1.456 1.285 0 2.333.38 3.139 1.143.479.45.836 1.097 1.077 1.94l-2.107.505c-.122-.549-.382-.98-.778-1.297-.394-.316-.875-.473-1.44-.473-.778 0-1.413.279-1.9.841-.485.558-.729 1.468-.729 2.724 0 1.332.24 2.281.72 2.844.48.566 1.1.85 1.866.85.564 0 1.05-.18 1.458-.54.407-.359.7-.923.877-1.695z" mask="url(#d)"/>
        <path fill="#FC6" d="M200.2 85.3l-75.47-31.083-19.132 8.088 78.32 31.077zM178.1 260.59l-.912-155.63-75.366-30.623v156.087zM182.9 104.448l18.139-9.505V250.53l-18.14 10.105z" mask="url(#d)"/>
        <path fill="#8A000D" d="M188.679 90.748h.002c.903 0 1.642.74 1.642 1.643v40.98c0 .904-.74 1.644-1.642 1.644h-.002c-.905 0-1.642-.74-1.642-1.643v-40.98c0-.904.737-1.644 1.642-1.644M103.825 58.035l17.543 7.162a1.65 1.65 0 0 1 .9 2.143 1.648 1.648 0 0 1-2.14.901l-20.595-8.41 4.292-1.796zM112.675 54.333l7.721 3.153a1.642 1.642 0 1 1-1.244 3.042l-10.772-4.4 4.295-1.795zM190.62 90.577l-17.543-7.162a1.654 1.654 0 0 1-.903-2.143 1.652 1.652 0 0 1 2.144-.9l20.594 8.41-4.292 1.795zM181.77 94.28l-7.721-3.153a1.648 1.648 0 0 1-.898-2.143 1.647 1.647 0 0 1 2.141-.901l10.773 4.401-4.295 1.795zM115.976 95.782c.903 0 1.642.74 1.642 1.643v80.676a1.65 1.65 0 0 1-1.642 1.643 1.648 1.648 0 0 1-1.642-1.643V97.425c0-.903.737-1.643 1.642-1.643M191.958 210.358c.905 0 1.642.74 1.642 1.643v36.907c0 .903-.737 1.643-1.642 1.643-.905 0-1.642-.74-1.642-1.643V212c0-.903.737-1.643 1.642-1.643M134.837 79.004c.903 0 1.642.74 1.642 1.643v20.723a1.65 1.65 0 0 1-1.642 1.643c-.905 0-1.642-.74-1.642-1.643V80.647c0-.904.737-1.643 1.642-1.643" mask="url(#d)"/>
        <path fill="#8A000D" d="M200.787 83.842l1.26.516.45.185V229.175c-1.038-1.019-2.134 1.387-3.285.49V88.309l-20.205 10.155v163.104c0 2.169-3.286 2.27-3.286-.069V98.546L94.484 64.86v73.829l-3.286 1.104V61.296l1.647-.675 25.558-10.51 82.384 33.731zm-3.894 1.956l-78.487-32.136-21.26 8.743 80.152 33.238 19.595-9.845z" mask="url(#d)"/>
        <path fill="#8A000D" d="M122.304 124.092c16.712 0 31.097 9.966 37.55 24.28 1.465 2.876-1.88 3.72-2.747 1.922-5.808-13.48-19.204-22.914-34.803-22.914-20.925 0-37.886 16.974-37.886 37.911 0 13.98 7.563 26.191 18.819 32.766 2.031 1.11.815 4.364-2.425 2.378-11.804-7.245-19.68-20.272-19.68-35.144 0-22.753 18.434-41.2 41.172-41.2" mask="url(#d)"/>
        <path fill="#8A000D" d="M150.768 154.41a41.144 41.144 0 0 0-7.93 9.86c-.947 1.978 1.837 3.75 3.007 1.363a37.942 37.942 0 0 1 7.136-8.796c15.456-14.114 39.42-13.02 53.524 2.447 9.419 10.328 12.056 24.45 8.173 36.897-.806 2.678 2.26 3.766 3.111 1.058 4.256-13.545 1.396-28.926-8.856-40.172-15.328-16.805-41.368-17.994-58.165-2.657M117.901 201.611c-15.18-6.943-32.378-3.883-44.189 6.423-2.37 2 .205 4.094 1.65 2.933 10.882-9.847 26.983-12.856 41.173-6.367a37.843 37.843 0 0 1 10.283 6.92c2.289 2.251 3.972-.661 2.703-1.954a41.102 41.102 0 0 0-11.62-7.955M54.13 206.43a41.102 41.102 0 0 1-8.483 9.392c-1.799 1.246-3.989-1.224-1.817-2.759a37.9 37.9 0 0 0 7.556-8.438c11.49-17.5 6.63-41.004-10.856-52.502-11.678-7.678-26.029-8.059-37.7-2.259-2.516 1.217-4.073-1.638-1.533-2.908 12.693-6.341 28.325-5.94 41.036 2.418 19.003 12.496 24.283 38.04 11.797 57.055" mask="url(#d)"/>
        <path fill="#8A000D" d="M178.966 194.032a41.127 41.127 0 0 1 10.641 6.846c1.523 1.572-.557 4.139-2.427 2.24a37.916 37.916 0 0 0-9.547-6.083c-19.123-8.499-41.508.122-50.004 19.26-5.671 12.777-3.71 27.009 3.908 37.588 1.612 2.288-.953 4.288-2.613 1.989-8.323-11.501-10.469-27-4.297-40.912 9.23-20.792 33.559-30.164 54.34-20.928M83.446 157.923c-10.64 1.097-20.082 6.247-26.751 13.882l2.45 2.191c6.068-6.964 14.634-11.685 24.301-12.766v-3.307zM247.826 215.12c-9.2-13.934-25.407-20.453-40.882-17.976-3.065.44-1.992 3.583-.15 3.36 14.439-2.581 29.69 3.403 38.291 16.427a37.854 37.854 0 0 1 5.057 11.32c.751 3.124 3.722 1.543 3.328-.224a41.1 41.1 0 0 0-5.644-12.907" mask="url(#d)"/>
        <path fill="#8A000D" d="M228.83 181.955a41.028 41.028 0 0 0-5.35 18.096h3.289a37.773 37.773 0 0 1 4.914-16.47c10.367-18.188 33.504-24.52 51.68-14.146 12.136 6.927 18.989 19.552 19.115 32.59-.039 2.319 3.388 2.874 3.268-.926-.437-13.85-7.846-27.152-20.755-34.52-19.75-11.272-44.894-4.389-56.161 15.376" mask="url(#d)"/>
        <path fill="#8A000D" d="M149.733 13.022c18.99 0 36.898 4.618 52.673 12.789 1.962 1.233.624 4.016-1.856 2.742-15.238-7.823-32.512-12.243-50.817-12.243C88.17 16.31 38.26 66.252 38.26 127.857c0 7.348.709 14.53 2.065 21.48H36.98a115.581 115.581 0 0 1-2.005-21.48c0-63.42 51.38-114.835 114.758-114.835zm105.338 151.423c3.977-11.462 6.14-23.772 6.14-36.588 0-2.74-.107-5.46-.302-8.151-.182-2.519 3.06-3.143 3.263-.399.21 2.826.322 5.674.322 8.55 0 12.558-2.017 24.642-5.74 35.952l-3.683.636zM310.43 134.468c-16.553 2.122-29.546 13.808-34.142 28.797-.958 2.948 2.332 3.372 2.945 1.618 4.05-14.107 16.14-25.173 31.613-27.154a37.91 37.91 0 0 1 12.385.444c3.131.705 3.02-2.659 1.264-3.085a40.989 40.989 0 0 0-14.066-.62M92.84 199.446h.002c.905 0 1.642.74 1.642 1.643v29.789c0 .903-.737 1.643-1.642 1.643h-.002c-.903 0-1.642-.74-1.642-1.643v-29.789c0-.903.74-1.643 1.642-1.643" mask="url(#d)"/>
    </g>
</svg>
