<svg xmlns="http://www.w3.org/2000/svg" xmlns:xlink="http://www.w3.org/1999/xlink" width="343" height="247" viewBox="0 0 343 247">
    <defs>
        <path id="a" d="M.216.107h334.23V229.85H.216z"/>
    </defs>
    <g fill="none" fill-rule="evenodd">
        <path fill="#FFFAED" d="M137.228 19.5c62.82 0 113.748 50.929 113.748 113.751 0 62.82-50.928 113.749-113.748 113.749-34.088 0-64.668-14.996-85.515-38.75l-35.91 18.96c3.549-17.86 8.523-35.432 15.426-52.615l.007.005c-5.004-12.817-7.755-26.762-7.755-41.349C23.48 70.43 74.408 19.5 137.228 19.5"/>
        <path fill="#FC6" d="M337.423 40.488l-134.815-19.13-45.71 18.786L30.675 92.017 75.52 98.32l5.587-3.098 10.974-2.67h8.973l9.195 2.819-9.854 6.447 101.429 14.253zM17.661 126.137l.592-27.708 46.099 6.707-5.419 6.235-9.52 9.513-5.432 8.728-26.32-3.475zm88.901-15.533l94.161 11.676.987 28.149-94.855-12.39-.293-27.435zM340.211 74.674l-.578-25.46-32.5 17.415-99.846 53.498.946 26.587 101.043-55.117z"/>
        <g transform="translate(8.366)">
            <mask id="b" fill="#fff">
                <use xlink:href="#a"/>
            </mask>
            <path fill="#8A000D" d="M143.792 106.462l.753-.364 129.387-62.453 23.621-11.405c2.421-1.167 3.97 1.74 1.338 3.01l-24.513 11.834-124.653 60.169 41.919 5.594 47.371-25.012 35.992-19c2.53-1.337 4.187 1.512 1.445 2.96L239.977 91.05l-46.333 24.463.579 15.886 27.524-14.726c2.481-1.328 4.105 1.537 1.513 2.925l-28.905 15.466.462 12.713 60.344-33.103 12.359-6.777c2.344-1.288 3.826 1.655 1.728 2.805l-14.35 7.874-10.596 5.811c-4.825 59.037-54.628 105.46-115.37 105.46-29.97 0-57.278-11.303-77.835-29.84-2.407-2.172-4.082-3.764-6.296-6.127L4.07 214.126l.701-3.402c3.046-14.755 6.784-29.475 11.672-43.74a247.706 247.706 0 0 1 4.188-11.346 113.325 113.325 0 0 1-6.744-27.764L.216 126.02l.673-36.445.028-1.422 1.424-.567 15.895-6.316C32.751 34.28 76.814.105 128.931.105c19.224 0 37.354 4.656 53.309 12.885 2.414 1.245 4.479 2.517 6.763 3.967l-3.06 1.217-94.707 37.63c9.372 6.84 16.91 16.325 22.372 27.79 1.117 2.349-1.877 3.755-2.997 1.404-5.548-11.648-13.307-21.15-23.034-27.74L9.013 88.477l58.016 7.743a61.358 61.358 0 0 1 12.482-4.7c7.225-1.858 14.492-1.54 21.396 1.348a35.077 35.077 0 0 1 4.97 2.568l-2.36 1.016-1.418.614-1.982.852-1.893.816-2.913 1.259 4.65.62 43.831 5.85zm139.555-6.839l27.666-14.985c2.46-1.33 3.97 1.597 1.67 2.842l-27.895 15.107c-2.035 1.102-3.761-1.705-1.44-2.964zm12.8-42.705l23.309-12.895 12.054-6.67c2.647-1.467 4.054 1.52 1.838 2.745l-13.353 7.39-22.158 12.26c-2.147 1.187-3.687-1.724-1.69-2.83zM4.01 100.056l15.006 1.828c2.824.346 2.378 3.603-.36 3.269l-14.706-1.791-.167 8.999 23.131 2.729c2.946.348 2.655 3.621-.504 3.25l-22.688-2.676-.14 7.496 31.21 4.227c7.167-11.267 16.136-21.506 27.455-28.49l-58.072-7.75-.165 8.91zm187.259 41.305l-14.943-1.821c-2.88-.35-2.467-3.612.393-3.264l14.429 1.758-.328-9.056-22.464-2.651c-2.914-.343-2.579-3.614.455-3.257l21.889 2.582-.351-9.66-90.753-12.111-7.318-.976v32.313l99.253 13.401-.262-7.258zM53.703 43.74c13.033.142 24.533 3.636 34.257 9.825l93.625-37.201c-15.71-8.277-33.627-12.973-52.654-12.973-49.678 0-91.824 31.967-106.708 76.295l61.9-24.597c-8.766-5.085-18.971-7.937-30.454-8.063-2.62-.028-2.586-3.315.034-3.285zm52.945 46.019a51.07 51.07 0 0 0-5.45-4.765C88.432 75.4 73.703 75.127 58.64 78.76c-2.548.616-3.329-2.58-.783-3.195 16.065-3.874 31.75-3.406 45.34 6.81a54.26 54.26 0 0 1 5.804 5.07c1.845 1.85-.509 4.163-2.353 2.315zM45.52 189.79v-.01c2.781 3.105 5.093 5.376 8.203 8.153 19.924 17.795 46.289 28.627 75.207 28.627 58.253 0 106.146-43.95 111.873-100.251L194.95 151.46l-1.37.754-1.37-.184-61.976-8.37a65.38 65.38 0 0 1-.097 6.883l-.068.954-75.838 37.692 1.21-3.665c2.944-8.916 7.801-18.809 15.187-24.947 4.606-3.829 11.013-6.616 16.928-4.069 1.824.786 3.376 2.01 4.616 3.543 1.643 2.026-.94 4.087-2.583 2.06-.904-1.117-2.024-2.014-3.35-2.585-4.667-2.01-9.91.601-13.484 3.57-5.863 4.873-10.035 12.463-12.837 19.731l66.969-33.46c.107-2.047.109-4.105.011-6.159l-37.934-5.122V99.146l8.289-3.577.713-.307c-5.729-2.005-11.678-2.088-17.625-.562a58.441 58.441 0 0 0-5.37 1.661c-18.145 6.588-31.064 21.562-40.412 37.792-6.154 10.686-10.991 22.248-14.98 33.886-4.465 13.04-7.964 26.462-10.844 39.937L45.52 189.79zm-23.017-38.7c2.709-6.369 5.74-12.6 9.179-18.567.4-.696.806-1.385 1.217-2.075l-15.628-2.116a110.218 110.218 0 0 0 5.232 22.758zm59.07-113.735l54.919-21.121c2.806-1.08 4.07 1.961 1.124 3.095L82.666 40.46c-3.173 1.222-4.456-1.811-1.092-3.104zm46.2 177.647l86.846-51.103c2.286-1.346 3.898 1.53 1.772 2.78l-86.966 51.172c-2.367 1.395-4.091-1.413-1.652-2.849zm-40.857-15.845l75.01-41.166.557-.304c2.456-1.348 3.961 1.581 1.71 2.817l-.534.295L88.402 202.1c-2.635 1.445-4.34-1.374-1.485-2.944zM138.258 67.66l60.644-27.522 14.53-6.595c.207-.094.414-.189.623-.281 2.312-1.051 3.782 1.897 1.28 3.033l-.543.247-14.899 6.76-60.415 27.42c-2.7 1.223-4.214-1.704-1.22-3.062z" mask="url(#b)"/>
        </g>
        <path fill="#8A000D" d="M28.025 50.047c-9.17 1.487-17.756 5.5-25.136 11.632C.8 63.414-1.206 60.528.882 58.792c7.822-6.501 16.933-10.754 26.657-12.33 2.595-.419 3.081 3.166.486 3.585"/>
    </g>
</svg>
