<svg id="Layer_1" data-name="Layer 1" xmlns="http://www.w3.org/2000/svg" xmlns:xlink="http://www.w3.org/1999/xlink" viewBox="0 0 405 297"><defs><style>.cls-1{fill:#fff;}.cls-2{fill:#fffaed;}.cls-3{fill:#fc6;}.cls-4{mask:url(#mask);}.cls-5{fill:#8a000d;}</style><mask id="mask" x="70.58" y="29.11" width="334.23" height="229.74" maskUnits="userSpaceOnUse"><g id="mask-2"><polygon id="path-1" class="cls-1" points="70.58 29.11 404.81 29.11 404.81 258.85 70.58 258.85 70.58 29.11"/></g></mask></defs><title>step1</title><g id="Page-1"><g id="Mainframe"><g id="Production-Cycle"><g id="icon"><g id="step1"><path id="Fill-1" class="cls-2" d="M199.23,48.5a113.75,113.75,0,1,1-85.52,188.75l-35.91,19A294.81,294.81,0,0,1,93.23,203.6h0a113.8,113.8,0,0,1,106-155.1"/><polygon id="Fill-3" class="cls-3" points="399.42 69.49 264.61 50.36 218.9 69.14 92.67 121.02 137.52 127.32 143.11 124.22 154.08 121.55 163.05 121.55 172.25 124.37 162.4 130.82 263.82 145.07 399.42 69.49"/><path id="Fill-5" class="cls-3" d="M79.66,155.14l.59-27.71,46.1,6.71-5.42,6.23-9.52,9.51L106,158.61Zm88.9-15.54,94.16,11.68,1,28.15L168.85,167Z"/><polygon id="Fill-7" class="cls-3" points="402.21 103.67 401.63 78.21 369.13 95.63 269.29 149.13 270.23 175.71 371.28 120.6 402.21 103.67"/><g id="Group-11"><g class="cls-4"><path id="Fill-9" class="cls-5" d="M214.16,135.46l.75-.36L344.3,72.65l23.62-11.41c2.42-1.17,4,1.74,1.34,3L344.74,76.08,220.09,136.25l41.92,5.6,47.37-25,36-19c2.53-1.33,4.19,1.52,1.45,3l-36.48,19.26L264,144.51l.58,15.89,27.52-14.73c2.48-1.32,4.11,1.54,1.52,2.93l-28.91,15.47.46,12.71,60.35-33.1,12.36-6.78c2.34-1.29,3.82,1.65,1.72,2.8l-14.35,7.88-10.59,5.81c-4.83,59-54.63,105.46-115.37,105.46A115.9,115.9,0,0,1,121.46,229c-2.4-2.17-4.08-3.77-6.29-6.13L74.44,243.13l.7-3.41A357.79,357.79,0,0,1,86.81,196c1.3-3.8,2.69-7.59,4.19-11.34a113.24,113.24,0,0,1-6.75-27.77L70.58,155l.68-36.44,0-1.43,1.43-.56,15.89-6.32A116.25,116.25,0,0,1,252.61,42c2.41,1.25,4.47,2.52,6.76,4l-3.06,1.21L161.6,84.8c9.37,6.84,16.91,16.33,22.37,27.79,1.12,2.35-1.87,3.76-3,1.41-5.55-11.65-13.31-21.15-23-27.74L79.38,117.48l58,7.74a62.71,62.71,0,0,1,6.81-3c1.86-.67,3.76-1.26,5.68-1.75a33.06,33.06,0,0,1,21.39,1.35,35.31,35.31,0,0,1,5,2.56l-2.36,1-1.42.61-2,.86-1.89.81L165.68,129l4.65.62Zm139.55-6.84,27.67-15c2.46-1.33,4,1.6,1.67,2.84l-27.9,15.11C353.12,132.69,351.39,129.88,353.71,128.62Zm12.8-42.7L389.82,73l12.06-6.67c2.64-1.46,4.05,1.52,1.83,2.75l-13.35,7.39L368.2,88.75A1.65,1.65,0,1,1,366.51,85.92ZM74.38,129.06l15,1.82c2.83.35,2.38,3.61-.36,3.27l-14.71-1.79-.16,9,23.13,2.73c2.94.35,2.65,3.62-.51,3.25l-22.68-2.68-.14,7.5,31.21,4.23c7.16-11.27,16.13-21.51,27.45-28.49l-58.07-7.75Zm187.25,41.3-14.94-1.82c-2.88-.35-2.47-3.61.39-3.26L261.51,167l-.32-9.05-22.47-2.65c-2.91-.35-2.58-3.62.46-3.26l21.88,2.58-.35-9.66L170,132.88l-7.32-1v32.31l99.26,13.4ZM124.07,72.74a64.16,64.16,0,0,1,34.26,9.83L252,45.36A112.92,112.92,0,0,0,92.59,108.69l61.9-24.6A61.13,61.13,0,0,0,124,76C121.41,76,121.45,72.71,124.07,72.74Zm52.94,46a49.41,49.41,0,0,0-5.45-4.76c-12.76-9.6-27.49-9.87-42.55-6.24-2.55.62-3.33-2.58-.79-3.19,16.07-3.88,31.75-3.41,45.34,6.8a55,55,0,0,1,5.81,5.08C181.21,118.29,178.86,120.61,177,118.76Zm-61.12,100h0a94.13,94.13,0,0,0,8.2,8.15,112.5,112.5,0,0,0,75.21,28.63c58.25,0,106.14-43.95,111.87-100.25l-45.85,25.15-1.37.75-1.37-.18-62-8.37a63.11,63.11,0,0,1-.1,6.88l-.06,1L124.6,218.19l1.21-3.66c2.94-8.92,7.8-18.81,15.18-24.95,4.61-3.83,11-6.62,16.93-4.07a12.11,12.11,0,0,1,4.62,3.54c1.64,2-.94,4.09-2.59,2.06a8.67,8.67,0,0,0-3.35-2.58c-4.66-2-9.91.6-13.48,3.57-5.86,4.87-10,12.46-12.84,19.73l67-33.46a60.27,60.27,0,0,0,0-6.16l-37.93-5.12V128.15l8.29-3.58.71-.31a30,30,0,0,0-17.62-.56q-2.73.7-5.37,1.66c-18.15,6.59-31.07,21.56-40.42,37.79a194.39,194.39,0,0,0-15,33.89A348.4,348.4,0,0,0,79.1,237Zm-23-38.7a172.15,172.15,0,0,1,9.18-18.57c.4-.69.8-1.38,1.22-2.07l-15.63-2.12A110.31,110.31,0,0,0,92.87,180.09ZM151.94,66.35l54.92-21.12c2.81-1.08,4.07,2,1.12,3.1L153,69.46C149.86,70.68,148.58,67.65,151.94,66.35ZM198.14,244,285,192.9c2.28-1.35,3.89,1.53,1.77,2.78l-87,51.17C197.42,248.25,195.7,245.44,198.14,244Zm-40.86-15.84,75-41.17.56-.3c2.46-1.35,4,1.58,1.71,2.81l-.53.3-75.26,41.3C156.13,232.55,154.43,229.73,157.28,228.16Zm51.34-131.5,60.65-27.52,14.53-6.6.62-.28c2.31-1,3.78,1.9,1.28,3l-.54.25-14.9,6.76L209.84,99.72C207.14,100.94,205.63,98,208.62,96.66Z"/></g></g><path id="Fill-12" class="cls-5" d="M90,79.05A52.33,52.33,0,0,0,64.89,90.68c-2.09,1.73-4.1-1.15-2-2.89A55.58,55.58,0,0,1,89.54,75.46,1.82,1.82,0,1,1,90,79.05"/></g></g></g></g></g></svg>