<svg id="Layer_1" data-name="Layer 1" xmlns="http://www.w3.org/2000/svg" xmlns:xlink="http://www.w3.org/1999/xlink" viewBox="0 0 405 297"><defs><style>.cls-1{fill:#fff;}.cls-2{mask:url(#mask);}.cls-3{fill:#fffaed;}.cls-4{fill:#8a000d;}.cls-5{fill:#fc6;}.cls-6{mask:url(#mask-2-2);}</style><mask id="mask" x="47.13" y="43.83" width="265.02" height="253.92" maskUnits="userSpaceOnUse"><g id="mask-2"><polygon id="path-1" class="cls-1" points="47.13 43.83 312.15 43.83 312.15 297.75 47.13 297.75 47.13 43.83"/></g></mask><mask id="mask-2-2" x="46" y="12.3" width="309.35" height="272.17" maskUnits="userSpaceOnUse"><g id="mask-4"><polygon id="path-3" class="cls-1" points="46 12.3 355.35 12.3 355.35 284.48 46 284.48 46 12.3"/></g></mask></defs><title>step5</title><g id="Page-5"><g id="Mainframe"><g id="Production-Cycle"><g id="icon"><g id="step5"><g id="Group-3"><g class="cls-2"><path id="Fill-1" class="cls-3" d="M199,43.83a113.05,113.05,0,0,1,.69,226.1,50.36,50.36,0,0,1-8.49,9.94,47.28,47.28,0,0,1-8.42,6.05,45.55,45.55,0,0,1-5.17,2.5,43.93,43.93,0,0,1-4.84,3.13,46.67,46.67,0,0,1-9.54,4.07,55.07,55.07,0,0,1-25.49,1.19,81.9,81.9,0,0,1-26.61-10.06c-19.47-11.26-35.41-29.13-46.38-48.59s-18-42.34-17.58-64.81c.35-17.9,5.69-36.78,19.4-49.11a47,47,0,0,1,13.61-8.57A46.11,46.11,0,0,1,85,112.55a47,47,0,0,1,9.55-4.06c.82-.25,1.65-.48,2.48-.68a113.18,113.18,0,0,1,102-64"/></g></g><path id="Fill-4" class="cls-4" d="M179.88,30.37a114.74,114.74,0,0,1,37.89.51l-2.24,2.94A111.7,111.7,0,0,0,96.32,96.33l-4,.93A114.72,114.72,0,0,1,179.88,30.37Zm119.53,165.7A115,115,0,0,1,195,258.44l2.23-3.26a111.77,111.77,0,0,0,98.88-59.87Z"/><path id="Fill-6" class="cls-5" d="M88.49,107.2c30.77-16.61,75.66,6.79,100.25,52.27s19.57,95.81-11.21,112.42-75.66-6.79-100.25-52.27S57.71,123.81,88.49,107.2"/><polygon id="Fill-8" class="cls-5" points="166.86 88.33 182.12 99.07 248.91 63.08 232.69 55.07 166.86 88.33"/><polygon id="Fill-10" class="cls-5" points="182.42 99.31 181.25 107.17 217.89 88.09 216.61 81.01 182.42 99.31"/><path id="Fill-12" class="cls-5" d="M236.78,28.15c30.36-16.39,74.63,6.69,98.88,51.55s19.3,94.49-11.05,110.88c-19.39,10.46-44.45,4.83-66.34-12.29l36.11-20L292,137.62l-6.38-1.68L240,160.35a132.66,132.66,0,0,1-12.71-18.48L289.13,110l1.32-9.4L275.09,81.74,214.93,112.8c-4.79-16.51-5.79-32.69-3.19-46.67L231.85,55.5l-4.65-3-14,7.45c3.91-14.12,11.86-25.47,23.62-31.81"/><polygon id="Fill-14" class="cls-5" points="215.26 119.1 226.14 135.03 223.59 144.17 287.89 108.79 290.45 100.55 278.27 85.64 215.26 119.1"/><polygon id="Fill-16" class="cls-5" points="294.38 158.32 292.7 143.55 230.16 177.36 232.55 193.44 294.38 158.32"/><g id="Group-20"><g class="cls-6"><path id="Fill-18" class="cls-4" d="M204,97.12,175.6,112.59l-1.48-1L153.39,97.15,154.91,87l47.8-24c2.45-18,10.63-35.29,27-44.51a47,47,0,0,1,9.55-4.06,55,55,0,0,1,25.48-1.19A82.16,82.16,0,0,1,291.37,23.3c19.47,11.26,35.4,29.14,46.37,48.6s18,42.33,17.59,64.8c-.36,17.91-5.7,36.79-19.4,49.12a47.29,47.29,0,0,1-18,10.12c-21.14,6.37-43.84-2.27-61.05-14.7L226,198.86l-8.52-2.41-3.72-23.59,21.55-11.74a141.81,141.81,0,0,1-11.51-15.54l-6.58,3.59-1.2-1.71-14.8-21,2.85-9.81,4.57-2.35A131.61,131.61,0,0,1,204,97.12Zm128.31,87.43q.65-.53,1.26-1.08c13.19-11.75,18.19-30,18.47-47.08.36-21.78-6.56-44-17.2-62.87s-26.07-36.28-44.91-47.26a78.58,78.58,0,0,0-25.59-9.75,51.6,51.6,0,0,0-24.29,1.15c-.53.16-1.06.33-1.58.52,15.14-1.64,30.61,3.41,43.6,11,19.2,11.28,34.91,29,45.77,48.24s17.94,42.07,17.59,64.42C345.2,156.85,341.5,172.54,332.32,184.55Zm-11.58,6.89c1-.76,2-1.56,2.95-2.4,13.19-11.75,18.19-30,18.47-47.08.36-21.79-6.56-44-17.2-62.87s-26.07-36.28-44.91-47.26a78.58,78.58,0,0,0-25.59-9.75,51.55,51.55,0,0,0-24.28,1.15c-1.23.37-2.43.8-3.61,1.28-11.66,8.71-17.93,22.39-20.28,36.71L228,50.36l22.45,12-.27,1.77-1.27,8.51-41.8,22.77a125.48,125.48,0,0,0,4.51,17.26l63.9-32.86,15.25,18.78L292,100,289.13,110l-62.46,34a138.76,138.76,0,0,0,11.56,15.51l46.64-25.41,8.56,2.43.21,1.95L295.86,159,260,179.45c16.21,11.38,37.44,19.3,57.12,13.27C318.37,192.34,319.56,191.92,320.74,191.44ZM175.16,103.11,157.68,91l-.7,4.65,17.48,12.15Zm70.66-32.54.62-4.2-68,37-.63,4.2ZM227.9,54.09,159.67,88.3l17.38,12.09,68-37.06Zm-7,122.91-3.31-.94,2.8,17.77,3.31.94Zm64.38-39.34L219.9,173.27l2.27.64,65.37-35.61Zm7.05,19.58-1.81-16.78-66.32,36.13L227,194.45Zm-74-18.3L206,121.54l-1.24,4.28L217,143.22Zm68-31.23,1.13-3.87-66,35.92-1.12,3.88ZM274.72,84l-66.85,34.38,12.74,18.11L287.52,100ZM176.46,275.15a45.35,45.35,0,0,1-4.84,3.12,46.67,46.67,0,0,1-9.54,4.07,55.07,55.07,0,0,1-25.49,1.19,82.1,82.1,0,0,1-26.61-10c-19.47-11.27-35.41-29.14-46.38-48.6s-18-42.33-17.58-64.8c.35-17.91,5.69-36.79,19.4-49.12A47.61,47.61,0,0,1,79,102.39a44.46,44.46,0,0,1,4.82-3.11,46.52,46.52,0,0,1,9.55-4.07A55,55,0,0,1,118.88,94a77.45,77.45,0,0,1,18.58,5.89l.32-.17.25.44c2.55,1.18,5.05,2.49,7.47,3.89,19.47,11.27,35.4,29.14,46.37,48.6s18,42.33,17.59,64.8c-.36,17.91-5.7,36.79-19.41,49.12a47.17,47.17,0,0,1-13.59,8.56Zm24.79-31-5.66,3.19a60.09,60.09,0,0,1-9.29,18.1c.48-.4.95-.8,1.41-1.21A51.3,51.3,0,0,0,201.25,244.16Zm1.73-5.09a79.22,79.22,0,0,0,2.89-15.7l-6.58,3.7A85.55,85.55,0,0,1,197,242.45ZM92.4,99a59.19,59.19,0,0,1,16.48.63,77.73,77.73,0,0,1,18.58,5.89l6.43-3.62a72.48,72.48,0,0,0-15.4-4.64A51.72,51.72,0,0,0,94.2,98.43C93.59,98.61,93,98.81,92.4,99Zm45.54,4.74-6.56,3.69q2.09,1.08,4.12,2.25a112.82,112.82,0,0,1,20.08,15l7-3.93A109.1,109.1,0,0,0,144.07,107C142.07,105.87,140,104.77,137.94,103.76Zm27.35,19.55-7,3.94a135.24,135.24,0,0,1,14.45,16.83l7.09-4A131.79,131.79,0,0,0,165.29,123.31ZM181.92,143l-7.1,4q3.8,5.5,7.05,11.28c1,1.74,1.93,3.5,2.85,5.3l7.1-4q-1.37-2.7-2.84-5.3Q185.74,148.54,181.92,143Zm11.5,19.79-7.11,4A141.14,141.14,0,0,1,193,183.15l7.07-4A140.18,140.18,0,0,0,193.42,162.81Zm7.71,19.85-7,4A126.93,126.93,0,0,1,198,203.12l6.94-3.91A124.21,124.21,0,0,0,201.13,182.66Zm4.3,20.37-6.9,3.89a109.26,109.26,0,0,1,.93,16l6.67-3.76c0-.65,0-1.3.05-2A103,103,0,0,0,205.43,203ZM108.9,269c.83.51,1.67,1,2.51,1.51A78.61,78.61,0,0,0,137,280.27a51.72,51.72,0,0,0,24.29-1.15,44.33,44.33,0,0,0,16.43-9.25c.72-.64,1.41-1.3,2.08-2ZM104,265.77l78.8-1.24a55.23,55.23,0,0,0,9.12-16.62L85.63,249.58A118.12,118.12,0,0,0,104,265.77Zm86-81a138,138,0,0,0-6.68-16.51L49.63,170.38A114.11,114.11,0,0,0,52.24,187Zm-62.08-75.41-.17.09-.08-.14-56,.88a44.29,44.29,0,0,0-3.89,3.09A49.07,49.07,0,0,0,57.1,127.07l94.6-1.49a108.46,108.46,0,0,0-17.64-12.92C132.07,111.5,130,110.4,127.94,109.39Zm27.35,19.55-.1.05-.08-.14-99.64,1.56a69.88,69.88,0,0,0-5,16.7l119-1.87A132.32,132.32,0,0,0,155.29,128.94Zm16.62,19.71,0,0-.09-.14L50,150.44a90.28,90.28,0,0,0-.71,9.94q0,3.35.12,6.69L181.7,165q-1.3-2.56-2.72-5.06C176.82,156.1,174.46,152.32,171.91,148.65Zm-51.6-42.51a69.75,69.75,0,0,0-11.83-3.23,51.72,51.72,0,0,0-24.29,1.15,44.24,44.24,0,0,0-6.86,2.75ZM70.47,229.88A138.22,138.22,0,0,0,82.7,246.3L193,244.57A78.87,78.87,0,0,0,196,227.91ZM59.94,210.1a143.76,143.76,0,0,0,6.55,13.15c.63,1.12,1.28,2.23,2,3.34l127.69-2c0-.6,0-1.2.05-1.79a103.66,103.66,0,0,0-.84-14.82Zm-6.89-19.83a132.89,132.89,0,0,0,5.5,16.53l136.33-2.14a124.81,124.81,0,0,0-3.81-16.56Z"/></g></g></g></g></g></g></g></svg>