<svg xmlns="http://www.w3.org/2000/svg" xmlns:xlink="http://www.w3.org/1999/xlink" width="310" height="286" viewBox="0 0 310 286">
    <defs>
        <path id="a" d="M1.13 1.552h265.017v253.924H1.13z"/>
        <path id="c" d="M0 2.246h309.346v272.175H0z"/>
    </defs>
    <g fill="none" fill-rule="evenodd">
        <g transform="translate(0 30.277)">
            <mask id="b" fill="#fff">
                <use xlink:href="#a"/>
            </mask>
            <path fill="#FFFAED" d="M152.985 1.552c62.497 0 113.162 50.616 113.162 113.056 0 62.21-50.294 112.679-112.476 113.05-2.375 3.622-5.188 6.969-8.487 9.935a47.636 47.636 0 0 1-8.424 6.053 47.4 47.4 0 0 1-5.165 2.5 47.108 47.108 0 0 1-14.387 7.195c-8.282 2.497-16.997 2.681-25.484 1.19-9.378-1.65-18.401-5.3-26.616-10.054-19.47-11.264-35.404-29.138-46.376-48.593C7.757 176.424.705 153.546 1.15 131.076c.352-17.904 5.69-36.784 19.4-49.116a47.337 47.337 0 0 1 8.426-6.053 47.034 47.034 0 0 1 5.188-2.516 47.223 47.223 0 0 1 4.815-3.116 47.183 47.183 0 0 1 9.549-4.065c.824-.25 1.652-.474 2.485-.679C69.3 27.672 108.088 1.551 152.985 1.551" mask="url(#b)"/>
        </g>
        <path fill="#8A000D" d="M133.878 18.372c12.937-1.977 25.7-1.71 37.894.505l-2.242 2.943a111.605 111.605 0 0 0-35.155-.205c-38.121 5.828-68.76 30.299-84.055 62.712l-4.04.93c15.358-34.52 47.447-60.746 87.598-66.885zm119.53 165.699c-16.255 31.621-46.943 55.272-84.802 61.058a115.464 115.464 0 0 1-19.618 1.312l2.23-3.259c5.573-.004 11.217-.43 16.89-1.298 36.482-5.576 66.105-28.226 81.992-58.573l3.308.76z"/>
        <path fill="#FC6" d="M42.486 95.2c30.777-16.611 75.662 6.789 100.25 52.266 24.587 45.477 19.57 95.81-11.208 112.421-30.777 16.61-75.66-6.792-100.25-52.269-24.587-45.475-19.57-95.808 11.208-112.419M120.863 76.33l15.26 10.737 66.791-35.99-16.223-8.007zM136.421 87.305l-1.168 7.865 36.64-19.078-1.287-7.08z"/>
        <path fill="#FC6" d="M190.782 16.145c30.354-16.383 74.628 6.698 98.877 51.551 24.254 44.856 19.303 94.499-11.05 110.881-19.386 10.461-44.446 4.829-66.343-12.29l36.11-19.969-2.354-20.703-6.383-1.677-45.62 24.415a133.104 133.104 0 0 1-12.71-18.487l61.825-31.902 1.313-9.409-15.36-18.82-60.16 31.062c-4.785-16.511-5.783-32.682-3.184-46.671l20.102-10.629-4.649-2.985-14.034 7.452c3.91-14.127 11.857-25.471 23.62-31.819"/>
        <path fill="#FC6" d="M169.261 107.1l10.876 15.93-2.55 9.14 64.303-35.38 2.557-8.236-12.173-14.914zM248.377 146.318l-1.68-14.772-62.536 33.813 2.389 16.08z"/>
        <g transform="translate(0 -1.945)">
            <mask id="d" fill="#fff">
                <use xlink:href="#c"/>
            </mask>
            <path fill="#8A000D" d="M158.013 87.063l-28.41 15.476-1.483-1.03-20.727-14.411 1.52-10.178 47.798-23.964c2.447-17.985 10.634-35.29 27.009-44.508a47.358 47.358 0 0 1 9.546-4.067c8.282-2.5 17-2.679 25.486-1.188 9.376 1.648 18.402 5.299 26.617 10.054 19.469 11.26 35.401 29.136 46.376 48.593 10.975 19.458 18.024 42.336 17.582 64.806-.353 17.906-5.693 36.786-19.402 49.118a47.237 47.237 0 0 1-8.425 6.053 47.38 47.38 0 0 1-9.555 4.067c-21.144 6.371-43.85-2.27-61.055-14.7l-30.937 17.626-8.521-2.42-3.72-23.588 21.548-11.738a141.693 141.693 0 0 1-11.507-15.54l-6.586 3.587-1.2-1.705-14.8-21.041 2.855-9.81 4.573-2.354a130.7 130.7 0 0 1-4.582-17.138zm128.307 87.433c.426-.352.847-.714 1.262-1.082 13.189-11.747 18.19-29.96 18.471-47.076.36-21.787-6.56-44.004-17.201-62.868-10.639-18.864-26.074-36.287-44.916-47.268-7.885-4.596-16.566-8.15-25.582-9.75-8.093-1.438-16.398-1.272-24.29 1.149a42.48 42.48 0 0 0-1.586.52c15.143-1.632 30.61 3.409 43.605 11.048 19.194 11.28 34.906 28.972 45.77 48.239 10.915 19.351 17.941 42.068 17.589 64.417-.238 14.974-3.947 30.664-13.122 42.671zm-11.576 6.89c1.016-.756 2-1.56 2.948-2.404 13.187-11.748 18.188-29.96 18.471-47.077.358-21.787-6.563-44.004-17.201-62.868-10.639-18.861-26.074-36.287-44.913-47.265-7.888-4.596-16.569-8.15-25.585-9.75-8.09-1.438-16.396-1.272-24.286 1.151a44.24 44.24 0 0 0-3.612 1.28c-11.652 8.711-17.928 22.397-20.277 36.708L181.95 40.3l22.445 12.054-.265 1.77-1.271 8.507-41.803 22.774c1.087 5.85 2.617 11.623 4.517 17.262l63.896-32.86 15.248 18.779 1.302 1.388-2.887 9.933-62.458 34.023a138.232 138.232 0 0 0 11.558 15.515l46.636-25.408 8.56 2.43.213 1.948 2.216 20.57-35.823 20.407c16.207 11.384 37.433 19.306 57.111 13.271a44.482 44.482 0 0 0 3.599-1.277zm-145.588-88.33l-17.48-12.152-.693 4.647 17.478 12.153.695-4.647zm70.662-32.546l.627-4.194-67.974 37.028-.626 4.196 67.973-37.03zM181.9 44.04l-68.231 34.208 17.386 12.088 68.037-37.062L181.9 44.04zm-7.008 122.902l-3.313-.939 2.801 17.775 3.31.942-2.798-17.778zm64.375-39.34l-65.37 35.61 2.269.644 65.37-35.608-2.27-.647zm7.054 19.579l-1.807-16.779-66.326 36.13 2.813 17.86 65.32-37.211zm-74.037-18.296l-12.24-17.402-1.241 4.279 12.24 17.402 1.241-4.279zm68.045-31.227l1.126-3.874-65.95 35.925-1.127 3.874 65.95-35.925zm-11.611-23.732l-66.849 34.379 12.742 18.113 66.906-36.448-12.8-16.044zM130.465 265.09a47.302 47.302 0 0 1-14.387 7.195c-8.281 2.5-16.996 2.679-25.483 1.187-9.376-1.647-18.402-5.3-26.62-10.053-19.466-11.262-35.4-29.138-46.373-48.593C6.627 195.369-.422 172.49.02 150.02c.353-17.906 5.692-36.786 19.402-49.118a47.192 47.192 0 0 1 13.612-8.57 47.061 47.061 0 0 1 14.364-7.181c8.282-2.499 16.997-2.678 25.484-1.187 6.404 1.126 12.645 3.186 18.577 5.895l.318-.18.248.44a95.015 95.015 0 0 1 7.476 3.896c19.466 11.264 35.4 29.14 46.373 48.598 10.975 19.458 18.025 42.333 17.582 64.804-.352 17.904-5.692 36.784-19.401 49.118a47.403 47.403 0 0 1-8.425 6.053 47.213 47.213 0 0 1-5.165 2.502zm24.783-30.986l-5.66 3.185c-2.103 6.518-5.137 12.684-9.286 18.1.477-.391.947-.792 1.407-1.204 6.204-5.526 10.597-12.484 13.54-20.081zm1.73-5.087c1.514-5.11 2.442-10.417 2.891-15.703l-6.577 3.703c-.315 5.148-1.06 10.332-2.31 15.374l5.996-3.374zM46.403 88.964c5.469-.593 11.018-.324 16.474.633 6.406 1.126 12.647 3.183 18.579 5.892l6.439-3.625c-4.96-2.094-10.127-3.703-15.41-4.642-8.093-1.438-16.397-1.27-24.288 1.149-.603.186-1.202.384-1.794.593zm45.535 4.737l-6.561 3.694a96.142 96.142 0 0 1 4.119 2.253c7.201 4.166 13.919 9.237 20.081 14.96l6.983-3.93c-5.706-5.216-11.89-9.854-18.492-13.702a90.245 90.245 0 0 0-6.13-3.275zm27.352 19.552l-7.006 3.945c5.271 5.195 10.102 10.859 14.447 16.825l7.093-3.991c-4.363-5.964-9.224-11.619-14.534-16.779zm16.626 19.713l-7.1 3.998a146.48 146.48 0 0 1 9.9 16.576l7.108-4a143.482 143.482 0 0 0-9.908-16.574zm11.5 19.79l-7.105 4a141.865 141.865 0 0 1 6.65 16.336l7.066-3.98a139.362 139.362 0 0 0-6.611-16.357zm7.715 19.85l-7.052 3.97a126.907 126.907 0 0 1 3.886 16.49l6.941-3.911a122.89 122.89 0 0 0-3.775-16.549zm4.3 20.367l-6.903 3.888c.695 5.305 1.022 10.637.93 15.952l6.672-3.759c.025-.649.041-1.298.053-1.945.078-4.704-.185-9.43-.751-14.136zM62.9 258.953c.831.515 1.668 1.02 2.508 1.512 7.89 4.596 16.569 8.15 25.585 9.75 8.09 1.438 16.396 1.272 24.288-1.151a44.2 44.2 0 0 0 18.513-11.225L62.9 258.953zm-4.884-3.243l78.8-1.236c4.025-4.935 7.008-10.601 9.125-16.62L39.63 239.52c5.586 6.021 11.737 11.504 18.386 16.19zm86.009-80.963a139.503 139.503 0 0 0-6.688-16.516L3.625 160.33c.454 5.556 1.343 11.103 2.613 16.578l137.787-2.161zm-62.09-75.414l-.168.094-.08-.14-56.04.877a45.415 45.415 0 0 0-3.885 3.089c-4.434 3.951-7.943 8.633-10.659 13.76l94.593-1.484c-5.467-4.9-11.362-9.268-17.633-12.923a91.2 91.2 0 0 0-6.128-3.273zm27.354 19.55l-.094.055-.08-.145-99.645 1.565c-2.373 5.282-3.983 10.944-4.967 16.7l118.97-1.869c-4.273-5.786-9.016-11.282-14.184-16.306zm16.624 19.715l-.028.014-.08-.14-121.802 1.912a88.925 88.925 0 0 0-.71 9.943 99.64 99.64 0 0 0 .116 6.686l132.292-2.076a143.736 143.736 0 0 0-9.788-16.339zM74.308 96.083c-3.85-1.41-7.805-2.515-11.828-3.229-8.093-1.436-16.397-1.27-24.288 1.15a43.948 43.948 0 0 0-6.867 2.754l42.983-.675zM24.467 219.821a139.488 139.488 0 0 0 12.228 16.427l110.32-1.731c1.592-5.418 2.534-11.062 2.937-16.666l-125.485 1.97zm-10.528-19.775a143.896 143.896 0 0 0 8.496 16.488l127.697-2.004c.023-.599.037-1.195.048-1.789.08-4.932-.212-9.887-.836-14.82l-135.405 2.125zm-6.888-19.83a133.21 133.21 0 0 0 5.501 16.532l136.324-2.138c-.873-5.584-2.163-11.124-3.806-16.563L7.05 180.215z" mask="url(#d)"/>
        </g>
    </g>
</svg>
