<svg id="Layer_1" data-name="Layer 1" xmlns="http://www.w3.org/2000/svg" xmlns:xlink="http://www.w3.org/1999/xlink" viewBox="0 0 405 297"><defs><style>.cls-1{fill:#fff;}.cls-2{fill:#fffaed;}.cls-3{fill:#8a000d;}.cls-4{mask:url(#mask);}.cls-5{mask:url(#mask-2-2);}</style><mask id="mask" x="62" y="106.28" width="87.63" height="48.24" maskUnits="userSpaceOnUse"><g id="mask-2"><polygon id="path-1" class="cls-1" points="62 106.28 149.63 106.28 149.63 154.53 62 154.53 62 106.28"/></g></mask><mask id="mask-2-2" x="258.22" y="20.35" width="62.75" height="34.96" maskUnits="userSpaceOnUse"><g id="mask-4"><polygon id="path-3" class="cls-1" points="258.22 20.35 320.96 20.35 320.96 55.31 258.22 55.31 258.22 20.35"/></g></mask></defs><title>step3</title><g id="Page-3"><g id="Mainframe"><g id="Production-Cycle"><g id="icon"><g id="step3"><path id="Fill-1" class="cls-2" d="M192.82,45.26a115.59,115.59,0,0,1,12.55.69v56.76c-14,7.5-54.47,29.17-54.76,28.63s-3.51,3.1-3.51,3.1L140,138.25l-5.41,7.09L131,153.79l-1.75,9L96.52,180.07l-4.75,3-3.6,4.46-1.73,5.77s-.16,1.45-.37,3.06a112.82,112.82,0,0,1-6.44-34.73c-.1-3.76,0-7.6.26-11.34A113.23,113.23,0,0,1,192.82,45.26Zm12.55,73.93v12.37l-5,2.62-.41-1.81,1.13-8.52,1.45-9.37,1.72-.68S205.37,118.91,205.37,119.19Zm0,59.55v2.77l84.91,34.62a113.24,113.24,0,0,1-187.81,10.61C100.2,230,97.11,232,93.7,232c-7,0-12.65-8.37-12.65-18.7,0-5.84,1.81-11.05,4.65-14.48-.2,1.08-.4,1.85-.56,1.74-.49-.32,1.8,7.78,1.8,7.78l3.82,6.06L96,217.75l5-.07,8.57-4.83,28.49-15.55,3.66,4.15s6.77,3.73,7.32,3.79,6.47.3,6.47.3l7.14-2.25,8.91-5.56Z"/><path id="Fill-3" class="cls-3" d="M190.23,225.79l83.51-44.56.44-.23a1.65,1.65,0,1,1,1.44,3l-.31.16-83.53,44.57c-2.4,1.28-3.95-1.62-1.55-2.9"/><g id="Group-7"><g class="cls-4"><path id="Fill-5" class="cls-3" d="M63.2,151.31l83.51-44.56.44-.24a1.65,1.65,0,1,1,1.44,3l-.31.17L64.75,154.2c-2.4,1.29-4-1.61-1.55-2.89"/></g></g><path id="Fill-8" class="cls-3" d="M125.06,93.26,183.68,62l.45-.23a1.65,1.65,0,1,1,1.44,3l-.32.17L126.61,96.16c-2.41,1.29-4-1.62-1.55-2.9"/><g id="Group-12"><g class="cls-5"><path id="Fill-10" class="cls-3" d="M259.42,52.09,318,20.81l.45-.23a1.64,1.64,0,1,1,1.43,3l-.31.17L261,55c-2.41,1.29-4-1.62-1.55-2.9"/></g></g><path id="Fill-13" class="cls-3" d="M181.75,158.48l36.37-19.4.44-.24a1.65,1.65,0,1,1,1.44,3l-.31.17-36.38,19.41c-2.41,1.29-4-1.62-1.56-2.9"/><path id="Fill-15" class="cls-3" d="M227.68,134.34l12.44-6.64.45-.24a1.65,1.65,0,1,1,1.44,3l-.31.17-12.47,6.65c-2.41,1.28-3.95-1.62-1.55-2.9"/><path id="Fill-17" class="cls-3" d="M117.75,197.6l36.37-19.41.44-.24a1.65,1.65,0,1,1,1.44,3l-.31.17L119.3,200.49c-2.41,1.29-4-1.61-1.55-2.89"/><path id="Fill-19" class="cls-3" d="M163.67,173.45l6.23-3.32.44-.24a1.65,1.65,0,1,1,1.44,3l-.31.17-6.24,3.33c-2.41,1.28-4-1.62-1.56-2.9"/><path id="Fill-21" class="cls-3" d="M254.46,36.29,218.65,21.81l-.46-.19a1.65,1.65,0,1,0-1.12,3.09l.32.13,35.83,14.49c2.53,1,3.76-2,1.24-3"/><polygon id="Fill-23" class="cls-2" points="235.45 114.76 234.4 106.47 236.08 97.14 238.07 88.23 241.29 83.19 246.15 78.79 253.28 78.59 261.66 80.37 267.95 86.14 272.77 92.42 276.13 101.76 277.7 111.09 277.29 121.68 275.4 129.44 272.57 135.41 268.69 140.86 261.87 142.65 252.64 141.91 247.93 139.39 249.08 130.48 247.41 119.89 244.78 111.19 242.68 111.09 235.45 114.76"/><path id="Fill-25" class="cls-3" d="M197.63,29.49q3.09,0,6.15.17V4.84L216.89,0,318.72,41.66V219.32l-8.86,5.08-1.52.87-1.77-.72-19.57-8a114.87,114.87,0,0,1-179.3-.71l-5.65,3.07-.22.1a10.43,10.43,0,0,1-3.71.69c-7.9,0-14.29-9.11-14.29-20.35,0-6.61,2.21-12.48,5.65-16.2A114.93,114.93,0,0,1,197.63,29.49Zm55.25,47.25c14.33,0,25.95,16.83,25.95,37.59s-11.62,37.58-25.95,37.58a18.25,18.25,0,0,1-6.39-1.15,35.14,35.14,0,0,1-8.23,11.9c-2.45,2.27-4,3-6.87,4.55l-24.18,13.13L306.57,221V192a1.65,1.65,0,1,1,3.29,0v28.69l5.57-3.2V45.61l-5.57,3.19v94.06a1.65,1.65,0,1,1-3.29,0V49L207.06,8.24V33.18c-1-.08-1.92-.15-2.89-.21h-.39q-3.06-.16-6.15-.17A111.67,111.67,0,0,0,92.16,180.88l35.71-19.45c.26-1.66.61-3.33,1-5,1.86-7.29,5.24-14.85,11.15-19.75a21.75,21.75,0,0,1,4.37-2.83l59.36-32.29V47c0-2.37,3.28-2,3.28.14V99.79l8.39-4.56v0a19.39,19.39,0,0,1,11.39-1.88,20.4,20.4,0,0,1,3.63.86l.41.14C235.48,83.78,243.61,76.74,252.88,76.74Zm-5.2,71a15.55,15.55,0,0,0,5.2.91,17.08,17.08,0,0,0,11.25-4.53,18.13,18.13,0,0,1-8.67.18,20.27,20.27,0,0,1-6.12-2.49A48.24,48.24,0,0,1,247.68,147.72Zm2.29-9.45a17.18,17.18,0,0,0,6.2,2.8,14.87,14.87,0,0,0,3.26.36,16.41,16.41,0,0,0,9.78-3.39l0,0c3.91-6.16,6.31-14.53,6.31-23.75,0-19-10.14-34.3-22.66-34.3a16.58,16.58,0,0,0-9.81,3.37h0c-4.4,6.93-6.33,15.59-6.33,23.72a52.42,52.42,0,0,0,.29,5.43l5.29-2.87,2.85-1.46,1.43,2.87a48.34,48.34,0,0,1,3.65,14.53A53.74,53.74,0,0,1,250,138.27Zm-16-24a55.14,55.14,0,0,1-.46-7.12,52.71,52.71,0,0,1,2.15-15,45.71,45.71,0,0,0-5.42,22.25c0,.65,0,1.29,0,1.92ZM227.06,118c-.09-1.21-.12-2.43-.12-3.67a52.45,52.45,0,0,1,1.58-13L207.06,113v15.82ZM109.3,186.62c.09.15.19.3.28.46a18.4,18.4,0,0,1,2.22,6.36,28.43,28.43,0,0,1,.59,4.85h0v0c0,.16,0,.32,0,.48v0c0,.17,0,.34,0,.5s0,.32,0,.48v.29a27.2,27.2,0,0,1-1.46,8.21,22,22,0,0,1-1.1,2.71L175,175.57c.23-.13.46-.26.68-.4a50.45,50.45,0,0,0,.13-10.55,44.83,44.83,0,0,0-4-14.81l-.69-1.45,1.4-.77,13.47-7.31a8.82,8.82,0,0,0-4.3-2.47,7.1,7.1,0,0,0-1.53-.17,7.78,7.78,0,0,0-3.7,1l-20.7,11.25-54.46,29.62a14.55,14.55,0,0,1,7.71,6.73C109.15,186.37,109.23,186.49,109.3,186.62Zm-2.82,23.77a8.86,8.86,0,0,1-3.6,1.73,8,8,0,0,1-3.47,0,10.74,10.74,0,0,1-6.7-5.35,20.63,20.63,0,0,1,0-19.69,11.53,11.53,0,0,1,5-4.78h-.2l-.16,0a7.43,7.43,0,0,0-2.74.86l-.56.3c-4.06,2.51-6.94,8.66-6.94,15.85,0,9.42,4.93,17.07,11,17.07a7.52,7.52,0,0,0,3.19-.73l.43-.24A12.31,12.31,0,0,0,106.48,210.39Zm-5.34-25.57a5.15,5.15,0,0,0-1,.11,7.65,7.65,0,0,0-4.57,3.82,17.33,17.33,0,0,0,0,16.35,7.63,7.63,0,0,0,4.57,3.81,4.53,4.53,0,0,0,1,.12,4.46,4.46,0,0,0,1-.12,7.58,7.58,0,0,0,4.57-3.81,16.3,16.3,0,0,0,2.05-8.18,18.72,18.72,0,0,0-.22-2.88,21,21,0,0,0-2.1-5.74,7.33,7.33,0,0,0-4.3-3.37A5.07,5.07,0,0,0,101.14,184.82Zm102.64-2.61-40.49,22a19.79,19.79,0,0,1-8.36,2.76c-7,.64-12.85-2.56-17.23-7.4l-27.06,14.68a111.57,111.57,0,0,0,173.17,1l-80-32.75Zm104.44-21.28a1.66,1.66,0,0,1,1.64,1.65v18a1.65,1.65,0,1,1-3.29,0v-18A1.66,1.66,0,0,1,308.22,160.93ZM210.5,6.1,221,10.4,308.09,46l5.25-3L217.13,3.65Zm-6.72,110.56c-.19.64-.37,1.28-.53,1.92a50.13,50.13,0,0,0-1.6,13.22l2.13-1.15ZM131.59,159.4,156,146.12l19-10.35a11,11,0,0,1,5.27-1.42,10.46,10.46,0,0,1,2.24.25,12.5,12.5,0,0,1,6.58,4.05l9.37-5.09a53.38,53.38,0,0,1,1.64-15.8c.09-.35.19-.72.29-1.08L163,137l-1.21.66-1.21-.64a17.51,17.51,0,0,0-5.37-1.69,16.13,16.13,0,0,0-9.28,1.47l-.59.32v0a18.55,18.55,0,0,0-3.21,2.15c-5.35,4.43-8.39,11.46-10.06,18C131.91,158,131.74,158.68,131.59,159.4Zm43.48,19.9L140.68,198c3.64,3.76,8.35,6.25,13.95,5.74a16.16,16.16,0,0,0,5.73-1.64h0l1.3-.71a19.16,19.16,0,0,0,3.21-2.42C170.26,193.93,173.55,186.77,175.07,179.3ZM191.55,141l-16.08,8.75a48.34,48.34,0,0,1,3.65,14.53c1,10.46-1.16,22.53-7.29,31.51l39.36-21.38,17.54-9.52c1.3-.71,2.66-1.41,3.93-2.16a19.41,19.41,0,0,0,3.37-2.51c8.95-8.29,12.1-22.54,11-34.3a45.39,45.39,0,0,0-3.28-13.27l-33.45,18.18-8.43,4.58Zm14.18-36.78-4,2.18-.1,0L154.83,132c.28,0,.57.06.86.1a20.55,20.55,0,0,1,6.09,1.85l40-21.75,4.66-2.53,2.75-1.5,8.9-4.84,11.07-6a16.59,16.59,0,0,0-2.79-.64,16.14,16.14,0,0,0-9.8,1.73h0l-.49.27-10.36,5.63Z"/></g></g></g></g></g></svg>