<svg id="Layer_1" data-name="Layer 1" xmlns="http://www.w3.org/2000/svg" xmlns:xlink="http://www.w3.org/1999/xlink" viewBox="0 0 405 297"><defs><style>.cls-1{fill:#fff;}.cls-2{fill:#fffaed;}.cls-3{fill:#8a000d;}.cls-4{fill:#ffd169;}.cls-5{mask:url(#mask);}.cls-6{mask:url(#mask-2-2);}</style><mask id="mask" x="22" y="59.41" width="219.26" height="193.92" maskUnits="userSpaceOnUse"><g id="mask-2"><polygon id="path-1" class="cls-1" points="22 59.41 241.26 59.41 241.26 253.33 22 253.33 22 59.41"/></g></mask><mask id="mask-2-2" x="82.9" y="28.31" width="228.6" height="230.72" maskUnits="userSpaceOnUse"><g id="mask-4"><polygon id="path-3" class="cls-1" points="82.9 28.32 311.51 28.32 311.51 259.03 82.9 259.03 82.9 28.32"/></g></mask></defs><title>step6</title><g id="Page-6"><g id="Mainframe"><g id="Production-Cycle"><g id="icon"><g id="step6"><path id="Fill-1" class="cls-2" d="M195.85,47.58a113.82,113.82,0,0,1,17.23,1.3L150.3,82.79l2.14,102,99.41,13.59L307.39,167l.05-27A113.59,113.59,0,1,1,195.85,47.58"/><path id="Fill-3" class="cls-3" d="M309.85,63.16l-95.05-13L157.17,81.42l95,13ZM313.42,65,254.17,97.1V194l59.25-32.12ZM153.6,84.26v97.35l97.27,13.29V97.56ZM314.76,60.5l2,.27V163.86l-62.55,33.92-1.34.72-2-.27L150.3,184.49V81.39l1.34-.73,62.54-33.91Z"/><path id="Fill-5" class="cls-4" d="M262.56,103.67,306.21,80.2l1-.55V82.9l-1,.55-43.65,23.47-1,.55v-3.26Zm-1,73.41.88-.48,43.66-23.48,1.14-.61v3.26l-1.14.61-43.66,23.47-.88.48Z"/><path id="Fill-7" class="cls-3" d="M287.76,113.75c-2.33,1.78-4.46,3.47-6.7,5a.29.29,0,0,0-.11.27v12l-2.29,1.23V103.71a4.5,4.5,0,0,1,.51-2,3.13,3.13,0,0,1,1.25-1.39L288.36,96a1,1,0,0,1,1.24.06,1.92,1.92,0,0,1,.51,1.49v28.53l-2.29,1.23V113.79C287.82,113.74,287.8,113.71,287.76,113.75Zm6-4.25a15.4,15.4,0,0,1,6.08-2.37,2.68,2.68,0,0,0,1.37-.33,3.93,3.93,0,0,0,1.67-3.57V90.69a1.93,1.93,0,0,0-.51-1.5,1,1,0,0,0-1.25,0l-7.93,4.27a3,3,0,0,0-1.25,1.39,4.5,4.5,0,0,0-.51,2v28.53l2.29-1.23V109.6A.11.11,0,0,1,293.76,109.5Zm-3.65,30.85v-10.1a1.94,1.94,0,0,0-.51-1.5,1,1,0,0,0-1.24-.05L280.42,133a3.13,3.13,0,0,0-1.25,1.39,4.5,4.5,0,0,0-.51,2v28.53l2.29-1.23V151.43a.31.31,0,0,1,.11-.22c2.31-1.57,4.32-3.12,6.76-5V160l2.29-1.23ZM281,145.27V136a.38.38,0,0,1,0-.1.18.18,0,0,1,.07-.05l6.71-3.61s.06,0,.07,0a.25.25,0,0,1,0,.09v10.19a.22.22,0,0,1-.11.16c-2.53,2-5,3.84-6.72,5,0,0,0,0,0-.09Zm-6.15,5.86-.83.34,3.37-16.85L274.75,136l-3.28,16.22a16.44,16.44,0,0,1-3.17.47c-.05,0-.12-.06-.12-.14V139.51l-2.29,1.23V171.8l2.29-1.23V156.38a19.29,19.29,0,0,0,6.76-1.7c.05,0,.11,0,.11.1v12.1l2.29-1.23V153.51c0-1.28-.26-2.73-1.82-2.57A2.74,2.74,0,0,0,274.8,151.13Zm-.13-32.44a18.22,18.22,0,0,1-6.37,1.49c-.13,0-.12-.12-.12-.34V110.1l6.8-3.65,2.36-1.27v-3.26l-9.69,5.21a3.22,3.22,0,0,0-1.25,1.4,4.5,4.5,0,0,0-.51,2v2.52h0v23.52a1.9,1.9,0,0,0,.51,1.49,1,1,0,0,0,1.25.06l7.94-4.27a2.67,2.67,0,0,0,1-.93h0a.41.41,0,0,0,.07-.11l0,0,.15-.26,0-.06a1.75,1.75,0,0,0,.13-.28l0-.07,0-.06V132l0,0v-.09h0v-.07h0v-.06h0v-.19h0v-.06h0v-.06h0v0h0v0h0v-.19s0-.08,0-.13v0h0v-.09h0v-.17h0v-.06h0v-.06h0v-.1h0v0h0v-9.41c0-1.46-.31-2.68-1.57-2.69A2.69,2.69,0,0,0,274.67,118.69Zm-6.49,5.19a20.16,20.16,0,0,0,6.76-1.71c.05,0,.11,0,.11.13v8.54H275l0,0-6.72,3.61s-.06,0-.07,0a.25.25,0,0,1,0-.09V123.88Zm32.41-20.53a16.39,16.39,0,0,0-6.76,2.53c-.05,0-.11,0-.11,0V96.48a.34.34,0,0,1,0-.1s0,0,.06,0l6.72-3.61s.06,0,.07,0a.25.25,0,0,1,0,.09Zm0,32.51a17.27,17.27,0,0,0-6.72,2.53s-.11,0-.11-.11v-9.21l6.79-3.65,2.37-1.28v-3.25l-9.69,5.21a3.1,3.1,0,0,0-1.25,1.4,4.43,4.43,0,0,0-.51,2v26a1.92,1.92,0,0,0,.51,1.49,1,1,0,0,0,1.25.05l7.93-4.26a2.87,2.87,0,0,0,1-.93l.07-.11v0a2.26,2.26,0,0,0,.16-.26h0l0-.06c.05-.1.09-.19.13-.29h0l0-.06h0l0-.06h0l0,0v0h0v0h0l0,0h0v0h0v-.1h0v-.06h0v0h0v0h0v0h0v-.13h0v0h0v0h0v0h0v-.07h0l0-.06v-.13l0-.13v-.22h0v-.07h0v-.06h0v-.07h0v0h0v0h0v-.13h0v-6h0v-4.78C302.88,136.88,302.46,135.63,300.55,135.86ZM293.72,142a14.34,14.34,0,0,1,6.76-2.41c.07,0,.11.08.11.17v10h-.08l-6.72,3.61-.06,0a.28.28,0,0,1,0-.09V142Zm-13-26.71c2.3-1.56,4.57-3.27,6.94-5.13a.21.21,0,0,0,.11-.17V99.65a.28.28,0,0,0,0-.09l-.07,0-6.71,3.6a.2.2,0,0,0-.07.06.31.31,0,0,0,0,.1Z"/><g id="Group-11"><g class="cls-5"><path id="Fill-9" class="cls-3" d="M42.2,126.94l124-67.23c2.28-1.23,3.88,1.65,1.54,2.92l-124,67.22a1.65,1.65,0,1,1-1.55-2.91M23.09,184l150.69-81.7c2.52-1.37,4.06,1.55,1.57,2.9L24.64,186.9A1.67,1.67,0,1,1,23.09,184m14.58,59.26,115.09-62.4,1.57,2.91L39.2,246.17c-2.26,1.23-3.87-1.65-1.53-2.92m74.12-70.32,113.7-61.64c2.19-1.19,3.8,1.69,1.53,2.92L113.33,175.85c-2.29,1.24-3.88-1.65-1.54-2.92M74.54,250.18l95.79-51.92a1.66,1.66,0,1,1,1.64,2.87l-95.89,52a1.66,1.66,0,0,1-1.54-2.94m92-8.72,72-39c2.44-1.32,4,1.59,1.6,2.89L168,244.39a1.65,1.65,0,1,1-1.51-2.93"/></g></g><g id="Group-14"><g class="cls-6"><path id="Fill-12" class="cls-3" d="M197.87,28.31a114.76,114.76,0,0,1,77.69,30.16l-5.94-.81a111.92,111.92,0,0,0-176,45.16l-4.4,2.39A115.3,115.3,0,0,1,197.87,28.31ZM86.1,149.83a111.52,111.52,0,0,0,21.06,59.5l-2.92,1.58A114.78,114.78,0,0,1,82.9,151.56ZM120.91,225A111.91,111.91,0,0,0,307.79,165l3.72-2a115.2,115.2,0,0,1-193.64,63.76Z"/></g></g><polygon id="Fill-15" class="cls-3" points="230.27 71.01 212.48 49.98 215 47.84 234.19 70.55 311.29 61.32 311.68 64.6 236.75 73.56 254.53 94.6 252.02 96.74 232.82 74.03 155.73 83.25 155.33 79.98 230.27 71.01"/></g></g></g></g></g></svg>