<svg id="Layer_1" data-name="Layer 1" xmlns="http://www.w3.org/2000/svg" xmlns:xlink="http://www.w3.org/1999/xlink" viewBox="0 0 405 297"><defs><style>.cls-1{fill:#fff;}.cls-2{mask:url(#mask);}.cls-3{fill:#fffaed;}.cls-4{mask:url(#mask-2-2);}.cls-5{fill:#fc6;}.cls-6{fill:#8a000d;}</style><mask id="mask" x="0" y="42.97" width="300.4" height="226.23" maskUnits="userSpaceOnUse"><g id="mask-2"><polygon id="path-1" class="cls-1" points="0 42.97 300.39 42.97 300.39 269.2 0 269.2 0 42.97"/></g></mask><mask id="mask-2-2" x="210.41" y="71.85" width="102.33" height="207.1" maskUnits="userSpaceOnUse"><g id="mask-4"><polygon id="path-3" class="cls-1" points="210.41 71.85 312.74 71.85 312.74 278.95 210.41 278.95 210.41 71.85"/></g></mask></defs><title>step2</title><g id="Page-2"><g id="Mainframe"><g id="Production-Cycle"><g id="icon"><g id="step2"><g id="Group-3"><g class="cls-2"><path id="Fill-1" class="cls-3" d="M187.22,43a113.12,113.12,0,1,1-72.43,200l-1.42.78-3.09,1.68-1.2.65-1.91-.25-63.79-8.57.09-7.39-13.35-1.79.13-11.75,0-2.56,1.32-.53,3.52-1.41L0,207.14l.13-11.75,0-2.55,1.33-.53,43.94-17.6-5.77-.77.14-11.75,0-2.56,1.33-.53,31.66-12.67h0l1.69-.68A113.17,113.17,0,0,1,187.22,43"/></g></g><g id="Group-6"><g class="cls-4"><path id="Fill-4" class="cls-5" d="M295.61,71.85a59.06,59.06,0,0,1,17.13,2.54,59.56,59.56,0,0,0-7.93-.54c-47.05,0-85.2,56.38-85.2,125.93,0,30,7.1,57.54,18.94,79.17h-8.08C218,257,210.41,228.71,210.41,197.78c0-69.55,38.14-125.93,85.2-125.93"/></g></g><path id="Fill-7" class="cls-5" d="M246.28,61.43c12.71,0,24.74,4.3,35.47,12-42.9,6.89-76.29,60.59-76.29,125.83a180.43,180.43,0,0,0,5.81,45.88L184,259.77c-12-21-19.28-48.15-19.28-77.82,0-66.56,36.51-120.52,81.55-120.52"/><path id="Fill-9" class="cls-5" d="M303.65,74c13.34,0,25.86,5.18,36.7,14.27V222.92L255.77,268.4c-16.26-20.19-26.6-50.47-26.6-84.32,0-60.81,33.34-110.1,74.48-110.1"/><path id="Fill-11" class="cls-5" d="M231.19,61.64C188,67.89,154.3,121.69,154.3,187.13c0,26.6,5.57,51.27,15.08,71.61h-8.25c-10.1-20.71-16-46.13-16-73.62,0-61.21,29.51-112.23,68.66-123.69l.33.51,17.11-.3Z"/><polygon id="Fill-13" class="cls-5" points="116.03 161.41 56.96 153.96 56.96 160.94 116.03 168.76 116.03 161.41"/><polygon id="Fill-15" class="cls-5" points="143.66 146.13 119.35 159.19 119.35 166.55 141.57 155.14 143.66 146.13"/><polygon id="Fill-17" class="cls-5" points="143.82 142.05 119.76 154.03 67.93 147.01 156.47 111.64 152 122.13 146.3 135.85 143.82 142.05"/><polygon id="Fill-19" class="cls-5" points="141.52 159.46 80.06 192.99 80.41 199.61 139.44 168.47 141.52 159.46"/><polygon id="Fill-21" class="cls-5" points="76.4 194.6 17.33 187.15 17.33 194.14 76.4 201.96 76.4 194.6"/><polygon id="Fill-23" class="cls-5" points="113.61 169.93 81.27 187.09 29.43 180.06 77.35 160.34 102.52 164.63 116.09 163.73 113.61 169.93"/><polygon id="Fill-25" class="cls-5" points="138.89 198.05 109.94 213.85 110.29 220.47 138.66 205.49 138.89 198.05"/><polygon id="Fill-27" class="cls-5" points="106.56 215.32 47.49 207.87 47.49 214.85 106.56 222.68 106.56 215.32"/><polygon id="Fill-29" class="cls-5" points="138.56 192.92 111.58 207.23 59.74 200.21 78.17 200.82 140.05 168.07 138.54 182.78 138.96 186.88 138.56 192.92"/><polygon id="Fill-31" class="cls-5" points="119.12 224.44 60.05 216.99 60.05 223.97 119.12 231.79 119.12 224.44"/><polygon id="Fill-33" class="cls-5" points="140.96 213.11 123.65 222.77 123.99 229.38 140.73 220.55 140.96 213.11"/><polygon id="Fill-35" class="cls-5" points="138.18 204.77 117.4 216.11 117.65 220.86 138.02 210.11 138.18 204.77"/><path id="Fill-37" class="cls-6" d="M59.18,114.47,152.75,77c2.35-.94,3.79,2,1,3.14L60.33,117.55c-2.55,1-3.84-2-1.15-3.08"/><path id="Fill-39" class="cls-6" d="M139.9,61l50-20c2.42-1,3.56,2.12,1.3,3l-50,20a1.64,1.64,0,1,1-1.29-3"/><path id="Fill-41" class="cls-6" d="M186.07,92.13l51.35-27.87c-1.51-.32-3-.58-4.57-.78C215.14,65.77,199,76.15,186.07,92.13ZM148.29,242.52l1.34,4.66a36.78,36.78,0,0,1-8-3.47,115.67,115.67,0,0,1-17.42-12.1l-3.08,1.68-1.21.66-1.9-.26-63.79-8.57.08-7.38-13.35-1.8.13-11.75,0-2.55,1.32-.53L46,199.7,10.82,195,11,183.22l0-2.55,1.32-.53,43.94-17.59-5.76-.78L50.62,150l0-2.56,1.32-.52,31.67-12.69A114.83,114.83,0,0,1,286.79,70.93c1.73-.15,3.48-.23,5.23-.23a62.8,62.8,0,0,1,27.66,6.51c1.94.93,1,4.07-1.35,3a63.88,63.88,0,0,0-9.51-3.71l-60.75,33a137,137,0,0,0-17.31,35.31l95.77-52c2.49-1.36,3.77,1.69,1.72,2.8l-98.9,53.67a172.92,172.92,0,0,0-5.94,29.15l109-59.14c1.85-1,3.55,2.06,1.3,3L223,182.35q-.84,8.78-.85,17.91c0,2.81.07,5.61.19,8.38L334.61,147.7c2.72-1.47,3.66,1.81,1.83,2.75L222.51,212.27a183.3,183.3,0,0,0,3.11,23.93h.57l103.13-56c2.25-1.14,3.39,2,1.87,2.73l-104.8,56.87A162.3,162.3,0,0,0,233,262.15l88.51-48a1.65,1.65,0,1,1,1.62,2.86l-88.92,48.25q2,4.93,4.27,9.57c1.26,2.49-2.25,3-2.89,1.44q-2.51-5-4.66-10.45H219.44q2,4.88,4.28,9.46c.88,2.21-2.26,3-2.92,1.41A161.19,161.19,0,0,1,206.68,233l-7.79,4.22-7.33,4L167.5,254.24q2,4.93,4.28,9.56c1.26,2.5-2.25,3-2.9,1.45q-2.49-5.06-4.65-10.46l-1.4-3.63a166.42,166.42,0,0,1-6.51-22.33H144.66c1,4.38,2.1,8.66,3.38,12.81C148.14,242,148.22,242.25,148.29,242.52ZM87.06,132.89l71.76-28.73q2.81-4.74,5.9-9v-.31H165C180.73,73,202,59.7,225.3,59.7A63,63,0,0,1,253,66.21c1.93.94.95,4.07-1.37,3a63.29,63.29,0,0,0-9.5-3.7l-60.77,33a136.74,136.74,0,0,0-17.28,35.31l54.19-29.41c2.49-1.36,3.77,1.69,1.72,2.8l-57.33,31.11a174.12,174.12,0,0,0-5.95,29.15l25.57-13.87,23.86-13c1.84-1,3.54,2.07,1.29,3L182,157.4l-25.73,14c-.55,5.85-.85,11.82-.85,17.9q0,4.23.18,8.38L180.8,184l19.85-10.78c2.72-1.47,3.65,1.82,1.82,2.75L181,187.58l-25.23,13.69a181.16,181.16,0,0,0,3.11,23.93h.57l28-15.18,16.4-8.9v-.86c0-37.09,10.61-70.52,27.6-94.14v-.32h.23c13.7-18.89,31.49-31.43,51.22-34.42A111.56,111.56,0,0,0,87.06,132.89Zm69.17-24.16L58.7,147.78l10.67,1.42,36.81,4.89h0l8.9,1.19,28.73-15.6A151.55,151.55,0,0,1,156.23,108.73Zm-13.59,35.32-25.57,13.88.31,8.23,4.74-2.54,18.38-10C141.13,150.37,141.85,147.18,142.64,144.05Zm-2.89,13.72-22.37,12.17-1.2.65h0l-.74-.09-1.13.61-2.6,1.41-6,3.23h0L77.41,191.14l.33,8.25,39.11-21.28,21.65-11.78C138.85,163.44,139.27,160.58,139.75,157.77Zm-1.69,12.54-20.17,11-28.5,15.51h0l-12.87,7-3.47-.47h0l-20.48-2.74L49.16,202l7.09.94h0l41.49,5.52,7.79,1,31.61-17.16c0-1,0-2,0-3,0-2.72.06-5.43.17-8.11l.19-3.61Q137.7,173.9,138.06,170.31ZM137.24,196,107.53,212.1l.33,8.26,17.73-9.65,12.1-6.59C137.48,201.43,137.33,198.71,137.24,196Zm.77,11.71-19.92,10.84.71.1,19.25-10.45Zm.43,4-17.65,9.58.34,8.26,18.41-10C139.12,216.94,138.75,214.34,138.44,211.7Zm1.69,11.24-12.83,7a112.11,112.11,0,0,0,17.32,11.69A170.16,170.16,0,0,1,140.13,222.94Zm-22.26,7.42-.35-8.59-4.32-.58-5.36,2.92-1.21.66-1.9-.26-47.16-6.33,0,4.07ZM63.48,207.17l-19.12-2.55-.1,8.46,7.85,1,52.49,7.05-.34-8.59-34.15-4.54ZM78.34,153.7,53.9,150.45l-.09,8.46,4,.53,36.31,4.87,20,2.7-.34-8.59L85,154.59Zm-15.47,9.73L19,181l41,5.46h0l15.34,2,21.07-11.43h0l13.45-7.3Zm11.61,36.78-.33-8.27v-.31l-6-.81h0l-53.87-7.16-.1,8.45,38,5.1,6.62.89ZM219,208.64H207.31c-.12-2.77-.18-5.57-.18-8.38,0-6.08.29-12.06.84-17.9h11.71q-.83,8.77-.83,17.9C218.85,203.07,218.91,205.87,219,208.64Zm-11.53,3.63h11.72a183.77,183.77,0,0,0,3.07,23.93H210.62A181.59,181.59,0,0,1,207.5,212.27Zm12.56-33.55h-11.7a173.67,173.67,0,0,1,6-29.48H226A176.45,176.45,0,0,0,220.06,178.72Zm7-33.11H215.47a137.22,137.22,0,0,1,17.58-36.18h11.1A142.93,142.93,0,0,0,227.05,145.61Zm19.63-39.81h-11C249.37,87.73,267,76.14,286.43,74.26,271.28,79.59,257.66,90.65,246.68,105.8Zm-35.3,134H223a166.27,166.27,0,0,0,6.51,22.32H218A161.89,161.89,0,0,1,211.38,239.83Zm41.41-136.71,51.35-27.86c-1.51-.32-3-.58-4.56-.79C281.86,76.77,265.71,87.15,252.79,103.12ZM206.1,229.55a188.48,188.48,0,0,1-2.21-24.72l-16.4,8.9-27.82,15.1a162,162,0,0,0,6.63,22.33L190.49,238l7.19-3.9,8.39-4.56Zm-62.21-4.35h11.68a181.63,181.63,0,0,1-3.07-23.93H140.79A181.17,181.17,0,0,0,143.89,225.2Zm-3.3-27.56h11.72q-.18-4.15-.18-8.38c0-6.07.28-12,.83-17.9h-11.7q-.84,8.77-.85,17.9Q140.41,193.49,140.59,197.64Zm1-29.91h11.7a177.26,177.26,0,0,1,5.89-29.48H147.62A173.47,173.47,0,0,0,141.64,167.73Zm7.11-33.12h11.58a142.35,142.35,0,0,1,17.1-36.17h-11.1A137.15,137.15,0,0,0,148.75,134.61ZM169,94.81h11c11-15.15,24.59-26.21,39.72-31.54C200.27,65.16,182.64,76.74,169,94.81Z"/></g></g></g></g></g></svg>