<svg id="Layer_1" data-name="Layer 1" xmlns="http://www.w3.org/2000/svg" width="2839.08" height="210" viewBox="0 0 2839.08 210"><defs><style>.cls-1{fill:#dcd6c4;}.cls-2{fill:none;}.cls-3{fill:#fff;}</style></defs><title>truck_bg</title><path class="cls-1" d="M1103.63,99.31a1.38,1.38,0,0,0,1-2.4,1.43,1.43,0,0,0-.48-.66l-19.27-14.61V68.05h18.8a1.4,1.4,0,0,0,1.41-1.39,1.42,1.42,0,0,0-.66-1.2,1.54,1.54,0,0,0-.46-.55l-22.07-15.2a1.64,1.64,0,0,0-.25-.21h0l-.22-.1H1070.1l-.29.07a1.36,1.36,0,0,0-.88.25L1047.22,65a1.16,1.16,0,0,0-.36.37,1.4,1.4,0,0,0,.56,2.63h18.77V81.84L1047,96.36a1.29,1.29,0,0,0-.34.36,1.4,1.4,0,0,0-.41,2,1.42,1.42,0,0,0,1.16.64h18.76v13.8l-19.15,14.5a1.12,1.12,0,0,0-.34.38,1.4,1.4,0,0,0,.73,2.6h18.61l-11.63,58.5h0l-3.36,16.85a1.39,1.39,0,0,0,1.09,1.65h.29a1.4,1.4,0,0,0,1.37-1.13v-.06a1.14,1.14,0,0,0,.32-.18l19.23-15.47h4.06l19.51,15.51a1.65,1.65,0,0,0,.32.18h0a1.4,1.4,0,0,0,1.38,1.13,1.22,1.22,0,0,0,.27,0,1.42,1.42,0,0,0,1.11-1.65l-15-75.35h18.65a1.4,1.4,0,0,0,1-2.42,1.46,1.46,0,0,0-.46-.61l-19.3-14.38V99.31Zm-18.79-14.15,15,11.34h-15Zm14.58-19.93h-15l-1.7-11.52Zm-15.22,75.9-6.39-4.79,4.73-3.52ZM1079.72,68l-4.14,4.13-4-4.13Zm-8.58-2.81,4.32-4.9,4.27,4.9Zm9.92,16.63-5.74,5.9-5.66-5.7,5.89-5.88Zm1,3v9.61l-4.73-4.76Zm-6.69,6.86,4.71,4.74h-9.36Zm6.69,8.78v9.63l-4.79-4.72Zm-2.73-1.23-4.06,4.17L1071,99.23Zm-4,8.15,5.77,5.68h0l-5.68,5.77L1070,113.3l-.25-.16Zm6.76,8.68v9.38l-4.67-4.61Zm-1.72,11.64h-9.77l4.88-5Zm.16,3.1-5,3.7-4.94-3.7Zm1.08,11.76h-12.27l6.13-4.56Zm1.1,2.81-7.29,8.27-7.23-8.19Zm-.62-75.74v9.11l-4.5-4.63Zm-.83-7.07-3.87-4.43,2.75-3.13ZM1079,52l-3.51,4-3.48-4ZM1071,55l2.67,3.06-3.79,4.3Zm-1.91,14.29,4.58,4.73-4.58,4.57Zm0,16,4.35,4.38-4.35,4.47Zm0,15.89,4.26,4.21-4.26,4.36Zm0,15,4.44,4.51-4.44,4.5Zm4.12,20-6.35,4.81,1.63-8.16Zm-21.47-71,16.62-11.81-1.8,11.81Zm-.23,31.27,14.71-11.13V96.5Zm0,31.28,14.72-11.15v11.15Zm14.2,19.06,7.88,8.93-1.75,2h-8.31Zm12.1,13.72,10.85,12.3h-26.4l10.84-12.3Zm-14.84,0h6.39l-8.25,9.36Zm-8.31,41.69,2.29-11.45h12ZM1072.35,188h-14.87l2.25-11.28a.8.8,0,0,0,.13.13l13.25,10.54Zm3-2.42-12.43-9.88h24.71Zm21.07,16.72-14.49-11.52h12.19Zm-5.18-26,2.32,11.7h-15.14l-.79-.63,13.43-10.81a1.24,1.24,0,0,0,.18-.22Zm-3.15-15.82,1.92,9.66-8.48-9.62h6.56Zm-2.77-13.85,2.21,11.08h-8.48l-1.75-2Zm14.41-18.89h-14.89v-11Z"/><path class="cls-1" d="M1042.28,118.52a1.15,1.15,0,0,0,1.13-1.13,3.78,3.78,0,0,0-.74-1.34l-15.42-11.67V93.51h15a1.12,1.12,0,0,0,.6-2.07,1.14,1.14,0,0,0-.37-.44l-17.61-12.16a1,1,0,0,0-.2-.16h0l-.18-.09h-9.07a.88.88,0,0,0-.23,0,1.15,1.15,0,0,0-.7.2l-17.32,12.3a1,1,0,0,0-.28.3,1.12,1.12,0,0,0,.46,2.14h15v11.09L997,116.24a1,1,0,0,0-.26.28,1.13,1.13,0,0,0,.59,2.08h15v11L997,141.19a.92.92,0,0,0-.28.31,1.07,1.07,0,0,0-.53.95,1.12,1.12,0,0,0,1.12,1.12h14.89l-9.33,46.79h0l-2.69,14.89a1.11,1.11,0,0,0,.87,1.32h0a8.08,8.08,0,0,0,1.47-.1l15.5-14.76h3.25l16.1,14.44a2,2,0,0,0,.25.14h0a1.11,1.11,0,0,0,1.1.91h.21a1.13,1.13,0,0,0,.89-1.32l-12.56-62.34h14.92a1.11,1.11,0,0,0,1.12-1.11,1.13,1.13,0,0,0-.34-.82,1.28,1.28,0,0,0-.37-.49l-15.44-11.5v-11.1Zm-15-11.32,12,9.07h-12ZM1039,91.26h-12l-1.4-9.26ZM1026.76,152l-5.12-3.83,3.79-2.81Zm-3.6-58.46-3.31,3.31-3.21-3.31Zm-6.87-2.24,3.46-3.92,3.42,3.92Zm7.94,13.3-4.59,4.71-4.53-4.56,4.71-4.7ZM1025,107v7.68l-3.79-3.8Zm-5.35,5.49,3.77,3.79H1016Zm5.35,7v7.7l-3.84-3.78Zm-2.18-1-3.26,3.32-3.38-3.32ZM1019.6,125l4.61,4.55h0l-4.49,4.55-4.36-4.42-.2-.14ZM1025,132v7.5l-3.71-3.76Zm-1.38,9.3h-7.82l3.91-4Zm.13,2.48-4,3-4-3Zm.86,9.41h-9.76l4.9-3.64Zm.88,2.25-5.77,6.61-5.78-6.55ZM1025,94.8v7.3l-3.59-3.68Zm-.67-5.65-3.09-3.54,2.2-2.5Zm-1.78-8.43-2.8,3.18L1017,80.72Zm-6.44,2.43,2.14,2.45-3,3.44Zm-1.53,11.44,3.67,3.78-3.67,3.66Zm0,12.76,3.48,3.5-3.48,3.58Zm0,12.71,3.41,3.36-3.41,3.49Zm0,12,3.55,3.6-3.55,3.6Zm3.3,16-5,3.73,1.3-6.52Zm-17.13-56.8,13.3-9.45-1.44,9.45Zm-.18,25,11.76-8.91v8.91Zm0,25,11.77-8.91v8.91Zm11.36,15.25,6.3,7.14-1.4,1.59h-6.64Zm9.68,11,8.68,9.84h-21.13l8.67-9.84Zm-11.87,0h5.11l-6.6,7.49Zm-6.65,33.34,1.83-9.16h9.56Zm14.18-11.41h-11.86l1.8-9,.1.11,10.6,8.43Zm2.4-1.93-9.94-7.9h19.76Zm16.84,13.4-11.59-9.22h9.75Zm-4.1-20.79,1.86,9.3H1022.1l-.63-.49,10.74-8.65Zm-2.52-12.65,1.52,7.73-6.79-7.7h5l.22,0Zm-2.21-11.08,1.77,8.87h-6.84l-1.4-1.59Zm11.52-15.11h-12v-8.87Z"/><path class="cls-1" d="M418.53,43.59c-6.77,0-19.72,9.08-23.74,12-3-3-12.68-12-20.62-12a1.5,1.5,0,0,0,0,3c8,0,19.25,11.91,19.36,12l.92,1,1.08-.81c4.5-3.4,17.4-12.21,23-12.21a1.5,1.5,0,0,0,0-3Z"/><path class="cls-1" d="M370.29,73.14c-3.93,0-11.08,5-13.88,7-2.19-2.2-7.54-7-12.18-7a1.5,1.5,0,0,0,0,3c3.69,0,9.12,5.08,10.91,7l.93,1,1.1-.85c3.6-2.78,10.36-7.21,13.12-7.21a1.5,1.5,0,0,0,0-3Z"/><path class="cls-1" d="M137,20.07c-3.93,0-11.08,5-13.88,7-2.19-2.2-7.54-7-12.18-7a1.5,1.5,0,0,0,0,3c3.69,0,9.12,5.08,10.91,7l.93,1,1.1-.85C127.51,27.44,134.27,23,137,23a1.5,1.5,0,0,0,0-3Z"/><path class="cls-1" d="M479.84,41.34c-3.94,0-11.08,5-13.88,7-2.2-2.19-7.54-7-12.19-7a1.5,1.5,0,0,0,0,3c3.69,0,9.13,5.08,10.91,7l.94,1,1.09-.84c3.61-2.79,10.37-7.21,13.13-7.21a1.5,1.5,0,0,0,0-3Z"/><path class="cls-1" d="M611.3,64.4a16.17,16.17,0,0,0-15.88-14.14,21.55,21.55,0,0,0-38.22.07A16.13,16.13,0,0,0,539.73,64.4l-.21,1.69h72ZM543,63.09a13.16,13.16,0,0,1,14.81-9.66l1.13.18.47-1a18.55,18.55,0,0,1,33.7-.15l.43.91h1.71A13.16,13.16,0,0,1,608,63.2Z"/><path class="cls-1" d="M516.16,86.56a19.55,19.55,0,0,0-34.59,0h-1.23a14.67,14.67,0,0,0-14.55,12.86l-.21,1.69h65.14l-.2-1.69A14.68,14.68,0,0,0,516.16,86.56ZM469.1,98.11a11.66,11.66,0,0,1,11.24-8.55,11.91,11.91,0,0,1,1.88.15l1.12.18.47-1a16.55,16.55,0,0,1,30.07-.14l.43.92,1-.06h.63a11.67,11.67,0,0,1,11.24,8.55Z"/><path class="cls-1" d="M879.48,90.48a11.42,11.42,0,0,0-20.19,0h-.72a8.57,8.57,0,0,0-8.49,7.5L850,99h38l-.12-1A8.55,8.55,0,0,0,879.48,90.48ZM852,97.22a6.8,6.8,0,0,1,6.55-5,6.71,6.71,0,0,1,1.1.09l.65.1.28-.58a9.66,9.66,0,0,1,17.55-.08l.25.54.58,0h.37a6.81,6.81,0,0,1,6.56,5Z"/><path class="cls-1" d="M563.15,197.6l-6.62-11.34,3.64-2.79-5.07-8.73,2.75-2.89-11.91-15.93L534,171.85l2.75,2.89-5.07,8.73,3.65,2.79-6.62,11.34h15.68v10.24a1.51,1.51,0,0,0,3,0V197.6Zm-23.87-12.11-3.65-2.8,4.88-8.38L538,171.62l8-10.69,8,10.69-2.53,2.69,4.88,8.38-3.64,2.8L558,194.6H534Z"/><path class="cls-1" d="M855.21,166.15l-3.52-4,22.58-11.53-15.18-15.86-14,20.21-7.83-8.74L831.79,152l-9.37-21.58-16.78,14.15,18.91,15-6.17,6.52v4.73l-19,4.29,10.77,19.13,8.27-7.14v21.71H855.3V191.66l6.64,7.53,11.48-18.62-18.25-6.82Zm-3,1.15v5.33l-4.92-1.84a9.46,9.46,0,0,0,.48-2.89,9.29,9.29,0,0,0-.66-3.38l1.82-.93Zm7.21-27.79,9.86,10.3L842.9,163.29ZM837,171l2.93,3.33a8.38,8.38,0,0,1-6.48-.26Zm-7.73-2.6a4,4,0,0,1,0-.49,6.25,6.25,0,0,1,1.15-3.62l2.3,1.82,1.11,1.27Zm8.37-2.73-2-4.6A7.53,7.53,0,0,1,837,161a8.39,8.39,0,0,1,3.41.73Zm3,2.14,3.73-1.9a6.19,6.19,0,0,1,.35,2,6.79,6.79,0,0,1-.29,1.84l-4.21-1.57Zm-3.52-17.13,6.12,6.85-1.14,1.65a11.05,11.05,0,0,0-7.72-.91l-1.39-3.2Zm-26.84-6.13,10.89-9.19L833,162.54Zm11,22.78,5.53-5.84,1.18.93a9.28,9.28,0,0,0-1.8,5.49,7.41,7.41,0,0,0,.08,1.15l-5,1.13Zm-10.4,22.27-7-12.42,28.9-6.51Zm29.3,16.24h-6.61l.25-17.92a3.4,3.4,0,0,1,.65-2.22h5a3,3,0,0,1,.72,2.23Zm12,0h-9V187.92c0-3-1.57-5.22-3.65-5.22h-5.06c-2.08,0-3.65,2.25-3.65,5.2l-.25,17.94h-9.24v-21.3l9.69-8.38a11.26,11.26,0,0,0,11,.5l10.21,11.6Zm9.24-11.65L841.85,172,869,182.13Z"/><path class="cls-1" d="M926.21,2.08c-6.77,0-19.72,9.08-23.75,12-3-3-12.67-12-20.61-12a1.5,1.5,0,0,0,0,3c8,0,19.24,11.91,19.36,12l.92,1,1.08-.79c4.5-3.4,17.4-12.21,23-12.21a1.5,1.5,0,0,0,0-3Z"/><path class="cls-1" d="M870.82,35.28c-3.93,0-11.08,5-13.88,7-2.19-2.2-7.54-7-12.18-7a1.5,1.5,0,0,0,0,3c3.68,0,9.12,5.08,10.91,7l.93,1,1.09-.85c3.61-2.78,10.37-7.21,13.13-7.21a1.5,1.5,0,0,0,0-3Z"/><path class="cls-1" d="M971,42.77c-3.94,0-11.08,5-13.89,7-2.19-2.19-7.53-7-12.18-7a1.5,1.5,0,0,0,0,3c3.69,0,9.13,5.08,10.91,7l.94,1,1.09-.84c3.61-2.79,10.36-7.21,13.13-7.21a1.5,1.5,0,0,0,0-3Z"/><path class="cls-1" d="M687.64,154.05H676.13a3,3,0,0,0-3,3.06s0,0,0,.08v13.16a3,3,0,0,0,2.85,3.14h11.6a3.05,3.05,0,0,0,2.94-3.14V157.19A3.05,3.05,0,0,0,687.64,154.05Zm-.06,16.3v.14H676.22a.17.17,0,0,1,0-.14V157.19a.17.17,0,0,1,0-.14h11.33a.33.33,0,0,1,0,.14Z"/><path class="cls-1" d="M696.42,157.19v13.16a3,3,0,0,0,2.94,3.14h11.52a3.05,3.05,0,0,0,2.94-3.14V157.19a3.05,3.05,0,0,0-2.94-3.14H699.42a3,3,0,0,0-3,3.1Zm3,0a.17.17,0,0,1,0-.14h11.32a.33.33,0,0,1,0,.14v13.16a.33.33,0,0,1,0,.14H699.49a.17.17,0,0,1,0-.14Z"/><path class="cls-1" d="M687.64,180.9H676.13a3,3,0,0,0-3,3.06s0,.06,0,.09V197.2a3,3,0,0,0,2.84,3.15h11.61a3.06,3.06,0,0,0,2.94-3.15V184.05A3.06,3.06,0,0,0,687.64,180.9Zm-.06,16.3a.38.38,0,0,1,0,.15H676.22a.19.19,0,0,1,0-.15V184.05a.2.2,0,0,1,0-.15h11.33a.38.38,0,0,1,0,.15Z"/><path class="cls-1" d="M710.91,180.9H699.42a3,3,0,0,0-2.94,3.15V197.2a3,3,0,0,0,2.94,3.15h11.52a3.06,3.06,0,0,0,2.94-3.15V184.05a3.06,3.06,0,0,0-3-3.15Zm-.06,16.3a.38.38,0,0,1,0,.15H699.49a.2.2,0,0,1,0-.15V184.05a.19.19,0,0,1,0-.15h11.32a.38.38,0,0,1,0,.15Z"/><path class="cls-1" d="M684.32,141.39a1.5,1.5,0,0,0,1-.41l16.1-15.13a1.5,1.5,0,1,0-1.67-2.49,1.18,1.18,0,0,0-.33.3L683.3,138.79a1.5,1.5,0,0,0-.06,2.13A1.48,1.48,0,0,0,684.32,141.39Z"/><path class="cls-1" d="M751.42,140.75c0,4.3,3.15,7.8,7,7.8s7-3.5,7-7.8-3.15-7.81-7-7.81S751.42,136.44,751.42,140.75Zm7-4.81c2.22,0,4,2.16,4,4.81s-1.8,4.8-4,4.8-4-2.16-4-4.8S756.19,135.94,758.42,135.94Z"/><path class="cls-1" d="M745.42,154.32h-8.64a3,3,0,0,0-2.94,3.14v10.15a3,3,0,0,0,2.94,3.14h8.64a3.05,3.05,0,0,0,2.94-3.14V157.46A3.05,3.05,0,0,0,745.42,154.32Zm0,13.29a.33.33,0,0,1,0,.14H737a.17.17,0,0,1,0-.14V157.46a.17.17,0,0,1,0-.14h8.44a.33.33,0,0,1,0,.14Z"/><path class="cls-1" d="M761.76,154.32h-8.64a3,3,0,0,0-2.94,3.07s0,.05,0,.07v10.15a3,3,0,0,0,2.85,3.14h8.72a3.05,3.05,0,0,0,2.94-3.14V157.46A3.05,3.05,0,0,0,761.76,154.32Zm-.06,13.29v.14h-8.48a.17.17,0,0,1,0-.14V157.46a.17.17,0,0,1,0-.14h8.45v.14Z"/><path class="cls-1" d="M769.42,170.75h8.64a3.05,3.05,0,0,0,2.94-3.14V157.46a3.05,3.05,0,0,0-2.94-3.14h-8.64a3,3,0,0,0-2.94,3.07s0,.05,0,.07v10.15a3,3,0,0,0,2.85,3.14Zm.07-13.29a.17.17,0,0,1,0-.14h8.45v10.43h-8.45a.17.17,0,0,1,0-.14Z"/><path class="cls-1" d="M2531.32,182.14h-1l1.55-9.06a1.5,1.5,0,0,0-1.21-1.73l-.27,0h-15.26a1.49,1.49,0,0,0-1.51,1.48,1.24,1.24,0,0,0,0,.27l1.55,9.06h-1.09a1.5,1.5,0,0,0-1.5,1.5v23.43a1.5,1.5,0,1,0,3,0v-6.53h14.24v6.53a1.5,1.5,0,1,0,3,0V183.64a1.5,1.5,0,0,0-1.5-1.5Zm-2.74-7.81-3.08,18H2520l-1.48-8.68h0a2,2,0,0,0-.09-.49l-1.51-8.82Zm-13,23.21v-12.4h.11l1.53,9a1.48,1.48,0,0,0,1.48,1.24h8.06a1.49,1.49,0,0,0,1.48-1.24l1.53-9h.05v12.4Z"/><path class="cls-1" d="M2278.82,187.39l-12.51-21.8,7.25-5.64-10-17.47,5.37-5.75-21.74-29.56-21.73,29.56,5.38,5.75-10,17.47,7.25,5.64-12.51,21.8h30.1v20a1.5,1.5,0,0,0,3,0v-20ZM2232,164.82l-7.26-5.64,9.8-17.13-5.19-5.55,17.84-24.26,17.85,24.26-5.18,5.55,9.79,17.13-7.25,5.64,11.23,19.57h-52.86Z"/><path class="cls-2" d="M2212.86,114.25l.9-.89a14.5,14.5,0,0,0-10.06-24.8l-1.49,0-.23-1.28c-.49-2.72-6.76-4.72-14.9-4.72-10.23,0-21.23,3.21-21.23,8v1.12l.08,1-1,.43a12.74,12.74,0,0,0-6.39,16.69l.64,1.46-1.49.55c-7.46,2.76-12.31,9-12.46,15.93-.2,9.83,9,18,20.56,18.28,2.65.08,7.72.08,15.49.08H2197A19.93,19.93,0,0,0,2217,126.43v0a19.46,19.46,0,0,0-3.45-11.15Z"/><path class="cls-2" d="M2178.26,186.72v-1.58c0-2.88-2.66-5.21-5.92-5.21h-3.93l-.3-1.11c-1-3.46-5-6-9.69-6h-4.67c-4.69,0-8.69,2.49-9.69,6l-.3,1.11H2136c-3.27,0-5.93,2.33-5.93,5.21a.61.61,0,0,0,0,.19l.11,1.32-1.28.33c-5.36,1.16-9.1,5-9.1,9.27,0,5.31,5.56,9.62,12.39,9.62h43.89c6.84,0,12.4-4.31,12.49-9.62,0-4.27-3.74-8.11-9.1-9.27Z"/><path class="cls-1" d="M2221,103a17.45,17.45,0,0,0-16.49-17.46c-2.44-5.52-13.85-6-17.48-6-12,0-24.23,3.78-24.23,11v.32a15.73,15.73,0,0,0-7.52,18.73c-7.8,3.45-12.86,10.41-13,18.12-.23,11.48,10.31,21.06,23.5,21.34,2.6,0,7.5.08,15,.08v33.4a8.89,8.89,0,0,0-8.45-5.6h-1.72c-1.76-4.27-6.6-7.16-12.2-7.16h-4.64c-5.6,0-10.44,2.89-12.2,7.16H2136c-4.64,0-8.45,3.26-8.89,7.41-6.12,1.76-10.3,6.52-10.3,11.91,0,7,6.9,12.62,15.39,12.62h43.89c8.49,0,15.4-5.66,15.4-12.62,0-4.59-3-8.73-7.74-10.94V149.14H2197a22.92,22.92,0,0,0,23.07-22.72,22.37,22.37,0,0,0-3.4-11.88A17.4,17.4,0,0,0,2221,103Zm-32.39,93.25c-.09,5.31-5.65,9.62-12.49,9.62H2132.2c-6.83,0-12.39-4.31-12.39-9.62,0-4.3,3.74-8.11,9.1-9.27l1.28-.33-.11-1.32a.61.61,0,0,1,0-.19c0-2.88,2.66-5.21,5.93-5.21h7.75l.3-1.11c1-3.51,5-6,9.69-6h4.67c4.65,0,8.72,2.54,9.69,6l.3,1.11h3.93c3.26,0,5.92,2.33,5.92,5.21v1.58l1.22.26C2184.84,188.14,2188.58,192,2188.58,196.25ZM2217,126.4v0A19.93,19.93,0,0,1,2197,146.15h-15.69c-7.77,0-12.84,0-15.49-.08-11.53-.25-20.76-8.45-20.56-18.28.15-6.92,5-13.17,12.46-15.93l1.49-.55-.64-1.46a12.74,12.74,0,0,1,6.39-16.69l1-.43-.08-1V90.61c0-4.79,11-8,21.23-8,8.14,0,14.41,2,14.9,4.72l.23,1.28,1.49,0a14.5,14.5,0,0,1,10.06,24.8l-.9.89.73,1A19.46,19.46,0,0,1,2217,126.4Z"/><path class="cls-1" d="M2106.64,76.32V72.08a1.5,1.5,0,0,0-1.5-1.5,1.49,1.49,0,0,0-.63.14h-12.93a1.45,1.45,0,0,0-1.09.49h0l-15.38,14.34-15.39-14.34h0a1.5,1.5,0,0,0-1.1-.49h-13a1.56,1.56,0,0,0-.63-.14,1.5,1.5,0,0,0-1.5,1.5v4.24a12.6,12.6,0,1,0,3,0v-2.6H2058l15.62,14.55v85.27H2071a3,3,0,0,0-3.19,2.74v30.09a3,3,0,0,0,3.19,2.75h8.19a3,3,0,0,0,3.2-2.75V176.28a3,3,0,0,0-3.2-2.74h-2.59V88.27l15.61-14.55h11.46v2.61a12.62,12.62,0,1,0,3,0Zm-27.28,100.24v29.53h-8.58V176.56h8.58Zm-34.42-78.12a9.62,9.62,0,0,1-9.6-9.61,9.22,9.22,0,0,1,.33-2.45h18.55a10.11,10.11,0,0,1,.33,2.45,9.63,9.63,0,0,1-9.61,9.61Zm7.9-15.06H2037a9.6,9.6,0,0,1,15.8,0Zm52.35-4.15a9.6,9.6,0,0,1,7.9,4.15h-15.8a9.57,9.57,0,0,1,7.9-4.15Zm0,19.21a9.61,9.61,0,0,1-9.61-9.61,9.22,9.22,0,0,1,.33-2.45h18.56a10.11,10.11,0,0,1,.33,2.45,9.63,9.63,0,0,1-9.61,9.61Z"/><path class="cls-2" d="M2354.27,179.64l-1.57.46-.33-1.6c-1.29-6.38-7.44-11-14.63-11-7.5,0-13.84,5.05-14.76,11.75l-.11.82-.75.34c-5,2.36-8.14,6.94-8.14,12,0,7.42,6.67,13.42,14.88,13.42h30.08v-.05c8.2,0,14.87-6,14.87-13.41S2367.14,179,2358.94,179A16.39,16.39,0,0,0,2354.27,179.64Z"/><path class="cls-2" d="M2367.36,139.91l-10.44-20.38a1.49,1.49,0,0,1,2.66-1.35l7.77,15.17V100.74a1.5,1.5,0,1,1,3,0v32l7.47-14.58a1.49,1.49,0,0,1,2-.65,1.51,1.51,0,0,1,.65,2l-10.14,19.79V150.9c10.32-1.9,18.31-14.06,18.31-28.58s-16-33.52-20.48-38.52c-4.24,5-19.42,24-19.42,38.52,0,16.6,7.81,28.67,18.6,28.83Z"/><path class="cls-1" d="M2391.65,122.32c0-17.92-21.51-40.85-22.42-41.81l-1.12-1.18L2367,80.54c-.87,1-21.27,23.88-21.27,41.78,0,18.34,9.07,31.68,21.6,31.84v23.78a19.22,19.22,0,0,0-12.41-1.52c-2.17-7-9.15-11.87-17.18-11.87-8.69,0-16.11,5.76-17.6,13.54a16.14,16.14,0,0,0-9.16,14.32c0,9,8,16.42,17.88,16.42H2359c9.85,0,17.87-7.37,17.87-16.42a15.89,15.89,0,0,0-6.48-12.62V153.94C2382.33,152.11,2391.65,138.63,2391.65,122.32Zm-17.84,70.05c0,7.41-6.67,13.41-14.87,13.41v.05h-30.08c-8.21,0-14.88-6-14.88-13.42,0-5.06,3.12-9.64,8.14-12l.75-.34.11-.82c.92-6.7,7.26-11.75,14.76-11.75,7.19,0,13.34,4.62,14.63,11l.33,1.6,1.57-.46a16.39,16.39,0,0,1,4.67-.68C2367.14,179,2373.81,185,2373.81,192.37Zm-25-70.05c0-14.49,15.18-33.49,19.42-38.52,4.43,5,20.48,24,20.48,38.52s-8,26.68-18.31,28.58V139.32l10.14-19.79a1.51,1.51,0,0,0-.65-2,1.49,1.49,0,0,0-2,.65l-7.47,14.58v-32a1.5,1.5,0,1,0-3,0v32.61l-7.77-15.17a1.49,1.49,0,0,0-2.66,1.35l10.44,20.38v11.24C2356.57,151,2348.76,138.92,2348.76,122.32Z"/><path class="cls-1" d="M2500.33,176.61h-5.76a5.08,5.08,0,0,0,.41-2v-5.13c0-2.15-1.22-3.77-2.85-3.77h-83.26c-1.63,0-2.85,1.62-2.85,3.77v5.13a4.75,4.75,0,0,0,.41,2h-4.68a1.5,1.5,0,0,0-1.5,1.5v29.2a1.5,1.5,0,0,0,1.5,1.5h11.53a1.5,1.5,0,0,0,1.5-1.5V178.39h72.52v28.92a1.5,1.5,0,0,0,1.5,1.5h11.53a1.5,1.5,0,0,0,1.5-1.5v-29.2A1.5,1.5,0,0,0,2500.33,176.61ZM2409,169.49a1.71,1.71,0,0,1,.15-.77h82.66a2,2,0,0,1,.15.77v5.13a2,2,0,0,1-.15.77h-82.66a1.71,1.71,0,0,1-.15-.77Zm2.76,36.32h-8.53v-26.2h8.53Zm87,0h-8.53v-26.2h8.53Z"/><path class="cls-1" d="M2470.19,89.2h77.16l-.21-1.68a17.24,17.24,0,0,0-17-15.11,23,23,0,0,0-34.92-7.33,17.12,17.12,0,0,0-8.86-2.5,23.06,23.06,0,0,0-41,.08,17.23,17.23,0,0,0-18.74,15l-.21,1.68h47.27a17,17,0,0,0-3.28,8.15ZM2509.64,63a20.15,20.15,0,0,1,18.19,11.59l.43.92H2530a14.25,14.25,0,0,1,13.81,10.79h-70.16a14.07,14.07,0,0,1,4-6.83h25.91l-.21-1.68A17.24,17.24,0,0,0,2497.73,67,20.13,20.13,0,0,1,2509.64,63Zm-79.73,13.4A14.26,14.26,0,0,1,2446,65.79l1.13.18.47-1a20.07,20.07,0,0,1,36.45-.16l.42.91h1.78a15.92,15.92,0,0,1,9.14,3.34,13.29,13.29,0,0,1,4.67,7.45Z"/><path class="cls-1" d="M2731,99.73a7.7,7.7,0,0,0-6.81-7.24l3.48-9-25-30.83L2692,47.5l26.12,47a7.68,7.68,0,0,0-2.52,5.68v.57l-9,.43L2684.12,134l-.74,11.42,34.82-39a5.77,5.77,0,0,0,1.62,1l-1.52,101.8h10l-1.51-101.8a6.24,6.24,0,0,0,2.31-1.63l3.85,6.63,36.7,4.79,14.46-4ZM2700.7,55.06l23.51,29-3.3,8.54-.35.05L2699.28,54.4Zm-13.76,81.83.12-1.9,21.26-30.94,7.91-.37.12.24ZM2725,104.72l-1.24.24,1.5,101.16h-3.91l1.5-101.16-1.24-.24c-2.7-.5-3-3.38-3-4.59a4.69,4.69,0,0,1,9.37-.43v.43c0,1.21-.28,4.09-3,4.59Zm44.44,9.34-34.64-4.53-3.69-6.34.09-.31,41.16,10.37Z"/><path class="cls-1" d="M2626.08,94.12v-.59a8,8,0,0,0-3.7-6.76l7.66-7.21-9.79-40.83-7.56-9.54,3.46,56.52a8.06,8.06,0,0,0-6.17,7.75l-8.37-3.77-37,20.13-6,10.18,53.28-20.78a6.39,6.39,0,0,0,2.6,1.87l-1.6,107.78h10.41l-1.6-107.78a7.84,7.84,0,0,0,1.08-.55l.9,7.06,33.77,19.78,15.4,2ZM2565.61,114l1.18-2,35-19,7.73,3.48v.4Zm51.92-74,9.22,38.5-7.13,6.71-.46-.14-2.86-46.62Zm2.35,58.42-1.24.23,1.59,107.15h-4.32l1.59-107.15-1.24-.23c-2.93-.55-3.24-3.65-3.24-5a5,5,0,1,1,10.1,0c0,1.42-.32,4.52-3.24,5.07Zm6.56,7.27-1-7.8.29-.35L2662,125l-3.54-.46Z"/><path class="cls-1" d="M2196.65,7c-6.77,0-19.72,9.07-23.75,12-3-3-12.67-12-20.61-12a1.5,1.5,0,0,0,0,3c8,0,19.24,11.91,19.36,12l.92,1,1.08-.82c4.5-3.39,17.4-12.2,23-12.2a1.5,1.5,0,0,0,0-3Z"/><path class="cls-1" d="M2148.42,36.55c-3.93,0-11.08,5-13.88,7-2.19-2.19-7.54-7-12.18-7a1.5,1.5,0,0,0,0,3c3.68,0,9.12,5.07,10.91,7l.93,1,1.09-.84c3.61-2.79,10.37-7.21,13.13-7.21a1.5,1.5,0,0,0,0-3h0Z"/><path class="cls-1" d="M2258,4.74c-3.94,0-11.08,5-13.89,7-2.19-2.2-7.53-7-12.18-7a1.5,1.5,0,0,0,0,3c3.69,0,9.13,5.08,10.91,7l.94,1,1.09-.85c3.61-2.79,10.36-7.21,13.13-7.21a1.5,1.5,0,0,0,0-3Z"/><path class="cls-1" d="M2389.42,27.81a16.14,16.14,0,0,0-15.88-14.14,21.55,21.55,0,0,0-38.22.06,16.15,16.15,0,0,0-17.47,14.08l-.21,1.68h72Zm-68.27-1.32A13.15,13.15,0,0,1,2336,16.84l1.13.18.47-1a18.55,18.55,0,0,1,33.7-.16l.43.91h1.72a13.17,13.17,0,0,1,12.71,9.82Z"/><path class="cls-1" d="M2294.28,50a19.55,19.55,0,0,0-34.59,0h-1.23a14.68,14.68,0,0,0-14.56,12.87l-.2,1.68h65.14l-.21-1.68A14.67,14.67,0,0,0,2294.28,50Zm-47.06,11.51a11.64,11.64,0,0,1,13.07-8.36l1.13.18.47-1a16.55,16.55,0,0,1,30.07-.14l.43.93,1-.06h.63a11.67,11.67,0,0,1,11.24,8.55Z"/><path class="cls-1" d="M1678.77,162.85,1675.26,61.7h-12.37l-3.47,101.15h-3.07L1652.81,61.7h-12.39l-3.51,101.15h-6.41v45.44h55V162.85Zm-13-98.15h6.65l3.4,98.15h-13.4Zm-22.45,0h6.57l3.41,98.15h-13.39Zm39.23,140.59h-49V165.85h49Z"/><path class="cls-1" d="M1648.12,167.64h-10v35.63h10Zm-3,32.63h-4V170.64h4Z"/><path class="cls-1" d="M1663.33,167.64h-10v35.63h10Zm-3,32.63h-4V170.64h4Z"/><path class="cls-1" d="M1678.54,167.64h-10v35.63h10Zm-3,32.63h-4V170.64h4Z"/><path class="cls-1" d="M1774.14,200.59v-10.1h-9.5s-.09,8,0,10.1C1765.93,200.64,1774.14,200.59,1774.14,200.59Zm-6.5-7.1h3.5v4.1h-3.5Z"/><path class="cls-1" d="M1793.7,182.32l-3.6-25.78h-15.49l-.81,5.84h-13.72l-10.23-71.75h-46.64l-16.74,117.43h30.31v.3h77.41v-26Zm-16.48-22.78h10.27l3.16,22.65h-16.59Zm-3.84,5.84-.61,4.34a1.31,1.31,0,0,0-.43-.08h-11.22l-.61-4.26Zm-1,7.26-1.35,9.68h-8.1l-1.38-9.68h10.83Zm-12.48,9.68h-21.8c.15-5.62,4.93-9.68,11.5-9.68h8.92Zm-1.8-12.68h-8.5c-8.17,0-14.35,5.44-14.5,12.68h-7.68c0-6.71,2.47-10.75,4.61-13,2.76-2.89,6-3.94,7.48-3.94h18Zm-41.31,35.42h-26.85l15.88-111.43h41.44l9.8,68.75h-17.52c-2.49,0-6.44,1.51-9.65,4.87-2.53,2.65-5.43,7.38-5.44,15.07h-7.66Zm74.41.3-71.41-.3V185.32h71.41Z"/><path class="cls-1" d="M1733,190.49h-9.5v10.1h9.5Zm-3,7.1h-3.5v-4.1h3.5Z"/><path class="cls-1" d="M1746.73,190.49h-9.51v10.1h9.51Zm-3,7.1h-3.51v-4.1h3.51Z"/><path class="cls-1" d="M1760.42,190.49h-9.5v10.1h9.5Zm-3,7.1h-3.5v-4.1h3.5Z"/><path class="cls-1" d="M1787.84,190.49h-9.5v10.1h9.5Zm-3,7.1h-3.5v-4.1h3.5Z"/><path class="cls-1" d="M1761.83,37.87A14.64,14.64,0,0,0,1751,42.44a22.34,22.34,0,0,0-15.2,4,16.51,16.51,0,0,0-1.85-.1c-9,0-16.31,6-16.31,13.45v.55a12.42,12.42,0,0,0-3.85,8.76c0,8.5,9.79,15.41,21.82,15.41,10.74,0,19.78-5.45,21.52-12.83,5.54-2.17,9.45-6.39,10.48-11.28,4.83-1.9,8-6.11,8-10.71C1775.58,43.16,1769.42,37.87,1761.83,37.87Zm4,20-.9.29-.12.94c-.59,4.38-4.22,8.24-9.47,10.06l-.86.3-.14.89c-1,6.26-9.18,11.17-18.72,11.17-10.38,0-18.82-5.57-18.82-12.41a9.74,9.74,0,0,1,3.43-7.09l.56-.52-.09-.75a8.39,8.39,0,0,1-.06-1c0-5.76,6-10.45,13.31-10.45a18.51,18.51,0,0,1,2.1.14l.62.08.5-.39a18.47,18.47,0,0,1,11.6-3.82,20,20,0,0,1,2.67.19l.85.11.52-.68a11.49,11.49,0,0,1,9.07-4.07c5.93,0,10.75,3.94,10.75,8.79,0,3.63-2.67,6.84-6.8,8.18Z"/><path class="cls-1" d="M1689.84,25.62a13.36,13.36,0,0,0-11.41,6c-5.46.36-9.9,3.6-10.71,7.76a7.27,7.27,0,0,0-4.06,6.31c0,4.1,3.83,7.43,8.54,7.43a9,9,0,0,0,7-3.21,14.66,14.66,0,0,0,7.16-1.7,14.37,14.37,0,0,0,3.46.42c7.17,0,13-5.16,13-11.5S1697,25.62,1689.84,25.62Zm0,20a11.58,11.58,0,0,1-3.26-.47l-.65-.19-.57.36a11.26,11.26,0,0,1-5.9,1.58h-.89l-.91-.06-.47.78a5.88,5.88,0,0,1-5,2.52c-3.06,0-5.54-2-5.54-4.43a4.39,4.39,0,0,1,3-3.92l.86-.36.06-.93c.21-3.26,4-5.85,8.74-5.9h.9l.42-.81a10.19,10.19,0,0,1,9.18-5.14c5.52,0,10,3.82,10,8.51s-4.45,8.47-10,8.47Z"/><path class="cls-1" d="M1649,40.08c-3.29,0-6.12,1.75-7,4.27a7.22,7.22,0,0,0-3.81,6.31,7.54,7.54,0,0,0,15,.43,5.8,5.8,0,0,0,3.17-5C1656.42,42.79,1653.07,40.08,1649,40.08Zm2.12,8.68-1,.41.1,1.12a2.29,2.29,0,0,1,0,.37,4.53,4.53,0,0,1-9,0,4.25,4.25,0,0,1,2.66-3.88l.72-.31.15-.77c.31-1.5,2.16-2.62,4.32-2.62,2.36,0,4.36,1.39,4.36,3A3.12,3.12,0,0,1,1651.13,48.76Z"/><path class="cls-1" d="M1746.13,36.65a11.41,11.41,0,0,0,8.87-4h.68c7.07,0,12.81-5.22,12.81-11.63S1762.75,9.4,1755.68,9.4a12.8,12.8,0,0,0-12,7.66c-5,1-8.57,5-8.57,9.66C1735.08,32.2,1740,36.65,1746.13,36.65ZM1745,19.89l1-.12.29-.94c1.13-3.78,5-6.42,9.47-6.42,5.41,0,9.81,3.87,9.81,8.62s-4.4,8.63-9.81,8.63c-.41,0-.82,0-1.22-.08l-.89-.09-.51.74a8.42,8.42,0,0,1-6.93,3.42c-4.44,0-8-3.1-8-6.92-.09-3.41,2.87-6.35,6.79-6.84Z"/><rect class="cls-3" x="1684.07" y="130.01" width="34.21" height="76.75"/><path class="cls-1" d="M1682.57,128.51v79.75h37.21V128.51Zm34.21,76.75h-31.21V131.51h31.21Z"/><path class="cls-1" d="M1698.3,159h-10v19.5h10Zm-3,16.5h-4V162h4Z"/><path class="cls-1" d="M1713.66,159h-10v19.5h10Zm-3,16.5h-4V162h4Z"/><path class="cls-1" d="M1698.3,135.17h-10v19.49h10Zm-3,16.49h-4V138.17h4Z"/><path class="cls-1" d="M1713.66,135.17h-10v19.49h10Zm-3,16.49h-4V138.17h4Z"/><path class="cls-1" d="M1698.3,183h-10v18.87h10Zm-3,15.87h-4V186h4Z"/><path class="cls-1" d="M1713.66,183h-10v18.87h10Zm-3,15.87h-4V186h4Z"/><path class="cls-2" d="M246.36,158.47v12.72h15.52V143.83A99.15,99.15,0,0,0,246.36,158.47Z"/><rect class="cls-2" x="246.36" y="174.15" width="15.52" height="11.35"/><path class="cls-2" d="M243.36,171.19v-9a96.57,96.57,0,0,0-6.15,9Z"/><path class="cls-2" d="M235.42,174.15a98,98,0,0,0-5.37,11.35h13.31l0-11.35Z"/><path class="cls-2" d="M226.56,174.15V185.5h.26a102.84,102.84,0,0,1,5.2-11.35Z"/><path class="cls-2" d="M283.42,171.15h15.49l0-44.82a97.83,97.83,0,0,0-15.6,5.12,1.56,1.56,0,0,1,.08.48Z"/><path class="cls-2" d="M298.91,174.15H283.39v11l0,0a1.55,1.55,0,0,1-.06.31h15.69a1.38,1.38,0,0,1-.14-.63Z"/><path class="cls-2" d="M317.42,174.15H301.91v10.72a1.71,1.71,0,0,1-.15.63h15.83a1.45,1.45,0,0,1-.17-.67Z"/><path class="cls-2" d="M264.88,185.46h15.54a1.61,1.61,0,0,1,0-.31v-11H264.88Z"/><rect class="cls-2" x="218.42" y="174.15" width="5.19" height="11.35"/><path class="cls-2" d="M264.88,141.91v29.24h15.51l0-38.42a99,99,0,0,0-15.54,8.93A1,1,0,0,1,264.88,141.91Z"/><rect class="cls-2" x="150.66" y="174.15" width="5.18" height="11.35"/><path class="cls-2" d="M158.89,206.15l0,0c5.65-.05,13.3-.09,22.68-.07V188.5H158.89Z"/><path class="cls-2" d="M150.71,206.15h-.05s0,.08,0,.12l5.21-.06V188.5h-5.18Z"/><rect class="cls-2" x="158.84" y="174.15" width="22.68" height="11.35"/><path class="cls-2" d="M301.91,125.76v45.39h15.51V124.5a1.46,1.46,0,0,1,.18-.7,96.31,96.31,0,0,0-15.7,1.89Z"/><path class="cls-2" d="M192.7,206.14l0,0c6.9.05,14.49.12,22.7.24a1.13,1.13,0,0,1,0-.26V188.5H192.7Z"/><rect class="cls-2" x="192.7" y="174.15" width="22.72" height="11.35"/><path class="cls-2" d="M223.58,188.5h-5.19v17.61a1.5,1.5,0,0,1,0,.3l5.21.08a1.37,1.37,0,0,1,0-.35Z"/><rect class="cls-2" x="184.52" y="174.15" width="5.18" height="11.35"/><rect class="cls-2" x="184.52" y="188.5" width="5.18" height="17.64"/><rect class="cls-2" x="427.1" y="174.15" width="22.67" height="11.35"/><path class="cls-2" d="M427.07,206.14a1.22,1.22,0,0,1,0,.27c8.2-.12,15.79-.24,22.7-.24V188.5H427.1Z"/><rect class="cls-2" x="452.77" y="188.5" width="5.18" height="17.62"/><path class="cls-2" d="M419,206.11l0,0a1.81,1.81,0,0,1,0,.4l5.28-.09a1.61,1.61,0,0,1,0-.31V188.5H419Z"/><rect class="cls-2" x="418.91" y="174.15" width="5.19" height="11.35"/><path class="cls-2" d="M335.93,174.15H320.42v10.68h0a1.57,1.57,0,0,1-.16.67h15.79a1.43,1.43,0,0,1-.12-.58Z"/><rect class="cls-2" x="460.95" y="174.15" width="22.68" height="11.35"/><rect class="cls-2" x="486.63" y="174.15" width="5.19" height="11.35"/><rect class="cls-2" x="452.77" y="174.15" width="5.18" height="11.35"/><path class="cls-2" d="M461,206.11h0c9.31,0,16.94,0,22.69,0V188.5H461Z"/><polygon class="cls-2" points="486.63 206.2 491.82 206.25 491.82 188.5 486.63 188.5 486.63 206.2"/><path class="cls-2" d="M320.22,123.75a1.65,1.65,0,0,1,.2.75v46.69h15.51V126.27a1.48,1.48,0,0,1,.7-1.27,97.07,97.07,0,0,0-15.41-1.25Z"/><path class="cls-2" d="M357.42,185a1.4,1.4,0,0,1,0,.5h15.51V174.15H357.42Z"/><path class="cls-2" d="M354.42,174.15H338.93v10.77a1.74,1.74,0,0,1-.11.55H354.5a1.26,1.26,0,0,1-.08-.47Z"/><path class="cls-2" d="M338.93,171.15h15.49V129.58a98.31,98.31,0,0,0-15.8-4.26,1.49,1.49,0,0,1,.31.91Z"/><path class="cls-2" d="M357.42,171.15h15.51L373,139.9a1.48,1.48,0,0,1,.43-1.05,100.18,100.18,0,0,0-16-8.12Z"/><path class="cls-2" d="M415.65,185.5h.26V174.15h-5.46A102,102,0,0,1,415.65,185.5Z"/><path class="cls-2" d="M376,171.12h15.48V153.38A98.64,98.64,0,0,0,376,140.53Z"/><path class="cls-2" d="M394.44,174.12l0,11.38h17.95a99.47,99.47,0,0,0-5.4-11.38Z"/><path class="cls-2" d="M394.44,156.62v14.5l10.79,0A97.52,97.52,0,0,0,394.44,156.62Z"/><polygon class="cls-2" points="375.96 185.5 391.44 185.5 391.44 174.12 375.93 174.12 375.96 185.5"/><path class="cls-1" d="M2839.08,206.34H532.57l-37.75,0V172.65a1.5,1.5,0,0,0-1.5-1.5,1.31,1.31,0,0,0-.28,0,1.31,1.31,0,0,0-.28,0h-84a101.2,101.2,0,0,0-175.09,0H150a1.55,1.55,0,0,0-.43.07,1.61,1.61,0,0,0-.43-.07,1.5,1.5,0,0,0-1.5,1.5v33.49a.49.49,0,0,0,0,.17l-12.7,0H0v3H142.12c22-.15,68.41-.2,107.62.66a1.5,1.5,0,0,0,0-3c-8.17-.21-16-.31-23.32-.44a2,2,0,0,0,.07-.43V188.5H415.91v17.64a1.38,1.38,0,0,0,.08.45c-7.15.13-14.7.21-22.59.41a1.5,1.5,0,0,0,0,3c52-1.32,115.07-.83,133.83-.66H2839.08ZM150.66,174.15h5.18V185.5h-5.18Zm5.23,32v.06l-5.21.06s0-.08,0-.12h.05V188.5h5.18Zm25.63,0c-9.38,0-17,0-22.68.07l0,0V188.5h22.63Zm0-20.61H158.84V174.15h22.68Zm8.18,20.64h-5.18V188.5h5.18Zm0-20.64h-5.18V174.15h5.18Zm25.72,20.64a1.13,1.13,0,0,0,0,.26c-8.21-.12-15.8-.19-22.7-.24l0,0V188.5h22.72Zm0-20.64H192.7V174.15h22.72Zm3,20.91a1.5,1.5,0,0,0,0-.3V188.5h5.19v17.64a1.37,1.37,0,0,0,0,.35Zm5.22-20.91h-5.19V174.15h5.19Zm2.95,0V174.15H232a102.84,102.84,0,0,0-5.2,11.35Zm3.49,0a98,98,0,0,1,5.37-11.35h7.91l0,11.35Zm13.31-14.31h-6.15a96.57,96.57,0,0,1,6.15-9Zm18.52,14.31H246.36V174.15h15.52Zm0-41.63v27.32H246.36V158.47a99.15,99.15,0,0,1,15.52-14.64Zm18.54,41.28a1.61,1.61,0,0,0,0,.31H264.88V174.15h15.54Zm0-14H264.88V141.91a1,1,0,0,0,0-.25,99,99,0,0,1,15.54-8.93Zm18.55-44.82,0,44.82H283.42V131.93a1.56,1.56,0,0,0-.08-.48A97.83,97.83,0,0,1,298.94,126.33ZM283.36,185.5a1.55,1.55,0,0,0,.06-.31l0,0v-11h15.52v10.72a1.38,1.38,0,0,0,.14.63Zm18.4,0a1.71,1.71,0,0,0,.15-.63V174.15h15.51v10.68a1.45,1.45,0,0,0,.17.67Zm15.67-61v46.65H301.91V125.69a96.31,96.31,0,0,1,15.7-1.89A1.46,1.46,0,0,0,317.43,124.5Zm2.83,61a1.57,1.57,0,0,0,.16-.67h0V174.15h15.51v10.77a1.43,1.43,0,0,0,.12.58Zm15.67-59.23v44.92H320.42V124.5a1.65,1.65,0,0,0-.2-.75h1A97.07,97.07,0,0,1,336.63,125,1.48,1.48,0,0,0,335.93,126.27Zm18.49,3.31v41.57H338.93V126.23a1.49,1.49,0,0,0-.31-.91A98.31,98.31,0,0,1,354.42,129.58Zm-15.6,55.89a1.74,1.74,0,0,0,.11-.55V174.15h15.49V185a1.26,1.26,0,0,0,.08.47Zm34.11,0H357.42a1.4,1.4,0,0,0,0-.5V174.15h15.51Zm.06-45.6-.06,31.25H357.42V130.73a100.18,100.18,0,0,1,16,8.12A1.48,1.48,0,0,0,373,139.9Zm18.45,45.6H376l0-11.38h15.51Zm0-14.38H376V140.53a98.64,98.64,0,0,1,15.48,12.85Zm3-14.5a97.52,97.52,0,0,1,10.79,14.53l-10.79,0Zm0,28.88,0-11.38H407a99.47,99.47,0,0,1,5.4,11.38Zm21.44,0h-.26a102,102,0,0,0-5.2-11.35h5.46Zm45-11.35h22.68V185.5H461Zm-42,0h5.19V185.5h-5.19Zm5.24,32a1.61,1.61,0,0,0,0,.31l-5.28.09a1.81,1.81,0,0,0,0-.4l0,0V188.5h5.19Zm25.62,0c-6.91,0-14.5.12-22.7.24a1.22,1.22,0,0,0,0-.27l0-17.64h22.67Zm0-20.67H427.1V174.15h22.67ZM458,206.12h-5.18V188.5H458Zm0-20.62h-5.18V174.15H458Zm25.69,20.67c-5.75,0-13.38-.08-22.69,0h0V188.5h22.68Zm8.18.08-5.19-.05V188.5h5.19Zm0-20.75h-5.19V174.15h5.19Z"/><path class="cls-1" d="M1503.94,60.4h77.16l-.21-1.69a17.26,17.26,0,0,0-17-15.11A23,23,0,0,0,1529,36.28a17.09,17.09,0,0,0-8.86-2.5,23.06,23.06,0,0,0-41,.07,17.22,17.22,0,0,0-18.73,15l-.21,1.69h47.29a17.17,17.17,0,0,0-3.28,8.14Zm39.45-26.23a20.15,20.15,0,0,1,18.19,11.59l.42.92h1.78a14.25,14.25,0,0,1,13.81,10.8h-70.13a14.07,14.07,0,0,1,4-6.83h25.91l-.21-1.69a17.13,17.13,0,0,0-5.7-10.83,20,20,0,0,1,11.93-4Zm-79.74,13.4A14.29,14.29,0,0,1,1479.75,37l1.13.18.47-1A20.06,20.06,0,0,1,1517.8,36l.42.92H1520a15.9,15.9,0,0,1,9.14,3.34,13.24,13.24,0,0,1,4.67,7.45Z"/><path class="cls-1" d="M713.24,50.42H790.4l-.21-1.69a17.27,17.27,0,0,0-17-15.11,23,23,0,0,0-31-9.89,23.72,23.72,0,0,0-3.93,2.57,17.19,17.19,0,0,0-8.86-2.5,23.07,23.07,0,0,0-41,.07,17.23,17.23,0,0,0-18.73,15l-.21,1.69h47.29a17.21,17.21,0,0,0-3.28,8.14Zm39.45-26.23a20.17,20.17,0,0,1,18.19,11.59l.42.92h1.78a14.27,14.27,0,0,1,13.81,10.8H716.76a14.15,14.15,0,0,1,4-6.83h25.91L746.46,39a17.15,17.15,0,0,0-5.7-10.83,20.1,20.1,0,0,1,11.93-4ZM673,37.59A14.29,14.29,0,0,1,689.05,27l1.13.18.47-1A20.07,20.07,0,0,1,727.1,26l.42.92h1.78a16,16,0,0,1,9.14,3.34,13.19,13.19,0,0,1,4.67,7.45Z"/><path class="cls-1" d="M204.33,61.57h77.16l-.21-1.69a17.26,17.26,0,0,0-17-15.11,23,23,0,0,0-31-9.89,22.71,22.71,0,0,0-3.93,2.57A17.12,17.12,0,0,0,220.5,35a23.06,23.06,0,0,0-41,.07,17.22,17.22,0,0,0-18.73,15l-.21,1.69h47.29a17,17,0,0,0-3.28,8.14Zm39.45-26.23A20.18,20.18,0,0,1,262,46.93l.42.92h1.78A14.27,14.27,0,0,1,278,58.65H207.85a14.07,14.07,0,0,1,4-6.83h25.91l-.21-1.69a17.22,17.22,0,0,0-5.7-10.83,19.94,19.94,0,0,1,11.93-4ZM164,48.74a14.29,14.29,0,0,1,16.1-10.61l1.13.18.47-1a20.06,20.06,0,0,1,36.45-.17l.42.92h1.78a15.92,15.92,0,0,1,9.14,3.34,13.24,13.24,0,0,1,4.67,7.45Z"/><path class="cls-1" d="M1949.91,47.64h77.16l-.21-1.69a17.28,17.28,0,0,0-17-15.11,23,23,0,0,0-31-9.89,23.31,23.31,0,0,0-3.93,2.57,17.21,17.21,0,0,0-8.86-2.5,23.07,23.07,0,0,0-41,.07,17.23,17.23,0,0,0-18.73,15l-.21,1.69h47.29a17,17,0,0,0-3.28,8.14Zm39.45-26.23A20.19,20.19,0,0,1,2007.55,33l.42.92h1.78a14.29,14.29,0,0,1,13.81,10.8h-70.13a14.07,14.07,0,0,1,4-6.83h25.91l-.21-1.69a17.25,17.25,0,0,0-5.7-10.83,20.08,20.08,0,0,1,11.93-4Zm-79.74,13.4a14.29,14.29,0,0,1,16.1-10.61l1.13.18.47-1a20.07,20.07,0,0,1,36.45-.17l.42.92H1966a16,16,0,0,1,9.14,3.34,13.24,13.24,0,0,1,4.67,7.45Z"/><path class="cls-1" d="M1402.86,70.64A16.14,16.14,0,0,0,1387,56.5a21.55,21.55,0,0,0-38.22.07,16.13,16.13,0,0,0-17.47,14.07l-.21,1.68h72Zm-68.27-1.35a13.15,13.15,0,0,1,14.83-9.62l1.13.18.47-1a18.55,18.55,0,0,1,33.7-.16l.43.92,1,0h.72a13.16,13.16,0,0,1,12.7,9.82Z"/><path class="cls-1" d="M1307.72,92.79a19.55,19.55,0,0,0-34.59,0h-1.23a14.65,14.65,0,0,0-14.55,12.87l-.21,1.68h65.14l-.2-1.68A14.7,14.7,0,0,0,1307.72,92.79Zm-47.06,11.55a11.66,11.66,0,0,1,11.24-8.55,11.91,11.91,0,0,1,1.88.15l1.12.18.48-1a16.55,16.55,0,0,1,30.07-.13l.42.92,1-.06h.63a11.67,11.67,0,0,1,11.24,8.55Z"/><path class="cls-1" d="M81.21,26A16.14,16.14,0,0,0,65.33,11.88,21.55,21.55,0,0,0,27.11,12,16.13,16.13,0,0,0,9.64,26L9.43,27.7h72ZM12.94,24.67a13.16,13.16,0,0,1,14.83-9.62l1.13.18.47-1a18.55,18.55,0,0,1,33.7-.16l.43.92,1-.05h.72a13.15,13.15,0,0,1,12.7,9.82Z"/><path class="cls-1" d="M1426.92,146.78l-5.2-5.86,33.41-17.08-22.46-23.47-20.79,29.91-11.58-12.93-8.11,8.6L1378.32,94l-24.84,20.94,28,22.19-9.13,9.65v7l-28.17,6.35,15.93,28.32,12.24-10.58V209h54.59V184.55l9.83,11.15L1454,168.13,1427,158Zm-4.44,1.72v7.88l-7.29-2.72a13.35,13.35,0,0,0-.26-9.28l2.7-1.37Zm10.74-41.13,14.58,15.23-39,20ZM1400,154l4.34,4.93a12.44,12.44,0,0,1-9.6-.39Zm-11.45-3.85v-.73a9.42,9.42,0,0,1,1.7-5.36l3.4,2.7,1.66,1.87Zm12.39-4.05-3-6.8a13.38,13.38,0,0,1,2-.17,12.51,12.51,0,0,1,5,1.07Zm4.52,3.18,5.52-2.82a9.27,9.27,0,0,1,.51,3,9.66,9.66,0,0,1-.42,2.73l-6.24-2.33Zm-5.21-25.36,9.06,10.14-1.69,2.44a16.47,16.47,0,0,0-11.43-1.35l-2-4.73Zm-39.73-9.08,16.13-13.59,17.44,40.22Zm16.28,33.73,8.18-8.66,1.75,1.39a13.45,13.45,0,0,0-2.54,9.83l-7.39,1.66Zm-15.47,33L1351,163.18l42.77-9.63Zm43.38,24h-9.79l.37-26.52a5,5,0,0,1,1-3.29h7.38c.31.14,1.08,1.35,1.08,3.31Zm17.8,0h-13.36V179c0-4.41-2.32-7.73-5.4-7.73h-7.5c-3.08,0-5.4,3.32-5.4,7.7l-.37,26.55h-13.68V174l14.35-12.39a16.66,16.66,0,0,0,16.24.74l15.12,17.17Zm13.65-17.25-29-32.89,40.14,15Z"/><path class="cls-1" d="M1520.16,197.23l-6.62-11.34,3.64-2.79-5.07-8.72,2.75-2.89L1503,155.55l-11.9,15.94,2.75,2.89-5.08,8.72,3.65,2.79-6.62,11.34h15.67v10.25a1.51,1.51,0,0,0,3,0V197.23Zm-23.87-12.11-3.65-2.79,4.88-8.39-2.55-2.69,8-10.68,8,10.68-2.55,2.69,4.87,8.39-3.64,2.79,5.31,9.11h-24Z"/><path class="cls-1" d="M1241.33,189.31a7.34,7.34,0,0,0-4.32,1.24,5.46,5.46,0,0,0-1.11,1.09v-4a6.66,6.66,0,0,0,6.23-7.06V179.4l-1.12.06a7.8,7.8,0,0,0-4.82,2.17c-.09.11-.18.21-.26.32v-5.12a1.1,1.1,0,0,0-2.19,0V182a4,4,0,0,0-.26-.32,7.82,7.82,0,0,0-4.82-2.17l-1.13-.06v1.12a6.67,6.67,0,0,0,6.17,7.12h.06v4a6,6,0,0,0-1.1-1.09,7.59,7.59,0,0,0-4.33-1.24,6,6,0,0,0-.85,0l-1.1.13.15,1.1a7.36,7.36,0,0,0,2.58,4.52,7.58,7.58,0,0,0,4.34,1.25h.31V205a1.09,1.09,0,0,0,1.2,1,1.11,1.11,0,0,0,1-1v-8.65h.31a7.6,7.6,0,0,0,4.34-1.25,7.36,7.36,0,0,0,2.58-4.52l.15-1.1-1.1-.13A6.78,6.78,0,0,0,1241.33,189.31Zm-3.56-6.24a4.61,4.61,0,0,1,2-1.2,4.08,4.08,0,0,1-3,3.31,4.54,4.54,0,0,1,1-2.11Zm-6.94.91a4.54,4.54,0,0,1-1-2.11,4.08,4.08,0,0,1,3,3.31,4.57,4.57,0,0,1-2-1.18Zm-.48,9.36a4.36,4.36,0,0,1-1.34-1.81,4.9,4.9,0,0,1,2.31.78,4.39,4.39,0,0,1,1.34,1.82A4.87,4.87,0,0,1,1230.35,193.34Zm8.91,0a4.78,4.78,0,0,1-2.3.8,4.11,4.11,0,0,1,1.34-1.82,4.82,4.82,0,0,1,2.3-.78,4.18,4.18,0,0,1-1.34,1.79Z"/><path class="cls-1" d="M1260.2,189.31a7.54,7.54,0,0,0-4.33,1.24,5.73,5.73,0,0,0-1.11,1.09v-4a6.66,6.66,0,0,0,6.24-7V179.4l-1.12.06a7.8,7.8,0,0,0-4.82,2.17l-.27.32v-5.12a1.09,1.09,0,0,0-2.18,0V182c-.08-.11-.17-.21-.26-.32a7.82,7.82,0,0,0-4.82-2.17l-1.12-.06v1.12a6.68,6.68,0,0,0,6.24,7.14v4a5.73,5.73,0,0,0-1.11-1.09,7.53,7.53,0,0,0-4.32-1.24,6,6,0,0,0-.85,0l-1.1.13.15,1.1a7.31,7.31,0,0,0,2.58,4.52,7.55,7.55,0,0,0,4.33,1.25h.32V205a1.09,1.09,0,1,0,2.18,0v-8.65h.32a7.6,7.6,0,0,0,4.34-1.25,7.41,7.41,0,0,0,2.58-4.52l.15-1.1-1.1-.13A7.16,7.16,0,0,0,1260.2,189.31Zm-3.56-6.24a4.61,4.61,0,0,1,2-1.2,4.08,4.08,0,0,1-3,3.31,4.54,4.54,0,0,1,1-2.11Zm-6.94.91a4.4,4.4,0,0,1-1-2.11,4,4,0,0,1,3,3.31,4.57,4.57,0,0,1-2-1.18Zm-.48,9.36a4.22,4.22,0,0,1-1.34-1.81,4.86,4.86,0,0,1,2.3.78,4.19,4.19,0,0,1,1.34,1.82A5,5,0,0,1,1249.22,193.34Zm8.91,0a4.78,4.78,0,0,1-2.3.8,4.17,4.17,0,0,1,1.33-1.82,4.82,4.82,0,0,1,2.3-.78,4.24,4.24,0,0,1-1.33,1.79Z"/><path class="cls-1" d="M1279.07,189.31a7.54,7.54,0,0,0-4.33,1.24,5.73,5.73,0,0,0-1.11,1.09v-4a6.66,6.66,0,0,0,6.24-7V179.4l-1.12.06a7.8,7.8,0,0,0-4.82,2.17,2.69,2.69,0,0,0-.27.32v-5.12a1.09,1.09,0,1,0-2.18,0V182l-.27-.32a7.82,7.82,0,0,0-4.81-2.17l-1.13-.06v1.12a6.68,6.68,0,0,0,6.21,7.12h0v4a6,6,0,0,0-1.11-1.09,7.59,7.59,0,0,0-4.33-1.24,5.89,5.89,0,0,0-.84,0l-1.1.13.15,1.1a7.3,7.3,0,0,0,2.57,4.52,7.58,7.58,0,0,0,4.34,1.25h.32V205a1.09,1.09,0,1,0,2.18,0v-8.65h.32a7.6,7.6,0,0,0,4.34-1.25,7.35,7.35,0,0,0,2.57-4.52l.15-1.1-1.09-.13A7,7,0,0,0,1279.07,189.31Zm-3.56-6.24a4.52,4.52,0,0,1,2-1.2,4,4,0,0,1-3,3.31,4.54,4.54,0,0,1,1-2.11Zm-6.94.91a4.4,4.4,0,0,1-1-2.11,4,4,0,0,1,3,3.31,4.48,4.48,0,0,1-2-1.18Zm-.48,9.36a4.14,4.14,0,0,1-1.34-1.81,4.86,4.86,0,0,1,2.3.78,4.39,4.39,0,0,1,1.34,1.82A5,5,0,0,1,1268.09,193.34Zm8.91,0a4.92,4.92,0,0,1-2.31.8,4.31,4.31,0,0,1,1.34-1.82,4.82,4.82,0,0,1,2.3-.78,4.24,4.24,0,0,1-1.33,1.79Z"/><path class="cls-1" d="M1299.13,189.35a6,6,0,0,0-.85,0,7.39,7.39,0,0,0-4.33,1.24,5.73,5.73,0,0,0-1.11,1.09v-4a7.67,7.67,0,0,0,4.49-2.14,7.83,7.83,0,0,0,1.75-5v-1.12l-1.13.06a7.77,7.77,0,0,0-4.81,2.17l-.27.32v-5.12a1.09,1.09,0,1,0-2.18,0h0V182l-.27-.32a7.82,7.82,0,0,0-4.81-2.17l-1.13-.06v1.12a7.78,7.78,0,0,0,1.75,5,7.67,7.67,0,0,0,4.49,2.14v4a6,6,0,0,0-1.11-1.09,7.59,7.59,0,0,0-4.33-1.24,6,6,0,0,0-.85,0l-1.09.13.15,1.1a7.25,7.25,0,0,0,2.57,4.52,7.58,7.58,0,0,0,4.34,1.25h.32V205a1.09,1.09,0,1,0,2.18,0v-8.65h.32a7.6,7.6,0,0,0,4.34-1.25,7.35,7.35,0,0,0,2.57-4.52l.15-1.1Zm-4.41-6.28a4.52,4.52,0,0,1,2-1.2,4,4,0,0,1-3,3.31,4.4,4.4,0,0,1,1-2.11Zm-7,.91a4.54,4.54,0,0,1-1-2.11,4,4,0,0,1,3,3.31,4.56,4.56,0,0,1-2-1.18Zm-.48,9.35a4.17,4.17,0,0,1-1.33-1.8,4.86,4.86,0,0,1,2.3.78,4.27,4.27,0,0,1,1.34,1.82,4.81,4.81,0,0,1-2.26-.8Zm8.92,0a4.92,4.92,0,0,1-2.31.8,4.31,4.31,0,0,1,1.34-1.82,4.82,4.82,0,0,1,2.3-.78,4.2,4.2,0,0,1-1.28,1.8Z"/><path class="cls-1" d="M1169.84,159a1.51,1.51,0,0,0-1.4-1h-11.15a1.5,1.5,0,0,0-1.5,1.5v17.88a1.5,1.5,0,0,0,1.5,1.5h18.13a1.5,1.5,0,0,0,1.5-1.5,1.54,1.54,0,0,0-.21-.75Zm-11,17V161.08h8.63l5.74,14.88Z"/><path class="cls-1" d="M1227,196.83a1.52,1.52,0,0,0-.7-1.61c-.55-.32-5.35-3.09-7.4-3.56a5.39,5.39,0,0,1-4.5-4.5c-.29-1.57-2.11-4.89-2.8-6.13v-9.61a1.5,1.5,0,0,0-3,0v9.3h-1.76a12,12,0,0,0-11.46-8.51h-14.82L1174.77,155V155a.14.14,0,0,0-.07-.14.54.54,0,0,0-.07-.13,1,1,0,0,0-.08-.11l-.1-.12-.09-.09-.13-.1-.1-.07-.15-.07h-.11l-.16-.05h-20.3a1.45,1.45,0,0,0-1.35.91v.07a.76.76,0,0,0-.06.2.38.38,0,0,0,0,.15.29.29,0,0,0,0,.13l-.88,30.74a12.11,12.11,0,1,0,21.11,9H1186a9.12,9.12,0,0,0,17.6,4.79,9.26,9.26,0,0,0,0-4.79h2.3a1.5,1.5,0,0,0,1.5-1.5v-.12a2,2,0,0,0,.07-.43V187h1.22v4.45a7.17,7.17,0,0,0,7.14,7.19h9.8a1.5,1.5,0,0,0,1.5-1.5A1.23,1.23,0,0,0,1227,196.83Zm-66.87,6.56a9.17,9.17,0,1,1,9.08-9.26v.09a9.14,9.14,0,0,1-9.08,9.17Zm34.59.3a6.18,6.18,0,1,1,6.12-6.24v.06A6.16,6.16,0,0,1,1194.7,203.69Zm0-15.36a9.1,9.1,0,0,0-7.41,3.85H1172a12.12,12.12,0,0,0-11.89-10.11,11.92,11.92,0,0,0-6,1.62l.76-26.67h17.4l5.77,17.19h0a1.3,1.3,0,0,0,.19.37l.06.06a1.07,1.07,0,0,0,.26.26h0a1.22,1.22,0,0,0,.36.18h.09a1.4,1.4,0,0,0,.41.06h15.9a9.06,9.06,0,0,1,9,9.08v7.87h-2.27A9.11,9.11,0,0,0,1194.7,188.33Zm12.65-4.31v-.3h1.25v.3Zm4.23,7.45V188.3a8.34,8.34,0,0,0,6.63,6.28,15.1,15.1,0,0,1,2.56,1.08h-5a4.17,4.17,0,0,1-4.19-4.15Z"/><path class="cls-1" d="M1894.55,100.33a1.41,1.41,0,0,0,1-2.43,1.56,1.56,0,0,0-.48-.65l-19.28-14.59V69.07h18.81a1.4,1.4,0,0,0,1.4-1.4,1.41,1.41,0,0,0-.66-1.19,1.54,1.54,0,0,0-.46-.55l-22.05-15.19-.25-.2h0l-.23-.11h-11.29a7.75,7.75,0,0,0-1.17.31L1838.13,66a1.58,1.58,0,0,0-.36.37,1.4,1.4,0,0,0,.58,2.68h18.77V82.86L1838,97.38a1.13,1.13,0,0,0-.33.36,1.41,1.41,0,0,0-.46,1.93,1.44,1.44,0,0,0,1.21.66h18.75v13.8L1838,128.63a1.12,1.12,0,0,0-.34.38,1.4,1.4,0,0,0,.74,2.59H1857l-11.67,58.5h0l-3.37,16.9a1.41,1.41,0,0,0,1.11,1.65h.27a1.4,1.4,0,0,0,1.38-1.13v-.05a2,2,0,0,0,.32-.18l19.23-15.48h4.07l19.51,15.52a1.09,1.09,0,0,0,.32.17h0a1.39,1.39,0,0,0,1.37,1.13h.28a1.41,1.41,0,0,0,1.1-1.65h0l-15-75.35h18.66a1.4,1.4,0,0,0,1-2.41,1.51,1.51,0,0,0-.47-.62l-19.3-14.37v-13.9Zm-18.8-14.15,15,11.34h-15Zm14.61-19.94h-15l-1.7-11.51Zm-15.23,75.91-6.39-4.8,4.74-3.51Zm-4.5-73.1-4.14,4.14-4-4.14Zm-8.58-2.81,4.32-4.89,4.27,4.89ZM1872,82.88l-5.73,5.89-5.67-5.7,5.89-5.88Zm1,3v9.61l-4.74-4.76Zm-6.7,6.87,4.72,4.74h-9.33Zm6.7,8.78v9.63l-4.8-4.73Zm-2.73-1.23-4.07,4.16L1862,100.3Zm-4,8.14,5.76,5.69h0l-5.61,5.68-5.45-5.52a1.38,1.38,0,0,0-.25-.17Zm6.76,8.69v9.38l-4.64-4.69Zm-1.73,11.63h-9.85l4.89-4.95Zm.16,3.1-5,3.71-4.94-3.71Zm1.08,11.77H1860.3l6.14-4.56Zm1.11,2.81-7.23,8.19-7.23-8.19ZM1873,70.69v9.12l-4.58-4.61Zm-.84-7.07-3.87-4.43,2.76-3.12Zm-2.22-10.55-3.51,4-3.47-4Zm-8,3,2.67,3.06-3.8,4.31ZM1860,70.37l4.58,4.73L1860,79.67Zm0,16,4.36,4.38L1860,95.23Zm0,15.9,4.26,4.2-4.26,4.37Zm0,15,4.44,4.5-4.44,4.5Zm4.12,20-6.28,4.67,1.62-8.16Zm-21.4-71.1,16.62-11.8-1.8,11.8Zm-.32,31.35,14.71-11.14V97.52Zm0,31.27,14.72-11.14v11.14Zm14.2,19.06,7.88,8.93-1.75,2h-8.33Zm12.11,13.72,10.84,12.3h-26.4l10.85-12.3Zm-14.84,0h6.38l-8.25,9.36Zm-8.31,41.69,2.28-11.46h12ZM1863.27,189h-14.85l2.25-11.28a.8.8,0,0,0,.13.13l13.26,10.54Zm3-2.41-12.43-9.89h24.71Zm21.06,16.74-14.49-11.52H1885Zm-5.18-26,2.32,11.63h-15.16l-.79-.62L1882,177.53a1.12,1.12,0,0,0,.2-.18ZM1879,161.52l1.92,9.66-8.48-9.63h6.24a1.74,1.74,0,0,0,.32,0Zm-2.76-13.85,2.21,11.08H1870l-1.75-2Zm14.4-18.9h-14.89V117.7Z"/><polygon class="cls-2" points="622.69 166.24 629.52 161 620.29 145.14 625.17 140 608.42 117.59 591.72 140 596.6 145.1 592.73 151.76 595.91 156.01 592.36 159.73 598.92 171.01 594.19 174.62 599.85 184.33 633.24 184.33 622.69 166.24"/><polygon class="cls-2" points="594.98 170.27 588.62 159.33 591.97 155.82 581.02 141.18 570.07 155.82 573.42 159.33 567.08 170.27 571.82 173.89 564.72 186 597.35 186 590.24 173.89 594.98 170.27"/><path class="cls-1" d="M626.61,167l6.84-5.24L624,145.52l5.08-5.34-20.67-27.6L587.8,140.2l5.07,5.34-2.1,3.6-9.73-13L566.16,156l3.55,3.72L563.16,171l4.73,3.61L559.49,189h20v18.58a1.5,1.5,0,1,0,3,0V189h20l-1-1.66h5.33v20.28a1.5,1.5,0,0,0,3,0V187.34h28.48Zm-61.89,19,7.1-12.11-4.74-3.62,6.34-10.94-3.35-3.51L581,141.18l11,14.64-3.35,3.51L595,170.27l-4.74,3.62L597.35,186Zm35.13-1.67-5.66-9.71,4.73-3.61-6.56-11.28,3.55-3.72-3.18-4.25,3.87-6.66-4.88-5.1,16.7-22.41L625.17,140l-4.88,5.14L629.52,161l-6.83,5.24,10.55,18.09Z"/><path class="cls-2" d="M727.63,170.49V157.05h-4.91a.33.33,0,0,0,0,.14l0,13.16a.33.33,0,0,0,0,.14Z"/><path class="cls-2" d="M722.66,200.35a3,3,0,0,1-2.94-3.15V184.05a3,3,0,0,1,2.94-3.15h5v-7.41h-5a3,3,0,0,1-2.94-3.14V157.19a3,3,0,0,1,2.94-3.14h5v-6.8l10.21-9.37L703,115.79l-33.72,32.72v57.62h58.4v-5.78Z"/><path class="cls-2" d="M727.63,197.35V183.9h-4.91a.38.38,0,0,0,0,.15l0,13.15a.38.38,0,0,0,0,.15Z"/><path class="cls-2" d="M762,175.68h-7.92c-.65,0-1.86,1.64-1.86,4.32v25.88l11.64,0V180C763.85,177.32,762.64,175.68,762,175.68Z"/><path class="cls-2" d="M730.64,148.53v57.59h18.58V180c0-4.1,2.14-7.32,4.86-7.32H762c2.72,0,4.86,3.22,4.86,7.32v26.16h17.86l.06-57.65-26.36-25.44Z"/><path class="cls-1" d="M758.42,119l-18.28,16.77L702.55,112l-36.32,35.25v61.88h61.4v0h60.09V147.24Zm-89.19,87.13V148.51L703,115.79l34.89,22.09-10.21,9.37v6.8h-5a3,3,0,0,0-2.94,3.14v13.16a3,3,0,0,0,2.94,3.14h5v7.41h-5a3,3,0,0,0-2.94,3.15V197.2a3,3,0,0,0,2.94,3.15h5v5.78Zm53.49-48.94a.33.33,0,0,1,0-.14h4.91v13.44h-4.88a.33.33,0,0,1,0-.14Zm0,26.86a.38.38,0,0,1,0-.15h4.91v13.45h-4.88a.38.38,0,0,1,0-.15Zm41.13,21.79-11.64,0V180c0-2.68,1.21-4.32,1.86-4.32H762c.65,0,1.86,1.64,1.86,4.32Zm20.87.32H766.86V180c0-4.1-2.14-7.32-4.86-7.32h-7.92c-2.72,0-4.86,3.22-4.86,7.32v26.12H730.64V148.53l27.78-25.46,26.36,25.44Z"/><path class="cls-2" d="M941.87,195.14l-.12-.84c-.44-2.74-3.58-4.81-7-4.81s-6.33,1.9-6.93,4.52l-.34,1.51-1.51-.39a8.74,8.74,0,0,0-2.27-.3c-3.84,0-7,2.45-7,5.46s3.13,5.46,7,5.46h15.72c3.83,0,7-2.45,7-5.46,0-2-1.44-3.83-3.76-4.83Z"/><path class="cls-2" d="M930.76,164c0,9,4,15.6,9.59,16.18v-5.82l-6-11.71a1.5,1.5,0,0,1,2.67-1.37l3.34,6.52V151.37a1.5,1.5,0,1,1,3,0v16.17l3.21-6.27a1.49,1.49,0,0,1,2-.65,1.51,1.51,0,0,1,.65,2l-5.9,11.5v5.76c5.4-1.44,9.5-8.09,9.5-15.91S944.56,146,941.5,142.44C938.58,146,930.76,156.19,930.76,164Z"/><path class="cls-2" d="M966.73,128.34c-3.3,3.95-13,16.35-13.45,26.13a23,23,0,0,1,2.55,9.53,24.44,24.44,0,0,1-.22,3.23c2.2,4.84,5.78,7.91,10.1,8.17v-7.48l-7.42-14.49a1.5,1.5,0,0,1,2.67-1.36l4.75,9.27V139.79a1.5,1.5,0,1,1,3,0v21.13l4.53-8.85a1.5,1.5,0,0,1,2.67,1.36l-7.2,14.07v7.64c6.93-1.59,12.23-10,12.23-19.9S970.26,132.34,966.73,128.34Z"/><path class="cls-1" d="M967.78,125l-1.11-1.19-1.09,1.22c-.55.6-11.8,13.24-14.66,25.07a73.55,73.55,0,0,0-8.37-11l-1.13-1.21-1.08,1.21c-.52.57-12.6,14.14-12.6,24.84s5.25,18.64,12.58,19.18v4.73a11.43,11.43,0,0,0-5.57-1.42c-4.23,0-7.93,2.22-9.39,5.46a11.59,11.59,0,0,0-1.66-.12c-5.53,0-10,3.79-10,8.46s4.5,8.46,10,8.46h15.72c5.53,0,10-3.79,10-8.46a8.23,8.23,0,0,0-4.9-7.26,7.65,7.65,0,0,0-1.2-2.49V183c5.1-1,9.31-5.41,11.29-11.37,2.74,4.11,6.6,6.62,11.1,6.82v28.92a1.5,1.5,0,0,0,3,0V178.22c8.59-1.56,15.23-11.22,15.23-23C983.94,142.24,968.44,125.73,967.78,125Zm-21.36,75.25c0,3-3.17,5.46-7,5.46H923.7c-3.87,0-7-2.45-7-5.46s3.16-5.46,7-5.46a8.74,8.74,0,0,1,2.27.3l1.51.39.34-1.51c.6-2.62,3.51-4.52,6.93-4.52s6.56,2.07,7,4.81l.12.84.79.32C945,196.46,946.42,198.27,946.42,200.29Zm-3.08-20.38v-5.76l5.9-11.5a1.51,1.51,0,0,0-.65-2,1.49,1.49,0,0,0-2,.65l-3.21,6.27V151.38a1.5,1.5,0,1,0-3,0V167.8L937,161.28a1.5,1.5,0,0,0-2.67,1.37l6,11.71v5.82c-5.6-.58-9.59-7.2-9.59-16.18,0-7.81,7.82-18,10.74-21.56,3.06,3.51,11.34,13.74,11.34,21.56S948.74,178.47,943.34,179.91Zm25.37-4.77V167.5l7.2-14.07a1.5,1.5,0,0,0-2.67-1.36l-4.53,8.85V139.79a1.5,1.5,0,1,0-3,0v21.55L961,152.07a1.5,1.5,0,0,0-2.67,1.36l7.42,14.49v7.48c-4.32-.26-7.9-3.33-10.1-8.17a24.44,24.44,0,0,0,.22-3.23,23,23,0,0,0-2.55-9.53c.5-9.78,10.15-22.18,13.45-26.13,3.53,4,14.21,17,14.21,26.9S975.64,173.55,968.71,175.14Z"/><polygon class="cls-2" points="1579.67 165.88 1586.51 160.64 1577.27 144.74 1582.15 139.6 1565.42 117.23 1548.73 139.62 1553.61 144.76 1549.75 151.39 1552.97 155.69 1549.42 159.41 1555.93 170.68 1551.2 174.3 1556.84 183.98 1590.22 183.98 1579.67 165.88"/><polygon class="cls-2" points="1552.03 169.93 1545.67 159 1549.02 155.48 1538.07 140.85 1527.07 155.48 1530.42 159 1524.09 169.9 1528.83 173.52 1521.75 185.71 1554.39 185.71 1547.3 173.55 1552.03 169.93"/><path class="cls-1" d="M1583.62,166.67l6.84-5.23L1581,145.2l5.08-5.35-20.68-27.63-20.63,27.61,5.07,5.35-2.08,3.57-9.68-12.94-14.87,19.88,3.54,3.72-6.55,11.27,4.73,3.62-8.39,14.38h20v18.57a1.5,1.5,0,0,0,3,0V188.68h20l-1-1.68h5.33v20.27a1.5,1.5,0,0,0,3,0V187h28.54Zm-61.87,19,7.08-12.19-4.74-3.62,6.33-10.9-3.35-3.52,11-14.63,11,14.63-3.35,3.52,6.36,10.93-4.73,3.62,7.09,12.16Zm35.09-1.73-5.64-9.68,4.73-3.62-6.51-11.27,3.55-3.72-3.22-4.3,3.86-6.63-4.88-5.14,16.69-22.39,16.73,22.37-4.88,5.14,9.24,15.9-6.84,5.24,10.55,18.1Z"/><path class="cls-2" d="M1990.41,141a2.12,2.12,0,0,1,2.85.92l4.52,8.83V128a2.11,2.11,0,0,1,4.22,0v23.13l4.69-9.17a2.11,2.11,0,1,1,3.76,1.93L2002,160.29v8.19c7.87-.81,13.48-10.12,13.48-22.76,0-11-11-25.35-15.11-30.34-4.31,5-16,19.34-16,30.34s5.82,20.43,13.41,22.45V160l-8.29-16.18A2.11,2.11,0,0,1,1990.41,141Z"/><path class="cls-2" d="M1983.79,132.33c-.72-13.75-14.28-31.16-19-36.72-5,5.66-20,23.92-20,37.85s7.52,25.76,17.27,28V150.72L1952,130.92a2.11,2.11,0,0,1,3.76-1.92l6.38,12.46V111.72a2.11,2.11,0,0,1,4.22,0V142l6.68-13a2.11,2.11,0,1,1,3.76,1.92l-10.44,20.38v10.53c6.06-.36,11.11-4.67,14.2-11.47a34.88,34.88,0,0,1-.31-4.61C1980.21,141.43,1981.68,136.78,1983.79,132.33Z"/><path class="cls-2" d="M2025.37,189.17a12.76,12.76,0,0,0-3.2.41l-2.11.56-.49-2.13c-.83-3.68-4.93-6.36-9.74-6.36-5,0-9.23,2.91-9.82,6.78l-.18,1.18-1.1.45c-3.27,1.35-5.3,3.95-5.3,6.79,0,4.24,4.49,7.69,10,7.69h21.95c5.45,0,9.89-3.45,9.89-7.69S2030.82,189.17,2025.37,189.17Z"/><path class="cls-1" d="M2025.42,185a16.6,16.6,0,0,0-2.34.11c-2-4.55-7.26-7.68-13.2-7.68a16,16,0,0,0-7.83,2l0-6.64c10.32-.77,17.7-11.9,17.7-27s-17-34.19-17.72-35l-1.53-1.7-1.57,1.66a104.28,104.28,0,0,0-11.8,15.51c-4-16.63-19.84-34.38-20.6-35.25L1965,89.3,1963.4,91c-.93,1-22.74,24.22-22.74,42.49,0,16.54,9.35,30.15,21.44,32.31v41a2.11,2.11,0,0,0,4.22,0V166.08c6.32-.31,11.75-3.85,15.6-9.62,2.79,8.4,8.73,14.61,15.88,16l.06,10.61a10.85,10.85,0,0,0-1.73,3.53c-4.27,2.13-6.87,6-6.82,10.27,0,6.57,6.33,11.91,14.11,11.91h22c7.78,0,14.11-5.35,14.11-11.91S2033.2,185,2025.42,185Zm-59.1-23.17V151.3l10.44-20.38A2.11,2.11,0,1,0,1973,129l-6.68,13V111.72a2.11,2.11,0,0,0-4.22,0v29.74L1955.72,129a2.11,2.11,0,0,0-3.76,1.92l10.14,19.8v10.74c-9.75-2.24-17.27-14.07-17.27-28s15-32.19,20-37.85c4.68,5.56,18.24,23,19,36.72-2.11,4.45-3.58,9.1-3.58,13.42a34.88,34.88,0,0,0,.31,4.61C1977.43,157.16,1972.38,161.47,1966.32,161.83Zm23.18-18,8.29,16.18v8.17c-7.59-2-13.41-11.45-13.41-22.45s11.69-25.34,16-30.34c4.11,5,15.11,19.34,15.11,30.34,0,12.64-5.61,21.95-13.48,22.76v-8.19l8.44-16.47a2.11,2.11,0,1,0-3.76-1.93l-4.69,9.17V127.93a2.11,2.11,0,0,0-4.22,0v22.77l-4.52-8.83a2.11,2.11,0,1,0-3.76,1.93Zm35.87,60.72h-21.95c-5.5,0-9.94-3.45-10-7.69,0-2.84,2-5.44,5.3-6.79l1.1-.45.18-1.18c.59-3.87,4.82-6.78,9.82-6.78,4.81,0,8.91,2.68,9.74,6.36l.49,2.13,2.11-.56a12.76,12.76,0,0,1,3.2-.41c5.45,0,9.89,3.44,9.89,7.68S2030.82,204.54,2025.37,204.54Z"/><path class="cls-1" d="M1190.79,43a19.13,19.13,0,0,0-13.51,5.59A18.74,18.74,0,0,0,1171.72,62a19.07,19.07,0,0,0,19.12,18.92h.05a19,19,0,1,0-.1-37.94Zm.09,34.94,0,1.5v-1.5A16.06,16.06,0,0,1,1174.72,62a15.78,15.78,0,0,1,4.68-11.3,16,16,0,1,1,11.48,27.23Z"/><path class="cls-1" d="M1190.37,38.31h0a1.5,1.5,0,0,0,1.5-1.5l-.06-20.73a1.5,1.5,0,0,0-1.5-1.5h0a1.5,1.5,0,0,0-1.5,1.5l.06,20.73A1.5,1.5,0,0,0,1190.37,38.31Z"/><path class="cls-1" d="M1190.5,85.57h0a1.5,1.5,0,0,0-1.5,1.5l.06,20.74a1.5,1.5,0,0,0,1.5,1.5h0a1.51,1.51,0,0,0,1.5-1.51L1192,87.06A1.5,1.5,0,0,0,1190.5,85.57Z"/><path class="cls-1" d="M1171.41,45.28a1.5,1.5,0,1,0,2.11-2.13l-14.84-14.62a1.5,1.5,0,1,0-2.1,2.14Z"/><path class="cls-1" d="M1209.46,78.6a1.5,1.5,0,1,0-2.1,2.13l14.82,14.62a1.5,1.5,0,1,0,2.11-2.13Z"/><path class="cls-1" d="M1236.7,60.32h0l-20.92.06a1.5,1.5,0,0,0,0,3h0l20.92-.06a1.5,1.5,0,0,0,0-3Z"/><path class="cls-1" d="M1166.58,62a1.5,1.5,0,0,0-1.5-1.5h0l-20.92.05a1.51,1.51,0,0,0-1.49,1.51,1.49,1.49,0,0,0,1.5,1.49h0l20.92-.05A1.5,1.5,0,0,0,1166.58,62Z"/><path class="cls-1" d="M1208.32,45.62a1.48,1.48,0,0,0,1-.43l14.75-14.7a1.5,1.5,0,1,0-2.11-2.12l-14.75,14.69a1.5,1.5,0,0,0,1.06,2.56Z"/><path class="cls-1" d="M1171.5,78.7l-14.76,14.69a1.5,1.5,0,1,0,2.12,2.13l14.75-14.7a1.5,1.5,0,1,0-2.11-2.12Z"/><path class="cls-2" d="M28.41,123.83,27.6,123a13.1,13.1,0,0,1,9.09-22.41l1.35,0,.21-1.15c.44-2.46,6.11-4.27,13.46-4.27,9.25,0,19.19,2.9,19.19,7.23v1l-.07.91.9.38a11.53,11.53,0,0,1,5.78,15.09l-.58,1.32,1.34.5c6.75,2.49,11.13,8.14,11.26,14.39.19,8.89-8.16,16.3-18.58,16.52-2.39.07-7,.07-14,.07H42.77a18,18,0,0,1-18.13-17.82v0a17.53,17.53,0,0,1,3.11-10.08Z"/><path class="cls-2" d="M59.68,189.32v-1.43c0-2.6,2.41-4.71,5.35-4.71h3.56l.27-1c.87-3.13,4.55-5.42,8.75-5.42h4.22c4.24,0,7.86,2.25,8.76,5.42l.27,1h7c2.95,0,5.36,2.11,5.36,4.71v.17l-.1,1.2,1.15.3c4.85,1,8.23,4.49,8.23,8.37,0,4.8-5,8.7-11.2,8.7H61.64c-6.18,0-11.2-3.9-11.28-8.7,0-3.86,3.38-7.33,8.22-8.37Z"/><path class="cls-1" d="M21.08,113.66A15.76,15.76,0,0,1,36,97.88c2.2-5,12.51-5.42,15.79-5.42,10.85,0,21.9,3.41,21.9,9.94v.29a14.21,14.21,0,0,1,6.8,16.92c7,3.12,11.62,9.41,11.75,16.38.21,10.37-9.32,19-21.24,19.29-2.35,0-6.78.07-13.56.07v30.18a8,8,0,0,1,7.64-5.06h1.55c1.59-3.86,6-6.47,11-6.47h4.19c5.06,0,9.44,2.61,11,6.47h5a7.86,7.86,0,0,1,8,6.7c5.53,1.59,9.31,5.89,9.31,10.76,0,6.33-6.24,11.41-13.91,11.41H61.64c-7.67,0-13.91-5.12-13.91-11.41,0-4.15,2.75-7.89,7-9.88V155.36h-12a20.72,20.72,0,0,1-20.85-20.54,20.18,20.18,0,0,1,3.07-10.73A15.72,15.72,0,0,1,21.08,113.66Zm29.28,84.27c.08,4.8,5.1,8.7,11.28,8.7h39.67c6.17,0,11.2-3.9,11.2-8.7,0-3.88-3.38-7.33-8.23-8.37l-1.15-.3.1-1.2v-.17c0-2.6-2.41-4.71-5.36-4.71h-7l-.27-1c-.9-3.17-4.52-5.42-8.76-5.42H77.61c-4.2,0-7.88,2.29-8.75,5.42l-.27,1H65c-2.94,0-5.35,2.11-5.35,4.71v1.43l-1.1.24C53.74,190.6,50.36,194.07,50.36,197.93ZM24.64,134.81v0a18,18,0,0,0,18.13,17.82H57c7,0,11.61,0,14-.07,10.42-.22,18.77-7.63,18.58-16.52-.13-6.25-4.51-11.9-11.26-14.39l-1.34-.5.58-1.32a11.53,11.53,0,0,0-5.78-15.09l-.9-.38.07-.91v-1c0-4.33-9.94-7.23-19.19-7.23-7.35,0-13,1.81-13.46,4.27L38,100.65l-1.35,0A13.1,13.1,0,0,0,27.6,123l.81.81-.66.9A17.53,17.53,0,0,0,24.64,134.81Z"/><path class="cls-1" d="M2804.69,49a19.55,19.55,0,0,0-34.59,0h-1.23a14.66,14.66,0,0,0-14.55,12.87l-.21,1.68h65.14l-.2-1.68A14.7,14.7,0,0,0,2804.69,49Zm-47.06,11.55A11.67,11.67,0,0,1,2768.87,52a11.91,11.91,0,0,1,1.88.15l1.12.18.48-1a16.55,16.55,0,0,1,30.07-.13l.42.92,1-.06h.63a11.67,11.67,0,0,1,11.24,8.55Z"/><path class="cls-1" d="M32.61,193.77a8.61,8.61,0,0,0-8.47-6.49,8.83,8.83,0,0,0-3.05.56,15.18,15.18,0,0,0-6.15-6.15A15.31,15.31,0,0,0,0,169.56v3a12.24,12.24,0,0,1,12.09,10.31l.1.81.74.35a12.17,12.17,0,0,1,5.55,5.29,8.32,8.32,0,0,0-2.43,3.28,9.67,9.67,0,0,0-1.2-.08,8.51,8.51,0,0,0-8.68,8.32,8.08,8.08,0,0,0,2.14,5.46c-.34,0-.69,0-1,0H0v3H7.28a16,16,0,0,0,4.62-.68,9,9,0,0,0,2.95.51H28a8.53,8.53,0,0,0,8.68-8.33A8.21,8.21,0,0,0,32.61,193.77ZM28,206.17H14.85a5.34,5.34,0,1,1,0-10.65,6.07,6.07,0,0,1,1.79.27l1.59.5.32-1.64a5.61,5.61,0,0,1,5.59-4.37A5.57,5.57,0,0,1,29.78,195l.11.8.73.36a5.27,5.27,0,0,1,3.1,4.73A5.52,5.52,0,0,1,28,206.17Z"/><path class="cls-2" d="M2815.58,175.26l-6.14-10.54,3.19-3.39-10.07-13.44-10.06,13.44,3.22,3.39-6.14,10.54,4.59,3.52-6.68,11.46h18.36a15,15,0,0,1,6.93-8.4l-1.78-3.06Z"/><path class="cls-2" d="M2815.58,175.26l-6.14-10.54,3.19-3.39-10.07-13.44-10.06,13.44,3.22,3.39-6.14,10.54,4.59,3.52-6.68,11.46h18.36a15,15,0,0,1,6.93-8.4l-1.78-3.06Z"/><path class="cls-2" d="M2815.58,175.26l-6.14-10.54,3.19-3.39-10.07-13.44-10.06,13.44,3.22,3.39-6.14,10.54,4.59,3.52-6.68,11.46h18.36a15,15,0,0,1,6.93-8.4l-1.78-3.06Z"/><path class="cls-1" d="M2820.67,182.75a13.17,13.17,0,0,1,3.9.59l1.6.5.32-1.64a12.32,12.32,0,0,1,12.29-9.65h.3v-3h-.3a15.41,15.41,0,0,0-14.84,10.54,15.58,15.58,0,0,0-3.27-.34,15.76,15.76,0,0,0-4.43.63l1.06,1.82h-.2a10.1,10.1,0,0,0-3.7.7l-.62-1a15,15,0,0,0-6.93,8.4H2807a10,10,0,0,0-.26,2.27,9.29,9.29,0,0,0,.12,1.5h-1.69c0,.18,0,.35,0,.54,0,8.15,7,14.79,15.49,14.79h18.41v-3h-18.41c-6.89,0-12.49-5.29-12.49-11.79S2813.78,182.75,2820.67,182.75Z"/><path class="cls-1" d="M2806.78,192.51a10,10,0,0,1,.26-2.27h-19.55l6.68-11.46-4.59-3.52,6.14-10.54-3.22-3.39,10.06-13.44,10.07,13.44-3.19,3.39,6.14,10.54-4.58,3.52,1.78,3.06.62,1a10.1,10.1,0,0,1,3.7-.7h.2l-1.06-1.82-.37-.63,4.58-3.51-6.38-11,3.46-3.64-15-20-15,20,3.46,3.64-6.38,11,4.59,3.51L2780.92,194h19.72v12.88a1.9,1.9,0,0,0,3.77,0V194h2.49A9.29,9.29,0,0,1,2806.78,192.51Z"/></svg>