<svg xmlns="http://www.w3.org/2000/svg" xmlns:xlink="http://www.w3.org/1999/xlink" width="200" height="200" viewBox="0 0 200 200">
    <defs>
        <path id="a" d="M0 0h197.826v197.83H.001z"/>
    </defs>
    <g fill="none" fill-rule="evenodd">
        <circle cx="89" cy="109" r="85" fill="#FFF"/>
        <mask id="b" fill="#fff">
            <use xlink:href="#a"/>
        </mask>
        <path fill="#FECC66" d="M138.07 31.097a2.477 2.477 0 0 0-3.392.911l-2.654 4.582a2.491 2.491 0 0 0 .911 3.398c.391.221.814.332 1.239.332a2.5 2.5 0 0 0 2.155-1.243l2.651-4.587a2.483 2.483 0 0 0-.91-3.393zm21.925 35.034c.42 0 .847-.11 1.239-.332l4.587-2.653a2.483 2.483 0 1 0-2.481-4.3l-4.588 2.648a2.483 2.483 0 0 0 1.243 4.637zm14.744 30.298h-5.299a2.483 2.483 0 0 0-2.481 2.481 2.486 2.486 0 0 0 2.481 2.487h5.299a2.483 2.483 0 0 0 2.483-2.487 2.48 2.48 0 0 0-2.483-2.481zm-64.867 85.7a85.55 85.55 0 0 1-11.068.726c-41.9 0-77.627-31.38-83.105-72.986-2.924-22.23 2.979-44.264 16.626-62.052 13.648-17.788 33.408-29.19 55.633-32.121a84.921 84.921 0 0 1 11.068-.727c41.898 0 77.63 31.378 83.11 72.986 6.037 45.888-26.379 88.132-72.264 94.173zm77.187-94.812C181.254 43.234 143.409 10 99.026 10c-3.89 0-7.832.259-11.716.774C63.77 13.87 42.84 25.96 28.384 44.796 13.933 63.634 7.676 86.977 10.776 110.52c5.802 44.08 43.647 77.311 88.032 77.311 3.89 0 7.83-.259 11.712-.774 48.61-6.395 82.936-51.14 76.539-99.739zm-50.73 71.428a2.478 2.478 0 0 0-3.394-.907 2.483 2.483 0 0 0-.91 3.392l2.653 4.586a2.477 2.477 0 0 0 2.153 1.24c.42 0 .85-.104 1.239-.333a2.482 2.482 0 0 0 .91-3.39l-2.65-4.588zm29.492-24.073l-4.587-2.653a2.476 2.476 0 0 0-3.393.907 2.488 2.488 0 0 0 .911 3.398l4.588 2.65a2.49 2.49 0 0 0 3.392-.909 2.485 2.485 0 0 0-.911-3.393zm-100.926 23.16a2.48 2.48 0 0 0-3.392.913l-2.651 4.588a2.478 2.478 0 0 0 .91 3.39 2.48 2.48 0 0 0 3.392-.907l2.652-4.586a2.495 2.495 0 0 0-.91-3.398zM61.503 39.077a2.484 2.484 0 0 0 3.392.91 2.493 2.493 0 0 0 .911-3.397l-2.651-4.582a2.478 2.478 0 0 0-3.392-.91 2.48 2.48 0 0 0-.911 3.392l2.651 4.587zm37.414-8.21a2.483 2.483 0 0 0 2.481-2.482v-5.303a2.486 2.486 0 0 0-2.48-2.485 2.485 2.485 0 0 0-2.486 2.485v5.303a2.483 2.483 0 0 0 2.485 2.481zM32.007 63.15l4.59 2.65a2.481 2.481 0 0 0 3.392-.91 2.483 2.483 0 0 0-.907-3.394l-4.587-2.647a2.478 2.478 0 0 0-3.396.907 2.486 2.486 0 0 0 .908 3.394zm86.674-11.957a2.478 2.478 0 0 0-3.242 1.348L97.258 96.437H23.09a2.486 2.486 0 0 0 0 4.97h75.826c.223 0 .437-.041.644-.1.046-.012.093-.028.138-.042.198-.063.372-.144.54-.257.01-.008.035-.012.041-.024a2.45 2.45 0 0 0 .478-.426c.036-.042.058-.075.097-.123.133-.174.259-.363.348-.569v-.006l18.816-45.42a2.471 2.471 0 0 0-1.338-3.247zm-82.084 80.832l-4.59 2.653a2.482 2.482 0 0 0 1.249 4.633c.42 0 .845-.107 1.239-.332l4.587-2.649a2.486 2.486 0 0 0-2.485-4.305zm62.32 34.927a2.484 2.484 0 0 0-2.485 2.483v5.3a2.484 2.484 0 0 0 4.967 0v-5.3a2.483 2.483 0 0 0-2.482-2.483z" mask="url(#b)"/>
    </g>
</svg>
