<svg xmlns="http://www.w3.org/2000/svg" width="69" height="37" viewBox="0 0 69 37">
    <path fill="#DFD7C5" fill-rule="evenodd" d="M65.652 33.754c-2.07 2.06-4.921 3.235-8.035 3.246l-.011-.002h-27.57L27.581 37h-9.05c-5.084.003-9.716-1.977-13.073-5.347l-.014.01A18.506 18.506 0 0 1 0 18.563l.007-.006H0A18.53 18.53 0 0 1 5.444 5.46v-.009C8.797 2.087 13.431.003 18.518 0h7.131a4.273 4.273 0 0 1 4.277 4.267c0 2.373-1.914 4.065-4.278 4.065l-7.119.004-.004-.01c-2.737.01-5.233 1.367-7.039 3.173l-.02.005a9.928 9.928 0 0 0-2.914 7.053h-.007a9.996 9.996 0 0 0 2.95 7.049l-.009.013c1.806 1.81 4.3 3.009 7.046 3.009l9.04-.008 2.473.008 27.56-.008h.003c.79 0 1.5-.406 2.021-.924.509-.507.863-1.527.863-2.315h.005c-.005-.8-.364-2.103-.89-2.633a2.787 2.787 0 0 0-2.001-.817h-7.343l-11.027-.005c-2.13.013-4.27-2.128-4.278-4.272l-.004-13.371C34.95 2.143 37.086 0 39.224 0H50.79c2.37-.009 4.279 1.7 4.274 4.06a4.285 4.285 0 0 1-4.27 4.292l-7.466-.012v5.993l6.935.005 7.337-.005h.006c3.123 0 5.979 1.289 8.05 3.368C67.718 19.77 69 22.551 69 25.68c.013 3.13-1.282 5.996-3.348 8.074"/>
</svg>
