<svg xmlns="http://www.w3.org/2000/svg" width="127" height="199" viewBox="0 0 127 199">
    <path fill="#FECC66" fill-rule="evenodd" d="M113.627 198.425h8.504V0h-8.504v198.425zm-109.716 0h8.503V0H3.911v198.425zM13.415 52.9h99.212v-2.835H13.415V52.9zm109.716 4.742l2.91-1.68v-3.35l-2.91-1.68v6.71zM0 52.612v3.35l2.911 1.68v-6.71L0 52.612zm13.415 6.459h99.212v-5.102H13.415v5.102zm0 8.086h99.212V60.07H13.415v7.087zm0 10.921h99.212v-9.921H13.415v9.921zm109.716 1.884l2.91-1.68v-3.36l-2.91-1.68v6.72zM0 74.922v3.36l2.911 1.68v-6.72L0 74.922zm13.415 16.912h99.212V79.078H13.415v12.756zm0 13.757h99.212V92.834H13.415v12.757zm0 13.755h99.212V106.59H13.415v12.756zm109.716 5.247l2.91-1.681v-3.359l-2.91-1.671v6.711zM0 119.553v3.359l2.911 1.681v-6.711L0 119.553zm13.415 10.715h99.212v-9.922H13.415v9.922zm0 8.087h99.212v-7.087H13.415v7.087zm0 6.101h99.212v-5.102H13.415v5.102zm109.716 2.447l2.91-1.671v-3.359l-2.91-1.681v6.711zM0 141.873v3.359l2.911 1.671v-6.711L0 141.873zm13.415 6.488h99.212v-2.835H13.415v2.835z"/>
</svg>
