<svg xmlns="http://www.w3.org/2000/svg" xmlns:xlink="http://www.w3.org/1999/xlink" width="338" height="121" viewBox="0 0 338 121">
    <defs>
        <path id="a" d="M0 .102h337.923v120.826H0z"/>
    </defs>
    <g fill="none" fill-rule="evenodd">
        <mask id="b" fill="#fff">
            <use xlink:href="#a"/>
        </mask>
        <path fill="#FECC66" d="M0 111.868h337.923v9.06H0v-9.06zM7.495.102h330.429v9.06H0V.102h7.495z" mask="url(#b)"/>
        <path fill="#8A010E" d="M280.872 63.002c8.995-.47 18.146.327 26.647 3.366.297.13.45.393.45.641v27.68l-.002.068v.008l-.002.019v.029h-.001v.009l-.001.002v.009l-.006.038v.001l-.002.017h-.001v.009h-.002l-.003.016v.002l-.005.013-.003.007-.002.006-.003.005h-.001l-.002.004-.024.012-.007.003-.015.004-.027.005-.017.003-.001.001-.01.002h-.009l-.04.003-.115.005h-26.494c-.057 0-.215-.004-.266-.038-.033-.05-.036-.207-.036-.262V63.002zm26.946-6.92c-9.92-3.03-18.842-3.206-26.494-2.995-.163-.026-.467-.144-.452-.472V27.112h26.796l9.332-.003V18.1h-38.235c-1.903 0-3.566.662-4.914 2.007-1.347 1.345-2.01 3.003-2.01 4.902v6.97l-.001 18.923v46.19c0 1.9.664 3.558 2.011 4.903 1.347 1.345 3.01 2.006 4.914 2.006h31.311c1.428 0 2.72-.373 3.846-1.126h.001c.094-.063.184-.129.278-.197l.067-.05a7.63 7.63 0 0 0 .596-.508v-.002l.126-.123c.191-.189.365-.385.528-.586v-.002l.106-.132.001-.003.101-.134.002-.001.049-.068v-.002l.048-.067v-.001l.048-.069v-.002l.047-.069v-.001l.046-.069v-.002l.044-.07v-.002l.043-.07v-.002l.043-.07v-.003l.042-.069v-.003l.04-.07.002-.002.038-.072v-.003l.039-.07v-.003l.037-.072.002-.002.035-.072.002-.003.034-.073.001-.001.033-.074.002-.003.033-.073v-.002l.033-.074v-.002l.03-.075.003-.002.029-.075.001-.001.03-.076v-.003l.028-.076v-.002l.002-.002.053-.153v-.001l.025-.078.001-.001.025-.078V99.2l.024-.078v-.002l.023-.078v-.002c.03-.106.057-.216.081-.323l.001-.001.017-.082v-.002l.032-.164.002-.001.014-.082.001-.002.014-.082.025-.168v-.001l.01-.084.001-.002.01-.084.01-.085.008-.085v-.002l.012-.172.002-.001.004-.086v-.001l.005-.086v-.002l.004-.086.002-.088v-.001l.001-.088v-.089l.001-.002v-29.84c.022-4.876-1.663-8.97-9.182-11.167zm-77.313-3.115V27.412c0-.056.003-.214.036-.264.05-.033.208-.036.263-.036H257.3c.057 0 .214.003.266.036.033.051.035.208.035.264v28.205c0 .217-.283.254-.451.282-9.985 1.7-19.807 3.385-26.494 4.122-.17.027-.15-.164-.15-.314v-6.74zM78.68 60.249c9.062-.899 18.018-2.264 27.37-3.88.214-.035.447-.066.447-.313V27.36c0-.056-.002-.214-.035-.263-.05-.034-.207-.038-.265-.038H79.702c-.057 0-.215.004-.265.039-.033.048-.036.206-.036.262l-.722 32.89zm78.185-3.775c-8.991-1.737-16.319-2.648-26.647-2.905-.215-.035-.45-.066-.45-.314V27.36c0-.056.003-.214.037-.263.05-.034.207-.038.264-.038h26.494c.057 0 .215.004.266.039.033.048.036.206.036.262v29.114zM29.033 65.198c8.223 2.883 18.341 4.76 26.647 5.34.213.035.45.267.45.513V94.64l-.002.067v.008l-.002.02v.008l-.002.017v.012h-.001v.01l-.006.038-.002.017v.002l-.002.008v.001l-.004.015-.006.015-.002.006-.002.006v.001l-.003.005-.003.004-.023.013-.008.002-.015.003-.026.006-.019.003-.01.002h-.008l-.002.002-.038.003h-.001l-.114.004H29.335c-.058 0-.215-.004-.267-.039-.032-.048-.035-.207-.035-.262V65.198zm25.589-4.714c-9.101-.76-18.303-2.818-25.137-5.34-.496-.166-.452-.499-.452-1.132V27.06h26.796l9.331-.002v-9.01H26.926c-1.904 0-3.566.662-4.914 2.007C20.664 21.401 20 23.06 20 24.96v72.083c0 1.9.664 3.556 2.012 4.902 1.346 1.345 3.01 2.006 4.914 2.006h31.31c1.43 0 2.721-.372 3.846-1.125l.002-.001c.093-.063.185-.129.277-.197l.068-.05v-.001a7.22 7.22 0 0 0 .596-.508l.126-.124c.19-.189.366-.384.528-.584v-.003l.106-.133.001-.002.102-.135v-.002l.048-.067.002-.002.047-.068.001-.002.047-.067.001-.003.046-.068v-.002l.045-.069.002-.002.043-.069.001-.002.043-.07v-.002l.042-.07.002-.002.04-.07.001-.003.04-.07v-.002l.04-.072v-.002l.038-.072.001-.001.036-.073.001-.002.036-.073.002-.002.035-.073v-.001l.034-.074.001-.002.033-.074.001-.002.032-.074.001-.002.03-.075.002-.002.03-.075.001-.001.028-.077.001-.002.029-.075v-.002l.001-.003.053-.153v-.001l.026-.079.025-.078v-.002l.024-.078.022-.08.001-.002c.03-.106.056-.214.08-.324l.003-.001.016-.08.001-.002.032-.164.001-.001.016-.083.013-.084v-.001l.026-.167.01-.084v-.002l.01-.084.001-.002.008-.084.001-.001.008-.084v-.003l.014-.17.001-.002.004-.087h.001l.004-.085v-.002l.003-.087h.001l.001-.087.001-.003v-.087h.001V71.173c-.029-4.06-1.24-7.893-6.204-9.78-1.55-.588-2.723-.777-4.334-.91zm75.296 2.98c9.625.217 17.837 1.136 23.994 2.359 2.093.416 3.16.702 5.415.632 3.845-.12 6.511-1.814 6.568-6.776v-34.72c0-1.9-.662-3.558-2.01-4.903-1.347-1.345-3.01-2.007-4.915-2.007h-31.31c-1.904 0-3.567.663-4.914 2.007-1.347 1.343-2.01 3.005-2.01 4.903v78.99h9.032V63.678c0-.086-.01-.2.15-.214zm77.342 39.68v-28.59c-.023-1.369.177-2.509-2.166-2.423-7.78.284-16.658.229-24.957-1.177v32.994h-9.032V18h9.032v42.358c0 .216.284.526.452.554 3.486.419 9.066 1.062 13.124 1.117L206.045 18.1h10.22L203.99 62.11c1.46-.038 3.151-.074 4.774-.161 4.167-.225 7.503 3.365 7.503 8.204v33.797h-9.032l.026-.806zM106.244 66.285c-9.182 1.489-17.567 2.976-26.392 3.758-.286.028-.451.174-.451.589v33.316h-9.032v-78.99c0-1.9.663-3.558 2.01-4.903 1.349-1.345 3.01-2.007 4.915-2.007h31.311c1.903 0 3.567.663 4.914 2.007 1.347 1.343 2.01 3.005 2.01 4.903v78.99h-9.033V66.515c0-.151-.08-.253-.252-.229zm160.389-13.32V25.01c0-1.9-.663-3.557-2.01-4.903-1.347-1.345-3.01-2.005-4.915-2.005h-31.312c-1.902 0-3.565.661-4.913 2.005-1.347 1.344-2.01 3.005-2.01 4.903V104h9.032V70.333c0-.249.235-.418.449-.454 9.05-1.102 17.027-2.503 26.647-4.108V104h9.032V52.967z"/>
    </g>
</svg>
