<svg xmlns="http://www.w3.org/2000/svg" width="200" height="199" viewBox="0 0 200 199">
    <path fill="#FECC66" fill-rule="evenodd" d="M40.718 19.806l98.67 98.67 2.381 1.37v1.01l37.85 37.85c2.6-3.47 4.98-7.12 7.12-10.92l-135.1-135.1c-3.8 2.14-7.45 4.52-10.92 7.12zm59.49 89.33c-5.48 0-9.92-4.44-9.92-9.92 0-2.5.93-4.78 2.451-6.52l-63.15-63.15c-3 3.03-5.79 6.26-8.38 9.66l37.45 37.45v-1.44l2.9-1.68 2.91 1.68v3.36l-2.47 1.42 98.22 98.22a97.5 97.5 0 0 0 9.66-8.38l-63.15-63.15a9.88 9.88 0 0 1-6.52 2.45zm2.91-52.88l-2.91 1.68-2.9-1.68v-3.35l2.9-1.68 2.91 1.68v3.35zm32.84 22.32v-1.03l-71.07-71.07a98.764 98.764 0 0 0-12.34 5.71l134.691 134.69a98.692 98.692 0 0 0 5.71-12.34l-54.55-54.55-2.44-1.41zm5.811 44.63l-2.9 1.68-2.91-1.68v-3.36l2.15-1.23-98.19-98.19a98.844 98.844 0 0 0-9.63 8.41l63.15 63.14a9.86 9.86 0 0 1 6.77-2.68c5.48 0 9.93 4.44 9.93 9.92 0 2.62-1.03 5-2.69 6.77l63.14 63.15a98.476 98.476 0 0 0 8.41-9.63l-37.23-37.23v.93zM65.91 6.096l70.05 70.04v-.92l2.91-1.68 2.9 1.68v3.36l-2.14 1.24 53.71 53.7a99.881 99.881 0 0 0 4.01-14.03L79.94 2.076c-4.81 1-9.5 2.35-14.03 4.02zm131.837 74.882l-79.299-79.3A99.78 99.78 0 0 0 100.212 0c-.49 0-.976.011-1.465.018l100.66 100.66c.006-.489.018-.976.018-1.466a99.68 99.68 0 0 0-1.679-18.234zM81.118 1.843l116.463 116.463a99.4 99.4 0 0 0 1.801-16.239L97.36.043a99.521 99.521 0 0 0-16.24 1.8zm-1.522 194.431L3.151 119.828c8.084 38.248 38.198 68.362 76.445 76.446zM58.658 78.576v-.51L20.6 40.006c-2.59 3.48-4.96 7.14-7.09 10.95l134.96 134.96c3.81-2.13 7.47-4.5 10.95-7.09l-99.55-99.55-1.21-.7zM1.03 96.84l101.555 101.555a99.569 99.569 0 0 0 16.307-1.734L2.763 80.533A99.448 99.448 0 0 0 1.03 96.84zM120.197 2.014l77.214 77.214C189.485 40.47 158.956 9.94 120.197 2.014zM1 99.212c0 6.446.623 12.744 1.796 18.847l78.57 78.57a99.687 99.687 0 0 0 18.847 1.796c.326 0 .651-.009.977-.013L1.012 98.236c-.003.326-.013.65-.013.976zm96.31 42.954l2.9-1.68 2.91 1.68v3.36l-2.91 1.67-2.9-1.67v-3.36zM7.35 64.246l54.03 54.03.18-.1 2.91 1.67v1.52l70.71 70.71a99.005 99.005 0 0 0 12.38-5.66L13.008 51.866a98.81 98.81 0 0 0-5.66 12.38zm57.12 58.96l-2.91 1.68-2.9-1.68v-3.36l1.82-1.05-53.52-53.52a98.458 98.458 0 0 0-3.97 14.07l117.09 117.09c4.83-.98 9.53-2.32 14.07-3.97l-69.68-69.68v.42z"/>
</svg>
