<?xml version="1.0" encoding="UTF-8"?><!DOCTYPE svg PUBLIC "-//W3C//DTD SVG 1.1//EN" "http://www.w3.org/Graphics/SVG/1.1/DTD/svg11.dtd"><svg xmlns="http://www.w3.org/2000/svg" xmlns:xlink="http://www.w3.org/1999/xlink"><defs>
        <path id="a" d="M5 0h132.13v163.973H5z"/>
    </defs><symbol id="icon-arrow" viewBox="0 0 30 30">
    <path fill-rule="evenodd" d="M10.414 14.728l12.021 12.02a1 1 0 0 1-1.414 1.415L8.293 15.435a1 1 0 0 1 0-1.414L21.02 1.293a1 1 0 1 1 1.414 1.414l-12.02 12.02z"/>
</symbol><symbol id="icon-calendar-copy" viewBox="0 0 200 200">
    
    <g fill-rule="evenodd" transform="translate(29 17)">
        <path d="M121.842 164.942l-11.342-11.34a2.645 2.645 0 0 0-3.74 0l-13.984 13.984-13.985-13.984a2.647 2.647 0 0 0-3.742 0l-13.983 13.985-13.985-13.983a2.645 2.645 0 0 0-3.74 0l-13.985 13.983-13.986-13.983a2.645 2.645 0 0 0-3.74 0L.29 164.944V19.03l11.34 11.341c.5.5 1.164.775 1.87.775a2.62 2.62 0 0 0 1.869-.775l13.985-13.985 13.985 13.985c.499.5 1.164.775 1.869.775a2.63 2.63 0 0 0 1.871-.775l13.987-13.985 13.985 13.985c.5.5 1.166.775 1.87.775.706 0 1.37-.275 1.87-.775l13.985-13.985 13.984 13.985c.499.5 1.164.775 1.873.775.705 0 1.37-.275 1.867-.775l11.342-11.341v145.912z"/>
        <mask id="b">
            <use xlink:href="#a"/>
        </mask>
        <path d="M86.117 77.232a13.166 13.166 0 0 1-9.35 3.873H61.78V54.658h14.987a13.17 13.17 0 0 1 9.35 3.873 13.17 13.17 0 0 1 3.873 9.35 13.17 13.17 0 0 1-3.873 9.35zm-9.35-27.861H59.134c-.696 0-1.377.282-1.869.774a2.674 2.674 0 0 0-.774 1.871V81.11h-6.993a2.645 2.645 0 1 0 0 5.29h6.993v12.202h-6.995v-.006a2.645 2.645 0 1 0 0 5.291h6.993v8.075a2.646 2.646 0 0 0 5.29 0v-8.075h14.106a2.644 2.644 0 0 0 2.645-2.645 2.644 2.644 0 0 0-2.645-2.646H61.78v-12.2h14.987c10.224 0 18.51-8.287 18.512-18.512-.002-10.224-8.288-18.51-18.512-18.512zm55.075 105.57L120.5 143.603a2.645 2.645 0 0 0-3.74 0l-13.984 13.984-13.985-13.984a2.647 2.647 0 0 0-3.742 0l-13.983 13.985-13.985-13.983a2.645 2.645 0 0 0-3.74 0l-13.985 13.983-13.986-13.983a2.645 2.645 0 0 0-3.74 0l-11.34 11.34V9.03l11.34 11.341c.5.5 1.164.775 1.87.775a2.62 2.62 0 0 0 1.869-.775L39.354 6.386l13.985 13.985c.499.5 1.164.775 1.869.775a2.63 2.63 0 0 0 1.871-.775L71.066 6.386l13.985 13.985c.5.5 1.166.775 1.87.775.706 0 1.37-.275 1.87-.775l13.985-13.985 13.984 13.985c.499.5 1.164.775 1.873.775.705 0 1.37-.275 1.867-.775L131.842 9.03v145.912zM135.498.202a2.645 2.645 0 0 0-2.882.574L118.633 14.76 104.646.775a2.645 2.645 0 0 0-3.74 0L86.92 14.76 72.937.775a2.647 2.647 0 0 0-3.742 0L55.21 14.76 41.225.775a2.645 2.645 0 0 0-3.74 0L23.498 14.76 9.514.775A2.648 2.648 0 0 0 6.632.2 2.647 2.647 0 0 0 5 2.646V161.33a2.655 2.655 0 0 0 1.634 2.443 2.65 2.65 0 0 0 2.882-.572l13.985-13.987L37.486 163.2c.5.497 1.163.772 1.87.772.706 0 1.37-.275 1.869-.772l13.985-13.987L69.195 163.2a2.638 2.638 0 0 0 1.871.772 2.64 2.64 0 0 0 1.871-.772l13.983-13.987 13.985 13.987a2.643 2.643 0 0 0 1.873.772 2.63 2.63 0 0 0 1.868-.772l13.987-13.987 13.983 13.987a2.646 2.646 0 0 0 4.515-1.871V2.646c0-1.07-.645-2.035-1.633-2.445z" mask="url(#b)"/>
    </g>
</symbol><symbol id="icon-check" viewBox="0 0 512 512">
    <path d="M504.502 75.496c-9.997-9.998-26.205-9.998-36.204 0L161.594 382.203 43.702 264.311c-9.997-9.998-26.205-9.997-36.204 0-9.998 9.997-9.998 26.205 0 36.203l135.994 135.992c9.994 9.997 26.214 9.99 36.204 0L504.502 111.7c9.998-9.997 9.997-26.206 0-36.204z"/>
</symbol><symbol id="icon-pin" viewBox="0 0 30 37">
    <g fill-rule="evenodd">
        <path d="M4.393 25.607c-5.857-5.858-5.857-15.356 0-21.214 5.858-5.857 15.356-5.857 21.214 0 5.857 5.858 5.857 15.356 0 21.214L15 36.213 4.393 25.607z"/>
        <circle cx="15" cy="15" r="7"/>
    </g>
</symbol><symbol id="icon-play" viewBox="0 0 232.153 232.153">
    <path d="M203.791 99.628L49.307 2.294C44.74-.425 39.069.028 34.786.028 17.654.028 17.73 13.255 17.73 16.606v198.94c0 2.833-.075 16.579 17.056 16.579 4.283 0 9.955.451 14.521-2.267l154.483-97.333c12.68-7.545 10.489-16.449 10.489-16.449s2.192-8.904-10.488-16.448z" fill-rule="evenodd" clip-rule="evenodd"/>
</symbol><symbol id="icon-up" viewBox="0 0 40 40">
    <g fill-rule="evenodd" opacity=".502">
        <circle cx="20" cy="20" r="20"/>
        <path d="M19.819 15.943l8.013 8.014a.667.667 0 0 0 .943-.943l-8.485-8.485a.667.667 0 0 0-.943 0l-8.485 8.485a.667.667 0 1 0 .943.943l8.014-8.014z"/>
    </g>
</symbol></svg>