<svg xmlns="http://www.w3.org/2000/svg" xmlns:xlink="http://www.w3.org/1999/xlink" width="259" height="272" viewBox="0 0 259 272">
    <defs>
        <path id="a" d="M0 .535h87.632v48.242H0z"/>
        <path id="c" d="M.286 2.192H63.03v34.964H.286z"/>
    </defs>
    <g fill="none" fill-rule="evenodd">
        <path fill="#FFFAED" d="M130.815 45.255c4.246 0 8.432.243 12.556.697v56.753c-13.987 7.505-54.467 29.173-54.762 28.634-.352-.65-3.508 3.098-3.508 3.098l-7.086 3.813-5.41 7.085-3.582 8.458-1.752 8.99-32.748 17.288-4.756 2.955-3.6 4.467-1.731 5.763s-.152 1.457-.37 3.068a112.933 112.933 0 0 1-6.437-34.738c-.102-3.757-.007-7.6.263-11.34 4.22-58.688 53.16-104.99 112.923-104.99zm12.556 73.931v12.374l-5.034 2.616-.408-1.809 1.134-8.515 1.448-9.375 1.721-.68s1.14 5.117 1.14 5.39zm0 59.552v2.773l84.91 34.623c-19.72 33.269-55.986 55.58-97.466 55.58-36.9 0-69.673-17.655-90.343-44.975-2.275 3.244-5.366 5.235-8.775 5.235-6.982 0-12.646-8.374-12.646-18.703 0-5.841 1.81-11.053 4.645-14.485-.194 1.08-.392 1.855-.556 1.747-.493-.325 1.8 7.782 1.8 7.782l3.82 6.05 5.258 3.387 4.972-.07 8.573-4.828 28.486-15.55 3.66 4.149s6.775 3.722 7.324 3.785c.55.062 6.47.304 6.47.304l7.141-2.257 8.91-5.555 33.817-18.992z"/>
        <path fill="#8A000D" d="M128.231 225.79l83.511-44.557c.145-.078.295-.157.44-.237 1.978-1.056 3.63 1.79 1.441 2.96l-.311.163-83.527 44.569c-2.409 1.284-3.951-1.618-1.554-2.898"/>
        <g transform="translate(0 105.748)">
            <mask id="b" fill="#fff">
                <use xlink:href="#a"/>
            </mask>
            <path fill="#8A000D" d="M1.2 45.56L84.713 1c.145-.079.295-.157.442-.235 1.976-1.054 3.628 1.79 1.439 2.957l-.31.166L2.755 48.457c-2.408 1.284-3.95-1.618-1.553-2.898" mask="url(#b)"/>
        </g>
        <path fill="#8A000D" d="M63.06 93.262l58.623-31.28.442-.235c1.976-1.054 3.628 1.79 1.44 2.957l-.31.166-58.642 31.29c-2.408 1.285-3.95-1.619-1.553-2.898"/>
        <g transform="translate(195.932 18.155)">
            <mask id="d" fill="#fff">
                <use xlink:href="#c"/>
            </mask>
            <path fill="#8A000D" d="M1.488 33.937L60.11 2.657l.442-.235c1.976-1.053 3.628 1.789 1.439 2.957l-.31.166-58.64 31.29C.63 38.12-.91 35.216 1.487 33.937" mask="url(#d)"/>
        </g>
        <path fill="#8A000D" d="M119.751 158.485l36.368-19.404c.147-.08.297-.16.445-.238 1.975-1.053 3.626 1.791 1.438 2.96l-.311.164-36.386 19.413c-2.409 1.286-3.95-1.616-1.554-2.895m45.926-24.146l12.447-6.643.443-.235c1.977-1.054 3.628 1.79 1.44 2.96l-.309.165-12.468 6.65c-2.41 1.287-3.95-1.618-1.553-2.897m-109.93 63.257l36.37-19.404c.147-.08.295-.157.442-.238 1.976-1.053 3.626 1.791 1.439 2.96l-.312.166-36.383 19.414c-2.411 1.286-3.953-1.619-1.556-2.898m45.925-24.146l6.226-3.322c.145-.078.295-.156.44-.235 1.978-1.053 3.629 1.789 1.441 2.958l-.311.166-6.24 3.328c-2.411 1.289-3.953-1.616-1.556-2.895M192.46 36.286l-35.809-14.48-.463-.19c-2.077-.838-3.419 2.165-1.12 3.096l.325.132L191.22 39.33c2.533 1.026 3.76-2.026 1.24-3.045"/>
        <path fill="#FFFAED" d="M173.45 114.757l-1.048-8.284 1.678-9.331 1.991-8.912 3.22-5.039 4.855-4.398 7.13-.207 8.386 1.781 6.29 5.768 4.822 6.29 3.357 9.331 1.574 9.331-.42 10.59-1.887 7.759-2.831 5.975-3.88 5.451-6.816 1.784-9.227-.735-4.716-2.517 1.152-8.912-1.675-10.587-2.624-8.702-2.097-.106z"/>
        <path fill="#8A000D" d="M135.63 29.491c2.064 0 4.11.056 6.146.166V4.84L154.894.003l101.823 41.66v177.652l-8.857 5.083-1.523.876-1.764-.724L225 216.54c-21.06 26.043-53.269 42.697-89.369 42.697-36.424 0-68.882-16.956-89.925-43.405l-5.655 3.066-.223.101c-1.183.45-2.428.694-3.71.694-7.894 0-14.29-9.11-14.29-20.349 0-6.616 2.214-12.489 5.649-16.207-4.345-12.113-6.717-25.165-6.717-38.774 0-63.44 51.431-114.872 114.871-114.872zm55.251 47.25c14.33 0 25.946 16.83 25.946 37.587 0 20.757-11.615 37.587-25.946 37.587-2.204 0-4.347-.4-6.39-1.15-1.966 4.508-4.684 8.613-8.229 11.894-2.452 2.272-3.965 2.975-6.869 4.55l-24.18 13.134 99.36 40.655v-29.042c0-2.277 3.287-2.243 3.287-.032v28.684l5.57-3.2V45.607l-5.57 3.197v94.057c0 2.303-3.287 2.291-3.287 0V48.956L145.063 8.24v24.939c-.959-.08-1.923-.15-2.888-.207h-.037l-.148-.01-.147-.008-.067-.005a113.14 113.14 0 0 0-6.146-.17c-61.626 0-111.584 49.958-111.584 111.584 0 12.791 2.155 25.077 6.118 36.522l35.705-19.457a55.613 55.613 0 0 1 1.035-4.989c1.858-7.286 5.235-14.849 11.148-19.747a21.852 21.852 0 0 1 4.37-2.83l59.354-32.288V46.966c0-2.365 3.287-2.049 3.287.148v52.673l8.383-4.561.012.02c3.492-1.728 7.386-2.432 11.392-1.874a20.36 20.36 0 0 1 3.63.855c.143.049.281.095.413.143 4.59-10.59 12.722-17.629 21.988-17.629zm-5.198 70.978c1.669.593 3.41.908 5.198.908 4.096 0 7.939-1.645 11.253-4.522a18.422 18.422 0 0 1-8.676.175c-2.201-.486-4.241-1.348-6.115-2.49a48.781 48.781 0 0 1-1.66 5.93zm2.287-9.446c1.862 1.312 3.932 2.296 6.198 2.796 1.072.238 2.165.36 3.264.36 3.594 0 6.904-1.282 9.78-3.386l.014.039c3.91-6.164 6.314-14.534 6.314-23.754 0-18.943-10.145-34.3-22.659-34.3-3.513 0-6.841 1.21-9.808 3.373l.028.013c-4.399 6.925-6.328 15.585-6.328 23.715 0 1.796.092 3.612.286 5.429l5.288-2.873 2.854-1.452 1.426 2.865c1.987 4.604 3.18 9.555 3.654 14.536.39 4.064.3 8.368-.311 12.639zm-16.02-24.024a54.518 54.518 0 0 1-.464-7.12c0-4.997.685-10.154 2.15-15.048-3.376 5.991-5.414 13.757-5.414 22.247 0 .648.014 1.288.037 1.927l3.69-2.006zm-6.893 3.746a53.487 53.487 0 0 1-.122-3.667c0-4.553.558-8.914 1.581-12.952l-21.453 11.661v15.822l19.994-10.864zm-117.762 68.62c.097.152.191.31.284.464 1.136 1.936 1.862 4.126 2.224 6.364a28.47 28.47 0 0 1 .585 4.845v.007l.003.02c.004.162.009.324.011.48v.044c.005.168.005.337.005.505 0 .157 0 .313-.005.475l-.002.175-.005.118c-.076 2.936-.59 5.718-1.452 8.21a23.866 23.866 0 0 1-1.1 2.709l65.2-35.462c.23-.126.459-.26.68-.403.42-3.587.45-7.169.127-10.544-.489-5.103-1.777-10.176-3.974-14.817l-.69-1.447 1.407-.763 13.468-7.319c-1.203-1.182-2.644-2.102-4.299-2.469a7.102 7.102 0 0 0-1.528-.166c-1.314 0-2.554.388-3.702 1.01l-20.697 11.254-54.47 29.61c3.345 1.09 5.957 3.735 7.718 6.734.071.122.143.242.212.366zm-2.812 23.77c-1.054.823-2.257 1.441-3.6 1.736a8.015 8.015 0 0 1-3.477 0c-2.939-.648-5.212-2.824-6.698-5.355-1.725-2.934-2.501-6.459-2.501-9.842 0-3.387.776-6.909 2.5-9.845 1.188-2.017 2.875-3.81 5-4.783l-.124.006-.072.007-.16.017a7.572 7.572 0 0 0-2.744.866l-.56.298c-4.062 2.508-6.934 8.66-6.934 15.854 0 9.42 4.926 17.062 11.005 17.062a7.46 7.46 0 0 0 3.19-.73l.436-.24c2.03-1.12 3.589-2.93 4.739-5.05zm-5.339-25.563a4.69 4.69 0 0 0-1.03.113c-2.008.442-3.568 2.1-4.571 3.81-1.425 2.425-2.05 5.385-2.05 8.179 0 2.793.625 5.753 2.05 8.18 1.003 1.708 2.563 3.366 4.57 3.808.34.074.683.113 1.031.113.346 0 .69-.039 1.028-.113 2.008-.442 3.566-2.1 4.571-3.808 1.427-2.427 2.05-5.387 2.05-8.18 0-.95-.072-1.92-.224-2.882-.429-2.01-1.116-3.964-2.095-5.737-1.005-1.544-2.467-2.967-4.302-3.37a4.683 4.683 0 0 0-1.028-.113zm102.632-2.612l-40.484 21.988c-2.538 1.513-5.364 2.497-8.366 2.767-6.993.633-12.841-2.568-17.228-7.402l-27.061 14.679c20.45 25.43 51.82 41.706 86.993 41.706 34.713 0 65.716-15.855 86.183-40.71l-80.037-32.749v-.279zm104.44-21.276a1.65 1.65 0 0 1 1.644 1.646v18.054a1.65 1.65 0 0 1-1.643 1.645c-.906 0-1.644-.74-1.644-1.645V162.58a1.65 1.65 0 0 1 1.644-1.646zM148.505 6.097l10.51 4.3 87.08 35.629 5.245-3.01-96.205-39.362-6.63 2.443zm-6.728 110.561c-.19.641-.364 1.282-.526 1.918-1.13 4.435-1.673 8.859-1.604 13.229l2.13-1.157v-13.99zM69.59 159.401l24.367-13.277 19.005-10.359c1.635-.89 3.405-1.41 5.272-1.41.751 0 1.503.08 2.238.244 2.614.576 4.825 2.095 6.579 4.05l9.372-5.092c-.265-5.217.295-10.509 1.642-15.792.09-.36.186-.722.285-1.081l-37.319 20.282-1.21.66-1.212-.64a17.52 17.52 0 0 0-5.374-1.684c-3.273-.454-6.424.097-9.275 1.466l-.588.318-.01-.019a18.837 18.837 0 0 0-3.215 2.156c-5.343 4.428-8.383 11.456-10.057 18.028a55.686 55.686 0 0 0-.5 2.15zm43.476 19.896l-34.385 18.65c3.637 3.76 8.347 6.251 13.95 5.742a16.155 16.155 0 0 0 5.726-1.637v-.002l1.303-.705a19.882 19.882 0 0 0 3.21-2.423c5.392-4.995 8.68-12.152 10.196-19.625zm16.488-38.265l-16.087 8.743c1.987 4.601 3.179 9.55 3.656 14.534.998 10.465-1.164 22.534-7.296 31.51l39.367-21.38 17.537-9.524c1.3-.705 2.662-1.408 3.925-2.15a19.589 19.589 0 0 0 3.375-2.518c8.95-8.289 12.102-22.541 10.979-34.302-.436-4.538-1.503-9.059-3.282-13.268l-33.447 18.178-8.43 4.58-10.297 5.597zm14.179-36.777l-3.997 2.171-.092.05-46.819 25.47c.286.027.576.062.864.101 2.119.295 4.173.931 6.095 1.853l40.028-21.753 4.656-2.53 2.748-1.494 8.907-4.839 11.071-6.018a17.32 17.32 0 0 0-2.798-.637c-3.476-.484-6.814.169-9.8 1.727l-.013.007c-.166.087-.332.175-.496.27l-10.356 5.626.002-.004z"/>
    </g>
</svg>
