<svg id="Layer_1" data-name="Layer 1" xmlns="http://www.w3.org/2000/svg" viewBox="0 0 405 297">
    <defs>
        <style>
            .cls-1{fill:#fff}.cls-2{fill:#fffaed}.cls-3{fill:#8a000d}.cls-4{fill:#ffd169}.cls-5{mask:url(#mask)}.cls-6{mask:url(#mask-2-2)}
        </style>
        <mask id="mask" x="22" y="59.41" width="219.26" height="193.92" maskUnits="userSpaceOnUse">
            <g id="mask-2">
                <path id="path-1" class="cls-1" d="M22 59.41h219.26v193.92H22V59.41z"/>
            </g>
        </mask>
        <mask id="mask-2-2" x="82.9" y="28.31" width="228.6" height="230.72" maskUnits="userSpaceOnUse">
            <g id="mask-4">
                <path id="path-3" class="cls-1" d="M82.9 28.32h228.61v230.71H82.9V28.32z"/>
            </g>
        </mask>
    </defs>
    <title>
        step6
    </title>
    <g id="Page-6">
        <g id="Mainframe">
            <g id="Production-Cycle">
                <g id="icon">
                    <g id="step6">
                        <path id="Fill-1" class="cls-2" d="M195.85 47.58a113.82 113.82 0 0 1 17.23 1.3L150.3 82.79l2.14 102 99.41 13.59L307.39 167l.05-27a113.59 113.59 0 1 1-111.59-92.42"/>
                        <path id="Fill-3" class="cls-3" d="M309.85 63.16l-95.05-13-57.63 31.26 95 13zm3.57 1.84l-59.25 32.1V194l59.25-32.12zM153.6 84.26v97.35l97.27 13.29V97.56zM314.76 60.5l2 .27v103.09l-62.55 33.92-1.34.72-2-.27-100.57-13.74V81.39l1.34-.73 62.54-33.91z"/>
                        <path id="Fill-5" class="cls-4" d="M262.56 103.67l43.65-23.47 1-.55v3.25l-1 .55-43.65 23.47-1 .55v-3.26zm-1 73.41l.88-.48 43.66-23.48 1.14-.61v3.26l-1.14.61-43.66 23.47-.88.48z"/>
                        <path id="Fill-7" class="cls-3" d="M287.76 113.75c-2.33 1.78-4.46 3.47-6.7 5a.29.29 0 0 0-.11.27v12l-2.29 1.23v-28.54a4.5 4.5 0 0 1 .51-2 3.13 3.13 0 0 1 1.25-1.39l7.94-4.32a1 1 0 0 1 1.24.06 1.92 1.92 0 0 1 .51 1.49v28.53l-2.29 1.23v-13.52c0-.05-.02-.08-.06-.04zm6-4.25a15.4 15.4 0 0 1 6.08-2.37 2.68 2.68 0 0 0 1.37-.33 3.93 3.93 0 0 0 1.67-3.57V90.69a1.93 1.93 0 0 0-.51-1.5 1 1 0 0 0-1.25 0l-7.93 4.27a3 3 0 0 0-1.25 1.39 4.5 4.5 0 0 0-.51 2v28.53l2.29-1.23V109.6a.11.11 0 0 1 .04-.1zm-3.65 30.85v-10.1a1.94 1.94 0 0 0-.51-1.5 1 1 0 0 0-1.24-.05l-7.94 4.3a3.13 3.13 0 0 0-1.25 1.39 4.5 4.5 0 0 0-.51 2v28.53l2.29-1.23v-12.26a.31.31 0 0 1 .11-.22c2.31-1.57 4.32-3.12 6.76-5V160l2.29-1.23zm-9.11 4.92V136a.38.38 0 0 1 0-.1.18.18 0 0 1 .07-.05l6.71-3.61h.07a.25.25 0 0 1 0 .09v10.19a.22.22 0 0 1-.11.16c-2.53 2-5 3.84-6.72 5v-.09zm-6.15 5.86l-.83.34 3.37-16.85-2.64 1.38-3.28 16.22a16.44 16.44 0 0 1-3.17.47c-.05 0-.12-.06-.12-.14v-13.04l-2.29 1.23v31.06l2.29-1.23v-14.19a19.29 19.29 0 0 0 6.76-1.7c.05 0 .11 0 .11.1v12.1l2.29-1.23v-12.14c0-1.28-.26-2.73-1.82-2.57a2.74 2.74 0 0 0-.72.19zm-.13-32.44a18.22 18.22 0 0 1-6.37 1.49c-.13 0-.12-.12-.12-.34v-9.74l6.8-3.65 2.36-1.27v-3.26l-9.69 5.21a3.22 3.22 0 0 0-1.25 1.4 4.5 4.5 0 0 0-.51 2v26.04a1.9 1.9 0 0 0 .51 1.49 1 1 0 0 0 1.25.06l7.94-4.27a2.67 2.67 0 0 0 1-.93.41.41 0 0 0 .07-.11l.15-.26v-.06a1.75 1.75 0 0 0 .13-.28V131.28v-10.02c0-1.46-.31-2.68-1.57-2.69a2.69 2.69 0 0 0-.75.12zm-6.49 5.19a20.16 20.16 0 0 0 6.76-1.71c.05 0 .11 0 .11.13v8.54h-.1l-6.72 3.61h-.07a.25.25 0 0 1 0-.09v-10.48zm32.41-20.53a16.39 16.39 0 0 0-6.76 2.53h-.11v-9.4a.34.34 0 0 1 0-.1h.06l6.72-3.61h.07a.25.25 0 0 1 0 .09zm0 32.51a17.27 17.27 0 0 0-6.72 2.53s-.11 0-.11-.11v-9.21l6.79-3.65 2.37-1.28v-3.25l-9.69 5.21a3.1 3.1 0 0 0-1.25 1.4 4.43 4.43 0 0 0-.51 2v26a1.92 1.92 0 0 0 .51 1.49 1 1 0 0 0 1.25.05l7.93-4.26a2.87 2.87 0 0 0 1-.93l.07-.11a2.26 2.26 0 0 0 .16-.26v-.06c.05-.1.09-.19.13-.29V139c.31-2.12-.11-3.37-2.02-3.14zm-6.92 6.14a14.34 14.34 0 0 1 6.76-2.41c.07 0 .11.08.11.17v10h-.08l-6.72 3.61h-.06a.28.28 0 0 1 0-.09V142zm-13-26.71c2.3-1.56 4.57-3.27 6.94-5.13a.21.21 0 0 0 .11-.17V99.65a.28.28 0 0 0 0-.09h-.07l-6.71 3.6a.2.2 0 0 0-.07.06.31.31 0 0 0 0 .1z"/>
                        <g class="cls-5" id="Group-11">
                            <path id="Fill-9" class="cls-3" d="M42.2 126.94l124-67.23c2.28-1.23 3.88 1.65 1.54 2.92l-124 67.22a1.65 1.65 0 1 1-1.55-2.91M23.09 184l150.69-81.7c2.52-1.37 4.06 1.55 1.57 2.9L24.64 186.9a1.67 1.67 0 1 1-1.55-2.9m14.58 59.26l115.09-62.4 1.57 2.91-115.13 62.4c-2.26 1.23-3.87-1.65-1.53-2.92m74.12-70.32l113.7-61.64c2.19-1.19 3.8 1.69 1.53 2.92l-113.69 61.64c-2.29 1.24-3.88-1.65-1.54-2.92m-37.25 77.25l95.79-51.92a1.66 1.66 0 1 1 1.64 2.87l-95.89 52a1.66 1.66 0 0 1-1.54-2.94m92-8.72l72-39c2.44-1.32 4 1.59 1.6 2.89L168 244.39a1.65 1.65 0 1 1-1.51-2.93"/>
                        </g>
                        <g class="cls-6" id="Group-14">
                            <path id="Fill-12" class="cls-3" d="M197.87 28.31a114.76 114.76 0 0 1 77.69 30.16l-5.94-.81a111.92 111.92 0 0 0-176 45.16l-4.4 2.39a115.3 115.3 0 0 1 108.65-76.9zM86.1 149.83a111.52 111.52 0 0 0 21.06 59.5l-2.92 1.58a114.78 114.78 0 0 1-21.34-59.35zM120.91 225a111.91 111.91 0 0 0 186.88-60l3.72-2a115.2 115.2 0 0 1-193.64 63.76z"/>
                        </g>
                        <path id="Fill-15" class="cls-3" d="M230.27 71.01l-17.79-21.03 2.52-2.14 19.19 22.71 77.1-9.23.39 3.28-74.93 8.96 17.78 21.04-2.51 2.14-19.2-22.71-77.09 9.22-.4-3.27 74.94-8.97z"/>
                    </g>
                </g>
            </g>
        </g>
    </g>
</svg>
