<svg id="Layer_1" data-name="Layer 1" xmlns="http://www.w3.org/2000/svg" viewBox="0 0 405 297">
    <defs>
        <style>
            .cls-1{fill:#fff}.cls-2{mask:url(#mask)}.cls-3{fill:#fffaed}.cls-4{mask:url(#mask-2-2)}.cls-5{fill:#fc6}.cls-6{fill:#8a000d}
        </style>
        <mask id="mask" x="0" y="42.97" width="300.4" height="226.23" maskUnits="userSpaceOnUse">
            <g id="mask-2">
                <path id="path-1" class="cls-1" d="M0 42.97h300.39V269.2H0V42.97z"/>
            </g>
        </mask>
        <mask id="mask-2-2" x="210.41" y="71.85" width="102.33" height="207.1" maskUnits="userSpaceOnUse">
            <g id="mask-4">
                <path id="path-3" class="cls-1" d="M210.41 71.85h102.33v207.1H210.41V71.85z"/>
            </g>
        </mask>
    </defs>
    <title>
        step2
    </title>
    <g id="Page-2">
        <g id="Mainframe">
            <g id="Production-Cycle">
                <g id="icon">
                    <g id="step2">
                        <g class="cls-2" id="Group-3">
                            <path id="Fill-1" class="cls-3" d="M187.22 43a113.12 113.12 0 1 1-72.43 200l-1.42.78-3.09 1.68-1.2.65-1.91-.25-63.79-8.57.09-7.39-13.35-1.79.13-11.75v-2.56l1.32-.53 3.52-1.41L0 207.14l.13-11.75v-2.55l1.33-.53 43.94-17.6-5.77-.77.14-11.75v-2.56l1.33-.53 31.66-12.67 1.69-.68A113.17 113.17 0 0 1 187.22 43"/>
                        </g>
                        <g class="cls-4" id="Group-6">
                            <path id="Fill-4" class="cls-5" d="M295.61 71.85a59.06 59.06 0 0 1 17.13 2.54 59.56 59.56 0 0 0-7.93-.54c-47.05 0-85.2 56.38-85.2 125.93 0 30 7.1 57.54 18.94 79.17h-8.08C218 257 210.41 228.71 210.41 197.78c0-69.55 38.14-125.93 85.2-125.93"/>
                        </g>
                        <path id="Fill-7" class="cls-5" d="M246.28 61.43c12.71 0 24.74 4.3 35.47 12-42.9 6.89-76.29 60.59-76.29 125.83a180.43 180.43 0 0 0 5.81 45.88L184 259.77c-12-21-19.28-48.15-19.28-77.82 0-66.56 36.51-120.52 81.55-120.52"/>
                        <path id="Fill-9" class="cls-5" d="M303.65 74c13.34 0 25.86 5.18 36.7 14.27v134.65l-84.58 45.48c-16.26-20.19-26.6-50.47-26.6-84.32 0-60.81 33.34-110.1 74.48-110.1"/>
                        <path id="Fill-11" class="cls-5" d="M231.19 61.64C188 67.89 154.3 121.69 154.3 187.13c0 26.6 5.57 51.27 15.08 71.61h-8.25c-10.1-20.71-16-46.13-16-73.62 0-61.21 29.51-112.23 68.66-123.69l.33.51 17.11-.3z"/>
                        <path id="Fill-13" class="cls-5" d="M116.03 161.41l-59.07-7.45v6.98l59.07 7.82v-7.35z"/>
                        <path id="Fill-15" class="cls-5" d="M143.66 146.13l-24.31 13.06v7.36l22.22-11.41 2.09-9.01z"/>
                        <path id="Fill-17" class="cls-5" d="M143.82 142.05l-24.06 11.98-51.83-7.02 88.54-35.37-4.47 10.49-5.7 13.72-2.48 6.2z"/>
                        <path id="Fill-19" class="cls-5" d="M141.52 159.46l-61.46 33.53.35 6.62 59.03-31.14 2.08-9.01z"/>
                        <path id="Fill-21" class="cls-5" d="M76.4 194.6l-59.07-7.45v6.99l59.07 7.82v-7.36z"/>
                        <path id="Fill-23" class="cls-5" d="M113.61 169.93l-32.34 17.16-51.84-7.03 47.92-19.72 25.17 4.29 13.57-.9-2.48 6.2z"/>
                        <path id="Fill-25" class="cls-5" d="M138.89 198.05l-28.95 15.8.35 6.62 28.37-14.98.23-7.44z"/>
                        <path id="Fill-27" class="cls-5" d="M106.56 215.32l-59.07-7.45v6.98l59.07 7.83v-7.36z"/>
                        <path id="Fill-29" class="cls-5" d="M138.56 192.92l-26.98 14.31-51.84-7.02 18.43.61 61.88-32.75-1.51 14.71.42 4.1-.4 6.04z"/>
                        <path id="Fill-31" class="cls-5" d="M119.12 224.44l-59.07-7.45v6.98l59.07 7.82v-7.35z"/>
                        <path id="Fill-33" class="cls-5" d="M140.96 213.11l-17.31 9.66.34 6.61 16.74-8.83.23-7.44z"/>
                        <path id="Fill-35" class="cls-5" d="M138.18 204.77l-20.78 11.34.25 4.75 20.37-10.75.16-5.34z"/>
                        <path id="Fill-37" class="cls-6" d="M59.18 114.47L152.75 77c2.35-.94 3.79 2 1 3.14l-93.42 37.41c-2.55 1-3.84-2-1.15-3.08"/>
                        <path id="Fill-39" class="cls-6" d="M139.9 61l50-20c2.42-1 3.56 2.12 1.3 3l-50 20a1.64 1.64 0 1 1-1.29-3"/>
                        <path id="Fill-41" class="cls-6" d="M186.07 92.13l51.35-27.87c-1.51-.32-3-.58-4.57-.78-17.71 2.29-33.85 12.67-46.78 28.65zm-37.78 150.39l1.34 4.66a36.78 36.78 0 0 1-8-3.47 115.67 115.67 0 0 1-17.42-12.1l-3.08 1.68-1.21.66-1.9-.26-63.79-8.57.08-7.38-13.35-1.8.13-11.75v-2.55l1.32-.53L46 199.7 10.82 195l.18-11.78v-2.55l1.32-.53 43.94-17.59-5.76-.78.12-11.77v-2.56l1.32-.52 31.67-12.69a114.83 114.83 0 0 1 203.18-63.3c1.73-.15 3.48-.23 5.23-.23a62.8 62.8 0 0 1 27.66 6.51c1.94.93 1 4.07-1.35 3a63.88 63.88 0 0 0-9.51-3.71l-60.75 33a137 137 0 0 0-17.31 35.31l95.77-52c2.49-1.36 3.77 1.69 1.72 2.8l-98.9 53.67a172.92 172.92 0 0 0-5.94 29.15l109-59.14c1.85-1 3.55 2.06 1.3 3L223 182.35q-.84 8.78-.85 17.91c0 2.81.07 5.61.19 8.38l112.27-60.94c2.72-1.47 3.66 1.81 1.83 2.75l-113.93 61.82a183.3 183.3 0 0 0 3.11 23.93h.57l103.13-56c2.25-1.14 3.39 2 1.87 2.73l-104.8 56.87a162.3 162.3 0 0 0 6.61 22.35l88.51-48a1.65 1.65 0 1 1 1.62 2.86l-88.92 48.25q2 4.93 4.27 9.57c1.26 2.49-2.25 3-2.89 1.44q-2.51-5-4.66-10.45h-11.49q2 4.88 4.28 9.46c.88 2.21-2.26 3-2.92 1.41A161.19 161.19 0 0 1 206.68 233l-7.79 4.22-7.33 4-24.06 13.02q2 4.93 4.28 9.56c1.26 2.5-2.25 3-2.9 1.45q-2.49-5.06-4.65-10.46l-1.4-3.63a166.42 166.42 0 0 1-6.51-22.33h-11.66c1 4.38 2.1 8.66 3.38 12.81.1.36.18.61.25.88zM87.06 132.89l71.76-28.73q2.81-4.74 5.9-9v-.31h.28C180.73 73 202 59.7 225.3 59.7a63 63 0 0 1 27.7 6.51c1.93.94.95 4.07-1.37 3a63.29 63.29 0 0 0-9.5-3.7l-60.77 33a136.74 136.74 0 0 0-17.28 35.31l54.19-29.41c2.49-1.36 3.77 1.69 1.72 2.8l-57.33 31.11a174.12 174.12 0 0 0-5.95 29.15l25.57-13.87 23.86-13c1.84-1 3.54 2.07 1.29 3L182 157.4l-25.73 14c-.55 5.85-.85 11.82-.85 17.9q0 4.23.18 8.38L180.8 184l19.85-10.78c2.72-1.47 3.65 1.82 1.82 2.75L181 187.58l-25.23 13.69a181.16 181.16 0 0 0 3.11 23.93h.57l28-15.18 16.4-8.9v-.86c0-37.09 10.61-70.52 27.6-94.14v-.32h.23c13.7-18.89 31.49-31.43 51.22-34.42a111.56 111.56 0 0 0-195.84 61.51zm69.17-24.16L58.7 147.78l10.67 1.42 36.81 4.89 8.9 1.19 28.73-15.6a151.55 151.55 0 0 1 12.42-30.95zm-13.59 35.32l-25.57 13.88.31 8.23 4.74-2.54 18.38-10c.63-3.25 1.35-6.44 2.14-9.57zm-2.89 13.72l-22.37 12.17-1.2.65-.74-.09-1.13.61-2.6 1.41-6 3.23-28.3 15.39.33 8.25 39.11-21.28 21.65-11.78c.35-2.89.77-5.75 1.25-8.56zm-1.69 12.54l-20.17 11-28.5 15.51-12.87 7-3.47-.47-20.48-2.74-3.41 1.39 7.09.94 41.49 5.52 7.79 1 31.61-17.16v-3c0-2.72.06-5.43.17-8.11l.19-3.61q.2-3.68.56-7.27zm-.82 25.69l-29.71 16.1.33 8.26 17.73-9.65 12.1-6.59c-.21-2.69-.36-5.41-.45-8.12zm.77 11.71l-19.92 10.84.71.1 19.25-10.45zm.43 4l-17.65 9.58.34 8.26 18.41-10c-.42-2.61-.79-5.21-1.1-7.85zm1.69 11.24l-12.83 7a112.11 112.11 0 0 0 17.32 11.69 170.16 170.16 0 0 1-4.49-18.7zm-22.26 7.42l-.35-8.59-4.32-.58-5.36 2.92-1.21.66-1.9-.26-47.16-6.33v4.07zm-54.39-23.2l-19.12-2.55-.1 8.46 7.85 1 52.49 7.05-.34-8.59L70.11 208zm14.86-53.47l-24.44-3.25-.09 8.46 4 .53 36.31 4.87 20 2.7-.34-8.59L85 154.59zm-15.47 9.73L19 181l41 5.46 15.34 2 21.07-11.43 13.45-7.3zm11.61 36.78l-.33-8.27v-.31l-6-.81-53.87-7.16-.1 8.45 38 5.1 6.62.89zM219 208.64h-11.69c-.12-2.77-.18-5.57-.18-8.38 0-6.08.29-12.06.84-17.9h11.71q-.83 8.77-.83 17.9c0 2.81.06 5.61.15 8.38zm-11.53 3.63h11.72a183.77 183.77 0 0 0 3.07 23.93h-11.64a181.59 181.59 0 0 1-3.12-23.93zm12.56-33.55h-11.7a173.67 173.67 0 0 1 6-29.48H226a176.45 176.45 0 0 0-5.94 29.48zm7-33.11h-11.56a137.22 137.22 0 0 1 17.58-36.18h11.1a142.93 142.93 0 0 0-17.1 36.18zm19.63-39.81h-11c13.71-18.07 31.34-29.66 50.77-31.54-15.15 5.33-28.77 16.39-39.75 31.54zm-35.3 134H223a166.27 166.27 0 0 0 6.51 22.32H218a161.89 161.89 0 0 1-6.62-22.29zm41.41-136.71l51.35-27.86c-1.51-.32-3-.58-4.56-.79-17.7 2.33-33.85 12.71-46.77 28.68zM206.1 229.55a188.48 188.48 0 0 1-2.21-24.72l-16.4 8.9-27.82 15.1a162 162 0 0 0 6.63 22.33L190.49 238l7.19-3.9 8.39-4.56zm-62.21-4.35h11.68a181.63 181.63 0 0 1-3.07-23.93h-11.71a181.17 181.17 0 0 0 3.1 23.93zm-3.3-27.56h11.72q-.18-4.15-.18-8.38c0-6.07.28-12 .83-17.9h-11.7q-.84 8.77-.85 17.9 0 4.23.18 8.38zm1-29.91h11.7a177.26 177.26 0 0 1 5.89-29.48h-11.56a173.47 173.47 0 0 0-5.98 29.48zm7.11-33.12h11.58a142.35 142.35 0 0 1 17.1-36.17h-11.1a137.15 137.15 0 0 0-17.53 36.17zm20.3-39.8h11c11-15.15 24.59-26.21 39.72-31.54-19.45 1.89-37.08 13.47-50.72 31.54z"/>
                    </g>
                </g>
            </g>
        </g>
    </g>
</svg>
