<svg id="Layer_1" data-name="Layer 1" xmlns="http://www.w3.org/2000/svg" viewBox="0 0 405 297">
    <defs>
        <style>
            .cls-1{fill:#fff}.cls-2{fill:#fffaed}.cls-3{mask:url(#mask)}.cls-4{fill:#8a000d}.cls-5{mask:url(#mask-2-2)}.cls-6{fill:#fc6}
        </style>
        <mask id="mask" x="260.98" y="18.3" width="60.53" height="127.39" maskUnits="userSpaceOnUse">
            <g id="mask-2">
                <path id="path-1" class="cls-1" d="M260.98 18.3h60.52v127.4h-60.52V18.3z"/>
            </g>
        </mask>
        <mask id="mask-2-2" x="47" y="18.3" width="325.72" height="260.92" maskUnits="userSpaceOnUse">
            <g id="mask-4">
                <path id="path-3" class="cls-1" d="M47 279.22h325.72V18.3H47v260.92z"/>
            </g>
        </mask>
    </defs>
    <title>
        step4
    </title>
    <g id="Page-4">
        <g id="Mainframe">
            <g id="Production-Cycle">
                <g id="icon">
                    <g id="step4">
                        <path id="Fill-1" class="cls-2" d="M191.29 44a112.6 112.6 0 0 1 71.48 25.47v44.6l30.73 11.83 5.92-2A113.13 113.13 0 1 1 191.29 44"/>
                        <g class="cls-3" id="Group-5">
                            <path id="Fill-3" class="cls-4" d="M292 53.74V20a1.65 1.65 0 1 1 3.29 0v103.94l23.84-9.16a1.65 1.65 0 1 1 1.31 3l-25.15 9.66v16.66c0 2.11-3.29 2.09-3.29 0v-16.66l-31-12.61V20a1.64 1.64 0 1 1 3.28 0v22.47zm0 3.55L264.26 46v14L292 71.24zm0 17.49l-27.74-11.27V78.4L292 89.68zm0 18.45L264.26 82v12.84L292 106.11zm0 16.43l-27.74-11.27v14.23L292 123.89z"/>
                        </g>
                        <g class="cls-5">
                            <path id="Fill-6" class="cls-4" d="M303.33 34.47h2.12V23.93h-2.12zm.06 16.44V40.38h3.41a13 13 0 0 1 2.53.15 2.8 2.8 0 0 1 1.52 1 3.34 3.34 0 0 1 .61 2.06 3.51 3.51 0 0 1-.35 1.63 3.06 3.06 0 0 1-.9 1 3.24 3.24 0 0 1-1.1.49 11.17 11.17 0 0 1-2.2.16h-1.39v4zm2.13-8.75v3h1.16a5.43 5.43 0 0 0 1.68-.17 1.44 1.44 0 0 0 .67-.52 1.38 1.38 0 0 0 .24-.81 1.41 1.41 0 0 0-.34-1 1.48 1.48 0 0 0-.86-.46 9.94 9.94 0 0 0-1.53-.07zm-2.13 25.19V56.82h3.41a12 12 0 0 1 2.53.16 2.75 2.75 0 0 1 1.52 1 3.31 3.31 0 0 1 .61 2.05 3.48 3.48 0 0 1-.35 1.63 3 3 0 0 1-.9 1 3.27 3.27 0 0 1-1.1.5 12.18 12.18 0 0 1-2.2.15h-1.39v4zm2.13-8.75v3h1.16a5.43 5.43 0 0 0 1.68-.17 1.49 1.49 0 0 0 .67-.51 1.44 1.44 0 0 0 .24-.82 1.38 1.38 0 0 0-.34-1 1.44 1.44 0 0 0-.86-.47 9.94 9.94 0 0 0-1.53-.07zm4.61 21.32l2.06.66a4.62 4.62 0 0 1-1.58 2.56 4.94 4.94 0 0 1-6.24-.6 5.47 5.47 0 0 1-1.37-3.92 5.73 5.73 0 0 1 1.36-4.08 4.64 4.64 0 0 1 3.64-1.46 4.37 4.37 0 0 1 3.13 1.14 4.17 4.17 0 0 1 1.08 1.94l-2.1.51a2.17 2.17 0 0 0-2.22-1.77 2.39 2.39 0 0 0-1.9.84 4.1 4.1 0 0 0-.73 2.72 4.4 4.4 0 0 0 .72 2.85 2.35 2.35 0 0 0 1.86.85 2.13 2.13 0 0 0 1.46-.54 3.15 3.15 0 0 0 .83-1.7z"/>
                        </g>
                        <g class="cls-5">
                            <path id="Fill-8" class="cls-6" d="M247.2 101.3l-75.47-31.08-19.13 8.09 78.32 31.07 16.28-8.08z"/>
                        </g>
                        <g class="cls-5">
                            <path id="Fill-9" class="cls-6" d="M225.1 276.59l-.91-155.63-75.37-30.62v156.08l76.28 30.17z"/>
                        </g>
                        <g class="cls-5">
                            <path id="Fill-10" class="cls-6" d="M229.9 120.45l18.14-9.51v155.59l-18.14 10.1V120.45z"/>
                        </g>
                        <g class="cls-5">
                            <path id="Fill-11" class="cls-4" d="M235.68 106.75a1.65 1.65 0 0 1 1.64 1.64v41a1.64 1.64 0 0 1-1.64 1.64 1.63 1.63 0 0 1-1.64-1.64v-41a1.64 1.64 0 0 1 1.64-1.64"/>
                        </g>
                        <g class="cls-5">
                            <path id="Fill-12" class="cls-4" d="M150.83 74l17.54 7.17a1.64 1.64 0 1 1-1.24 3l-20.6-8.41z"/>
                        </g>
                        <g class="cls-5">
                            <path id="Fill-13" class="cls-4" d="M159.67 70.33l7.73 3.16a1.64 1.64 0 0 1-1.25 3l-10.77-4.4z"/>
                        </g>
                        <g class="cls-5">
                            <path id="Fill-14" class="cls-4" d="M237.62 106.58l-17.54-7.16a1.65 1.65 0 1 1 1.24-3l20.59 8.41z"/>
                        </g>
                        <g class="cls-5">
                            <path id="Fill-15" class="cls-4" d="M228.77 110.28l-7.72-3.15a1.65 1.65 0 0 1 1.24-3l10.78 4.4z"/>
                        </g>
                        <g class="cls-5">
                            <path id="Fill-16" class="cls-4" d="M163 111.78a1.65 1.65 0 0 1 1.64 1.65v80.67a1.65 1.65 0 0 1-3.29 0v-80.67a1.65 1.65 0 0 1 1.65-1.65"/>
                        </g>
                        <g class="cls-5">
                            <path id="Fill-17" class="cls-4" d="M239 226.36a1.65 1.65 0 0 1 1.6 1.64v36.91a1.64 1.64 0 1 1-3.28 0V228a1.64 1.64 0 0 1 1.64-1.64"/>
                        </g>
                        <g class="cls-5">
                            <path id="Fill-18" class="cls-4" d="M181.84 95a1.65 1.65 0 0 1 1.64 1.65v20.72a1.64 1.64 0 1 1-3.28 0V96.65a1.64 1.64 0 0 1 1.64-1.65"/>
                        </g>
                        <g class="cls-5">
                            <path id="Fill-19" class="cls-4" d="M247.79 99.84l1.26.52.45.18v144.64c-1-1-2.14 1.38-3.29.49V104.31L226 114.46v163.11a1.65 1.65 0 1 1-3.29-.07V114.55l-81.23-33.69v73.83l-3.28 1.1V77.3l1.64-.68 25.56-10.51zm-3.9 2l-78.48-32.18-21.26 8.74 80.15 33.24z"/>
                        </g>
                        <g class="cls-5">
                            <path id="Fill-20" class="cls-4" d="M169.3 140.09a41.18 41.18 0 0 1 37.55 24.28c1.47 2.88-1.88 3.72-2.74 1.92a37.9 37.9 0 1 0-53.87 47.77c2 1.11.81 4.36-2.43 2.37a41.2 41.2 0 0 1 21.49-76.34"/>
                        </g>
                        <g class="cls-5">
                            <path id="Fill-21" class="cls-4" d="M197.77 170.41a41.13 41.13 0 0 0-7.93 9.86 1.66 1.66 0 1 0 3 1.36 37.9 37.9 0 0 1 68.84 30.55c-.81 2.68 2.26 3.77 3.11 1.06a41.18 41.18 0 0 0-67-42.83"/>
                        </g>
                        <g class="cls-5">
                            <path id="Fill-22" class="cls-4" d="M164.9 217.61a41.17 41.17 0 0 0-44.19 6.39c-2.37 2 .21 4.1 1.65 2.94a37.91 37.91 0 0 1 51.46.55c2.29 2.25 4-.66 2.7-2a41.11 41.11 0 0 0-11.62-8"/>
                        </g>
                        <g class="cls-5">
                            <path id="Fill-23" class="cls-4" d="M101.13 222.43a41.11 41.11 0 0 1-8.48 9.39 1.66 1.66 0 1 1-1.82-2.76 37.91 37.91 0 0 0-41-63.2c-2.52 1.22-4.07-1.63-1.53-2.9a41.19 41.19 0 0 1 52.83 59.47"/>
                        </g>
                        <g class="cls-5">
                            <path id="Fill-24" class="cls-4" d="M226 210a41.29 41.29 0 0 1 10.64 6.85 1.66 1.66 0 1 1-2.43 2.24 37.9 37.9 0 0 0-55.64 50.76c1.61 2.29-1 4.29-2.62 2A41.2 41.2 0 0 1 226 210"/>
                        </g>
                        <g class="cls-5">
                            <path id="Fill-25" class="cls-4" d="M130.45 173.92a41.15 41.15 0 0 0-26.76 13.88l2.45 2.2a37.77 37.77 0 0 1 24.31-12.77z"/>
                        </g>
                        <g class="cls-5">
                            <path id="Fill-26" class="cls-4" d="M294.83 231.12a41.2 41.2 0 0 0-40.89-18c-3.06.44-2 3.59-.15 3.36a37.92 37.92 0 0 1 43.35 27.75c.75 3.12 3.72 1.54 3.33-.22a41 41 0 0 0-5.64-12.91"/>
                        </g>
                        <g class="cls-5">
                            <path id="Fill-27" class="cls-4" d="M275.83 198a41 41 0 0 0-5.35 18.1h3.29a37.89 37.89 0 0 1 75.71 2c0 2.31 3.39 2.87 3.27-.93A41.17 41.17 0 0 0 275.83 198"/>
                        </g>
                        <g class="cls-5">
                            <path id="Fill-28" class="cls-4" d="M196.73 29a114.24 114.24 0 0 1 52.68 12.79c2 1.23.62 4-1.86 2.74a111.5 111.5 0 0 0-162.29 99.33 112.56 112.56 0 0 0 2.06 21.48H84a116 116 0 0 1-2-21.48A114.81 114.81 0 0 1 196.73 29zm105.34 151.44a111.3 111.3 0 0 0 6.14-36.58c0-2.74-.11-5.46-.3-8.15-.18-2.52 3.06-3.15 3.26-.4s.32 5.67.32 8.55a114.56 114.56 0 0 1-5.74 35.95z"/>
                        </g>
                        <g class="cls-5">
                            <path id="Fill-29" class="cls-4" d="M357.43 150.47a41.18 41.18 0 0 0-34.14 28.8c-1 2.94 2.33 3.37 2.94 1.61a38 38 0 0 1 44-26.71c3.13.71 3-2.66 1.26-3.08a41 41 0 0 0-14.06-.62"/>
                        </g>
                        <g class="cls-5">
                            <path id="Fill-30" class="cls-4" d="M139.84 215.45a1.64 1.64 0 0 1 1.64 1.64v29.79a1.64 1.64 0 0 1-1.64 1.64 1.65 1.65 0 0 1-1.64-1.64v-29.79a1.65 1.65 0 0 1 1.64-1.64"/>
                        </g>
                    </g>
                </g>
            </g>
        </g>
    </g>
</svg>
