<svg id="Layer_1" data-name="Layer 1" xmlns="http://www.w3.org/2000/svg" width="2839.08" height="210" viewBox="0 0 2839.08 210">
    <defs>
        <style>
            .cls-1{fill:#dcd6c4}.cls-2{fill:none}.cls-3{fill:#fff}
        </style>
    </defs>
    <title>
        truck_bg
    </title>
    <path class="cls-1" d="M1103.63 99.31a1.38 1.38 0 0 0 1-2.4 1.43 1.43 0 0 0-.48-.66l-19.27-14.61V68.05h18.8a1.4 1.4 0 0 0 1.41-1.39 1.42 1.42 0 0 0-.66-1.2 1.54 1.54 0 0 0-.46-.55l-22.07-15.2a1.64 1.64 0 0 0-.25-.21l-.22-.1h-11.33l-.29.07a1.36 1.36 0 0 0-.88.25L1047.22 65a1.16 1.16 0 0 0-.36.37 1.4 1.4 0 0 0 .56 2.63h18.77v13.84L1047 96.36a1.29 1.29 0 0 0-.34.36 1.4 1.4 0 0 0-.41 2 1.42 1.42 0 0 0 1.16.64h18.76v13.8l-19.15 14.5a1.12 1.12 0 0 0-.34.38 1.4 1.4 0 0 0 .73 2.6h18.61l-11.63 58.5-3.36 16.85a1.39 1.39 0 0 0 1.09 1.65h.29a1.4 1.4 0 0 0 1.37-1.13v-.06a1.14 1.14 0 0 0 .32-.18l19.23-15.47h4.06l19.51 15.51a1.65 1.65 0 0 0 .32.18 1.4 1.4 0 0 0 1.38 1.13 1.22 1.22 0 0 0 .27 0 1.42 1.42 0 0 0 1.11-1.65l-15-75.35h18.65a1.4 1.4 0 0 0 1-2.42 1.46 1.46 0 0 0-.46-.61l-19.3-14.38v-13.9zm-18.79-14.15l15 11.34h-15zm14.58-19.93h-15l-1.7-11.52zm-15.22 75.9l-6.39-4.79 4.73-3.52zM1079.72 68l-4.14 4.13-4-4.13zm-8.58-2.81l4.32-4.9 4.27 4.9zm9.92 16.63l-5.74 5.9-5.66-5.7 5.89-5.88zm1 3v9.61l-4.73-4.76zm-6.69 6.86l4.71 4.74h-9.36zm6.69 8.78v9.63l-4.79-4.72zm-2.73-1.23l-4.06 4.17-4.27-4.17zm-4 8.15l5.77 5.68-5.68 5.77-5.42-5.53-.25-.16zm6.76 8.68v9.38l-4.67-4.61zm-1.72 11.64h-9.77l4.88-5zm.16 3.1l-5 3.7-4.94-3.7zm1.08 11.76h-12.27l6.13-4.56zm1.1 2.81l-7.29 8.27-7.23-8.19zm-.62-75.74v9.11l-4.5-4.63zm-.83-7.07l-3.87-4.43 2.75-3.13zM1079 52l-3.51 4-3.48-4zm-8 3l2.67 3.06-3.79 4.3zm-1.91 14.29l4.58 4.73-4.58 4.57zm0 16l4.35 4.38-4.35 4.47zm0 15.89l4.26 4.21-4.26 4.36zm0 15l4.44 4.51-4.44 4.5zm4.12 20l-6.35 4.81 1.63-8.16zm-21.47-71l16.62-11.81-1.8 11.81zm-.23 31.27l14.71-11.13V96.5zm0 31.28l14.72-11.15v11.15zm14.2 19.06l7.88 8.93-1.75 2h-8.31zm12.1 13.72l10.85 12.3h-26.4l10.84-12.3zm-14.84 0h6.39l-8.25 9.36zm-8.31 41.69l2.29-11.45h12zm17.69-14.2h-14.87l2.25-11.28a.8.8 0 0 0 .13.13l13.25 10.54zm3-2.42l-12.43-9.88h24.71zm21.07 16.72l-14.49-11.52h12.19zm-5.18-26l2.32 11.7h-15.14l-.79-.63 13.43-10.81a1.24 1.24 0 0 0 .18-.22zm-3.15-15.82l1.92 9.66-8.48-9.62h6.56zm-2.77-13.85l2.21 11.08h-8.48l-1.75-2zm14.41-18.89h-14.89v-11z"/>
    <path class="cls-1" d="M1042.28 118.52a1.15 1.15 0 0 0 1.13-1.13 3.78 3.78 0 0 0-.74-1.34l-15.42-11.67V93.51h15a1.12 1.12 0 0 0 .6-2.07 1.14 1.14 0 0 0-.37-.44l-17.61-12.16a1 1 0 0 0-.2-.16l-.18-.09h-9.07a.88.88 0 0 0-.23 0 1.15 1.15 0 0 0-.7.2l-17.32 12.3a1 1 0 0 0-.28.3 1.12 1.12 0 0 0 .46 2.14h15v11.09L997 116.24a1 1 0 0 0-.26.28 1.13 1.13 0 0 0 .59 2.08h15v11L997 141.19a.92.92 0 0 0-.28.31 1.07 1.07 0 0 0-.53.95 1.12 1.12 0 0 0 1.12 1.12h14.89l-9.33 46.79-2.69 14.89a1.11 1.11 0 0 0 .87 1.32 8.08 8.08 0 0 0 1.47-.1l15.5-14.76h3.25l16.1 14.44a2 2 0 0 0 .25.14 1.11 1.11 0 0 0 1.1.91h.21a1.13 1.13 0 0 0 .89-1.32l-12.56-62.34h14.92a1.11 1.11 0 0 0 1.12-1.11 1.13 1.13 0 0 0-.34-.82 1.28 1.28 0 0 0-.37-.49l-15.44-11.5v-11.1zm-15-11.32l12 9.07h-12zM1039 91.26h-12l-1.4-9.26zM1026.76 152l-5.12-3.83 3.79-2.81zm-3.6-58.46l-3.31 3.31-3.21-3.31zm-6.87-2.24l3.46-3.92 3.42 3.92zm7.94 13.3l-4.59 4.71-4.53-4.56 4.71-4.7zm.77 2.4v7.68l-3.79-3.8zm-5.35 5.49l3.77 3.79H1016zm5.35 7v7.7l-3.84-3.78zm-2.18-1l-3.26 3.32-3.38-3.32zm-3.22 6.51l4.61 4.55-4.49 4.55-4.36-4.42-.2-.14zm5.4 7v7.5l-3.71-3.76zm-1.38 9.3h-7.82l3.91-4zm.13 2.48l-4 3-4-3zm.86 9.41h-9.76l4.9-3.64zm.88 2.25l-5.77 6.61-5.78-6.55zM1025 94.8v7.3l-3.59-3.68zm-.67-5.65l-3.09-3.54 2.2-2.5zm-1.78-8.43l-2.8 3.18-2.75-3.18zm-6.44 2.43l2.14 2.45-3 3.44zm-1.53 11.44l3.67 3.78-3.67 3.66zm0 12.76l3.48 3.5-3.48 3.58zm0 12.71l3.41 3.36-3.41 3.49zm0 12l3.55 3.6-3.55 3.6zm3.3 16l-5 3.73 1.3-6.52zm-17.13-56.8l13.3-9.45-1.44 9.45zm-.18 25l11.76-8.91v8.91zm0 25l11.77-8.91v8.91zm11.36 15.25l6.3 7.14-1.4 1.59h-6.64zm9.68 11l8.68 9.84h-21.13l8.67-9.84zm-11.87 0h5.11l-6.6 7.49zm-6.65 33.34l1.83-9.16h9.56zm14.18-11.41h-11.86l1.8-9 .1.11 10.6 8.43zm2.4-1.93l-9.94-7.9h19.76zm16.84 13.4l-11.59-9.22h9.75zm-4.1-20.79l1.86 9.3h-12.17l-.63-.49 10.74-8.65zm-2.52-12.65l1.52 7.73-6.79-7.7h5.22zm-2.21-11.08l1.77 8.87h-6.84l-1.4-1.59zm11.52-15.11h-12v-8.87z"/>
    <path class="cls-1" d="M418.53 43.59c-6.77 0-19.72 9.08-23.74 12-3-3-12.68-12-20.62-12a1.5 1.5 0 0 0 0 3c8 0 19.25 11.91 19.36 12l.92 1 1.08-.81c4.5-3.4 17.4-12.21 23-12.21a1.5 1.5 0 0 0 0-3z"/>
    <path class="cls-1" d="M370.29 73.14c-3.93 0-11.08 5-13.88 7-2.19-2.2-7.54-7-12.18-7a1.5 1.5 0 0 0 0 3c3.69 0 9.12 5.08 10.91 7l.93 1 1.1-.85c3.6-2.78 10.36-7.21 13.12-7.21a1.5 1.5 0 0 0 0-3z"/>
    <path class="cls-1" d="M137 20.07c-3.93 0-11.08 5-13.88 7-2.19-2.2-7.54-7-12.18-7a1.5 1.5 0 0 0 0 3c3.69 0 9.12 5.08 10.91 7l.93 1 1.1-.85C127.51 27.44 134.27 23 137 23a1.5 1.5 0 0 0 0-3z"/>
    <path class="cls-1" d="M479.84 41.34c-3.94 0-11.08 5-13.88 7-2.2-2.19-7.54-7-12.19-7a1.5 1.5 0 0 0 0 3c3.69 0 9.13 5.08 10.91 7l.94 1 1.09-.84c3.61-2.79 10.37-7.21 13.13-7.21a1.5 1.5 0 0 0 0-3z"/>
    <path class="cls-1" d="M611.3 64.4a16.17 16.17 0 0 0-15.88-14.14 21.55 21.55 0 0 0-38.22.07 16.13 16.13 0 0 0-17.47 14.07l-.21 1.69h72zM543 63.09a13.16 13.16 0 0 1 14.81-9.66l1.13.18.47-1a18.55 18.55 0 0 1 33.7-.15l.43.91h1.71A13.16 13.16 0 0 1 608 63.2z"/>
    <path class="cls-1" d="M516.16 86.56a19.55 19.55 0 0 0-34.59 0h-1.23a14.67 14.67 0 0 0-14.55 12.86l-.21 1.69h65.14l-.2-1.69a14.68 14.68 0 0 0-14.36-12.86zM469.1 98.11a11.66 11.66 0 0 1 11.24-8.55 11.91 11.91 0 0 1 1.88.15l1.12.18.47-1a16.55 16.55 0 0 1 30.07-.14l.43.92 1-.06h.63a11.67 11.67 0 0 1 11.24 8.55z"/>
    <path class="cls-1" d="M879.48 90.48a11.42 11.42 0 0 0-20.19 0h-.72a8.57 8.57 0 0 0-8.49 7.5L850 99h38l-.12-1a8.55 8.55 0 0 0-8.4-7.52zM852 97.22a6.8 6.8 0 0 1 6.55-5 6.71 6.71 0 0 1 1.1.09l.65.1.28-.58a9.66 9.66 0 0 1 17.55-.08l.25.54h.95a6.81 6.81 0 0 1 6.56 5z"/>
    <path class="cls-1" d="M563.15 197.6l-6.62-11.34 3.64-2.79-5.07-8.73 2.75-2.89-11.91-15.93L534 171.85l2.75 2.89-5.07 8.73 3.65 2.79-6.62 11.34h15.68v10.24a1.51 1.51 0 0 0 3 0V197.6zm-23.87-12.11l-3.65-2.8 4.88-8.38-2.51-2.69 8-10.69 8 10.69-2.53 2.69 4.88 8.38-3.64 2.8 5.29 9.11h-24z"/>
    <path class="cls-1" d="M855.21 166.15l-3.52-4 22.58-11.53-15.18-15.86-14 20.21-7.83-8.74-5.47 5.77-9.37-21.58-16.78 14.15 18.91 15-6.17 6.52v4.73l-19 4.29 10.77 19.13 8.27-7.14v21.71h36.88v-17.15l6.64 7.53 11.48-18.62-18.25-6.82zm-3 1.15v5.33l-4.92-1.84a9.46 9.46 0 0 0 .48-2.89 9.29 9.29 0 0 0-.66-3.38l1.82-.93zm7.21-27.79l9.86 10.3-26.38 13.48zM837 171l2.93 3.33a8.38 8.38 0 0 1-6.48-.26zm-7.73-2.6a4 4 0 0 1 0-.49 6.25 6.25 0 0 1 1.15-3.62l2.3 1.82 1.11 1.27zm8.37-2.73l-2-4.6A7.53 7.53 0 0 1 837 161a8.39 8.39 0 0 1 3.41.73zm3 2.14l3.73-1.9a6.19 6.19 0 0 1 .35 2 6.79 6.79 0 0 1-.29 1.84l-4.21-1.57zm-3.52-17.13l6.12 6.85-1.14 1.65a11.05 11.05 0 0 0-7.72-.91l-1.39-3.2zm-26.84-6.13l10.89-9.19L833 162.54zm11 22.78l5.53-5.84 1.18.93a9.28 9.28 0 0 0-1.8 5.49 7.41 7.41 0 0 0 .08 1.15l-5 1.13zm-10.4 22.27l-7-12.42 28.9-6.51zm29.3 16.24h-6.61l.25-17.92a3.4 3.4 0 0 1 .65-2.22h5a3 3 0 0 1 .72 2.23zm12 0h-9v-17.92c0-3-1.57-5.22-3.65-5.22h-5.06c-2.08 0-3.65 2.25-3.65 5.2l-.25 17.94h-9.24v-21.3l9.69-8.38a11.26 11.26 0 0 0 11 .5l10.21 11.6zm9.24-11.65L841.85 172 869 182.13z"/>
    <path class="cls-1" d="M926.21 2.08c-6.77 0-19.72 9.08-23.75 12-3-3-12.67-12-20.61-12a1.5 1.5 0 0 0 0 3c8 0 19.24 11.91 19.36 12l.92 1 1.08-.79c4.5-3.4 17.4-12.21 23-12.21a1.5 1.5 0 0 0 0-3z"/>
    <path class="cls-1" d="M870.82 35.28c-3.93 0-11.08 5-13.88 7-2.19-2.2-7.54-7-12.18-7a1.5 1.5 0 0 0 0 3c3.68 0 9.12 5.08 10.91 7l.93 1 1.09-.85c3.61-2.78 10.37-7.21 13.13-7.21a1.5 1.5 0 0 0 0-3z"/>
    <path class="cls-1" d="M971 42.77c-3.94 0-11.08 5-13.89 7-2.19-2.19-7.53-7-12.18-7a1.5 1.5 0 0 0 0 3c3.69 0 9.13 5.08 10.91 7l.94 1 1.09-.84c3.61-2.79 10.36-7.21 13.13-7.21a1.5 1.5 0 0 0 0-3z"/>
    <path class="cls-1" d="M687.64 154.05h-11.51a3 3 0 0 0-3 3.06v13.24a3 3 0 0 0 2.85 3.14h11.6a3.05 3.05 0 0 0 2.94-3.14v-13.16a3.05 3.05 0 0 0-2.88-3.14zm-.06 16.3v.14h-11.36a.17.17 0 0 1 0-.14v-13.16a.17.17 0 0 1 0-.14h11.33a.33.33 0 0 1 0 .14z"/>
    <path class="cls-1" d="M696.42 157.19v13.16a3 3 0 0 0 2.94 3.14h11.52a3.05 3.05 0 0 0 2.94-3.14v-13.16a3.05 3.05 0 0 0-2.94-3.14h-11.46a3 3 0 0 0-3 3.1zm3 0a.17.17 0 0 1 0-.14h11.32a.33.33 0 0 1 0 .14v13.16a.33.33 0 0 1 0 .14h-11.25a.17.17 0 0 1 0-.14z"/>
    <path class="cls-1" d="M687.64 180.9h-11.51a3 3 0 0 0-3 3.06v13.24a3 3 0 0 0 2.84 3.15h11.61a3.06 3.06 0 0 0 2.94-3.15v-13.15a3.06 3.06 0 0 0-2.88-3.15zm-.06 16.3a.38.38 0 0 1 0 .15h-11.36a.19.19 0 0 1 0-.15v-13.15a.2.2 0 0 1 0-.15h11.33a.38.38 0 0 1 0 .15z"/>
    <path class="cls-1" d="M710.91 180.9h-11.49a3 3 0 0 0-2.94 3.15v13.15a3 3 0 0 0 2.94 3.15h11.52a3.06 3.06 0 0 0 2.94-3.15v-13.15a3.06 3.06 0 0 0-3-3.15zm-.06 16.3a.38.38 0 0 1 0 .15h-11.36a.2.2 0 0 1 0-.15v-13.15a.19.19 0 0 1 0-.15h11.32a.38.38 0 0 1 0 .15z"/>
    <path class="cls-1" d="M684.32 141.39a1.5 1.5 0 0 0 1-.41l16.1-15.13a1.5 1.5 0 1 0-1.67-2.49 1.18 1.18 0 0 0-.33.3l-16.12 15.13a1.5 1.5 0 0 0-.06 2.13 1.48 1.48 0 0 0 1.08.47z"/>
    <path class="cls-1" d="M751.42 140.75c0 4.3 3.15 7.8 7 7.8s7-3.5 7-7.8-3.15-7.81-7-7.81-7 3.5-7 7.81zm7-4.81c2.22 0 4 2.16 4 4.81s-1.8 4.8-4 4.8-4-2.16-4-4.8 1.77-4.81 4-4.81z"/>
    <path class="cls-1" d="M745.42 154.32h-8.64a3 3 0 0 0-2.94 3.14v10.15a3 3 0 0 0 2.94 3.14h8.64a3.05 3.05 0 0 0 2.94-3.14v-10.15a3.05 3.05 0 0 0-2.94-3.14zm0 13.29a.33.33 0 0 1 0 .14H737a.17.17 0 0 1 0-.14v-10.15a.17.17 0 0 1 0-.14h8.44a.33.33 0 0 1 0 .14z"/>
    <path class="cls-1" d="M761.76 154.32h-8.64a3 3 0 0 0-2.94 3.07v10.22a3 3 0 0 0 2.85 3.14h8.72a3.05 3.05 0 0 0 2.94-3.14v-10.15a3.05 3.05 0 0 0-2.93-3.14zm-.06 13.29v.14h-8.48a.17.17 0 0 1 0-.14v-10.15a.17.17 0 0 1 0-.14h8.45v.14z"/>
    <path class="cls-1" d="M769.42 170.75h8.64a3.05 3.05 0 0 0 2.94-3.14v-10.15a3.05 3.05 0 0 0-2.94-3.14h-8.64a3 3 0 0 0-2.94 3.07v10.22a3 3 0 0 0 2.85 3.14zm.07-13.29a.17.17 0 0 1 0-.14h8.45v10.43h-8.45a.17.17 0 0 1 0-.14z"/>
    <path class="cls-1" d="M2531.32 182.14h-1l1.55-9.06a1.5 1.5 0 0 0-1.21-1.73h-15.53a1.49 1.49 0 0 0-1.51 1.48 1.24 1.24 0 0 0 0 .27l1.55 9.06h-1.09a1.5 1.5 0 0 0-1.5 1.5v23.43a1.5 1.5 0 1 0 3 0v-6.53h14.24v6.53a1.5 1.5 0 1 0 3 0v-23.45a1.5 1.5 0 0 0-1.5-1.5zm-2.74-7.81l-3.08 18h-5.5l-1.48-8.68a2 2 0 0 0-.09-.49l-1.51-8.82zm-13 23.21v-12.4h.11l1.53 9a1.48 1.48 0 0 0 1.48 1.24h8.06a1.49 1.49 0 0 0 1.48-1.24l1.53-9h.05v12.4z"/>
    <path class="cls-1" d="M2278.82 187.39l-12.51-21.8 7.25-5.64-10-17.47 5.37-5.75-21.74-29.56-21.73 29.56 5.38 5.75-10 17.47 7.25 5.64-12.51 21.8h30.1v20a1.5 1.5 0 0 0 3 0v-20zM2232 164.82l-7.26-5.64 9.8-17.13-5.19-5.55 17.84-24.26 17.85 24.26-5.18 5.55 9.79 17.13-7.25 5.64 11.23 19.57h-52.86z"/>
    <path class="cls-2" d="M2212.86 114.25l.9-.89a14.5 14.5 0 0 0-10.06-24.8h-1.49l-.23-1.28c-.49-2.72-6.76-4.72-14.9-4.72-10.23 0-21.23 3.21-21.23 8v1.12l.08 1-1 .43a12.74 12.74 0 0 0-6.39 16.69l.64 1.46-1.49.55c-7.46 2.76-12.31 9-12.46 15.93-.2 9.83 9 18 20.56 18.28 2.65.08 7.72.08 15.49.08H2197a19.93 19.93 0 0 0 20-19.67 19.46 19.46 0 0 0-3.45-11.15z"/>
    <path class="cls-2" d="M2178.26 186.72v-1.58c0-2.88-2.66-5.21-5.92-5.21h-3.93l-.3-1.11c-1-3.46-5-6-9.69-6h-4.67c-4.69 0-8.69 2.49-9.69 6l-.3 1.11H2136c-3.27 0-5.93 2.33-5.93 5.21a.61.61 0 0 0 0 .19l.11 1.32-1.28.33c-5.36 1.16-9.1 5-9.1 9.27 0 5.31 5.56 9.62 12.39 9.62h43.89c6.84 0 12.4-4.31 12.49-9.62 0-4.27-3.74-8.11-9.1-9.27z"/>
    <path class="cls-1" d="M2221 103a17.45 17.45 0 0 0-16.49-17.46c-2.44-5.52-13.85-6-17.48-6-12 0-24.23 3.78-24.23 11v.32a15.73 15.73 0 0 0-7.52 18.73c-7.8 3.45-12.86 10.41-13 18.12-.23 11.48 10.31 21.06 23.5 21.34 2.6 0 7.5.08 15 .08v33.4a8.89 8.89 0 0 0-8.45-5.6h-1.72c-1.76-4.27-6.6-7.16-12.2-7.16h-4.64c-5.6 0-10.44 2.89-12.2 7.16H2136c-4.64 0-8.45 3.26-8.89 7.41-6.12 1.76-10.3 6.52-10.3 11.91 0 7 6.9 12.62 15.39 12.62h43.89c8.49 0 15.4-5.66 15.4-12.62 0-4.59-3-8.73-7.74-10.94v-36.17H2197a22.92 22.92 0 0 0 23.07-22.72 22.37 22.37 0 0 0-3.4-11.88A17.4 17.4 0 0 0 2221 103zm-32.39 93.25c-.09 5.31-5.65 9.62-12.49 9.62h-43.92c-6.83 0-12.39-4.31-12.39-9.62 0-4.3 3.74-8.11 9.1-9.27l1.28-.33-.11-1.32a.61.61 0 0 1 0-.19c0-2.88 2.66-5.21 5.93-5.21h7.75l.3-1.11c1-3.51 5-6 9.69-6h4.67c4.65 0 8.72 2.54 9.69 6l.3 1.11h3.93c3.26 0 5.92 2.33 5.92 5.21v1.58l1.22.26c5.36 1.16 9.1 5.02 9.1 9.27zM2217 126.4a19.93 19.93 0 0 1-20 19.75h-15.69c-7.77 0-12.84 0-15.49-.08-11.53-.25-20.76-8.45-20.56-18.28.15-6.92 5-13.17 12.46-15.93l1.49-.55-.64-1.46a12.74 12.74 0 0 1 6.39-16.69l1-.43-.08-1v-1.12c0-4.79 11-8 21.23-8 8.14 0 14.41 2 14.9 4.72l.23 1.28h1.49a14.5 14.5 0 0 1 10.06 24.8l-.9.89.73 1a19.46 19.46 0 0 1 3.38 11.1z"/>
    <path class="cls-1" d="M2106.64 76.32v-4.24a1.5 1.5 0 0 0-1.5-1.5 1.49 1.49 0 0 0-.63.14h-12.93a1.45 1.45 0 0 0-1.09.49l-15.38 14.34-15.39-14.34a1.5 1.5 0 0 0-1.1-.49h-13a1.56 1.56 0 0 0-.63-.14 1.5 1.5 0 0 0-1.5 1.5v4.24a12.6 12.6 0 1 0 3 0v-2.6H2058l15.62 14.55v85.27H2071a3 3 0 0 0-3.19 2.74v30.09a3 3 0 0 0 3.19 2.75h8.19a3 3 0 0 0 3.2-2.75v-30.09a3 3 0 0 0-3.2-2.74h-2.59V88.27l15.61-14.55h11.46v2.61a12.62 12.62 0 1 0 3 0zm-27.28 100.24v29.53h-8.58v-29.53h8.58zm-34.42-78.12a9.62 9.62 0 0 1-9.6-9.61 9.22 9.22 0 0 1 .33-2.45h18.55a10.11 10.11 0 0 1 .33 2.45 9.63 9.63 0 0 1-9.61 9.61zm7.9-15.06H2037a9.6 9.6 0 0 1 15.8 0zm52.35-4.15a9.6 9.6 0 0 1 7.9 4.15h-15.8a9.57 9.57 0 0 1 7.9-4.15zm0 19.21a9.61 9.61 0 0 1-9.61-9.61 9.22 9.22 0 0 1 .33-2.45h18.56a10.11 10.11 0 0 1 .33 2.45 9.63 9.63 0 0 1-9.61 9.61z"/>
    <path class="cls-2" d="M2354.27 179.64l-1.57.46-.33-1.6c-1.29-6.38-7.44-11-14.63-11-7.5 0-13.84 5.05-14.76 11.75l-.11.82-.75.34c-5 2.36-8.14 6.94-8.14 12 0 7.42 6.67 13.42 14.88 13.42h30.08v-.05c8.2 0 14.87-6 14.87-13.41s-6.67-13.37-14.87-13.37a16.39 16.39 0 0 0-4.67.64z"/>
    <path class="cls-2" d="M2367.36 139.91l-10.44-20.38a1.49 1.49 0 0 1 2.66-1.35l7.77 15.17v-32.61a1.5 1.5 0 1 1 3 0v32l7.47-14.58a1.49 1.49 0 0 1 2-.65 1.51 1.51 0 0 1 .65 2l-10.14 19.79v11.6c10.32-1.9 18.31-14.06 18.31-28.58s-16-33.52-20.48-38.52c-4.24 5-19.42 24-19.42 38.52 0 16.6 7.81 28.67 18.6 28.83z"/>
    <path class="cls-1" d="M2391.65 122.32c0-17.92-21.51-40.85-22.42-41.81l-1.12-1.18-1.11 1.21c-.87 1-21.27 23.88-21.27 41.78 0 18.34 9.07 31.68 21.6 31.84v23.78a19.22 19.22 0 0 0-12.41-1.52c-2.17-7-9.15-11.87-17.18-11.87-8.69 0-16.11 5.76-17.6 13.54a16.14 16.14 0 0 0-9.16 14.32c0 9 8 16.42 17.88 16.42H2359c9.85 0 17.87-7.37 17.87-16.42a15.89 15.89 0 0 0-6.48-12.62v-25.85c11.94-1.83 21.26-15.31 21.26-31.62zm-17.84 70.05c0 7.41-6.67 13.41-14.87 13.41v.05h-30.08c-8.21 0-14.88-6-14.88-13.42 0-5.06 3.12-9.64 8.14-12l.75-.34.11-.82c.92-6.7 7.26-11.75 14.76-11.75 7.19 0 13.34 4.62 14.63 11l.33 1.6 1.57-.46a16.39 16.39 0 0 1 4.67-.68c8.2.04 14.87 6.04 14.87 13.41zm-25-70.05c0-14.49 15.18-33.49 19.42-38.52 4.43 5 20.48 24 20.48 38.52s-8 26.68-18.31 28.58v-11.58l10.14-19.79a1.51 1.51 0 0 0-.65-2 1.49 1.49 0 0 0-2 .65l-7.47 14.58v-32a1.5 1.5 0 1 0-3 0v32.61l-7.77-15.17a1.49 1.49 0 0 0-2.66 1.35l10.44 20.38v11.24c-10.86-.17-18.67-12.25-18.67-28.85z"/>
    <path class="cls-1" d="M2500.33 176.61h-5.76a5.08 5.08 0 0 0 .41-2v-5.13c0-2.15-1.22-3.77-2.85-3.77h-83.26c-1.63 0-2.85 1.62-2.85 3.77v5.13a4.75 4.75 0 0 0 .41 2h-4.68a1.5 1.5 0 0 0-1.5 1.5v29.2a1.5 1.5 0 0 0 1.5 1.5h11.53a1.5 1.5 0 0 0 1.5-1.5v-28.92h72.52v28.92a1.5 1.5 0 0 0 1.5 1.5h11.53a1.5 1.5 0 0 0 1.5-1.5v-29.2a1.5 1.5 0 0 0-1.5-1.5zm-91.33-7.12a1.71 1.71 0 0 1 .15-.77h82.66a2 2 0 0 1 .15.77v5.13a2 2 0 0 1-.15.77h-82.66a1.71 1.71 0 0 1-.15-.77zm2.76 36.32h-8.53v-26.2h8.53zm87 0h-8.53v-26.2h8.53z"/>
    <path class="cls-1" d="M2470.19 89.2h77.16l-.21-1.68a17.24 17.24 0 0 0-17-15.11 23 23 0 0 0-34.92-7.33 17.12 17.12 0 0 0-8.86-2.5 23.06 23.06 0 0 0-41 .08 17.23 17.23 0 0 0-18.74 15l-.21 1.68h47.27a17 17 0 0 0-3.28 8.15zm39.45-26.2a20.15 20.15 0 0 1 18.19 11.59l.43.92h1.74a14.25 14.25 0 0 1 13.81 10.79h-70.16a14.07 14.07 0 0 1 4-6.83h25.91l-.21-1.68a17.24 17.24 0 0 0-5.62-10.79 20.13 20.13 0 0 1 11.91-4zm-79.73 13.4A14.26 14.26 0 0 1 2446 65.79l1.13.18.47-1a20.07 20.07 0 0 1 36.45-.16l.42.91h1.78a15.92 15.92 0 0 1 9.14 3.34 13.29 13.29 0 0 1 4.67 7.45z"/>
    <path class="cls-1" d="M2731 99.73a7.7 7.7 0 0 0-6.81-7.24l3.48-9-25-30.83L2692 47.5l26.12 47a7.68 7.68 0 0 0-2.52 5.68v.57l-9 .43-22.48 32.82-.74 11.42 34.82-39a5.77 5.77 0 0 0 1.62 1l-1.52 101.8h10l-1.51-101.8a6.24 6.24 0 0 0 2.31-1.63l3.85 6.63 36.7 4.79 14.46-4zm-30.3-44.67l23.51 29-3.3 8.54-.35.05-21.28-38.25zm-13.76 81.83l.12-1.9 21.26-30.94 7.91-.37.12.24zm38.06-32.17l-1.24.24 1.5 101.16h-3.91l1.5-101.16-1.24-.24c-2.7-.5-3-3.38-3-4.59a4.69 4.69 0 0 1 9.37-.43v.43c0 1.21-.28 4.09-3 4.59zm44.44 9.34l-34.64-4.53-3.69-6.34.09-.31 41.16 10.37z"/>
    <path class="cls-1" d="M2626.08 94.12v-.59a8 8 0 0 0-3.7-6.76l7.66-7.21-9.79-40.83-7.56-9.54 3.46 56.52a8.06 8.06 0 0 0-6.17 7.75l-8.37-3.77-37 20.13-6 10.18 53.28-20.78a6.39 6.39 0 0 0 2.6 1.87l-1.6 107.78h10.41l-1.6-107.78a7.84 7.84 0 0 0 1.08-.55l.9 7.06 33.77 19.78 15.4 2zM2565.61 114l1.18-2 35-19 7.73 3.48v.4zm51.92-74l9.22 38.5-7.13 6.71-.46-.14-2.86-46.62zm2.35 58.42l-1.24.23 1.59 107.15h-4.32l1.59-107.15-1.24-.23c-2.93-.55-3.24-3.65-3.24-5a5 5 0 1 1 10.1 0c0 1.42-.32 4.52-3.24 5.07zm6.56 7.27l-1-7.8.29-.35L2662 125l-3.54-.46z"/>
    <path class="cls-1" d="M2196.65 7c-6.77 0-19.72 9.07-23.75 12-3-3-12.67-12-20.61-12a1.5 1.5 0 0 0 0 3c8 0 19.24 11.91 19.36 12l.92 1 1.08-.82c4.5-3.39 17.4-12.2 23-12.2a1.5 1.5 0 0 0 0-3z"/>
    <path class="cls-1" d="M2148.42 36.55c-3.93 0-11.08 5-13.88 7-2.19-2.19-7.54-7-12.18-7a1.5 1.5 0 0 0 0 3c3.68 0 9.12 5.07 10.91 7l.93 1 1.09-.84c3.61-2.79 10.37-7.21 13.13-7.21a1.5 1.5 0 0 0 0-3z"/>
    <path class="cls-1" d="M2258 4.74c-3.94 0-11.08 5-13.89 7-2.19-2.2-7.53-7-12.18-7a1.5 1.5 0 0 0 0 3c3.69 0 9.13 5.08 10.91 7l.94 1 1.09-.85c3.61-2.79 10.36-7.21 13.13-7.21a1.5 1.5 0 0 0 0-3z"/>
    <path class="cls-1" d="M2389.42 27.81a16.14 16.14 0 0 0-15.88-14.14 21.55 21.55 0 0 0-38.22.06 16.15 16.15 0 0 0-17.47 14.08l-.21 1.68h72zm-68.27-1.32a13.15 13.15 0 0 1 14.85-9.65l1.13.18.47-1a18.55 18.55 0 0 1 33.7-.16l.43.91h1.72a13.17 13.17 0 0 1 12.71 9.82z"/>
    <path class="cls-1" d="M2294.28 50a19.55 19.55 0 0 0-34.59 0h-1.23a14.68 14.68 0 0 0-14.56 12.87l-.2 1.68h65.14l-.21-1.68A14.67 14.67 0 0 0 2294.28 50zm-47.06 11.51a11.64 11.64 0 0 1 13.07-8.36l1.13.18.47-1a16.55 16.55 0 0 1 30.07-.14l.43.93 1-.06h.63a11.67 11.67 0 0 1 11.24 8.55z"/>
    <path class="cls-1" d="M1678.77 162.85l-3.51-101.15h-12.37l-3.47 101.15h-3.07l-3.54-101.15h-12.39l-3.51 101.15h-6.41v45.44h55v-45.44zm-13-98.15h6.65l3.4 98.15h-13.4zm-22.45 0h6.57l3.41 98.15h-13.39zm39.23 140.59h-49v-39.44h49z"/>
    <path class="cls-1" d="M1648.12 167.64h-10v35.63h10zm-3 32.63h-4v-29.63h4z"/>
    <path class="cls-1" d="M1663.33 167.64h-10v35.63h10zm-3 32.63h-4v-29.63h4z"/>
    <path class="cls-1" d="M1678.54 167.64h-10v35.63h10zm-3 32.63h-4v-29.63h4z"/>
    <path class="cls-1" d="M1774.14 200.59v-10.1h-9.5s-.09 8 0 10.1c1.29.05 9.5 0 9.5 0zm-6.5-7.1h3.5v4.1h-3.5z"/>
    <path class="cls-1" d="M1793.7 182.32l-3.6-25.78h-15.49l-.81 5.84h-13.72l-10.23-71.75h-46.64l-16.74 117.43h30.31v.3h77.41v-26zm-16.48-22.78h10.27l3.16 22.65h-16.59zm-3.84 5.84l-.61 4.34a1.31 1.31 0 0 0-.43-.08h-11.22l-.61-4.26zm-1 7.26l-1.35 9.68h-8.1l-1.38-9.68h10.83zm-12.48 9.68h-21.8c.15-5.62 4.93-9.68 11.5-9.68h8.92zm-1.8-12.68h-8.5c-8.17 0-14.35 5.44-14.5 12.68h-7.68c0-6.71 2.47-10.75 4.61-13 2.76-2.89 6-3.94 7.48-3.94h18zm-41.31 35.42h-26.85l15.88-111.43h41.44l9.8 68.75h-17.52c-2.49 0-6.44 1.51-9.65 4.87-2.53 2.65-5.43 7.38-5.44 15.07h-7.66zm74.41.3l-71.41-.3v-19.74h71.41z"/>
    <path class="cls-1" d="M1733 190.49h-9.5v10.1h9.5zm-3 7.1h-3.5v-4.1h3.5z"/>
    <path class="cls-1" d="M1746.73 190.49h-9.51v10.1h9.51zm-3 7.1h-3.51v-4.1h3.51z"/>
    <path class="cls-1" d="M1760.42 190.49h-9.5v10.1h9.5zm-3 7.1h-3.5v-4.1h3.5z"/>
    <path class="cls-1" d="M1787.84 190.49h-9.5v10.1h9.5zm-3 7.1h-3.5v-4.1h3.5z"/>
    <path class="cls-1" d="M1761.83 37.87a14.64 14.64 0 0 0-10.83 4.57 22.34 22.34 0 0 0-15.2 4 16.51 16.51 0 0 0-1.85-.1c-9 0-16.31 6-16.31 13.45v.55a12.42 12.42 0 0 0-3.85 8.76c0 8.5 9.79 15.41 21.82 15.41 10.74 0 19.78-5.45 21.52-12.83 5.54-2.17 9.45-6.39 10.48-11.28 4.83-1.9 8-6.11 8-10.71-.03-6.53-6.19-11.82-13.78-11.82zm4 20l-.9.29-.12.94c-.59 4.38-4.22 8.24-9.47 10.06l-.86.3-.14.89c-1 6.26-9.18 11.17-18.72 11.17-10.38 0-18.82-5.57-18.82-12.41a9.74 9.74 0 0 1 3.43-7.09l.56-.52-.09-.75a8.39 8.39 0 0 1-.06-1c0-5.76 6-10.45 13.31-10.45a18.51 18.51 0 0 1 2.1.14l.62.08.5-.39a18.47 18.47 0 0 1 11.6-3.82 20 20 0 0 1 2.67.19l.85.11.52-.68a11.49 11.49 0 0 1 9.07-4.07c5.93 0 10.75 3.94 10.75 8.79 0 3.63-2.67 6.84-6.8 8.18z"/>
    <path class="cls-1" d="M1689.84 25.62a13.36 13.36 0 0 0-11.41 6c-5.46.36-9.9 3.6-10.71 7.76a7.27 7.27 0 0 0-4.06 6.31c0 4.1 3.83 7.43 8.54 7.43a9 9 0 0 0 7-3.21 14.66 14.66 0 0 0 7.16-1.7 14.37 14.37 0 0 0 3.46.42c7.17 0 13-5.16 13-11.5s-5.82-11.51-12.98-11.51zm0 20a11.58 11.58 0 0 1-3.26-.47l-.65-.19-.57.36a11.26 11.26 0 0 1-5.9 1.58h-.89l-.91-.06-.47.78a5.88 5.88 0 0 1-5 2.52c-3.06 0-5.54-2-5.54-4.43a4.39 4.39 0 0 1 3-3.92l.86-.36.06-.93c.21-3.26 4-5.85 8.74-5.9h.9l.42-.81a10.19 10.19 0 0 1 9.18-5.14c5.52 0 10 3.82 10 8.51s-4.45 8.47-10 8.47z"/>
    <path class="cls-1" d="M1649 40.08c-3.29 0-6.12 1.75-7 4.27a7.22 7.22 0 0 0-3.81 6.31 7.54 7.54 0 0 0 15 .43 5.8 5.8 0 0 0 3.17-5c.06-3.3-3.29-6.01-7.36-6.01zm2.12 8.68l-1 .41.1 1.12a2.29 2.29 0 0 1 0 .37 4.53 4.53 0 0 1-9 0 4.25 4.25 0 0 1 2.66-3.88l.72-.31.15-.77c.31-1.5 2.16-2.62 4.32-2.62 2.36 0 4.36 1.39 4.36 3a3.12 3.12 0 0 1-2.3 2.68z"/>
    <path class="cls-1" d="M1746.13 36.65a11.41 11.41 0 0 0 8.87-4h.68c7.07 0 12.81-5.22 12.81-11.63s-5.74-11.62-12.81-11.62a12.8 12.8 0 0 0-12 7.66c-5 1-8.57 5-8.57 9.66-.03 5.48 4.89 9.93 11.02 9.93zM1745 19.89l1-.12.29-.94c1.13-3.78 5-6.42 9.47-6.42 5.41 0 9.81 3.87 9.81 8.62s-4.4 8.63-9.81 8.63c-.41 0-.82 0-1.22-.08l-.89-.09-.51.74a8.42 8.42 0 0 1-6.93 3.42c-4.44 0-8-3.1-8-6.92-.09-3.41 2.87-6.35 6.79-6.84z"/>
    <path class="cls-3" d="M1684.07 130.01h34.21v76.75h-34.21z"/>
    <path class="cls-1" d="M1682.57 128.51v79.75h37.21v-79.75zm34.21 76.75h-31.21v-73.75h31.21z"/>
    <path class="cls-1" d="M1698.3 159h-10v19.5h10zm-3 16.5h-4V162h4z"/>
    <path class="cls-1" d="M1713.66 159h-10v19.5h10zm-3 16.5h-4V162h4z"/>
    <path class="cls-1" d="M1698.3 135.17h-10v19.49h10zm-3 16.49h-4v-13.49h4z"/>
    <path class="cls-1" d="M1713.66 135.17h-10v19.49h10zm-3 16.49h-4v-13.49h4z"/>
    <path class="cls-1" d="M1698.3 183h-10v18.87h10zm-3 15.87h-4V186h4z"/>
    <path class="cls-1" d="M1713.66 183h-10v18.87h10zm-3 15.87h-4V186h4z"/>
    <path class="cls-2" d="M246.36 158.47v12.72h15.52v-27.36a99.15 99.15 0 0 0-15.52 14.64z"/>
    <path class="cls-2" d="M246.36 174.15h15.52v11.35h-15.52z"/>
    <path class="cls-2" d="M243.36 171.19v-9a96.57 96.57 0 0 0-6.15 9z"/>
    <path class="cls-2" d="M235.42 174.15a98 98 0 0 0-5.37 11.35h13.31v-11.35z"/>
    <path class="cls-2" d="M226.56 174.15v11.35h.26a102.84 102.84 0 0 1 5.2-11.35z"/>
    <path class="cls-2" d="M283.42 171.15h15.49v-44.82a97.83 97.83 0 0 0-15.6 5.12 1.56 1.56 0 0 1 .08.48z"/>
    <path class="cls-2" d="M298.91 174.15h-15.52v11a1.55 1.55 0 0 1-.06.31h15.69a1.38 1.38 0 0 1-.14-.63z"/>
    <path class="cls-2" d="M317.42 174.15h-15.51v10.72a1.71 1.71 0 0 1-.15.63h15.83a1.45 1.45 0 0 1-.17-.67z"/>
    <path class="cls-2" d="M264.88 185.46h15.54a1.61 1.61 0 0 1 0-.31v-11h-15.54z"/>
    <path class="cls-2" d="M218.42 174.15h5.19v11.35h-5.19z"/>
    <path class="cls-2" d="M264.88 141.91v29.24h15.51v-38.42a99 99 0 0 0-15.54 8.93 1 1 0 0 1 .03.25z"/>
    <path class="cls-2" d="M150.66 174.15h5.18v11.35h-5.18z"/>
    <path class="cls-2" d="M158.89 206.15c5.65-.05 13.3-.09 22.68-.07V188.5h-22.68z"/>
    <path class="cls-2" d="M150.71 206.15h-.05v.12l5.21-.06V188.5h-5.18z"/>
    <path class="cls-2" d="M158.84 174.15h22.68v11.35h-22.68z"/>
    <path class="cls-2" d="M301.91 125.76v45.39h15.51V124.5a1.46 1.46 0 0 1 .18-.7 96.31 96.31 0 0 0-15.7 1.89z"/>
    <path class="cls-2" d="M192.7 206.14c6.9.05 14.49.12 22.7.24a1.13 1.13 0 0 1 0-.26V188.5h-22.7z"/>
    <path class="cls-2" d="M192.7 174.15h22.72v11.35H192.7z"/>
    <path class="cls-2" d="M223.58 188.5h-5.19v17.61a1.5 1.5 0 0 1 0 .3l5.21.08a1.37 1.37 0 0 1 0-.35z"/>
    <path class="cls-2" d="M184.52 174.15h5.18v11.35h-5.18z"/>
    <path class="cls-2" d="M184.52 188.5h5.18v17.64h-5.18z"/>
    <path class="cls-2" d="M427.1 174.15h22.67v11.35H427.1z"/>
    <path class="cls-2" d="M427.07 206.14a1.22 1.22 0 0 1 0 .27c8.2-.12 15.79-.24 22.7-.24V188.5H427.1z"/>
    <path class="cls-2" d="M452.77 188.5h5.18v17.62h-5.18z"/>
    <path class="cls-2" d="M419 206.11a1.81 1.81 0 0 1 0 .4l5.28-.09a1.61 1.61 0 0 1 0-.31V188.5H419z"/>
    <path class="cls-2" d="M418.91 174.15h5.19v11.35h-5.19z"/>
    <path class="cls-2" d="M335.93 174.15h-15.51v10.68a1.57 1.57 0 0 1-.16.67h15.79a1.43 1.43 0 0 1-.12-.58z"/>
    <path class="cls-2" d="M460.95 174.15h22.68v11.35h-22.68z"/>
    <path class="cls-2" d="M486.63 174.15h5.19v11.35h-5.19z"/>
    <path class="cls-2" d="M452.77 174.15h5.18v11.35h-5.18z"/>
    <path class="cls-2" d="M461 206.11h22.69V188.5H461z"/>
    <path class="cls-2" d="M486.63 206.2l5.19.05V188.5h-5.19v17.7z"/>
    <path class="cls-2" d="M320.22 123.75a1.65 1.65 0 0 1 .2.75v46.69h15.51v-44.92a1.48 1.48 0 0 1 .7-1.27 97.07 97.07 0 0 0-15.41-1.25z"/>
    <path class="cls-2" d="M357.42 185a1.4 1.4 0 0 1 0 .5h15.51v-11.35h-15.51z"/>
    <path class="cls-2" d="M354.42 174.15h-15.49v10.77a1.74 1.74 0 0 1-.11.55h15.68a1.26 1.26 0 0 1-.08-.47z"/>
    <path class="cls-2" d="M338.93 171.15h15.49v-41.57a98.31 98.31 0 0 0-15.8-4.26 1.49 1.49 0 0 1 .31.91z"/>
    <path class="cls-2" d="M357.42 171.15h15.51l.07-31.25a1.48 1.48 0 0 1 .43-1.05 100.18 100.18 0 0 0-16-8.12z"/>
    <path class="cls-2" d="M415.65 185.5h.26v-11.35h-5.46a102 102 0 0 1 5.2 11.35z"/>
    <path class="cls-2" d="M376 171.12h15.48v-17.74A98.64 98.64 0 0 0 376 140.53z"/>
    <path class="cls-2" d="M394.44 174.12v11.38h17.95a99.47 99.47 0 0 0-5.4-11.38z"/>
    <path class="cls-2" d="M394.44 156.62v14.5h10.79a97.52 97.52 0 0 0-10.79-14.5z"/>
    <path class="cls-2" d="M375.96 185.5h15.48v-11.38h-15.51l.03 11.38z"/>
    <path class="cls-1" d="M2839.08 206.34H494.82v-33.69a1.5 1.5 0 0 0-1.5-1.5 1.31 1.31 0 0 0-.28 0 1.31 1.31 0 0 0-.28 0h-84a101.2 101.2 0 0 0-175.09 0H150a1.55 1.55 0 0 0-.43.07 1.61 1.61 0 0 0-.43-.07 1.5 1.5 0 0 0-1.5 1.5v33.49a.49.49 0 0 0 0 .17H0v3h142.12c22-.15 68.41-.2 107.62.66a1.5 1.5 0 0 0 0-3c-8.17-.21-16-.31-23.32-.44a2 2 0 0 0 .07-.43v-17.6h189.42v17.64a1.38 1.38 0 0 0 .08.45c-7.15.13-14.7.21-22.59.41a1.5 1.5 0 0 0 0 3c52-1.32 115.07-.83 133.83-.66h2311.85zM150.66 174.15h5.18v11.35h-5.18zm5.23 32v.06l-5.21.06v-.12h.05V188.5h5.18zm25.63 0c-9.38 0-17 0-22.68.07V188.5h22.63zm0-20.61h-22.68v-11.39h22.68zm8.18 20.64h-5.18V188.5h5.18zm0-20.64h-5.18v-11.39h5.18zm25.72 20.64a1.13 1.13 0 0 0 0 .26c-8.21-.12-15.8-.19-22.7-.24v-17.7h22.72zm0-20.64H192.7v-11.39h22.72zm3 20.91a1.5 1.5 0 0 0 0-.3V188.5h5.19v17.64a1.37 1.37 0 0 0 0 .35zm5.22-20.91h-5.19v-11.39h5.19zm2.95 0v-11.39H232a102.84 102.84 0 0 0-5.2 11.35zm3.49 0a98 98 0 0 1 5.37-11.35h7.91v11.35zm13.31-14.31h-6.15a96.57 96.57 0 0 1 6.15-9zm18.52 14.31h-15.55v-11.39h15.52zm0-41.63v27.32h-15.55v-12.76a99.15 99.15 0 0 1 15.52-14.64zm18.54 41.28a1.61 1.61 0 0 0 0 .31h-15.57v-11.35h15.54zm0-14h-15.57v-29.28a1 1 0 0 0 0-.25 99 99 0 0 1 15.54-8.93zM299 126.37v44.82h-15.58v-39.26a1.56 1.56 0 0 0-.08-.48 97.83 97.83 0 0 1 15.6-5.12zm-15.64 59.13a1.55 1.55 0 0 0 .06-.31v-11h15.52v10.72a1.38 1.38 0 0 0 .14.63zm18.4 0a1.71 1.71 0 0 0 .15-.63v-10.72h15.51v10.68a1.45 1.45 0 0 0 .17.67zm15.67-61v46.65h-15.52v-45.46a96.31 96.31 0 0 1 15.7-1.89 1.46 1.46 0 0 0-.18.7zm2.83 61a1.57 1.57 0 0 0 .16-.67v-10.68h15.51v10.77a1.43 1.43 0 0 0 .12.58zm15.67-59.23v44.92h-15.51V124.5a1.65 1.65 0 0 0-.2-.75h1a97.07 97.07 0 0 1 15.41 1.25 1.48 1.48 0 0 0-.7 1.27zm18.49 3.31v41.57h-15.49v-44.92a1.49 1.49 0 0 0-.31-.91 98.31 98.31 0 0 1 15.8 4.26zm-15.6 55.89a1.74 1.74 0 0 0 .11-.55v-10.77h15.49V185a1.26 1.26 0 0 0 .08.47zm34.11 0h-15.51a1.4 1.4 0 0 0 0-.5v-10.82h15.51zm.06-45.6l-.06 31.25h-15.51v-40.39a100.18 100.18 0 0 1 16 8.12 1.48 1.48 0 0 0-.42 1.05zm18.45 45.6H376v-11.38h15.51zm0-14.38H376v-30.56a98.64 98.64 0 0 1 15.48 12.85zm3-14.5a97.52 97.52 0 0 1 10.79 14.53h-10.79zm0 28.88v-11.38H407a99.47 99.47 0 0 1 5.4 11.38zm21.44 0h-.26a102 102 0 0 0-5.2-11.35h5.46zm45-11.35h22.68v11.38H461zm-42 0h5.19v11.38h-5.19zm5.24 32a1.61 1.61 0 0 0 0 .31l-5.28.09a1.81 1.81 0 0 0 0-.4V188.5h5.19zm25.62 0c-6.91 0-14.5.12-22.7.24a1.22 1.22 0 0 0 0-.27v-17.64h22.67zm0-20.67H427.1v-11.3h22.67zm8.26 20.67h-5.18V188.5H458zm0-20.62h-5.18v-11.35H458zm25.69 20.67c-5.75 0-13.38-.08-22.69 0V188.5h22.68zm8.18.08l-5.19-.05v-17.7h5.19zm0-20.75h-5.19v-11.35h5.19z"/>
    <path class="cls-1" d="M1503.94 60.4h77.16l-.21-1.69a17.26 17.26 0 0 0-17-15.11 23 23 0 0 0-34.89-7.32 17.09 17.09 0 0 0-8.86-2.5 23.06 23.06 0 0 0-41 .07 17.22 17.22 0 0 0-18.73 15l-.21 1.69h47.29a17.17 17.17 0 0 0-3.28 8.14zm39.45-26.23a20.15 20.15 0 0 1 18.19 11.59l.42.92h1.78a14.25 14.25 0 0 1 13.81 10.8h-70.13a14.07 14.07 0 0 1 4-6.83h25.91l-.21-1.69a17.13 17.13 0 0 0-5.7-10.83 20 20 0 0 1 11.93-4zm-79.74 13.4a14.29 14.29 0 0 1 16.1-10.57l1.13.18.47-1a20.06 20.06 0 0 1 36.45-.18l.42.92h1.78a15.9 15.9 0 0 1 9.14 3.34 13.24 13.24 0 0 1 4.67 7.45z"/>
    <path class="cls-1" d="M713.24 50.42h77.16l-.21-1.69a17.27 17.27 0 0 0-17-15.11 23 23 0 0 0-31-9.89 23.72 23.72 0 0 0-3.93 2.57 17.19 17.19 0 0 0-8.86-2.5 23.07 23.07 0 0 0-41 .07 17.23 17.23 0 0 0-18.73 15l-.21 1.69h47.29a17.21 17.21 0 0 0-3.28 8.14zm39.45-26.23a20.17 20.17 0 0 1 18.19 11.59l.42.92h1.78a14.27 14.27 0 0 1 13.81 10.8h-70.13a14.15 14.15 0 0 1 4-6.83h25.91l-.21-1.67a17.15 17.15 0 0 0-5.7-10.83 20.1 20.1 0 0 1 11.93-4zM673 37.59A14.29 14.29 0 0 1 689.05 27l1.13.18.47-1A20.07 20.07 0 0 1 727.1 26l.42.92h1.78a16 16 0 0 1 9.14 3.34 13.19 13.19 0 0 1 4.67 7.45z"/>
    <path class="cls-1" d="M204.33 61.57h77.16l-.21-1.69a17.26 17.26 0 0 0-17-15.11 23 23 0 0 0-31-9.89 22.71 22.71 0 0 0-3.93 2.57A17.12 17.12 0 0 0 220.5 35a23.06 23.06 0 0 0-41 .07 17.22 17.22 0 0 0-18.73 15l-.21 1.69h47.29a17 17 0 0 0-3.28 8.14zm39.45-26.23A20.18 20.18 0 0 1 262 46.93l.42.92h1.78a14.27 14.27 0 0 1 13.8 10.8h-70.15a14.07 14.07 0 0 1 4-6.83h25.91l-.21-1.69a17.22 17.22 0 0 0-5.7-10.83 19.94 19.94 0 0 1 11.93-4zM164 48.74a14.29 14.29 0 0 1 16.1-10.61l1.13.18.47-1a20.06 20.06 0 0 1 36.45-.17l.42.92h1.78a15.92 15.92 0 0 1 9.14 3.34 13.24 13.24 0 0 1 4.67 7.45z"/>
    <path class="cls-1" d="M1949.91 47.64h77.16l-.21-1.69a17.28 17.28 0 0 0-17-15.11 23 23 0 0 0-31-9.89 23.31 23.31 0 0 0-3.93 2.57 17.21 17.21 0 0 0-8.86-2.5 23.07 23.07 0 0 0-41 .07 17.23 17.23 0 0 0-18.73 15l-.21 1.69h47.29a17 17 0 0 0-3.28 8.14zm39.45-26.23A20.19 20.19 0 0 1 2007.55 33l.42.92h1.78a14.29 14.29 0 0 1 13.81 10.8h-70.13a14.07 14.07 0 0 1 4-6.83h25.91l-.21-1.69a17.25 17.25 0 0 0-5.7-10.83 20.08 20.08 0 0 1 11.93-4zm-79.74 13.4a14.29 14.29 0 0 1 16.1-10.61l1.13.18.47-1a20.07 20.07 0 0 1 36.45-.17l.42.92h1.81a16 16 0 0 1 9.14 3.34 13.24 13.24 0 0 1 4.67 7.45z"/>
    <path class="cls-1" d="M1402.86 70.64A16.14 16.14 0 0 0 1387 56.5a21.55 21.55 0 0 0-38.22.07 16.13 16.13 0 0 0-17.47 14.07l-.21 1.68h72zm-68.27-1.35a13.15 13.15 0 0 1 14.83-9.62l1.13.18.47-1a18.55 18.55 0 0 1 33.7-.16l.43.92h1.72a13.16 13.16 0 0 1 12.7 9.82z"/>
    <path class="cls-1" d="M1307.72 92.79a19.55 19.55 0 0 0-34.59 0h-1.23a14.65 14.65 0 0 0-14.55 12.87l-.21 1.68h65.14l-.2-1.68a14.7 14.7 0 0 0-14.36-12.87zm-47.06 11.55a11.66 11.66 0 0 1 11.24-8.55 11.91 11.91 0 0 1 1.88.15l1.12.18.48-1a16.55 16.55 0 0 1 30.07-.13l.42.92 1-.06h.63a11.67 11.67 0 0 1 11.24 8.55z"/>
    <path class="cls-1" d="M81.21 26a16.14 16.14 0 0 0-15.88-14.12 21.55 21.55 0 0 0-38.22.12A16.13 16.13 0 0 0 9.64 26l-.21 1.7h72zm-68.27-1.33a13.16 13.16 0 0 1 14.83-9.62l1.13.18.47-1a18.55 18.55 0 0 1 33.7-.16l.43.92 1-.05h.72a13.15 13.15 0 0 1 12.7 9.82z"/>
    <path class="cls-1" d="M1426.92 146.78l-5.2-5.86 33.41-17.08-22.46-23.47-20.79 29.91-11.58-12.93-8.11 8.6L1378.32 94l-24.84 20.94 28 22.19-9.13 9.65v7l-28.17 6.35 15.93 28.32 12.24-10.58V209h54.59v-24.45l9.83 11.15 17.23-27.57-27-10.13zm-4.44 1.72v7.88l-7.29-2.72a13.35 13.35 0 0 0-.26-9.28l2.7-1.37zm10.74-41.13l14.58 15.23-39 20zM1400 154l4.34 4.93a12.44 12.44 0 0 1-9.6-.39zm-11.45-3.85v-.73a9.42 9.42 0 0 1 1.7-5.36l3.4 2.7 1.66 1.87zm12.39-4.05l-3-6.8a13.38 13.38 0 0 1 2-.17 12.51 12.51 0 0 1 5 1.07zm4.52 3.18l5.52-2.82a9.27 9.27 0 0 1 .51 3 9.66 9.66 0 0 1-.42 2.73l-6.24-2.33zm-5.21-25.36l9.06 10.14-1.69 2.44a16.47 16.47 0 0 0-11.43-1.35l-2-4.73zm-39.73-9.08l16.13-13.59 17.44 40.22zm16.28 33.73l8.18-8.66 1.75 1.39a13.45 13.45 0 0 0-2.54 9.83l-7.39 1.66zm-15.47 33L1351 163.18l42.77-9.63zm43.38 24h-9.79l.37-26.52a5 5 0 0 1 1-3.29h7.38c.31.14 1.08 1.35 1.08 3.31zm17.8 0h-13.36V179c0-4.41-2.32-7.73-5.4-7.73h-7.5c-3.08 0-5.4 3.32-5.4 7.7l-.37 26.55h-13.68V174l14.35-12.39a16.66 16.66 0 0 0 16.24.74l15.12 17.17zm13.65-17.25l-29-32.89 40.14 15z"/>
    <path class="cls-1" d="M1520.16 197.23l-6.62-11.34 3.64-2.79-5.07-8.72 2.75-2.89-11.86-15.94-11.9 15.94 2.75 2.89-5.08 8.72 3.65 2.79-6.62 11.34h15.67v10.25a1.51 1.51 0 0 0 3 0v-10.25zm-23.87-12.11l-3.65-2.79 4.88-8.39-2.55-2.69 8-10.68 8 10.68-2.55 2.69 4.87 8.39-3.64 2.79 5.31 9.11h-24z"/>
    <path class="cls-1" d="M1241.33 189.31a7.34 7.34 0 0 0-4.32 1.24 5.46 5.46 0 0 0-1.11 1.09v-4a6.66 6.66 0 0 0 6.23-7.06v-1.18l-1.12.06a7.8 7.8 0 0 0-4.82 2.17c-.09.11-.18.21-.26.32v-5.12a1.1 1.1 0 0 0-2.19 0V182a4 4 0 0 0-.26-.32 7.82 7.82 0 0 0-4.82-2.17l-1.13-.06v1.12a6.67 6.67 0 0 0 6.17 7.12h.06v4a6 6 0 0 0-1.1-1.09 7.59 7.59 0 0 0-4.33-1.24 6 6 0 0 0-.85 0l-1.1.13.15 1.1a7.36 7.36 0 0 0 2.58 4.52 7.58 7.58 0 0 0 4.34 1.25h.31V205a1.09 1.09 0 0 0 1.2 1 1.11 1.11 0 0 0 1-1v-8.65h.31a7.6 7.6 0 0 0 4.34-1.25 7.36 7.36 0 0 0 2.58-4.52l.15-1.1-1.1-.13a6.78 6.78 0 0 0-.91-.04zm-3.56-6.24a4.61 4.61 0 0 1 2-1.2 4.08 4.08 0 0 1-3 3.31 4.54 4.54 0 0 1 1-2.11zm-6.94.91a4.54 4.54 0 0 1-1-2.11 4.08 4.08 0 0 1 3 3.31 4.57 4.57 0 0 1-2-1.18zm-.48 9.36a4.36 4.36 0 0 1-1.34-1.81 4.9 4.9 0 0 1 2.31.78 4.39 4.39 0 0 1 1.34 1.82 4.87 4.87 0 0 1-2.31-.79zm8.91 0a4.78 4.78 0 0 1-2.3.8 4.11 4.11 0 0 1 1.34-1.82 4.82 4.82 0 0 1 2.3-.78 4.18 4.18 0 0 1-1.34 1.79z"/>
    <path class="cls-1" d="M1260.2 189.31a7.54 7.54 0 0 0-4.33 1.24 5.73 5.73 0 0 0-1.11 1.09v-4a6.66 6.66 0 0 0 6.24-7v-1.24l-1.12.06a7.8 7.8 0 0 0-4.82 2.17l-.27.32v-5.12a1.09 1.09 0 0 0-2.18 0V182c-.08-.11-.17-.21-.26-.32a7.82 7.82 0 0 0-4.82-2.17l-1.12-.06v1.12a6.68 6.68 0 0 0 6.24 7.14v4a5.73 5.73 0 0 0-1.11-1.09 7.53 7.53 0 0 0-4.32-1.24 6 6 0 0 0-.85 0l-1.1.13.15 1.1a7.31 7.31 0 0 0 2.58 4.52 7.55 7.55 0 0 0 4.33 1.25h.32V205a1.09 1.09 0 1 0 2.18 0v-8.65h.32a7.6 7.6 0 0 0 4.34-1.25 7.41 7.41 0 0 0 2.58-4.52l.15-1.1-1.1-.13a7.16 7.16 0 0 0-.92-.04zm-3.56-6.24a4.61 4.61 0 0 1 2-1.2 4.08 4.08 0 0 1-3 3.31 4.54 4.54 0 0 1 1-2.11zm-6.94.91a4.4 4.4 0 0 1-1-2.11 4 4 0 0 1 3 3.31 4.57 4.57 0 0 1-2-1.18zm-.48 9.36a4.22 4.22 0 0 1-1.34-1.81 4.86 4.86 0 0 1 2.3.78 4.19 4.19 0 0 1 1.34 1.82 5 5 0 0 1-2.3-.79zm8.91 0a4.78 4.78 0 0 1-2.3.8 4.17 4.17 0 0 1 1.33-1.82 4.82 4.82 0 0 1 2.3-.78 4.24 4.24 0 0 1-1.33 1.79z"/>
    <path class="cls-1" d="M1279.07 189.31a7.54 7.54 0 0 0-4.33 1.24 5.73 5.73 0 0 0-1.11 1.09v-4a6.66 6.66 0 0 0 6.24-7v-1.24l-1.12.06a7.8 7.8 0 0 0-4.82 2.17 2.69 2.69 0 0 0-.27.32v-5.12a1.09 1.09 0 1 0-2.18 0V182l-.27-.32a7.82 7.82 0 0 0-4.81-2.17l-1.13-.06v1.12a6.68 6.68 0 0 0 6.21 7.12v4a6 6 0 0 0-1.11-1.09 7.59 7.59 0 0 0-4.33-1.24 5.89 5.89 0 0 0-.84 0l-1.1.13.15 1.1a7.3 7.3 0 0 0 2.57 4.52 7.58 7.58 0 0 0 4.34 1.25h.32V205a1.09 1.09 0 1 0 2.18 0v-8.65h.32a7.6 7.6 0 0 0 4.34-1.25 7.35 7.35 0 0 0 2.57-4.52l.15-1.1-1.09-.13a7 7 0 0 0-.88-.04zm-3.56-6.24a4.52 4.52 0 0 1 2-1.2 4 4 0 0 1-3 3.31 4.54 4.54 0 0 1 1-2.11zm-6.94.91a4.4 4.4 0 0 1-1-2.11 4 4 0 0 1 3 3.31 4.48 4.48 0 0 1-2-1.18zm-.48 9.36a4.14 4.14 0 0 1-1.34-1.81 4.86 4.86 0 0 1 2.3.78 4.39 4.39 0 0 1 1.34 1.82 5 5 0 0 1-2.3-.79zm8.91 0a4.92 4.92 0 0 1-2.31.8 4.31 4.31 0 0 1 1.34-1.82 4.82 4.82 0 0 1 2.3-.78 4.24 4.24 0 0 1-1.33 1.79z"/>
    <path class="cls-1" d="M1299.13 189.35a6 6 0 0 0-.85 0 7.39 7.39 0 0 0-4.33 1.24 5.73 5.73 0 0 0-1.11 1.09v-4a7.67 7.67 0 0 0 4.49-2.14 7.83 7.83 0 0 0 1.75-5v-1.12l-1.13.06a7.77 7.77 0 0 0-4.81 2.17l-.27.32v-5.12a1.09 1.09 0 1 0-2.18 0V182l-.27-.32a7.82 7.82 0 0 0-4.81-2.17l-1.13-.06v1.12a7.78 7.78 0 0 0 1.75 5 7.67 7.67 0 0 0 4.49 2.14v4a6 6 0 0 0-1.11-1.09 7.59 7.59 0 0 0-4.33-1.24 6 6 0 0 0-.85 0l-1.09.13.15 1.1a7.25 7.25 0 0 0 2.57 4.52 7.58 7.58 0 0 0 4.34 1.25h.32V205a1.09 1.09 0 1 0 2.18 0v-8.65h.32a7.6 7.6 0 0 0 4.34-1.25 7.35 7.35 0 0 0 2.57-4.52l.15-1.1zm-4.41-6.28a4.52 4.52 0 0 1 2-1.2 4 4 0 0 1-3 3.31 4.4 4.4 0 0 1 1-2.11zm-7 .91a4.54 4.54 0 0 1-1-2.11 4 4 0 0 1 3 3.31 4.56 4.56 0 0 1-2-1.18zm-.48 9.35a4.17 4.17 0 0 1-1.33-1.8 4.86 4.86 0 0 1 2.3.78 4.27 4.27 0 0 1 1.34 1.82 4.81 4.81 0 0 1-2.26-.8zm8.92 0a4.92 4.92 0 0 1-2.31.8 4.31 4.31 0 0 1 1.34-1.82 4.82 4.82 0 0 1 2.3-.78 4.2 4.2 0 0 1-1.28 1.8z"/>
    <path class="cls-1" d="M1169.84 159a1.51 1.51 0 0 0-1.4-1h-11.15a1.5 1.5 0 0 0-1.5 1.5v17.88a1.5 1.5 0 0 0 1.5 1.5h18.13a1.5 1.5 0 0 0 1.5-1.5 1.54 1.54 0 0 0-.21-.75zm-11 17v-14.92h8.63l5.74 14.88z"/>
    <path class="cls-1" d="M1227 196.83a1.52 1.52 0 0 0-.7-1.61c-.55-.32-5.35-3.09-7.4-3.56a5.39 5.39 0 0 1-4.5-4.5c-.29-1.57-2.11-4.89-2.8-6.13v-9.61a1.5 1.5 0 0 0-3 0v9.3h-1.76a12 12 0 0 0-11.46-8.51h-14.82l-5.79-17.21a.14.14 0 0 0-.07-.14.54.54 0 0 0-.07-.13 1 1 0 0 0-.08-.11l-.1-.12-.09-.09-.13-.1-.1-.07-.15-.07h-.11l-.16-.05h-20.3a1.45 1.45 0 0 0-1.35.91v.07a.76.76 0 0 0-.06.2.38.38 0 0 0 0 .15.29.29 0 0 0 0 .13l-.88 30.74a12.11 12.11 0 1 0 21.11 9H1186a9.12 9.12 0 0 0 17.6 4.79 9.26 9.26 0 0 0 0-4.79h2.3a1.5 1.5 0 0 0 1.5-1.5v-.12a2 2 0 0 0 .07-.43V187h1.22v4.45a7.17 7.17 0 0 0 7.14 7.19h9.8a1.5 1.5 0 0 0 1.5-1.5 1.23 1.23 0 0 0-.13-.31zm-66.87 6.56a9.17 9.17 0 1 1 9.08-9.26v.09a9.14 9.14 0 0 1-9.08 9.17zm34.59.3a6.18 6.18 0 1 1 6.12-6.24v.06a6.16 6.16 0 0 1-6.14 6.18zm0-15.36a9.1 9.1 0 0 0-7.41 3.85H1172a12.12 12.12 0 0 0-11.89-10.11 11.92 11.92 0 0 0-6 1.62l.76-26.67h17.4l5.77 17.19a1.3 1.3 0 0 0 .19.37l.06.06a1.07 1.07 0 0 0 .26.26 1.22 1.22 0 0 0 .36.18h.09a1.4 1.4 0 0 0 .41.06h15.9a9.06 9.06 0 0 1 9 9.08v7.87h-2.27a9.11 9.11 0 0 0-7.34-3.76zm12.65-4.31v-.3h1.25v.3zm4.23 7.45v-3.17a8.34 8.34 0 0 0 6.63 6.28 15.1 15.1 0 0 1 2.56 1.08h-5a4.17 4.17 0 0 1-4.19-4.15z"/>
    <path class="cls-1" d="M1894.55 100.33a1.41 1.41 0 0 0 1-2.43 1.56 1.56 0 0 0-.48-.65l-19.28-14.59V69.07h18.81a1.4 1.4 0 0 0 1.4-1.4 1.41 1.41 0 0 0-.66-1.19 1.54 1.54 0 0 0-.46-.55l-22.05-15.19-.25-.2-.23-.11h-11.29a7.75 7.75 0 0 0-1.17.31L1838.13 66a1.58 1.58 0 0 0-.36.37 1.4 1.4 0 0 0 .58 2.68h18.77v13.81L1838 97.38a1.13 1.13 0 0 0-.33.36 1.41 1.41 0 0 0-.46 1.93 1.44 1.44 0 0 0 1.21.66h18.75v13.8l-19.17 14.5a1.12 1.12 0 0 0-.34.38 1.4 1.4 0 0 0 .74 2.59h18.6l-11.67 58.5-3.37 16.9a1.41 1.41 0 0 0 1.11 1.65h.27a1.4 1.4 0 0 0 1.38-1.13v-.05a2 2 0 0 0 .32-.18l19.23-15.48h4.07l19.51 15.52a1.09 1.09 0 0 0 .32.17 1.39 1.39 0 0 0 1.37 1.13h.28a1.41 1.41 0 0 0 1.1-1.65l-15-75.35h18.66a1.4 1.4 0 0 0 1-2.41 1.51 1.51 0 0 0-.47-.62l-19.3-14.37v-13.9zm-18.8-14.15l15 11.34h-15zm14.61-19.94h-15l-1.7-11.51zm-15.23 75.91l-6.39-4.8 4.74-3.51zm-4.5-73.1l-4.14 4.14-4-4.14zm-8.58-2.81l4.32-4.89 4.27 4.89zm9.95 16.64l-5.73 5.89-5.67-5.7 5.89-5.88zm1 3v9.61l-4.74-4.76zm-6.7 6.87l4.72 4.74h-9.33zm6.7 8.78v9.63l-4.8-4.73zm-2.73-1.23l-4.07 4.16-4.2-4.16zm-4 8.14l5.76 5.69-5.61 5.68-5.45-5.52a1.38 1.38 0 0 0-.25-.17zm6.76 8.69v9.38l-4.64-4.69zm-1.73 11.63h-9.85l4.89-4.95zm.16 3.1l-5 3.71-4.94-3.71zm1.08 11.77h-12.24l6.14-4.56zm1.11 2.81l-7.23 8.19-7.23-8.19zm-.65-75.75v9.12l-4.58-4.61zm-.84-7.07l-3.87-4.43 2.76-3.12zm-2.22-10.55l-3.51 4-3.47-4zm-8 3l2.67 3.06-3.8 4.31zm-1.94 14.3l4.58 4.73-4.58 4.57zm0 16l4.36 4.38-4.36 4.48zm0 15.9l4.26 4.2-4.26 4.37zm0 15l4.44 4.5-4.44 4.5zm4.12 20l-6.28 4.67 1.62-8.16zm-21.4-71.1l16.62-11.8-1.8 11.8zm-.32 31.35l14.71-11.14v11.14zm0 31.27l14.72-11.14v11.14zm14.2 19.06l7.88 8.93-1.75 2h-8.33zm12.11 13.72l10.84 12.3h-26.4l10.85-12.3zm-14.84 0h6.38l-8.25 9.36zm-8.31 41.69l2.28-11.46h12zm17.71-14.26h-14.85l2.25-11.28a.8.8 0 0 0 .13.13l13.26 10.54zm3-2.41l-12.43-9.89h24.71zm21.06 16.74l-14.49-11.52H1885zm-5.18-26l2.32 11.63h-15.16l-.79-.62 13.48-10.81a1.12 1.12 0 0 0 .2-.18zm-3.15-15.81l1.92 9.66-8.48-9.63h6.24a1.74 1.74 0 0 0 .32 0zm-2.76-13.85l2.21 11.08H1870l-1.75-2zm14.4-18.9h-14.89V117.7z"/>
    <path class="cls-2" d="M622.69 166.24l6.83-5.24-9.23-15.86 4.88-5.14-16.75-22.41-16.7 22.41 4.88 5.1-3.87 6.66 3.18 4.25-3.55 3.72 6.56 11.28-4.73 3.61 5.66 9.71h33.39l-10.55-18.09z"/>
    <path class="cls-2" d="M594.98 170.27l-6.36-10.94 3.35-3.51-10.95-14.64-10.95 14.64 3.35 3.51-6.34 10.94 4.74 3.62-7.1 12.11h32.63l-7.11-12.11 4.74-3.62z"/>
    <path class="cls-1" d="M626.61 167l6.84-5.24-9.45-16.24 5.08-5.34-20.67-27.6-20.61 27.62 5.07 5.34-2.1 3.6-9.73-13L566.16 156l3.55 3.72-6.55 11.28 4.73 3.61-8.4 14.39h20v18.58a1.5 1.5 0 1 0 3 0V189h20l-1-1.66h5.33v20.28a1.5 1.5 0 0 0 3 0v-20.28h28.48zm-61.89 19l7.1-12.11-4.74-3.62 6.34-10.94-3.35-3.51L581 141.18l11 14.64-3.35 3.51 6.35 10.94-4.74 3.62 7.09 12.11zm35.13-1.67l-5.66-9.71 4.73-3.61-6.56-11.28 3.55-3.72-3.18-4.25 3.87-6.66-4.88-5.1 16.7-22.41L625.17 140l-4.88 5.14 9.23 15.86-6.83 5.24 10.55 18.09z"/>
    <path class="cls-2" d="M727.63 170.49v-13.44h-4.91a.33.33 0 0 0 0 .14v13.16a.33.33 0 0 0 0 .14z"/>
    <path class="cls-2" d="M722.66 200.35a3 3 0 0 1-2.94-3.15v-13.15a3 3 0 0 1 2.94-3.15h5v-7.41h-5a3 3 0 0 1-2.94-3.14v-13.16a3 3 0 0 1 2.94-3.14h5v-6.8l10.21-9.37L703 115.79l-33.72 32.72v57.62h58.4v-5.78z"/>
    <path class="cls-2" d="M727.63 197.35V183.9h-4.91a.38.38 0 0 0 0 .15v13.15a.38.38 0 0 0 0 .15z"/>
    <path class="cls-2" d="M762 175.68h-7.92c-.65 0-1.86 1.64-1.86 4.32v25.88h11.64V180c-.01-2.68-1.22-4.32-1.86-4.32z"/>
    <path class="cls-2" d="M730.64 148.53v57.59h18.58V180c0-4.1 2.14-7.32 4.86-7.32H762c2.72 0 4.86 3.22 4.86 7.32v26.16h17.86l.06-57.65-26.36-25.44z"/>
    <path class="cls-1" d="M758.42 119l-18.28 16.77L702.55 112l-36.32 35.25v61.88H787.72v-61.89zm-89.19 87.13v-57.62L703 115.79l34.89 22.09-10.21 9.37v6.8h-5a3 3 0 0 0-2.94 3.14v13.16a3 3 0 0 0 2.94 3.14h5v7.41h-5a3 3 0 0 0-2.94 3.15v13.15a3 3 0 0 0 2.94 3.15h5v5.78zm53.49-48.94a.33.33 0 0 1 0-.14h4.91v13.44h-4.88a.33.33 0 0 1 0-.14zm0 26.86a.38.38 0 0 1 0-.15h4.91v13.45h-4.88a.38.38 0 0 1 0-.15zm41.13 21.79h-11.64V180c0-2.68 1.21-4.32 1.86-4.32H762c.65 0 1.86 1.64 1.86 4.32zm20.87.32h-17.86V180c0-4.1-2.14-7.32-4.86-7.32h-7.92c-2.72 0-4.86 3.22-4.86 7.32v26.12h-18.58v-57.59l27.78-25.46 26.36 25.44z"/>
    <path class="cls-2" d="M941.87 195.14l-.12-.84c-.44-2.74-3.58-4.81-7-4.81s-6.33 1.9-6.93 4.52l-.34 1.51-1.51-.39a8.74 8.74 0 0 0-2.27-.3c-3.84 0-7 2.45-7 5.46s3.13 5.46 7 5.46h15.72c3.83 0 7-2.45 7-5.46 0-2-1.44-3.83-3.76-4.83z"/>
    <path class="cls-2" d="M930.76 164c0 9 4 15.6 9.59 16.18v-5.82l-6-11.71a1.5 1.5 0 0 1 2.67-1.37l3.34 6.52v-16.43a1.5 1.5 0 1 1 3 0v16.17l3.21-6.27a1.49 1.49 0 0 1 2-.65 1.51 1.51 0 0 1 .65 2l-5.9 11.5v5.76c5.4-1.44 9.5-8.09 9.5-15.91s-8.26-17.97-11.32-21.53c-2.92 3.56-10.74 13.75-10.74 21.56z"/>
    <path class="cls-2" d="M966.73 128.34c-3.3 3.95-13 16.35-13.45 26.13a23 23 0 0 1 2.55 9.53 24.44 24.44 0 0 1-.22 3.23c2.2 4.84 5.78 7.91 10.1 8.17v-7.48l-7.42-14.49a1.5 1.5 0 0 1 2.67-1.36l4.75 9.27v-21.55a1.5 1.5 0 1 1 3 0v21.13l4.53-8.85a1.5 1.5 0 0 1 2.67 1.36l-7.2 14.07v7.64c6.93-1.59 12.23-10 12.23-19.9s-10.68-22.9-14.21-26.9z"/>
    <path class="cls-1" d="M967.78 125l-1.11-1.19-1.09 1.22c-.55.6-11.8 13.24-14.66 25.07a73.55 73.55 0 0 0-8.37-11l-1.13-1.21-1.08 1.21c-.52.57-12.6 14.14-12.6 24.84s5.25 18.64 12.58 19.18v4.73a11.43 11.43 0 0 0-5.57-1.42c-4.23 0-7.93 2.22-9.39 5.46a11.59 11.59 0 0 0-1.66-.12c-5.53 0-10 3.79-10 8.46s4.5 8.46 10 8.46h15.72c5.53 0 10-3.79 10-8.46a8.23 8.23 0 0 0-4.9-7.26 7.65 7.65 0 0 0-1.2-2.49V183c5.1-1 9.31-5.41 11.29-11.37 2.74 4.11 6.6 6.62 11.1 6.82v28.92a1.5 1.5 0 0 0 3 0v-29.15c8.59-1.56 15.23-11.22 15.23-23 0-12.98-15.5-29.49-16.16-30.22zm-21.36 75.25c0 3-3.17 5.46-7 5.46H923.7c-3.87 0-7-2.45-7-5.46s3.16-5.46 7-5.46a8.74 8.74 0 0 1 2.27.3l1.51.39.34-1.51c.6-2.62 3.51-4.52 6.93-4.52s6.56 2.07 7 4.81l.12.84.79.32c2.34 1.04 3.76 2.85 3.76 4.87zm-3.08-20.38v-5.76l5.9-11.5a1.51 1.51 0 0 0-.65-2 1.49 1.49 0 0 0-2 .65l-3.21 6.27v-16.15a1.5 1.5 0 1 0-3 0v16.42l-3.38-6.52a1.5 1.5 0 0 0-2.67 1.37l6 11.71v5.82c-5.6-.58-9.59-7.2-9.59-16.18 0-7.81 7.82-18 10.74-21.56 3.06 3.51 11.34 13.74 11.34 21.56s-4.08 14.47-9.48 15.91zm25.37-4.77v-7.6l7.2-14.07a1.5 1.5 0 0 0-2.67-1.36l-4.53 8.85v-21.13a1.5 1.5 0 1 0-3 0v21.55l-4.71-9.27a1.5 1.5 0 0 0-2.67 1.36l7.42 14.49v7.48c-4.32-.26-7.9-3.33-10.1-8.17a24.44 24.44 0 0 0 .22-3.23 23 23 0 0 0-2.55-9.53c.5-9.78 10.15-22.18 13.45-26.13 3.53 4 14.21 17 14.21 26.9s-5.34 18.31-12.27 19.9z"/>
    <path class="cls-2" d="M1579.67 165.88l6.84-5.24-9.24-15.9 4.88-5.14-16.73-22.37-16.69 22.39 4.88 5.14-3.86 6.63 3.22 4.3-3.55 3.72 6.51 11.27-4.73 3.62 5.64 9.68h33.38l-10.55-18.1z"/>
    <path class="cls-2" d="M1552.03 169.93l-6.36-10.93 3.35-3.52-10.95-14.63-11 14.63 3.35 3.52-6.33 10.9 4.74 3.62-7.08 12.19h32.64l-7.09-12.16 4.73-3.62z"/>
    <path class="cls-1" d="M1583.62 166.67l6.84-5.23-9.46-16.24 5.08-5.35-20.68-27.63-20.63 27.61 5.07 5.35-2.08 3.57-9.68-12.94-14.87 19.88 3.54 3.72-6.55 11.27 4.73 3.62-8.39 14.38h20v18.57a1.5 1.5 0 0 0 3 0v-18.57h20l-1-1.68h5.33v20.27a1.5 1.5 0 0 0 3 0V187h28.54zm-61.87 19l7.08-12.19-4.74-3.62 6.33-10.9-3.35-3.52 11-14.63 11 14.63-3.35 3.52 6.36 10.93-4.73 3.62 7.09 12.16zm35.09-1.73l-5.64-9.68 4.73-3.62-6.51-11.27 3.55-3.72-3.22-4.3 3.86-6.63-4.88-5.14 16.69-22.39 16.73 22.37-4.88 5.14 9.24 15.9-6.84 5.24 10.55 18.1z"/>
    <path class="cls-2" d="M1990.41 141a2.12 2.12 0 0 1 2.85.92l4.52 8.83V128a2.11 2.11 0 0 1 4.22 0v23.13l4.69-9.17a2.11 2.11 0 1 1 3.76 1.93l-8.45 16.4v8.19c7.87-.81 13.48-10.12 13.48-22.76 0-11-11-25.35-15.11-30.34-4.31 5-16 19.34-16 30.34s5.82 20.43 13.41 22.45V160l-8.29-16.18a2.11 2.11 0 0 1 .92-2.82z"/>
    <path class="cls-2" d="M1983.79 132.33c-.72-13.75-14.28-31.16-19-36.72-5 5.66-20 23.92-20 37.85s7.52 25.76 17.27 28v-10.74l-10.06-19.8a2.11 2.11 0 0 1 3.76-1.92l6.38 12.46v-29.74a2.11 2.11 0 0 1 4.22 0V142l6.68-13a2.11 2.11 0 1 1 3.76 1.92l-10.44 20.38v10.53c6.06-.36 11.11-4.67 14.2-11.47a34.88 34.88 0 0 1-.31-4.61c-.04-4.32 1.43-8.97 3.54-13.42z"/>
    <path class="cls-2" d="M2025.37 189.17a12.76 12.76 0 0 0-3.2.41l-2.11.56-.49-2.13c-.83-3.68-4.93-6.36-9.74-6.36-5 0-9.23 2.91-9.82 6.78l-.18 1.18-1.1.45c-3.27 1.35-5.3 3.95-5.3 6.79 0 4.24 4.49 7.69 10 7.69h21.95c5.45 0 9.89-3.45 9.89-7.69s-4.45-7.68-9.9-7.68z"/>
    <path class="cls-1" d="M2025.42 185a16.6 16.6 0 0 0-2.34.11c-2-4.55-7.26-7.68-13.2-7.68a16 16 0 0 0-7.83 2v-6.64c10.32-.77 17.7-11.9 17.7-27s-17-34.19-17.72-35l-1.53-1.7-1.57 1.66a104.28 104.28 0 0 0-11.8 15.51c-4-16.63-19.84-34.38-20.6-35.25L1965 89.3l-1.6 1.7c-.93 1-22.74 24.22-22.74 42.49 0 16.54 9.35 30.15 21.44 32.31v41a2.11 2.11 0 0 0 4.22 0v-40.72c6.32-.31 11.75-3.85 15.6-9.62 2.79 8.4 8.73 14.61 15.88 16l.06 10.61a10.85 10.85 0 0 0-1.73 3.53c-4.27 2.13-6.87 6-6.82 10.27 0 6.57 6.33 11.91 14.11 11.91h22c7.78 0 14.11-5.35 14.11-11.91S2033.2 185 2025.42 185zm-59.1-23.17V151.3l10.44-20.38A2.11 2.11 0 1 0 1973 129l-6.68 13v-30.28a2.11 2.11 0 0 0-4.22 0v29.74l-6.38-12.46a2.11 2.11 0 0 0-3.76 1.92l10.14 19.8v10.74c-9.75-2.24-17.27-14.07-17.27-28s15-32.19 20-37.85c4.68 5.56 18.24 23 19 36.72-2.11 4.45-3.58 9.1-3.58 13.42a34.88 34.88 0 0 0 .31 4.61c-3.13 6.8-8.18 11.11-14.24 11.47zm23.18-18l8.29 16.18v8.17c-7.59-2-13.41-11.45-13.41-22.45s11.69-25.34 16-30.34c4.11 5 15.11 19.34 15.11 30.34 0 12.64-5.61 21.95-13.48 22.76v-8.19l8.44-16.47a2.11 2.11 0 1 0-3.76-1.93l-4.69 9.17v-23.14a2.11 2.11 0 0 0-4.22 0v22.77l-4.52-8.83a2.11 2.11 0 1 0-3.76 1.93zm35.87 60.72h-21.95c-5.5 0-9.94-3.45-10-7.69 0-2.84 2-5.44 5.3-6.79l1.1-.45.18-1.18c.59-3.87 4.82-6.78 9.82-6.78 4.81 0 8.91 2.68 9.74 6.36l.49 2.13 2.11-.56a12.76 12.76 0 0 1 3.2-.41c5.45 0 9.89 3.44 9.89 7.68s-4.43 7.68-9.88 7.68z"/>
    <path class="cls-1" d="M1190.79 43a19.13 19.13 0 0 0-13.51 5.59 18.74 18.74 0 0 0-5.56 13.41 19.07 19.07 0 0 0 19.12 18.92h.05a19 19 0 1 0-.1-37.94zm.09 34.94v1.5-1.5A16.06 16.06 0 0 1 1174.72 62a15.78 15.78 0 0 1 4.68-11.3 16 16 0 1 1 11.48 27.23z"/>
    <path class="cls-1" d="M1190.37 38.31a1.5 1.5 0 0 0 1.5-1.5l-.06-20.73a1.5 1.5 0 0 0-1.5-1.5 1.5 1.5 0 0 0-1.5 1.5l.06 20.73a1.5 1.5 0 0 0 1.5 1.5z"/>
    <path class="cls-1" d="M1190.5 85.57a1.5 1.5 0 0 0-1.5 1.5l.06 20.74a1.5 1.5 0 0 0 1.5 1.5 1.51 1.51 0 0 0 1.5-1.51l-.06-20.74a1.5 1.5 0 0 0-1.5-1.49z"/>
    <path class="cls-1" d="M1171.41 45.28a1.5 1.5 0 1 0 2.11-2.13l-14.84-14.62a1.5 1.5 0 1 0-2.1 2.14z"/>
    <path class="cls-1" d="M1209.46 78.6a1.5 1.5 0 1 0-2.1 2.13l14.82 14.62a1.5 1.5 0 1 0 2.11-2.13z"/>
    <path class="cls-1" d="M1236.7 60.32l-20.92.06a1.5 1.5 0 0 0 0 3l20.92-.06a1.5 1.5 0 0 0 0-3z"/>
    <path class="cls-1" d="M1166.58 62a1.5 1.5 0 0 0-1.5-1.5l-20.92.05a1.51 1.51 0 0 0-1.49 1.51 1.49 1.49 0 0 0 1.5 1.49l20.92-.05a1.5 1.5 0 0 0 1.49-1.5z"/>
    <path class="cls-1" d="M1208.32 45.62a1.48 1.48 0 0 0 1-.43l14.75-14.7a1.5 1.5 0 1 0-2.11-2.12l-14.75 14.69a1.5 1.5 0 0 0 1.06 2.56z"/>
    <path class="cls-1" d="M1171.5 78.7l-14.76 14.69a1.5 1.5 0 1 0 2.12 2.13l14.75-14.7a1.5 1.5 0 1 0-2.11-2.12z"/>
    <path class="cls-2" d="M28.41 123.83l-.81-.83a13.1 13.1 0 0 1 9.09-22.41h1.35l.21-1.15c.44-2.46 6.11-4.27 13.46-4.27 9.25 0 19.19 2.9 19.19 7.23v1l-.07.91.9.38a11.53 11.53 0 0 1 5.78 15.09l-.58 1.32 1.34.5c6.75 2.49 11.13 8.14 11.26 14.39.19 8.89-8.16 16.3-18.58 16.52-2.39.07-7 .07-14 .07H42.77a18 18 0 0 1-18.13-17.82 17.53 17.53 0 0 1 3.11-10.08z"/>
    <path class="cls-2" d="M59.68 189.32v-1.43c0-2.6 2.41-4.71 5.35-4.71h3.56l.27-1c.87-3.13 4.55-5.42 8.75-5.42h4.22c4.24 0 7.86 2.25 8.76 5.42l.27 1h7c2.95 0 5.36 2.11 5.36 4.71v.17l-.1 1.2 1.15.3c4.85 1 8.23 4.49 8.23 8.37 0 4.8-5 8.7-11.2 8.7H61.64c-6.18 0-11.2-3.9-11.28-8.7 0-3.86 3.38-7.33 8.22-8.37z"/>
    <path class="cls-1" d="M21.08 113.66A15.76 15.76 0 0 1 36 97.88c2.2-5 12.51-5.42 15.79-5.42 10.85 0 21.9 3.41 21.9 9.94v.29a14.21 14.21 0 0 1 6.8 16.92c7 3.12 11.62 9.41 11.75 16.38.21 10.37-9.32 19-21.24 19.29-2.35 0-6.78.07-13.56.07v30.18a8 8 0 0 1 7.64-5.06h1.55c1.59-3.86 6-6.47 11-6.47h4.19c5.06 0 9.44 2.61 11 6.47h5a7.86 7.86 0 0 1 8 6.7c5.53 1.59 9.31 5.89 9.31 10.76 0 6.33-6.24 11.41-13.91 11.41H61.64c-7.67 0-13.91-5.12-13.91-11.41 0-4.15 2.75-7.89 7-9.88v-32.69h-12a20.72 20.72 0 0 1-20.85-20.54 20.18 20.18 0 0 1 3.07-10.73 15.72 15.72 0 0 1-3.87-10.43zm29.28 84.27c.08 4.8 5.1 8.7 11.28 8.7h39.67c6.17 0 11.2-3.9 11.2-8.7 0-3.88-3.38-7.33-8.23-8.37l-1.15-.3.1-1.2v-.17c0-2.6-2.41-4.71-5.36-4.71h-7l-.27-1c-.9-3.17-4.52-5.42-8.76-5.42h-4.23c-4.2 0-7.88 2.29-8.75 5.42l-.27 1H65c-2.94 0-5.35 2.11-5.35 4.71v1.43l-1.1.24c-4.81 1.04-8.19 4.51-8.19 8.37zm-25.72-63.12a18 18 0 0 0 18.13 17.82H57c7 0 11.61 0 14-.07 10.42-.22 18.77-7.63 18.58-16.52-.13-6.25-4.51-11.9-11.26-14.39l-1.34-.5.58-1.32a11.53 11.53 0 0 0-5.78-15.09l-.9-.38.07-.91v-1c0-4.33-9.94-7.23-19.19-7.23-7.35 0-13 1.81-13.46 4.27l-.3 1.16h-1.35A13.1 13.1 0 0 0 27.6 123l.81.81-.66.9a17.53 17.53 0 0 0-3.11 10.1z"/>
    <path class="cls-1" d="M2804.69 49a19.55 19.55 0 0 0-34.59 0h-1.23a14.66 14.66 0 0 0-14.55 12.87l-.21 1.68h65.14l-.2-1.68A14.7 14.7 0 0 0 2804.69 49zm-47.06 11.55a11.67 11.67 0 0 1 11.24-8.55 11.91 11.91 0 0 1 1.88.15l1.12.18.48-1a16.55 16.55 0 0 1 30.07-.13l.42.92 1-.06h.63a11.67 11.67 0 0 1 11.24 8.55z"/>
    <path class="cls-1" d="M32.61 193.77a8.61 8.61 0 0 0-8.47-6.49 8.83 8.83 0 0 0-3.05.56 15.18 15.18 0 0 0-6.15-6.15A15.31 15.31 0 0 0 0 169.56v3a12.24 12.24 0 0 1 12.09 10.31l.1.81.74.35a12.17 12.17 0 0 1 5.55 5.29 8.32 8.32 0 0 0-2.43 3.28 9.67 9.67 0 0 0-1.2-.08 8.51 8.51 0 0 0-8.68 8.32 8.08 8.08 0 0 0 2.14 5.46H0v3h7.28a16 16 0 0 0 4.62-.68 9 9 0 0 0 2.95.51H28a8.53 8.53 0 0 0 8.68-8.33 8.21 8.21 0 0 0-4.07-7.03zM28 206.17H14.85a5.34 5.34 0 1 1 0-10.65 6.07 6.07 0 0 1 1.79.27l1.59.5.32-1.64a5.61 5.61 0 0 1 5.59-4.37 5.57 5.57 0 0 1 5.64 4.72l.11.8.73.36a5.27 5.27 0 0 1 3.1 4.73 5.52 5.52 0 0 1-5.72 5.28z"/>
    <path class="cls-2" d="M2815.58 175.26l-6.14-10.54 3.19-3.39-10.07-13.44-10.06 13.44 3.22 3.39-6.14 10.54 4.59 3.52-6.68 11.46h18.36a15 15 0 0 1 6.93-8.4l-1.78-3.06z"/>
    <path class="cls-2" d="M2815.58 175.26l-6.14-10.54 3.19-3.39-10.07-13.44-10.06 13.44 3.22 3.39-6.14 10.54 4.59 3.52-6.68 11.46h18.36a15 15 0 0 1 6.93-8.4l-1.78-3.06z"/>
    <path class="cls-2" d="M2815.58 175.26l-6.14-10.54 3.19-3.39-10.07-13.44-10.06 13.44 3.22 3.39-6.14 10.54 4.59 3.52-6.68 11.46h18.36a15 15 0 0 1 6.93-8.4l-1.78-3.06z"/>
    <path class="cls-1" d="M2820.67 182.75a13.17 13.17 0 0 1 3.9.59l1.6.5.32-1.64a12.32 12.32 0 0 1 12.29-9.65h.3v-3h-.3a15.41 15.41 0 0 0-14.84 10.54 15.58 15.58 0 0 0-3.27-.34 15.76 15.76 0 0 0-4.43.63l1.06 1.82h-.2a10.1 10.1 0 0 0-3.7.7l-.62-1a15 15 0 0 0-6.93 8.4h1.15a10 10 0 0 0-.26 2.27 9.29 9.29 0 0 0 .12 1.5h-1.69v.54c0 8.15 7 14.79 15.49 14.79h18.41v-3h-18.41c-6.89 0-12.49-5.29-12.49-11.79s5.61-11.86 12.5-11.86z"/>
    <path class="cls-1" d="M2806.78 192.51a10 10 0 0 1 .26-2.27h-19.55l6.68-11.46-4.59-3.52 6.14-10.54-3.22-3.39 10.06-13.44 10.07 13.44-3.19 3.39 6.14 10.54-4.58 3.52 1.78 3.06.62 1a10.1 10.1 0 0 1 3.7-.7h.2l-1.06-1.82-.37-.63 4.58-3.51-6.38-11 3.46-3.64-15-20-15 20 3.46 3.64-6.38 11 4.59 3.51-8.28 14.31h19.72v12.88a1.9 1.9 0 0 0 3.77 0V194h2.49a9.29 9.29 0 0 1-.12-1.49z"/>
</svg>
